<svg width="355" height="92" viewBox="0 0 355 92" fill="none" xmlns="http://www.w3.org/2000/svg">
<g filter="url(#filter0_d_2154_9998)">
<mask id="path-1-inside-1_2154_9998" fill="white">
<path fill-rule="evenodd" clip-rule="evenodd" d="M176.73 76.6383C177.13 77.1205 177.87 77.1205 178.27 76.6383L187.921 64.9999L337 64.9999C341.418 64.9999 345 61.4182 345 56.9999L345 12.9999C345 8.58157 341.418 4.99986 337 4.99986L18 4.99988C13.5817 4.99988 9.99999 8.58161 9.99999 12.9999L10 56.9999C10 61.4182 13.5817 64.9999 18 64.9999L167.079 64.9999L176.73 76.6383Z"/>
</mask>
<path fill-rule="evenodd" clip-rule="evenodd" d="M176.73 76.6383C177.13 77.1205 177.87 77.1205 178.27 76.6383L187.921 64.9999L337 64.9999C341.418 64.9999 345 61.4182 345 56.9999L345 12.9999C345 8.58157 341.418 4.99986 337 4.99986L18 4.99988C13.5817 4.99988 9.99999 8.58161 9.99999 12.9999L10 56.9999C10 61.4182 13.5817 64.9999 18 64.9999L167.079 64.9999L176.73 76.6383Z" fill="#EEF9F7"/>
<path d="M178.27 76.6383L177.5 76L177.5 76L178.27 76.6383ZM176.73 76.6383L177.5 76L177.5 76L176.73 76.6383ZM187.921 64.9999L187.921 63.9999L187.452 63.9999L187.152 64.3615L187.921 64.9999ZM345 56.9999L344 56.9999L345 56.9999ZM345 12.9999L346 12.9999L345 12.9999ZM337 4.99986L337 3.99986L337 4.99986ZM18 4.99988L18 5.99988L18 4.99988ZM167.079 64.9999L167.848 64.3616L167.548 63.9999L167.079 63.9999L167.079 64.9999ZM177.5 76L177.5 76L175.96 77.2767C176.76 78.2411 178.24 78.2411 179.039 77.2767L177.5 76ZM187.152 64.3615L177.5 76L179.039 77.2767L188.691 65.6382L187.152 64.3615ZM337 63.9999L187.921 63.9999L187.921 65.9999L337 65.9999L337 63.9999ZM344 56.9999C344 60.8659 340.866 63.9999 337 63.9999L337 65.9999C341.971 65.9999 346 61.9704 346 56.9999L344 56.9999ZM344 12.9999L344 56.9999L346 56.9999L346 12.9999L344 12.9999ZM337 5.99986C340.866 5.99986 344 9.13386 344 12.9999L346 12.9999C346 8.02928 341.971 3.99986 337 3.99986L337 5.99986ZM18 5.99988L337 5.99986L337 3.99986L18 3.99988L18 5.99988ZM11 12.9999C11 9.13389 14.134 5.99988 18 5.99988L18 3.99988C13.0294 3.99988 8.99999 8.02933 8.99999 12.9999L11 12.9999ZM11 56.9999L11 12.9999L8.99999 12.9999L9 56.9999L11 56.9999ZM18 63.9999C14.134 63.9999 11 60.8659 11 56.9999L9 56.9999C9 61.9705 13.0294 65.9999 18 65.9999L18 63.9999ZM167.079 63.9999L18 63.9999L18 65.9999L167.079 65.9999L167.079 63.9999ZM177.5 76L167.848 64.3616L166.309 65.6382L175.96 77.2767L177.5 76Z" fill="#5AC4B1" fill-opacity="0.45" mask="url(#path-1-inside-1_2154_9998)"/>
<path d="M79.1281 29.5156H69.1438V30.9219H77.425C77.425 31.5312 77.4172 32.1875 77.3859 32.9219L68.7063 33.2344L68.9563 34.7188L77.2844 34.25C77.1984 35.1484 77.05 36.1562 76.8 37.2969L78.5031 37.4688C79.1438 34.4844 79.1203 32.5078 79.1281 30.7969V29.5156ZM67.6438 40.6562H80.5188V39.2188H74.1125V35.7344H72.3938V39.2188H67.6438V40.6562ZM89.4469 29.8438H86.4469V28.2812H84.6969V29.8438H81.6813V31.2188H84.6969C84.6891 32.9219 83.4859 34.5938 81.2438 35.25L82.0875 36.5938C83.775 36.1016 84.9781 35.0078 85.6109 33.625C86.275 34.8672 87.4703 35.8359 89.1188 36.2656L89.9313 34.9219C87.6734 34.3203 86.4391 32.7891 86.4313 31.2188H89.4469V29.8438ZM83.2281 39.7344C83.2281 41.4062 85.0641 42.375 88.0563 42.375C91.0328 42.375 92.8688 41.4062 92.8688 39.7344C92.8688 38.0625 91.0328 37.0859 88.0563 37.0938C85.0641 37.0859 83.2281 38.0625 83.2281 39.7344ZM84.9781 39.7344C84.9781 38.8984 86.0641 38.4375 88.0563 38.4375C90.0406 38.4375 91.1578 38.8984 91.1656 39.7344C91.1578 40.5781 90.0406 41.0312 88.0563 41.0312C86.0641 41.0312 84.9781 40.5781 84.9781 39.7344ZM91.0875 36.8438H92.8375V28.2812H91.0875V36.8438ZM103.881 29.7969H98.3344V38.75H103.881V34.875H105.522V41.7031H107.178V28.5156H105.522V33.4688H103.881V29.7969ZM99.9594 37.375V31.1719H102.256V37.375H99.9594ZM108.413 42.3906H110.084V28.2656H108.413V42.3906ZM122.731 32.8281H114.653V28.9375H112.919V34.2344H122.731V32.8281ZM111.325 37.375H114.434V42.3906H116.169V37.375H119.356V42.3906H121.106V37.375H124.2V35.9688H111.325V37.375ZM136.941 28.2656H135.269V42.3906H136.941V28.2656ZM124.894 34.375C124.894 37.4922 126.097 39.4297 127.941 39.4219C129.691 39.4297 130.87 37.7422 131.034 34.9844H132.378V41.7031H134.034V28.5156H132.378V33.5781H131.019C130.816 30.9375 129.652 29.3359 127.941 29.3438C126.097 29.3359 124.894 31.2656 124.894 34.375ZM126.503 34.375C126.495 32.1719 127.042 30.9766 127.941 30.9844C128.878 30.9766 129.433 32.1719 129.441 34.375C129.433 36.5859 128.878 37.7734 127.941 37.7656C127.042 37.7734 126.495 36.5859 126.503 34.375ZM143.4 31.6562V29.4062H141.634V31.6562C141.627 34.2969 140.345 37.0156 138.041 38.0938L139.134 39.5C140.759 38.6797 141.916 37.0547 142.533 35.1016C143.134 36.9531 144.259 38.4531 145.853 39.2344L146.9 37.8438C144.65 36.8594 143.392 34.2812 143.4 31.6562ZM145.338 34.2344H148.306V42.4062H150.025V28.2656H148.306V32.8281H145.338V34.2344ZM162.897 29.7344H155.631V31.125H161.178C161.17 32.3359 161.131 33.9219 160.788 36.0625L162.506 36.2031C162.897 33.7734 162.897 31.9922 162.897 30.7344V29.7344ZM154.881 38.0312L155.053 39.4219C157.545 39.4375 160.78 39.3828 163.694 38.9062L163.6 37.6094C162.248 37.7734 160.772 37.875 159.334 37.9375V33.7656H157.616V37.9922C156.647 38.0156 155.717 38.0234 154.881 38.0312ZM164.334 42.3906H166.084V35.4844H168.131V34.0156H166.084V28.2656H164.334V42.3906ZM180.591 28.2656H178.934V42.3906H180.591V28.2656ZM168.184 38.375L169.247 39.6719C170.575 38.8438 171.473 37.3594 171.973 35.6172C172.466 37.2266 173.333 38.5703 174.638 39.3438L175.669 38.0625C173.645 36.8984 172.794 34.5078 172.794 32.125V31.1875H175.075V29.7812H168.669V31.1875H171.122V32.125C171.122 34.5859 170.223 37.1328 168.184 38.375ZM174.044 34.5938H176.075V41.7031H177.716V28.5312H176.075V33.1875H174.044V34.5938ZM194.753 34.6719H181.847V35.9844H194.753V34.6719ZM183.347 38.0469H191.472V38.9219H183.363V42.2344H193.613V41.0312H185.097V40.0469H193.191V36.8281H183.347V38.0469ZM183.441 29.7812H191.425V30.6406H183.488V33.875H193.409V32.6875H185.206V31.7656H193.159V28.5781H183.441V29.7812ZM204.031 31.6562V29.4062H202.266V31.6562C202.258 34.3828 200.883 37.0781 198.531 38.0938L199.594 39.5469C201.305 38.7422 202.523 37.1172 203.172 35.1328C203.828 36.9766 205.016 38.4688 206.641 39.2188L207.672 37.8281C205.383 36.8438 204.016 34.25 204.031 31.6562ZM208.688 42.4062H210.438V28.2656H208.688V42.4062ZM217.178 30.7188V30.5469H220.116V29.1562H212.444V30.5469H215.428V30.7188C215.428 32.5703 214.233 34.3984 211.959 35.1562L212.881 36.5C214.53 35.9375 215.702 34.7891 216.327 33.3438C216.944 34.6641 218.061 35.7188 219.647 36.25L220.522 34.9062C218.295 34.1719 217.178 32.4609 217.178 30.7188ZM213.85 38.8281H221.522V42.3906H223.256V37.4375H213.85V38.8281ZM221.522 36.7812H223.256V33.25H225.225V31.7969H223.256V28.2656H221.522V36.7812ZM232.434 30.5156H229.856V28.6719H228.137V30.5156H225.512V31.9062H232.434V30.5156ZM225.919 35.9375C225.903 37.8984 227.208 39.2656 228.997 39.2656C230.794 39.2656 232.075 37.8984 232.075 35.9375C232.075 34.0156 230.794 32.6484 228.997 32.6562C227.208 32.6484 225.903 34.0156 225.919 35.9375ZM227.45 35.9375C227.442 34.8281 228.083 34.0938 228.997 34.0938C229.903 34.0938 230.544 34.8281 230.544 35.9375C230.544 37.0781 229.903 37.7891 228.997 37.7812C228.083 37.7891 227.442 37.0781 227.45 35.9375ZM233.028 41.75H234.653V35.4844H236.028V42.3906H237.684V28.2656H236.028V34.0781H234.653V28.5625H233.028V41.75ZM255.244 36.1406H242.369V37.5469H247.916V42.375H249.634V37.5469H255.244V36.1406ZM243.041 33.8281L243.697 35.1875C246.08 34.8438 247.939 33.7422 248.806 32.2188C249.666 33.7422 251.541 34.8438 253.947 35.1875L254.572 33.8281C251.775 33.4766 249.931 31.9844 249.814 30.4375H254.056V29.0625H243.556V30.4375H247.798C247.673 31.9844 245.814 33.4766 243.041 33.8281ZM260.203 31.9688V29.5156H258.531V32.0469C258.523 34.4531 257.617 36.9453 255.562 38.1875L256.641 39.4844C257.969 38.6719 258.875 37.2344 259.383 35.5391C259.852 37.0781 260.68 38.3906 261.953 39.1562L262.906 37.8281C260.992 36.625 260.211 34.25 260.203 31.9688ZM261.391 34.5625H263.406V41.7031H265.047V28.5156H263.406V33.125H261.391V34.5625ZM266.312 42.3906H267.984V28.2656H266.312V42.3906ZM282.131 39.25H279.163V35.6406C280.256 34.9922 280.92 34 280.913 32.7656C280.92 30.5156 278.702 29.0312 275.647 29.0312C272.608 29.0312 270.405 30.5156 270.413 32.7656C270.405 34.0156 271.084 35.0312 272.209 35.6797V39.25H269.225V40.6719H282.131V39.25ZM272.116 32.7656C272.108 31.2969 273.538 30.3984 275.647 30.4062C277.748 30.3984 279.209 31.2969 279.209 32.7656C279.209 34.2109 277.748 35.1328 275.647 35.125C273.538 35.1328 272.108 34.2109 272.116 32.7656ZM273.928 39.25V36.3125C274.459 36.4219 275.038 36.4844 275.647 36.4844C276.272 36.4844 276.858 36.4219 277.397 36.3047V39.25H273.928ZM285.559 29.6875H283.434L283.622 37.6719H285.387L285.559 29.6875ZM283.294 39.9062C283.286 40.5781 283.841 41.125 284.512 41.125C285.161 41.125 285.716 40.5781 285.716 39.9062C285.716 39.25 285.161 38.7109 284.512 38.7031C283.841 38.7109 283.286 39.25 283.294 39.9062Z" fill="#5AC4B1"/>
</g>
<defs>
<filter id="filter0_d_2154_9998" x="0" y="-0.000244141" width="355" height="92.0002" filterUnits="userSpaceOnUse" color-interpolation-filters="sRGB">
<feFlood flood-opacity="0" result="BackgroundImageFix"/>
<feColorMatrix in="SourceAlpha" type="matrix" values="0 0 0 0 0 0 0 0 0 0 0 0 0 0 0 0 0 0 127 0" result="hardAlpha"/>
<feOffset dy="5"/>
<feGaussianBlur stdDeviation="5"/>
<feComposite in2="hardAlpha" operator="out"/>
<feColorMatrix type="matrix" values="0 0 0 0 0 0 0 0 0 0 0 0 0 0 0 0 0 0 0.08 0"/>
<feBlend mode="normal" in2="BackgroundImageFix" result="effect1_dropShadow_2154_9998"/>
<feBlend mode="normal" in="SourceGraphic" in2="effect1_dropShadow_2154_9998" result="shape"/>
</filter>
</defs>
</svg>
