
<svg width="375" height="395" viewBox="0 0 375 395" fill="none" xmlns="http://www.w3.org/2000/svg">
<rect width="375" height="395" fill="url(#paint0_linear_2496_11254)"/>
<g opacity="0.5">
<g opacity="0.3">
<path d="M323.28 106.145L325.738 142.13L322.641 142.458L320.909 106.733L323.28 106.145Z" fill="#669C9F"/>
<path d="M309.688 123.529L335.914 122.085L336.234 125.072L310.179 125.823L309.688 123.529Z" fill="#669C9F"/>
<path d="M313.893 132.842L330.42 114.488L332.028 115.762L315.302 133.668L313.893 132.842Z" fill="#669C9F"/>
<path d="M331.746 133.034L312.873 117.152L314.175 115.57L332.581 131.67L331.746 133.034Z" fill="#669C9F"/>
</g>
<path d="M352.582 145.538L352.234 148.157C351.862 150.899 350.166 153.275 347.683 154.522L347.235 154.744C345.735 155.5 345.971 157.699 347.597 158.124L348.082 158.248C350.773 158.946 352.944 160.913 353.879 163.517L354.774 166.005C355.419 167.793 358.051 167.514 358.303 165.631L358.651 163.011C359.023 160.27 360.719 157.893 363.202 156.647L363.649 156.425C365.149 155.669 364.914 153.469 363.287 153.044L362.803 152.921C360.111 152.222 357.941 150.255 357.006 147.652L356.11 145.164C355.466 143.376 352.833 143.654 352.582 145.538Z" fill="#5AC4B1" fill-opacity="0.4"/>
<g opacity="0.7">
<path d="M169.485 86.0107L169.713 125.87L173.153 125.978L172.146 86.4661L169.485 86.0107Z" fill="#669C9F"/>
<path d="M185.883 104.061L156.862 104.609L156.753 107.927L185.53 106.628L185.883 104.061Z" fill="#669C9F"/>
<path d="M182.009 114.666L162.297 95.7884L160.628 97.324L180.523 115.692L182.009 114.666Z" fill="#669C9F"/>
<path d="M162.349 116.335L181.853 97.2925L180.288 95.6548L161.317 114.899L162.349 116.335Z" fill="#669C9F"/>
</g>
<g opacity="0.4">
<path d="M150.011 278.504L150.503 308.182L153.065 308.235L151.996 278.821L150.011 278.504Z" fill="#669C9F"/>
<path d="M162.368 291.811L140.762 292.454L140.708 294.926L162.125 293.726L162.368 291.811Z" fill="#669C9F"/>
<path d="M159.568 299.739L144.738 285.841L143.507 286.998L158.47 300.515L159.568 299.739Z" fill="#669C9F"/>
<path d="M144.942 301.14L159.312 286.803L158.133 285.596L144.163 300.08L144.942 301.14Z" fill="#669C9F"/>
</g>
<path d="M111.872 114.711L112.617 117.448C113.405 120.313 115.549 122.599 118.37 123.571L118.878 123.743C120.582 124.334 120.646 126.708 118.976 127.393L118.477 127.593C115.713 128.721 113.684 131.124 113.061 134.027L112.464 136.803C112.033 138.798 109.192 138.877 108.655 136.909L107.91 134.171C107.123 131.307 104.978 129.02 102.158 128.049L101.65 127.876C99.9453 127.286 99.8818 124.912 101.552 124.227L102.05 124.027C104.814 122.899 106.843 120.496 107.467 117.592L108.064 114.817C108.494 112.822 111.336 112.742 111.872 114.711Z" fill="#5AC4B1" fill-opacity="0.3"/>
<path d="M137.867 77.2777L138.423 79.3225C139.012 81.4616 140.613 83.1694 142.72 83.8954L143.099 84.0242C144.372 84.4654 144.42 86.2383 143.173 86.7495L142.801 86.8991C140.737 87.7409 139.222 89.5352 138.756 91.7036L138.311 93.7762C137.989 95.2661 135.867 95.325 135.466 93.8551L134.91 91.8104C134.321 89.6712 132.72 87.9635 130.613 87.2374L130.234 87.1087C128.961 86.6674 128.913 84.8945 130.16 84.3833L130.532 84.2337C132.596 83.3919 134.111 81.5976 134.577 79.4292L135.022 77.3567C135.344 75.8668 137.466 75.8079 137.867 77.2777Z" fill="#5AC4B1" fill-opacity="0.5"/>
<path opacity="0.3" d="M125.584 272.701L126.181 274.806C126.813 277.007 128.485 278.752 130.668 279.478L131.061 279.606C132.379 280.047 132.449 281.877 131.167 282.418L130.785 282.577C128.663 283.469 127.12 285.338 126.664 287.581L126.227 289.726C125.912 291.267 123.723 291.352 123.292 289.839L122.695 287.735C122.064 285.533 120.391 283.788 118.209 283.063L117.816 282.934C116.497 282.493 116.428 280.663 117.709 280.122L118.092 279.963C120.213 279.071 121.756 277.202 122.212 274.959L122.649 272.815C122.964 271.273 125.154 271.189 125.584 272.701Z" fill="#5AC4B1"/>
</g>
<defs>
<linearGradient id="paint0_linear_2496_11254" x1="187.5" y1="232.5" x2="187.5" y2="338.5" gradientUnits="userSpaceOnUse">
<stop stop-color="#EEF9F7"/>
<stop offset="1" stop-color="#EEF9F7" stop-opacity="0"/>
</linearGradient>
</defs>
</svg>
