<svg width="30" height="24" viewBox="0 0 30 24" fill="none" xmlns="http://www.w3.org/2000/svg">
<path d="M7.32452 4.41113C7.33497 4.41799 7.33497 4.41799 7.32452 4.41113V4.41113Z" fill="#00C7B1"/>
<path d="M7.29285 4.39062C7.30687 4.39935 7.31915 4.40634 7.32616 4.41157C7.31915 4.40808 7.30863 4.4011 7.29285 4.39062Z" fill="#00C7B1"/>
<path d="M8.27811 3.35233C8.34685 3.19422 8.38387 3.0045 8.36801 2.77262C8.36801 2.77262 9.22995 0.501212 7.98903 0.0585258C7.18173 -0.229572 6.68818 0.604857 6.593 1.27591C6.07125 0.712016 5.38381 0.269329 4.75453 0.826201C4.38614 1.15295 4.45312 1.64658 4.78979 2.18588C4.32797 2.00846 3.86439 2.03305 3.54534 2.54776C3.01125 3.4103 4.38614 4.16919 5.67994 4.50296C6.24752 4.64877 8.22523 3.68258 8.27635 3.35584C8.27635 3.35584 8.27635 3.35408 8.27635 3.35233H8.27811Z" fill="#00C7B1"/>
<path d="M13.9046 1.00146C7.58723 1.00146 2.46667 6.10466 2.46667 12.4006C2.46667 18.6966 7.58723 23.7998 13.9046 23.7998C20.222 23.7998 25.3426 18.6966 25.3426 12.4006C25.3426 6.10466 20.222 1.00146 13.9046 1.00146Z" fill="#00C7B1"/>
<path d="M10.4763 15.9136C11.8217 15.9136 12.9123 14.8267 12.9123 13.4859C12.9123 12.145 11.8217 11.0581 10.4763 11.0581C9.13092 11.0581 8.04028 12.145 8.04028 13.4859C8.04028 14.8267 9.13092 15.9136 10.4763 15.9136Z" fill="#F5F4F3"/>
<path d="M11.296 13.4761C11.296 12.5643 10.7901 11.7685 10.0445 11.3539C9.81183 11.2238 9.52451 11.2238 9.29184 11.3539C8.54447 11.7685 8.04034 12.5626 8.04034 13.4761C8.04034 14.3897 8.54623 15.1838 9.29184 15.5984C9.52451 15.7285 9.81183 15.7285 10.0445 15.5984C10.7919 15.1838 11.296 14.3897 11.296 13.4761Z" fill="#191919"/>
<path d="M17.3947 15.9136C18.7401 15.9136 19.8307 14.8267 19.8307 13.4859C19.8307 12.145 18.7401 11.0581 17.3947 11.0581C16.0493 11.0581 14.9587 12.145 14.9587 13.4859C14.9587 14.8267 16.0493 15.9136 17.3947 15.9136Z" fill="#F5F4F3"/>
<path d="M18.2143 13.4761C18.2143 12.5643 17.7084 11.7685 16.9628 11.3539C16.7302 11.2238 16.4428 11.2238 16.2102 11.3539C15.4628 11.7685 14.9587 12.5626 14.9587 13.4761C14.9587 14.3897 15.4646 15.1838 16.2102 15.5984C16.4428 15.7285 16.7302 15.7285 16.9628 15.5984C17.7102 15.1838 18.2143 14.3897 18.2143 13.4761Z" fill="#191919"/>
<path d="M12.8628 12.0184C12.7923 12.0184 12.7359 11.9622 12.7359 11.8919C12.7359 10.6621 11.7312 9.6607 10.4973 9.6607C9.26343 9.6607 8.25871 10.6621 8.25871 11.8919C8.25871 11.9622 8.2023 12.0184 8.1318 12.0184C8.06129 12.0184 8.00488 11.9622 8.00488 11.8919C8.00488 10.5216 9.12242 9.40771 10.4973 9.40771C11.8722 9.40771 12.9897 10.5216 12.9897 11.8919C12.9897 11.9622 12.9333 12.0184 12.8628 12.0184Z" fill="#191919"/>
<path d="M19.6563 12.0184C19.5858 12.0184 19.5294 11.9622 19.5294 11.8919C19.5294 10.6621 18.5247 9.6607 17.2908 9.6607C16.0569 9.6607 15.0522 10.6621 15.0522 11.8919C15.0522 11.9622 14.9958 12.0184 14.9253 12.0184C14.8548 12.0184 14.7984 11.9622 14.7984 11.8919C14.7984 10.5216 15.9159 9.40771 17.2908 9.40771C18.6657 9.40771 19.7832 10.5216 19.7832 11.8919C19.7832 11.9622 19.7268 12.0184 19.6563 12.0184Z" fill="#191919"/>
<path d="M15.5669 17.9591C15.8014 17.6341 15.9424 17.2124 15.9847 16.7082C15.9988 16.5431 15.8437 16.4148 15.6833 16.4605C14.1268 16.9032 12.7696 16.6836 12.1685 16.5396C12.0081 16.5009 11.8635 16.6415 11.9006 16.8013C11.9746 17.1334 12.1368 17.6394 12.4699 18.047C12.7431 17.8063 13.2226 17.5357 13.9999 17.5357C14.5869 17.5357 15.1527 17.7167 15.5652 17.9609L15.5669 17.9591Z" fill="#191919"/>
<path d="M13.8852 18.7078C14.659 18.7078 15.2178 18.4407 15.5668 17.9593C15.1526 17.7151 14.5885 17.5342 14.0016 17.5342C13.2242 17.5342 12.743 17.8065 12.4716 18.0454C12.7765 18.4179 13.2242 18.706 13.8852 18.706V18.7078Z" fill="#FC8181"/>
<path d="M20.8336 14.7232C19.323 12.3798 17.6202 12.3938 17.6202 12.3938H17.6238C17.5444 12.3868 17.4651 12.3833 17.384 12.3833C16.1131 12.3833 15.045 13.2634 14.7594 14.4439C14.5602 14.2384 14.2676 14.1084 13.9398 14.1084C13.6119 14.1084 13.3193 14.2384 13.1201 14.4439C12.8346 13.2634 11.7664 12.3833 10.4955 12.3833C10.4144 12.3833 10.3351 12.3868 10.2558 12.3938H10.2593C10.2593 12.3938 8.55482 12.378 7.04597 14.7232C6.97546 14.8321 6.93845 14.9621 6.94374 15.0921L6.9596 15.5594C6.96665 15.7807 7.09004 15.9828 7.28569 16.0899L8.31862 16.6644C8.8104 17.3319 9.6036 17.7676 10.4973 17.7676C11.9867 17.7676 13.1977 16.5607 13.1977 15.0763C13.1977 15.0201 13.1959 14.9639 13.1924 14.9094C13.2805 14.6266 13.582 14.4176 13.9415 14.4176C14.3011 14.4176 14.6025 14.6266 14.6907 14.9094C14.6871 14.9656 14.6854 15.0201 14.6854 15.0763C14.6854 16.5607 15.8963 17.7676 17.3858 17.7676C18.2795 17.7676 19.0727 17.3319 19.5645 16.6644L20.5974 16.0899C20.7913 15.981 20.9147 15.7807 20.9235 15.5594L20.9393 15.0921C20.9446 14.9621 20.9076 14.8339 20.8371 14.7232H20.8336ZM10.4955 17.3934C9.21229 17.3934 8.16879 16.3534 8.16879 15.0746C8.16879 13.7957 9.21229 12.7557 10.4955 12.7557C11.7787 12.7557 12.8222 13.7957 12.8222 15.0746C12.8222 16.3534 11.7787 17.3934 10.4955 17.3934ZM17.384 17.3934C16.1008 17.3934 15.0573 16.3534 15.0573 15.0746C15.0573 13.7957 16.1008 12.7557 17.384 12.7557C18.6673 12.7557 19.7108 13.7957 19.7108 15.0746C19.7108 16.3534 18.6673 17.3934 17.384 17.3934Z" fill="#151F6D"/>
<path d="M29.4656 19.8816C29.6227 19.2887 29.0915 18.6348 28.2792 18.4211C27.4669 18.2073 26.6811 18.5147 26.524 19.1076C26.367 19.7005 26.8981 20.3544 27.7104 20.5682C28.5227 20.7819 29.3085 20.4745 29.4656 19.8816Z" fill="#00C7B1"/>
<path d="M27.0049 18.6095C27.0049 18.6095 27.0014 17.0582 27.5161 17.0388C28.0308 17.0195 28.0308 18.0771 27.7171 18.7799C27.4033 19.4826 27.1407 19.3421 27.1407 19.3421L27.0032 18.6095H27.0049Z" fill="#00C7B1"/>
<path d="M27.8685 18.3124C27.8685 18.3124 28.013 18.1033 28.3303 18.2316C28.6476 18.3581 28.6476 18.5566 28.6476 18.5566C28.6476 18.5566 28.8327 18.4389 29.1147 18.597C29.5624 18.8465 29.3756 19.2189 29.3756 19.2189C29.3756 19.2189 28.8697 19.2628 28.1382 18.9554C27.4067 18.6479 27.8685 18.3141 27.8685 18.3141V18.3124Z" fill="#00C7B1"/>
<path d="M1.12171 20.6351C0.857306 20.6351 0.631684 20.4331 0.610532 20.1643C0.443079 18.1582 1.13405 16.9197 1.74393 16.2328C2.41727 15.4739 3.14878 15.2034 3.1805 15.1911C3.44667 15.0945 3.7428 15.2315 3.83974 15.4985C3.93669 15.7638 3.7992 16.0572 3.5348 16.1538C3.43962 16.1907 1.38082 17.0093 1.63641 20.0782C1.65932 20.3611 1.44956 20.6088 1.16577 20.6316C1.15167 20.6316 1.13757 20.6333 1.12347 20.6333L1.12171 20.6351Z" fill="#00C7B1"/>
<path d="M26.3208 20.8831C25.8784 20.8831 25.4465 20.8005 25.0288 20.6354C22.9858 19.829 22.0322 17.3254 21.9935 17.2183C21.8948 16.953 22.0305 16.6578 22.2966 16.5595C22.5628 16.4611 22.8589 16.5963 22.9576 16.8616C22.9717 16.8968 23.8002 19.0507 25.4113 19.6849C26.1428 19.973 26.9166 19.9063 27.775 19.4811C28.0288 19.3546 28.3373 19.4583 28.4642 19.713C28.5911 19.9678 28.4871 20.2735 28.2315 20.4C27.5794 20.7232 26.9395 20.8849 26.3226 20.8849L26.3208 20.8831Z" fill="#00C7B1"/>
<path d="M0.192778 22.2528C0.562939 22.381 0.696902 21.7099 0.714529 21.3585C0.714529 21.3585 0.714529 21.3585 0.716291 21.3585C0.718054 22.2124 0.714529 22.7342 1.13404 22.6867C1.60996 22.634 1.36143 21.3498 1.36143 21.3498C1.36143 21.3498 1.60644 22.4302 1.96602 22.4056C2.32561 22.381 2.36086 21.731 2.01714 21.0739C2.08765 21.4112 2.39612 21.8926 2.65347 21.7925C3.2845 21.5465 2.3873 20.4625 2.32561 20.185C2.20575 19.6368 1.60644 19.3504 0.889033 19.5859C0.275624 19.7879 -0.0910114 20.3396 0.0676289 20.8174C0.0870183 20.8754 0.113458 20.9281 0.143424 20.9773C0.0394262 21.3445 -0.142129 22.1368 0.192778 22.2528Z" fill="#00C7B1"/>
<path d="M29.1799 19.4583C29.1077 19.6181 28.9525 19.8184 28.7498 19.7359C28.6476 19.6937 28.6353 19.5953 28.6353 19.4969C28.6353 19.3616 28.6529 19.2281 28.6829 19.0964C28.6987 19.0243 28.5912 18.9681 28.5559 19.0436C28.4907 19.1842 28.4185 19.3212 28.3391 19.453C28.3056 19.5092 28.2686 19.569 28.1999 19.5865C28.147 19.6006 28.0871 19.5865 28.0395 19.5619C27.7733 19.4214 27.8879 19.0138 27.9055 18.7819C27.9126 18.6923 27.7733 18.694 27.7663 18.7819C27.7451 19.0841 27.6411 19.5408 28.0025 19.6972C28.14 19.7569 28.2986 19.7323 28.3955 19.6146C28.4326 19.5707 28.4643 19.5198 28.496 19.4688C28.496 19.4987 28.496 19.5303 28.496 19.5602C28.5048 19.6954 28.5648 19.8114 28.6934 19.8641C28.9614 19.9748 29.194 19.7587 29.2963 19.5303C29.3333 19.4495 29.2134 19.3792 29.1764 19.46L29.1799 19.4583Z" fill="#191919"/>
<path d="M27.3767 18.8885C27.2392 18.8182 27.0859 18.7532 26.9272 18.7515C26.8462 18.7515 26.7633 18.769 26.6963 18.8165C26.6153 18.8727 26.5765 18.9588 26.5465 19.0501C26.4778 19.2662 26.4619 19.5069 26.5835 19.7054C26.6294 19.781 26.751 19.7125 26.7034 19.6352C26.5976 19.4612 26.6241 19.2539 26.6858 19.0695C26.7122 18.9886 26.7563 18.9219 26.8426 18.8973C26.9149 18.878 26.9925 18.8903 27.063 18.9078C27.1811 18.9394 27.3256 18.9922 27.419 19.0747C27.4754 19.1257 27.5442 19.2434 27.4684 19.3066C27.4278 19.3418 27.3485 19.3506 27.2974 19.3558C27.2357 19.3611 27.1775 19.3541 27.1176 19.3383C27.0436 19.3189 26.9925 19.4279 27.0647 19.4648C27.2939 19.5789 27.3732 19.8565 27.234 20.0726C27.1864 20.1482 27.3062 20.2167 27.3538 20.1429C27.486 19.9356 27.4631 19.6738 27.3186 19.4929C27.4649 19.4823 27.6076 19.4261 27.6341 19.2803C27.6676 19.0976 27.5248 18.9623 27.3767 18.8867V18.8885Z" fill="#191919"/>
</svg>
