<svg width="37" height="36" viewBox="0 0 37 36" fill="none" xmlns="http://www.w3.org/2000/svg">
<path fill-rule="evenodd" clip-rule="evenodd" d="M18.5 11C18.5 10.4477 18.0523 10 17.5 10C16.9477 10 16.5 10.4477 16.5 11C16.5 11.5523 16.0523 12 15.5 12C14.9477 12 14.5 12.4477 14.5 13C14.5 13.5523 14.9477 14 15.5 14C16.0523 14 16.5 14.4477 16.5 15C16.5 15.5523 16.9477 16 17.5 16C18.0523 16 18.5 15.5523 18.5 15C18.5 14.4477 18.9477 14 19.5 14C20.0523 14 20.5 13.5523 20.5 13C20.5 12.4477 20.0523 12 19.5 12C18.9477 12 18.5 11.5523 18.5 11ZM27.2071 10.2929C26.8166 9.90237 26.1834 9.90237 25.7929 10.2929L22.7929 13.2929L10.7929 25.2929C10.4024 25.6834 10.4024 26.3166 10.7929 26.7071L13.7929 29.7071C14.1834 30.0976 14.8166 30.0976 15.2071 29.7071L27.2038 17.7104L27.2071 17.7071L27.2104 17.7038L30.2071 14.7071C30.5976 14.3166 30.5976 13.6834 30.2071 13.2929L27.2071 10.2929ZM28.5 20.9999C28.5 20.4476 28.0523 19.9999 27.5 19.9999C26.9477 19.9999 26.5 20.4476 26.5 20.9999C26.5 21.5522 26.0523 21.9999 25.5 21.9999C24.9477 21.9999 24.5 22.4476 24.5 22.9999C24.5 23.5522 24.9477 23.9999 25.5 23.9999C26.0523 23.9999 26.5 24.4476 26.5 24.9999C26.5 25.5522 26.9477 25.9999 27.5 25.9999C28.0523 25.9999 28.5 25.5522 28.5 24.9999C28.5 24.4476 28.9477 23.9999 29.5 23.9999C30.0523 23.9999 30.5 23.5522 30.5 22.9999C30.5 22.4476 30.0523 21.9999 29.5 21.9999C28.9477 21.9999 28.5 21.5522 28.5 20.9999Z" fill="#00C7B1"/>
<path d="M12.5 27L27.5 12L24.5 9L9.5 24L12.5 27" stroke="black" stroke-width="2" stroke-linecap="round" stroke-linejoin="round"/>
<path d="M21.5 12L24.5 15" stroke="black" stroke-width="2" stroke-linecap="round" stroke-linejoin="round"/>
<path d="M15.5 9C15.5 10.1046 16.3954 11 17.5 11C16.3954 11 15.5 11.8954 15.5 13C15.5 11.8954 14.6046 11 13.5 11C14.6046 11 15.5 10.1046 15.5 9" stroke="black" stroke-width="2" stroke-linecap="round" stroke-linejoin="round"/>
<path d="M25.5 18.9998C25.5 20.1043 26.3954 20.9998 27.5 20.9998C26.3954 20.9998 25.5 21.8952 25.5 22.9998C25.5 21.8952 24.6046 20.9998 23.5 20.9998C24.6046 20.9998 25.5 20.1043 25.5 18.9998" stroke="black" stroke-width="2" stroke-linecap="round" stroke-linejoin="round"/>
</svg>
