<svg width="93" height="54" viewBox="0 0 93 54" fill="none" xmlns="http://www.w3.org/2000/svg">
<path d="M41.303 28.5L56.303 13.5L53.303 10.5L38.303 25.5L41.303 28.5" stroke="#949494" stroke-width="2" stroke-linecap="round" stroke-linejoin="round"/>
<path d="M50.3031 13.5L53.3031 16.5" stroke="#949494" stroke-width="2" stroke-linecap="round" stroke-linejoin="round"/>
<path d="M44.303 10.5C44.303 11.6046 45.1985 12.5 46.303 12.5C45.1985 12.5 44.303 13.3954 44.303 14.5C44.303 13.3954 43.4076 12.5 42.303 12.5C43.4076 12.5 44.303 11.6046 44.303 10.5" stroke="#949494" stroke-width="2" stroke-linecap="round" stroke-linejoin="round"/>
<path d="M54.303 20.4998C54.303 21.6043 55.1985 22.4998 56.303 22.4998C55.1985 22.4998 54.303 23.3952 54.303 24.4998C54.303 23.3952 53.4076 22.4998 52.303 22.4998C53.4076 22.4998 54.303 21.6043 54.303 20.4998" stroke="#949494" stroke-width="2" stroke-linecap="round" stroke-linejoin="round"/>
<path d="M45.3143 37.6797H38.5896V38.5176H44.3152V38.582C44.3152 39.0171 44.3099 39.479 44.2884 40L38.2996 40.2363L38.45 41.1172L44.24 40.7788C44.181 41.4287 44.0843 42.1538 43.907 42.9756L44.9061 43.083C45.3196 41.085 45.3089 39.7529 45.3143 38.582V37.6797ZM37.5477 45.167H46.324V44.3184H41.8982V41.8799H40.8885V44.3184H37.5477V45.167ZM50.2316 38.7861V38.7324H52.3586V37.916H50.2424V36.7881H49.2111V37.916H47.0734V38.7324H49.2111V38.7861C49.2165 40.0322 48.2927 41.1978 46.8049 41.6436L47.3098 42.4492C48.4646 42.084 49.3239 41.2998 49.7536 40.2954C50.1994 41.1978 51.0588 41.896 52.1867 42.2129L52.6701 41.418C51.177 41.0044 50.2263 39.9409 50.2316 38.7861ZM48.1262 44.6191C48.1262 45.7524 49.3669 46.397 51.4025 46.3916C53.4221 46.397 54.6628 45.7524 54.6682 44.6191C54.6628 43.4966 53.4221 42.8467 51.4025 42.8467C49.3669 42.8467 48.1262 43.4966 48.1262 44.6191ZM49.1574 44.6191C49.1574 44.0068 49.9738 43.647 51.4025 43.6523C52.8259 43.647 53.6638 44.0068 53.6584 44.6191C53.6638 45.2476 52.8259 45.6021 51.4025 45.6074C49.9738 45.6021 49.1574 45.2476 49.1574 44.6191ZM53.6154 42.6641H54.6359V36.7988H53.6154V42.6641Z" fill="#747474"/>
</svg>
