<svg width="72" height="49" viewBox="0 0 72 49" fill="none" xmlns="http://www.w3.org/2000/svg">
<path d="M70 46.9988V31.3689H20.2004C20.2004 31.3689 17.7453 33.6948 17.7453 39.1793C17.7453 44.6638 20.2004 46.9897 20.2004 46.9897H69.9909L70 46.9988Z" fill="#6AADBC"/>
<path d="M70 36.2832V32.7898H53.2582C53.2582 32.7898 51.6909 34.2016 51.6909 38.8444C51.6909 43.4872 53.5481 45.5869 53.5481 45.5869H70V36.2832Z" fill="#FFF7E7"/>
<path d="M70 39.4329H58.4402" stroke="#D4CCBE" stroke-width="0.21" stroke-miterlimit="10"/>
<path d="M70 42.4011H57.5977" stroke="#D4CCBE" stroke-width="0.21" stroke-miterlimit="10"/>
<path d="M70 36.5637H56.9454" stroke="#D4CCBE" stroke-width="0.21" stroke-miterlimit="10"/>
<path d="M67.4181 25.1516V31.3782H23.2081C23.2081 31.3782 22.121 30.2922 22.1935 28.093C22.2659 25.8847 23.2081 25.1607 23.2081 25.1607H67.4181V25.1516Z" fill="#F8C86D"/>
<path d="M67.418 26.0203H50.5765C50.5765 26.0203 49.8608 26.2737 49.8608 28.1833C49.8608 30.0929 50.5765 30.5002 50.5765 30.5002H67.418V26.0112V26.0203Z" fill="#FFF7E7"/>
<path d="M52.8414 27.5046H67.418" stroke="#D4CCBE" stroke-width="0.21" stroke-miterlimit="10"/>
<path d="M67.418 29.0161H55.7042" stroke="#D4CCBE" stroke-width="0.21" stroke-miterlimit="10"/>
<path d="M38.4007 25.1516H32.2766V31.3782H38.4007V25.1516Z" fill="#FDE09B"/>
<path d="M26.7866 25.1968C26.7866 25.1968 25.2012 22.7714 25.1378 18.5358C25.0744 14.3003 26.7866 11.7209 26.7866 11.7209H64.1567V25.1968H26.7866Z" fill="#EE7C8B"/>
<path d="M64.1657 12.7888H54.4359C54.4359 12.7888 53.1313 13.8568 53.1313 18.1737C53.1313 22.4907 54.4359 24.1288 54.4359 24.1288H64.1657V12.7888Z" fill="#FFF7E7"/>
<path d="M56.3384 16.0562H64.1657" stroke="#D4CCBE" stroke-width="0.21" stroke-miterlimit="10"/>
<path d="M57.9147 18.4543H64.1657" stroke="#D4CCBE" stroke-width="0.21" stroke-miterlimit="10"/>
<path d="M55.5956 21.6038H64.1658" stroke="#D4CCBE" stroke-width="0.21" stroke-miterlimit="10"/>
<mask id="mask0_491_2202" style="mask-type:alpha" maskUnits="userSpaceOnUse" x="16" y="3" width="25" height="25">
<ellipse cx="28.2723" cy="15.5764" rx="11.7772" ry="11.7654" fill="#D9D9D9"/>
</mask>
<g mask="url(#mask0_491_2202)">
<path opacity="0.75" d="M11.467 19.3594L11.3855 10.3363L44.1534 10.0195L44.2259 19.0427L11.467 19.3594Z" fill="white"/>
<path opacity="0.75" d="M12.2099 23.622L12.1827 21.3595L44.9506 21.0518L44.9688 23.3053L12.2099 23.622Z" fill="white"/>
</g>
<path d="M17.8539 24.4367C15.9514 22.1017 14.8915 19.2056 14.8552 16.1013C14.8099 12.4722 16.1598 9.00591 18.6692 6.34512C23.8603 0.833486 32.4486 0.525776 37.8118 5.64825C43.1749 10.7798 43.3018 19.4228 38.1107 24.9344C32.9197 30.4461 24.3314 30.7538 18.9682 25.6313C18.5696 25.2512 18.1982 24.853 17.8539 24.4276V24.4367ZM37.1504 8.26378C36.8787 7.92892 36.5706 7.60311 36.2536 7.2954C31.8235 3.05986 24.6938 3.35852 20.3543 7.96512C18.2435 10.2005 17.102 13.1057 17.1382 16.1466C17.1744 19.1603 18.3703 21.9478 20.5083 23.9842C24.9384 28.2197 32.0681 27.921 36.4076 23.3144C40.4299 19.0517 40.6564 12.5627 37.1414 8.26378H37.1504Z" fill="#DDDDDD"/>
<path d="M5.46974 43.2702C4.98959 43.777 3.86622 43.4965 2.96934 42.6548C2.07246 41.8041 1.73726 40.6999 2.22647 40.1931L17.8358 23.7759C18.316 23.269 19.4394 23.5405 20.3272 24.3913C21.2241 25.242 21.5593 26.3461 21.07 26.853L5.46974 43.2702Z" fill="#DDDDDD"/>
<mask id="path-21-outside-1_491_2202" maskUnits="userSpaceOnUse" x="0" y="-0.999023" width="72" height="50" fill="black">
<rect fill="white" y="-0.999023" width="72" height="50"/>
<path fill-rule="evenodd" clip-rule="evenodd" d="M14.8539 16.1023C14.8883 19.0437 15.8417 21.7982 17.5601 24.0655L2.22513 40.1941C1.73592 40.7009 2.07112 41.8051 2.968 42.6558C3.86488 43.4975 4.98825 43.778 5.46839 43.2712L20.8237 27.1119C21.2697 27.4057 21.7296 27.6695 22.2007 27.9033C22.1971 27.9656 22.1943 28.0291 22.1921 28.0939C22.1235 30.1776 23.0958 31.262 23.1981 31.3702H20.1991C20.1991 31.3702 17.744 33.6961 17.744 39.1806C17.744 44.6651 20.1991 46.991 20.1991 46.991H69.9897L69.9987 47.0001V45.5881H69.9988L69.9988 42.5074V42.2974V39.5389V39.3289L69.9988 36.2844V32.791H69.9987V31.3702H67.4167V27.6107H67.4168V27.4007H67.4167V25.1616H64.1553V24.13H64.1643V21.71H64.1645V21.5H64.1643V18.5603H64.1644V18.3503H64.1643V16.1621H64.1645V15.9521H64.1643V12.79H64.1553V11.722H41.4298C40.8101 9.47088 39.6026 7.36399 37.8105 5.64922C32.4473 0.526753 23.859 0.834463 18.6679 6.3461C16.1585 9.00688 14.8086 12.4731 14.8539 16.1023Z"/>
</mask>
<path d="M17.5601 24.0655L19.0095 25.4436C19.6848 24.7334 19.746 23.6385 19.154 22.8574L17.5601 24.0655ZM14.8539 16.1023L16.8538 16.079L16.8538 16.0774L14.8539 16.1023ZM2.22513 40.1941L3.66412 41.5831C3.66761 41.5795 3.67109 41.5759 3.67455 41.5722L2.22513 40.1941ZM2.968 42.6558L1.59159 44.1069L1.59938 44.1142L2.968 42.6558ZM5.46839 43.2712L4.01857 41.8935L4.0165 41.8957L5.46839 43.2712ZM20.8237 27.1119L21.9238 25.4416C21.1151 24.9089 20.0409 25.0322 19.3738 25.7342L20.8237 27.1119ZM22.2007 27.9033L24.1974 28.0181C24.2434 27.2183 23.8076 26.4682 23.0901 26.112L22.2007 27.9033ZM22.1921 28.0939L24.191 28.1598L24.1911 28.1595L22.1921 28.0939ZM23.1981 31.3702V33.3702C23.997 33.3702 24.7192 32.8948 25.0351 32.1611C25.351 31.4274 25.2 30.576 24.651 29.9957L23.1981 31.3702ZM20.1991 31.3702V29.3702C19.6874 29.3702 19.1951 29.5663 18.8236 29.9183L20.1991 31.3702ZM20.1991 46.991L18.8236 48.4429C19.1951 48.7948 19.6874 48.991 20.1991 48.991V46.991ZM69.9897 46.991L71.4042 45.5771C71.0291 45.2018 70.5202 44.991 69.9897 44.991V46.991ZM69.9987 47.0001L68.5842 48.414C69.1561 48.9861 70.0164 49.1574 70.7639 48.8479C71.5113 48.5384 71.9987 47.8091 71.9987 47.0001H69.9987ZM69.9987 45.5881V43.5881C68.8941 43.5881 67.9987 44.4835 67.9987 45.5881H69.9987ZM69.9988 45.5881V47.5881C71.1033 47.5881 71.9988 46.6927 71.9988 45.5881L69.9988 45.5881ZM69.9988 42.5074L71.9988 42.5074V42.5074H69.9988ZM69.9988 39.3289H71.9988V39.3289L69.9988 39.3289ZM69.9988 36.2844H67.9988V36.2844L69.9988 36.2844ZM69.9988 32.791H71.9988C71.9988 31.6864 71.1033 30.791 69.9988 30.791V32.791ZM69.9987 32.791H67.9987C67.9987 33.8955 68.8941 34.791 69.9987 34.791V32.791ZM69.9987 31.3702H71.9987C71.9987 30.2656 71.1033 29.3702 69.9987 29.3702V31.3702ZM67.4167 31.3702H65.4167C65.4167 32.4748 66.3121 33.3702 67.4167 33.3702V31.3702ZM67.4167 27.6107V25.6107C66.3121 25.6107 65.4167 26.5061 65.4167 27.6107H67.4167ZM67.4168 27.6107V29.6107C68.5214 29.6107 69.4168 28.7152 69.4168 27.6107H67.4168ZM67.4168 27.4007H69.4168C69.4168 26.2961 68.5214 25.4007 67.4168 25.4007V27.4007ZM67.4167 27.4007H65.4167C65.4167 28.5052 66.3121 29.4007 67.4167 29.4007V27.4007ZM67.4167 25.1616H69.4167C69.4167 24.0571 68.5213 23.1616 67.4167 23.1616V25.1616ZM64.1553 25.1616H62.1553C62.1553 26.2662 63.0508 27.1616 64.1553 27.1616V25.1616ZM64.1553 24.13V22.13C63.0508 22.13 62.1553 23.0255 62.1553 24.13H64.1553ZM64.1643 24.13V26.13C65.2689 26.13 66.1643 25.2346 66.1643 24.13H64.1643ZM64.1643 21.71V19.71C63.0598 19.71 62.1643 20.6054 62.1643 21.71H64.1643ZM64.1645 21.71V23.71C65.2691 23.71 66.1645 22.8145 66.1645 21.71H64.1645ZM64.1645 21.5H66.1645C66.1645 20.3954 65.2691 19.5 64.1645 19.5V21.5ZM64.1643 21.5H62.1643C62.1643 22.6045 63.0598 23.5 64.1643 23.5V21.5ZM64.1643 18.5603V16.5603C63.0598 16.5603 62.1643 17.4557 62.1643 18.5603H64.1643ZM64.1644 18.5603V20.5603C65.269 20.5603 66.1644 19.6649 66.1644 18.5603H64.1644ZM64.1644 18.3503H66.1644C66.1644 17.2457 65.269 16.3503 64.1644 16.3503V18.3503ZM64.1643 18.3503H62.1643C62.1643 19.4549 63.0598 20.3503 64.1643 20.3503V18.3503ZM64.1643 16.1621V14.1621C63.0598 14.1621 62.1643 15.0575 62.1643 16.1621H64.1643ZM64.1645 16.1621V18.1621C65.269 18.1621 66.1645 17.2667 66.1645 16.1621H64.1645ZM64.1645 15.9521H66.1645C66.1645 14.8475 65.269 13.9521 64.1645 13.9521V15.9521ZM64.1643 15.9521H62.1643C62.1643 17.0567 63.0598 17.9521 64.1643 17.9521V15.9521ZM64.1643 12.79H66.1643C66.1643 11.6854 65.2689 10.79 64.1643 10.79V12.79ZM64.1553 12.79H62.1553C62.1553 13.8946 63.0508 14.79 64.1553 14.79V12.79ZM64.1553 11.722H66.1553C66.1553 10.6174 65.2599 9.722 64.1553 9.722V11.722ZM41.4298 11.722L39.5015 12.2528C39.7404 13.1207 40.5297 13.722 41.4298 13.722V11.722ZM37.8105 5.64922L39.1931 4.20414L39.1919 4.20293L37.8105 5.64922ZM18.6679 6.3461L20.1229 7.71833L20.1239 7.71733L18.6679 6.3461ZM19.154 22.8574C17.6961 20.9338 16.8832 18.5951 16.8538 16.079L12.8541 16.1257C12.8934 19.4922 13.9873 22.6626 15.9661 25.2735L19.154 22.8574ZM3.67455 41.5722L19.0095 25.4436L16.1107 22.6874L0.775699 38.816L3.67455 41.5722ZM4.34438 41.2047C4.10041 40.9733 4.00799 40.7728 3.9912 40.7172C3.98382 40.6928 4.01235 40.7672 3.99344 40.9194C3.97257 41.0875 3.89049 41.3486 3.66412 41.5831L0.786135 38.8051C-0.181391 39.8075 -0.0709448 41.1031 0.162359 41.8748C0.415078 42.7107 0.938706 43.4875 1.59161 44.1068L4.34438 41.2047ZM4.0165 41.8957C4.24447 41.6551 4.5038 41.5631 4.66553 41.5356C4.81247 41.5106 4.88358 41.5348 4.85452 41.5277C4.79006 41.5117 4.58073 41.4265 4.33661 41.1974L1.59938 44.1142C2.25215 44.7268 3.05294 45.2027 3.89443 45.4107C4.66378 45.6009 5.96332 45.6568 6.92029 44.6467L4.0165 41.8957ZM19.3738 25.7342L4.01857 41.8935L6.91822 44.6489L22.2735 28.4895L19.3738 25.7342ZM23.0901 26.112C22.6911 25.9139 22.3016 25.6905 21.9238 25.4416L19.7235 28.7821C20.2377 29.1208 20.7681 29.425 21.3114 29.6947L23.0901 26.112ZM24.1911 28.1595C24.1926 28.111 24.1948 28.0638 24.1974 28.0181L20.204 27.7886C20.1995 27.8673 20.1959 27.9473 20.1932 28.0283L24.1911 28.1595ZM24.651 29.9957C24.78 30.1321 24.1455 29.5404 24.191 28.1598L20.1932 28.028C20.1014 30.8149 21.4116 32.392 21.7453 32.7447L24.651 29.9957ZM20.1991 33.3702H23.1981V29.3702H20.1991V33.3702ZM19.744 39.1806C19.744 36.7486 20.2858 35.0934 20.7715 34.0906C21.0165 33.5849 21.2524 33.2346 21.4096 33.0272C21.4882 32.9234 21.5472 32.8553 21.5777 32.8215C21.593 32.8046 21.6011 32.7964 21.601 32.7965C21.6009 32.7966 21.5988 32.7987 21.5944 32.803C21.5922 32.8051 21.5895 32.8078 21.5862 32.811C21.5846 32.8126 21.5828 32.8143 21.5809 32.8161C21.5799 32.8171 21.5789 32.818 21.5779 32.819C21.5773 32.8195 21.5765 32.8203 21.5763 32.8205C21.5754 32.8213 21.5746 32.8221 20.1991 31.3702C18.8236 29.9183 18.8228 29.9191 18.8219 29.9199C18.8216 29.9202 18.8208 29.921 18.8202 29.9216C18.819 29.9227 18.8177 29.9239 18.8165 29.9251C18.814 29.9275 18.8113 29.9301 18.8085 29.9328C18.8028 29.9383 18.7966 29.9443 18.7897 29.951C18.7761 29.9644 18.7602 29.9804 18.7421 29.9988C18.706 30.0357 18.6614 30.0827 18.6095 30.1401C18.5058 30.255 18.373 30.4115 18.2215 30.6114C17.9183 31.0115 17.5404 31.5855 17.1716 32.3468C16.4298 33.8781 15.744 36.1281 15.744 39.1806H19.744ZM20.1991 46.991C21.5746 45.5391 21.5754 45.5399 21.5763 45.5407C21.5765 45.5409 21.5773 45.5417 21.5779 45.5422C21.5789 45.5432 21.5799 45.5441 21.5809 45.545C21.5828 45.5469 21.5846 45.5486 21.5862 45.5502C21.5895 45.5534 21.5922 45.556 21.5944 45.5582C21.5988 45.5624 21.6009 45.5646 21.601 45.5647C21.6011 45.5648 21.593 45.5565 21.5777 45.5396C21.5472 45.5058 21.4882 45.4378 21.4096 45.334C21.2524 45.1266 21.0165 44.7763 20.7715 44.2706C20.2858 43.2678 19.744 41.6126 19.744 39.1806H15.744C15.744 42.2331 16.4298 44.4831 17.1716 46.0144C17.5404 46.7757 17.9183 47.3496 18.2215 47.7498C18.373 47.9497 18.5058 48.1062 18.6095 48.2211C18.6614 48.2785 18.706 48.3255 18.7421 48.3624C18.7602 48.3808 18.7761 48.3967 18.7897 48.4102C18.7966 48.4169 18.8028 48.4229 18.8085 48.4284C18.8113 48.4311 18.814 48.4337 18.8165 48.4361C18.8178 48.4373 18.819 48.4385 18.8202 48.4396C18.8208 48.4402 18.8216 48.441 18.8219 48.4413C18.8228 48.4421 18.8236 48.4429 20.1991 46.991ZM69.9897 44.991H20.1991V48.991H69.9897V44.991ZM71.4132 45.5861L71.4042 45.5771L68.5751 48.4049L68.5842 48.414L71.4132 45.5861ZM67.9987 45.5881V47.0001H71.9987V45.5881H67.9987ZM69.9988 43.5881H69.9987V47.5881H69.9988V43.5881ZM67.9988 42.5074L67.9988 45.5881L71.9988 45.5881L71.9988 42.5074L67.9988 42.5074ZM67.9988 42.2974V42.5074H71.9988V42.2974H67.9988ZM67.9988 39.5389V42.2974H71.9988V39.5389H67.9988ZM67.9988 39.3289V39.5389H71.9988V39.3289H67.9988ZM67.9988 36.2844L67.9988 39.3289L71.9988 39.3289L71.9988 36.2844L67.9988 36.2844ZM67.9988 32.791V36.2844H71.9988V32.791H67.9988ZM69.9987 34.791H69.9988V30.791H69.9987V34.791ZM67.9987 31.3702V32.791H71.9987V31.3702H67.9987ZM67.4167 33.3702H69.9987V29.3702H67.4167V33.3702ZM65.4167 27.6107V31.3702H69.4167V27.6107H65.4167ZM67.4168 25.6107H67.4167V29.6107H67.4168V25.6107ZM65.4168 27.4007V27.6107H69.4168V27.4007H65.4168ZM67.4167 29.4007H67.4168V25.4007H67.4167V29.4007ZM65.4167 25.1616V27.4007H69.4167V25.1616H65.4167ZM64.1553 27.1616H67.4167V23.1616H64.1553V27.1616ZM62.1553 24.13V25.1616H66.1553V24.13H62.1553ZM64.1643 22.13H64.1553V26.13H64.1643V22.13ZM62.1643 21.71V24.13H66.1643V21.71H62.1643ZM64.1645 19.71H64.1643V23.71H64.1645V19.71ZM62.1645 21.5V21.71H66.1645V21.5H62.1645ZM64.1643 23.5H64.1645V19.5H64.1643V23.5ZM62.1643 18.5603V21.5H66.1643V18.5603H62.1643ZM64.1644 16.5603H64.1643V20.5603H64.1644V16.5603ZM62.1644 18.3503V18.5603H66.1644V18.3503H62.1644ZM64.1643 20.3503H64.1644V16.3503H64.1643V20.3503ZM62.1643 16.1621V18.3503H66.1643V16.1621H62.1643ZM64.1645 14.1621H64.1643V18.1621H64.1645V14.1621ZM62.1645 15.9521V16.1621H66.1645V15.9521H62.1645ZM64.1643 17.9521H64.1645V13.9521H64.1643V17.9521ZM62.1643 12.79V15.9521H66.1643V12.79H62.1643ZM64.1553 14.79H64.1643V10.79H64.1553V14.79ZM62.1553 11.722V12.79H66.1553V11.722H62.1553ZM41.4298 13.722H64.1553V9.722H41.4298V13.722ZM36.4278 7.0943C37.9491 8.54985 38.9741 10.3369 39.5015 12.2528L43.3581 11.1912C42.6461 8.60491 41.2562 6.17814 39.1931 4.20415L36.4278 7.0943ZM20.1239 7.71733C24.5793 2.98674 31.8952 2.76514 36.4291 7.09552L39.1919 4.20293C32.9994 -1.71163 23.1387 -1.31781 17.212 4.97486L20.1239 7.71733ZM16.8538 16.0774C16.815 12.9684 17.9685 10.0027 20.1229 7.71833L17.213 4.97386C14.3485 8.01105 12.8023 11.9779 12.8541 16.1273L16.8538 16.0774Z" fill="black" mask="url(#path-21-outside-1_491_2202)"/>
<mask id="mask1_491_2202" style="mask-type:alpha" maskUnits="userSpaceOnUse" x="0" y="-1" width="72" height="50">
<mask id="path-23-outside-2_491_2202" maskUnits="userSpaceOnUse" x="0" y="-1" width="72" height="50" fill="black">
<rect fill="white" y="-1" width="72" height="50"/>
<path fill-rule="evenodd" clip-rule="evenodd" d="M14.8539 16.1013C14.8883 19.0427 15.8417 21.7972 17.5601 24.0645L2.22513 40.1931C1.73592 40.7 2.07112 41.8041 2.968 42.6548C3.86488 43.4965 4.98825 43.7771 5.46839 43.2702L20.8237 27.1109C21.2697 27.4047 21.7296 27.6685 22.2007 27.9024C22.1971 27.9646 22.1943 28.0281 22.1921 28.0929C22.1235 30.1767 23.0958 31.2611 23.1981 31.3692H20.1991C20.1991 31.3692 17.744 33.6951 17.744 39.1796C17.744 44.6641 20.1991 46.99 20.1991 46.99H69.9897L69.9987 46.9991V45.5871H69.9988L69.9988 42.5064V42.2964V39.538V39.328L69.9988 36.2834V32.79H69.9987V31.3692H67.4167V27.6097H67.4168V27.3997H67.4167V25.1606H64.1553V24.129H64.1643V21.709H64.1645V21.499H64.1643V18.5593H64.1644V18.3493H64.1643V16.1611H64.1645V15.9511H64.1643V12.789H64.1553V11.721H41.4298C40.8101 9.4699 39.6026 7.36302 37.8105 5.64825C32.4473 0.525776 23.859 0.833486 18.6679 6.34512C16.1585 9.00591 14.8086 12.4722 14.8539 16.1013Z"/>
</mask>
<path d="M17.5601 24.0645L19.0095 25.4426C19.6848 24.7324 19.746 23.6375 19.154 22.8565L17.5601 24.0645ZM14.8539 16.1013L16.8538 16.078L16.8538 16.0764L14.8539 16.1013ZM2.22513 40.1931L3.66412 41.5821C3.66761 41.5785 3.67109 41.5749 3.67455 41.5712L2.22513 40.1931ZM2.968 42.6548L1.59159 44.1059L1.59938 44.1132L2.968 42.6548ZM5.46839 43.2702L4.01857 41.8926L4.0165 41.8947L5.46839 43.2702ZM20.8237 27.1109L21.9238 25.4407C21.1151 24.908 20.0409 25.0312 19.3738 25.7332L20.8237 27.1109ZM22.2007 27.9024L24.1974 28.0171C24.2434 27.2173 23.8076 26.4672 23.0901 26.111L22.2007 27.9024ZM22.1921 28.0929L24.191 28.1588L24.1911 28.1585L22.1921 28.0929ZM23.1981 31.3692V33.3692C23.997 33.3692 24.7192 32.8938 25.0351 32.1601C25.351 31.4264 25.2 30.575 24.651 29.9947L23.1981 31.3692ZM20.1991 31.3692V29.3692C19.6874 29.3692 19.1951 29.5654 18.8236 29.9173L20.1991 31.3692ZM20.1991 46.99L18.8236 48.4419C19.1951 48.7939 19.6874 48.99 20.1991 48.99V46.99ZM69.9897 46.99L71.4042 45.5761C71.0291 45.2009 70.5202 44.99 69.9897 44.99V46.99ZM69.9987 46.9991L68.5842 48.413C69.1561 48.9852 70.0164 49.1564 70.7639 48.8469C71.5113 48.5374 71.9987 47.8081 71.9987 46.9991H69.9987ZM69.9987 45.5871V43.5871C68.8941 43.5871 67.9987 44.4825 67.9987 45.5871H69.9987ZM69.9988 45.5871V47.5871C71.1033 47.5871 71.9988 46.6917 71.9988 45.5871L69.9988 45.5871ZM69.9988 42.5064L71.9988 42.5064V42.5064H69.9988ZM69.9988 39.328H71.9988V39.328L69.9988 39.328ZM69.9988 36.2834H67.9988V36.2834L69.9988 36.2834ZM69.9988 32.79H71.9988C71.9988 31.6854 71.1033 30.79 69.9988 30.79V32.79ZM69.9987 32.79H67.9987C67.9987 33.8946 68.8941 34.79 69.9987 34.79V32.79ZM69.9987 31.3692H71.9987C71.9987 30.2646 71.1033 29.3692 69.9987 29.3692V31.3692ZM67.4167 31.3692H65.4167C65.4167 32.4738 66.3121 33.3692 67.4167 33.3692V31.3692ZM67.4167 27.6097V25.6097C66.3121 25.6097 65.4167 26.5051 65.4167 27.6097H67.4167ZM67.4168 27.6097V29.6097C68.5214 29.6097 69.4168 28.7143 69.4168 27.6097H67.4168ZM67.4168 27.3997H69.4168C69.4168 26.2951 68.5214 25.3997 67.4168 25.3997V27.3997ZM67.4167 27.3997H65.4167C65.4167 28.5043 66.3121 29.3997 67.4167 29.3997V27.3997ZM67.4167 25.1606H69.4167C69.4167 24.0561 68.5213 23.1606 67.4167 23.1606V25.1606ZM64.1553 25.1606H62.1553C62.1553 26.2652 63.0508 27.1606 64.1553 27.1606V25.1606ZM64.1553 24.129V22.129C63.0508 22.129 62.1553 23.0245 62.1553 24.129H64.1553ZM64.1643 24.129V26.129C65.2689 26.129 66.1643 25.2336 66.1643 24.129H64.1643ZM64.1643 21.709V19.709C63.0598 19.709 62.1643 20.6044 62.1643 21.709H64.1643ZM64.1645 21.709V23.709C65.2691 23.709 66.1645 22.8136 66.1645 21.709H64.1645ZM64.1645 21.499H66.1645C66.1645 20.3944 65.2691 19.499 64.1645 19.499V21.499ZM64.1643 21.499H62.1643C62.1643 22.6036 63.0598 23.499 64.1643 23.499V21.499ZM64.1643 18.5593V16.5593C63.0598 16.5593 62.1643 17.4548 62.1643 18.5593H64.1643ZM64.1644 18.5593V20.5593C65.269 20.5593 66.1644 19.6639 66.1644 18.5593H64.1644ZM64.1644 18.3493H66.1644C66.1644 17.2448 65.269 16.3493 64.1644 16.3493V18.3493ZM64.1643 18.3493H62.1643C62.1643 19.4539 63.0598 20.3493 64.1643 20.3493V18.3493ZM64.1643 16.1611V14.1611C63.0598 14.1611 62.1643 15.0565 62.1643 16.1611H64.1643ZM64.1645 16.1611V18.1611C65.269 18.1611 66.1645 17.2657 66.1645 16.1611H64.1645ZM64.1645 15.9511H66.1645C66.1645 14.8465 65.269 13.9511 64.1645 13.9511V15.9511ZM64.1643 15.9511H62.1643C62.1643 17.0557 63.0598 17.9511 64.1643 17.9511V15.9511ZM64.1643 12.789H66.1643C66.1643 11.6845 65.2689 10.789 64.1643 10.789V12.789ZM64.1553 12.789H62.1553C62.1553 13.8936 63.0508 14.789 64.1553 14.789V12.789ZM64.1553 11.721H66.1553C66.1553 10.6165 65.2599 9.72103 64.1553 9.72103V11.721ZM41.4298 11.721L39.5015 12.2518C39.7404 13.1197 40.5297 13.721 41.4298 13.721V11.721ZM37.8105 5.64825L39.1931 4.20317L39.1919 4.20195L37.8105 5.64825ZM18.6679 6.34512L20.1229 7.71735L20.1239 7.71636L18.6679 6.34512ZM19.154 22.8565C17.6961 20.9328 16.8832 18.5942 16.8538 16.078L12.8541 16.1247C12.8934 19.4912 13.9873 22.6616 15.9661 25.2725L19.154 22.8565ZM3.67455 41.5712L19.0095 25.4426L16.1107 22.6864L0.775699 38.815L3.67455 41.5712ZM4.34438 41.2038C4.1004 40.9723 4.00799 40.7718 3.9912 40.7162C3.98382 40.6918 4.01235 40.7662 3.99344 40.9184C3.97257 41.0865 3.89049 41.3476 3.66412 41.5821L0.786135 38.8041C-0.18139 39.8065 -0.070945 41.1021 0.16236 41.8738C0.415079 42.7097 0.938708 43.4866 1.59161 44.1059L4.34438 41.2038ZM4.0165 41.8947C4.24447 41.6541 4.5038 41.5622 4.66554 41.5346C4.81247 41.5096 4.88358 41.5339 4.85452 41.5267C4.79007 41.5107 4.58073 41.4255 4.33662 41.1964L1.59938 44.1132C2.25214 44.7258 3.05293 45.2017 3.89442 45.4098C4.66378 45.6 5.96332 45.6559 6.92029 44.6457L4.0165 41.8947ZM19.3738 25.7332L4.01857 41.8926L6.91822 44.6479L22.2735 28.4886L19.3738 25.7332ZM23.0901 26.111C22.6911 25.9129 22.3016 25.6895 21.9238 25.4407L19.7235 28.7811C20.2377 29.1198 20.7681 29.424 21.3114 29.6937L23.0901 26.111ZM24.1911 28.1585C24.1926 28.11 24.1948 28.0629 24.1974 28.0171L20.204 27.7876C20.1995 27.8664 20.1959 27.9463 20.1932 28.0273L24.1911 28.1585ZM24.651 29.9947C24.78 30.1311 24.1455 29.5394 24.191 28.1588L20.1932 28.0271C20.1014 30.814 21.4116 32.391 21.7453 32.7437L24.651 29.9947ZM20.1991 33.3692H23.1981V29.3692H20.1991V33.3692ZM19.744 39.1796C19.744 36.7476 20.2858 35.0924 20.7715 34.0897C21.0165 33.5839 21.2524 33.2336 21.4096 33.0262C21.4882 32.9224 21.5472 32.8544 21.5777 32.8206C21.593 32.8037 21.6011 32.7954 21.601 32.7955C21.6009 32.7956 21.5988 32.7978 21.5944 32.802C21.5922 32.8042 21.5895 32.8068 21.5862 32.81C21.5846 32.8116 21.5828 32.8133 21.5809 32.8152C21.5799 32.8161 21.5789 32.8171 21.5779 32.818C21.5773 32.8185 21.5765 32.8193 21.5763 32.8195C21.5754 32.8203 21.5746 32.8211 20.1991 31.3692C18.8236 29.9173 18.8228 29.9181 18.8219 29.9189C18.8216 29.9192 18.8208 29.92 18.8202 29.9206C18.819 29.9217 18.8177 29.9229 18.8165 29.9241C18.814 29.9265 18.8113 29.9291 18.8085 29.9318C18.8028 29.9373 18.7966 29.9434 18.7897 29.9501C18.7761 29.9635 18.7602 29.9794 18.7421 29.9978C18.706 30.0347 18.6614 30.0817 18.6095 30.1392C18.5058 30.254 18.373 30.4105 18.2215 30.6104C17.9183 31.0106 17.5404 31.5845 17.1716 32.3458C16.4298 33.8771 15.744 36.1271 15.744 39.1796H19.744ZM20.1991 46.99C21.5746 45.5381 21.5754 45.5389 21.5763 45.5397C21.5765 45.5399 21.5773 45.5407 21.5779 45.5412C21.5789 45.5422 21.5799 45.5431 21.5809 45.5441C21.5828 45.5459 21.5846 45.5476 21.5862 45.5492C21.5895 45.5524 21.5922 45.5551 21.5944 45.5572C21.5988 45.5615 21.6009 45.5636 21.601 45.5637C21.6011 45.5639 21.593 45.5556 21.5777 45.5387C21.5472 45.5049 21.4882 45.4368 21.4096 45.333C21.2524 45.1256 21.0165 44.7753 20.7715 44.2696C20.2858 43.2668 19.744 41.6116 19.744 39.1796H15.744C15.744 42.2321 16.4298 44.4821 17.1716 46.0134C17.5404 46.7747 17.9183 47.3487 18.2215 47.7488C18.373 47.9488 18.5058 48.1053 18.6095 48.2201C18.6614 48.2775 18.706 48.3245 18.7421 48.3614C18.7602 48.3799 18.7761 48.3958 18.7897 48.4092C18.7966 48.4159 18.8028 48.422 18.8085 48.4274C18.8113 48.4301 18.814 48.4327 18.8165 48.4351C18.8178 48.4363 18.819 48.4375 18.8202 48.4386C18.8208 48.4392 18.8216 48.44 18.8219 48.4403C18.8228 48.4411 18.8236 48.4419 20.1991 46.99ZM69.9897 44.99H20.1991V48.99H69.9897V44.99ZM71.4132 45.5852L71.4042 45.5761L68.5751 48.4039L68.5842 48.413L71.4132 45.5852ZM67.9987 45.5871V46.9991H71.9987V45.5871H67.9987ZM69.9988 43.5871H69.9987V47.5871H69.9988V43.5871ZM67.9988 42.5064L67.9988 45.5871L71.9988 45.5871L71.9988 42.5064L67.9988 42.5064ZM67.9988 42.2964V42.5064H71.9988V42.2964H67.9988ZM67.9988 39.538V42.2964H71.9988V39.538H67.9988ZM67.9988 39.328V39.538H71.9988V39.328H67.9988ZM67.9988 36.2834L67.9988 39.328L71.9988 39.328L71.9988 36.2834L67.9988 36.2834ZM67.9988 32.79V36.2834H71.9988V32.79H67.9988ZM69.9987 34.79H69.9988V30.79H69.9987V34.79ZM67.9987 31.3692V32.79H71.9987V31.3692H67.9987ZM67.4167 33.3692H69.9987V29.3692H67.4167V33.3692ZM65.4167 27.6097V31.3692H69.4167V27.6097H65.4167ZM67.4168 25.6097H67.4167V29.6097H67.4168V25.6097ZM65.4168 27.3997V27.6097H69.4168V27.3997H65.4168ZM67.4167 29.3997H67.4168V25.3997H67.4167V29.3997ZM65.4167 25.1606V27.3997H69.4167V25.1606H65.4167ZM64.1553 27.1606H67.4167V23.1606H64.1553V27.1606ZM62.1553 24.129V25.1606H66.1553V24.129H62.1553ZM64.1643 22.129H64.1553V26.129H64.1643V22.129ZM62.1643 21.709V24.129H66.1643V21.709H62.1643ZM64.1645 19.709H64.1643V23.709H64.1645V19.709ZM62.1645 21.499V21.709H66.1645V21.499H62.1645ZM64.1643 23.499H64.1645V19.499H64.1643V23.499ZM62.1643 18.5593V21.499H66.1643V18.5593H62.1643ZM64.1644 16.5593H64.1643V20.5593H64.1644V16.5593ZM62.1644 18.3493V18.5593H66.1644V18.3493H62.1644ZM64.1643 20.3493H64.1644V16.3493H64.1643V20.3493ZM62.1643 16.1611V18.3493H66.1643V16.1611H62.1643ZM64.1645 14.1611H64.1643V18.1611H64.1645V14.1611ZM62.1645 15.9511V16.1611H66.1645V15.9511H62.1645ZM64.1643 17.9511H64.1645V13.9511H64.1643V17.9511ZM62.1643 12.789V15.9511H66.1643V12.789H62.1643ZM64.1553 14.789H64.1643V10.789H64.1553V14.789ZM62.1553 11.721V12.789H66.1553V11.721H62.1553ZM41.4298 13.721H64.1553V9.72103H41.4298V13.721ZM36.4278 7.09332C37.9491 8.54887 38.9741 10.3359 39.5015 12.2518L43.3581 11.1902C42.6461 8.60393 41.2562 6.17716 39.1931 4.20317L36.4278 7.09332ZM20.1239 7.71636C24.5793 2.98576 31.8952 2.76416 36.4291 7.09454L39.1919 4.20195C32.9994 -1.71261 23.1387 -1.31879 17.212 4.97388L20.1239 7.71636ZM16.8538 16.0764C16.815 12.9674 17.9685 10.0017 20.1229 7.71735L17.213 4.97289C14.3485 8.01007 12.8023 11.9769 12.8541 16.1263L16.8538 16.0764Z" fill="black" mask="url(#path-23-outside-2_491_2202)"/>
</mask>
<g mask="url(#mask1_491_2202)">
<path d="M11.5 44.4564L16 34.9659L20 31.9689L25 21.979L41.5 11.9891L45.5 6.49557L40 -2.99585H20.5L10.5 1.00013L12 22.978L4 30.4705L-4.5 39.9609L4 47.9529L11.5 44.4564Z" fill="#B1B1B1"/>
<path d="M71 27.9739L67 30.9709L20.5 31.4704L16.5 33.9678L14 39.4623L18.5 50.9507L68 52.9487L77 48.4533L82.5 33.4683L71 27.9739Z" fill="#357D8D"/>
<path d="M22.5 26.975L19.5 31.9699L66.5 32.4694L70 28.9729L76 22.4795L67 21.98L64 25.4765L22.5 26.975Z" fill="#DA9D29"/>
<path d="M43.5 8.49341L40 13.9879L36.5 24.4773L62.5 26.9748L67 22.4793L70.5 8.49341H43.5Z" fill="#C95867"/>
</g>
</svg>
