<svg width="31" height="30" viewBox="0 0 31 30" fill="none" xmlns="http://www.w3.org/2000/svg">
<path d="M9.30304 24L24.303 9L21.303 6L6.30304 21L9.30304 24" stroke="#949494" stroke-width="2" stroke-linecap="round" stroke-linejoin="round"/>
<path d="M18.3031 9L21.3031 12" stroke="#949494" stroke-width="2" stroke-linecap="round" stroke-linejoin="round"/>
<path d="M12.303 6C12.303 7.10457 13.1985 8 14.303 8C13.1985 8 12.303 8.89543 12.303 10C12.303 8.89543 11.4076 8 10.303 8C11.4076 8 12.303 7.10457 12.303 6" stroke="#949494" stroke-width="2" stroke-linecap="round" stroke-linejoin="round"/>
<path d="M22.303 15.9998C22.303 17.1043 23.1985 17.9998 24.303 17.9998C23.1985 17.9998 22.303 18.8952 22.303 19.9998C22.303 18.8952 21.4076 17.9998 20.303 17.9998C21.4076 17.9998 22.303 17.1043 22.303 15.9998" stroke="#949494" stroke-width="2" stroke-linecap="round" stroke-linejoin="round"/>
</svg>
