<svg width="93" height="54" viewBox="0 0 93 54" fill="none" xmlns="http://www.w3.org/2000/svg">
<path fill-rule="evenodd" clip-rule="evenodd" d="M47.697 12.5C47.697 11.9477 47.2492 11.5 46.697 11.5C46.1447 11.5 45.697 11.9477 45.697 12.5C45.697 13.0523 45.2492 13.5 44.697 13.5C44.1447 13.5 43.697 13.9477 43.697 14.5C43.697 15.0523 44.1447 15.5 44.697 15.5C45.2492 15.5 45.697 15.9477 45.697 16.5C45.697 17.0523 46.1447 17.5 46.697 17.5C47.2492 17.5 47.697 17.0523 47.697 16.5C47.697 15.9477 48.1447 15.5 48.697 15.5C49.2492 15.5 49.697 15.0523 49.697 14.5C49.697 13.9477 49.2492 13.5 48.697 13.5C48.1447 13.5 47.697 13.0523 47.697 12.5ZM56.4041 11.7929C56.0135 11.4024 55.3804 11.4024 54.9899 11.7929L51.9899 14.7929L39.9899 26.7929C39.5993 27.1834 39.5993 27.8166 39.9899 28.2071L42.9899 31.2071C43.3804 31.5976 44.0135 31.5976 44.4041 31.2071L56.4008 19.2104L56.4041 19.2071L56.4074 19.2038L59.4041 16.2071C59.7946 15.8166 59.7946 15.1834 59.4041 14.7929L56.4041 11.7929ZM57.697 22.4999C57.697 21.9476 57.2493 21.4999 56.697 21.4999C56.1447 21.4999 55.697 21.9476 55.697 22.4999C55.697 23.0522 55.2493 23.4999 54.697 23.4999C54.1447 23.4999 53.697 23.9476 53.697 24.4999C53.697 25.0522 54.1447 25.4999 54.697 25.4999C55.2493 25.4999 55.697 25.9476 55.697 26.4999C55.697 27.0522 56.1447 27.4999 56.697 27.4999C57.2493 27.4999 57.697 27.0522 57.697 26.4999C57.697 25.9476 58.1447 25.4999 58.697 25.4999C59.2493 25.4999 59.697 25.0522 59.697 24.4999C59.697 23.9476 59.2493 23.4999 58.697 23.4999C58.1447 23.4999 57.697 23.0522 57.697 22.4999Z" fill="#00C7B1"/>
<path d="M41.303 28.5L56.303 13.5L53.303 10.5L38.303 25.5L41.303 28.5" stroke="black" stroke-width="2" stroke-linecap="round" stroke-linejoin="round"/>
<path d="M50.3031 13.5L53.3031 16.5" stroke="black" stroke-width="2" stroke-linecap="round" stroke-linejoin="round"/>
<path d="M44.303 10.5C44.303 11.6046 45.1985 12.5 46.303 12.5C45.1985 12.5 44.303 13.3954 44.303 14.5C44.303 13.3954 43.4076 12.5 42.303 12.5C43.4076 12.5 44.303 11.6046 44.303 10.5" stroke="black" stroke-width="2" stroke-linecap="round" stroke-linejoin="round"/>
<path d="M54.303 20.4998C54.303 21.6043 55.1985 22.4998 56.303 22.4998C55.1985 22.4998 54.303 23.3952 54.303 24.4998C54.303 23.3952 53.4076 22.4998 52.303 22.4998C53.4076 22.4998 54.303 21.6043 54.303 20.4998" stroke="black" stroke-width="2" stroke-linecap="round" stroke-linejoin="round"/>
<path d="M45.3143 37.6797H38.5896V38.5176H44.3152V38.582C44.3152 39.0171 44.3099 39.479 44.2884 40L38.2996 40.2363L38.45 41.1172L44.24 40.7788C44.181 41.4287 44.0843 42.1538 43.907 42.9756L44.9061 43.083C45.3196 41.085 45.3089 39.7529 45.3143 38.582V37.6797ZM37.5477 45.167H46.324V44.3184H41.8982V41.8799H40.8885V44.3184H37.5477V45.167ZM50.2316 38.7861V38.7324H52.3586V37.916H50.2424V36.7881H49.2111V37.916H47.0734V38.7324H49.2111V38.7861C49.2165 40.0322 48.2927 41.1978 46.8049 41.6436L47.3098 42.4492C48.4646 42.084 49.3239 41.2998 49.7536 40.2954C50.1994 41.1978 51.0588 41.896 52.1867 42.2129L52.6701 41.418C51.177 41.0044 50.2263 39.9409 50.2316 38.7861ZM48.1262 44.6191C48.1262 45.7524 49.3669 46.397 51.4025 46.3916C53.4221 46.397 54.6628 45.7524 54.6682 44.6191C54.6628 43.4966 53.4221 42.8467 51.4025 42.8467C49.3669 42.8467 48.1262 43.4966 48.1262 44.6191ZM49.1574 44.6191C49.1574 44.0068 49.9738 43.647 51.4025 43.6523C52.8259 43.647 53.6638 44.0068 53.6584 44.6191C53.6638 45.2476 52.8259 45.6021 51.4025 45.6074C49.9738 45.6021 49.1574 45.2476 49.1574 44.6191ZM53.6154 42.6641H54.6359V36.7988H53.6154V42.6641Z" fill="black"/>
</svg>
