<svg width="37" height="36" viewBox="0 0 37 36" fill="none" xmlns="http://www.w3.org/2000/svg">
<path d="M12.5 27L27.5 12L24.5 9L9.5 24L12.5 27" stroke="#949494" stroke-width="2" stroke-linecap="round" stroke-linejoin="round"/>
<path d="M21.5 12L24.5 15" stroke="#949494" stroke-width="2" stroke-linecap="round" stroke-linejoin="round"/>
<path d="M15.5 9C15.5 10.1046 16.3954 11 17.5 11C16.3954 11 15.5 11.8954 15.5 13C15.5 11.8954 14.6046 11 13.5 11C14.6046 11 15.5 10.1046 15.5 9" stroke="#949494" stroke-width="2" stroke-linecap="round" stroke-linejoin="round"/>
<path d="M25.5 18.9998C25.5 20.1043 26.3954 20.9998 27.5 20.9998C26.3954 20.9998 25.5 21.8952 25.5 22.9998C25.5 21.8952 24.6046 20.9998 23.5 20.9998C24.6046 20.9998 25.5 20.1043 25.5 18.9998" stroke="#949494" stroke-width="2" stroke-linecap="round" stroke-linejoin="round"/>
</svg>
