<svg width="31" height="30" viewBox="0 0 31 30" fill="none" xmlns="http://www.w3.org/2000/svg">
<path fill-rule="evenodd" clip-rule="evenodd" d="M15.697 8C15.697 7.44772 15.2492 7 14.697 7C14.1447 7 13.697 7.44772 13.697 8C13.697 8.55228 13.2492 9 12.697 9C12.1447 9 11.697 9.44771 11.697 10C11.697 10.5523 12.1447 11 12.697 11C13.2492 11 13.697 11.4477 13.697 12C13.697 12.5523 14.1447 13 14.697 13C15.2492 13 15.697 12.5523 15.697 12C15.697 11.4477 16.1447 11 16.697 11C17.2492 11 17.697 10.5523 17.697 10C17.697 9.44771 17.2492 9 16.697 9C16.1447 9 15.697 8.55228 15.697 8ZM24.4041 7.29289C24.0135 6.90237 23.3804 6.90237 22.9899 7.29289L19.9899 10.2929L7.98985 22.2929C7.59933 22.6834 7.59933 23.3166 7.98985 23.7071L10.9899 26.7071C11.3804 27.0976 12.0135 27.0976 12.4041 26.7071L24.4008 14.7104L24.4041 14.7071L24.4074 14.7038L27.4041 11.7071C27.7946 11.3166 27.7946 10.6834 27.4041 10.2929L24.4041 7.29289ZM25.697 17.9999C25.697 17.4476 25.2493 16.9999 24.697 16.9999C24.1447 16.9999 23.697 17.4476 23.697 17.9999C23.697 18.5522 23.2493 18.9999 22.697 18.9999C22.1447 18.9999 21.697 19.4476 21.697 19.9999C21.697 20.5522 22.1447 20.9999 22.697 20.9999C23.2493 20.9999 23.697 21.4476 23.697 21.9999C23.697 22.5522 24.1447 22.9999 24.697 22.9999C25.2493 22.9999 25.697 22.5522 25.697 21.9999C25.697 21.4476 26.1447 20.9999 26.697 20.9999C27.2493 20.9999 27.697 20.5522 27.697 19.9999C27.697 19.4476 27.2493 18.9999 26.697 18.9999C26.1447 18.9999 25.697 18.5522 25.697 17.9999Z" fill="#00C7B1"/>
<path d="M9.30304 24L24.303 9L21.303 6L6.30304 21L9.30304 24" stroke="black" stroke-width="2" stroke-linecap="round" stroke-linejoin="round"/>
<path d="M18.3031 9L21.3031 12" stroke="black" stroke-width="2" stroke-linecap="round" stroke-linejoin="round"/>
<path d="M12.303 6C12.303 7.10457 13.1985 8 14.303 8C13.1985 8 12.303 8.89543 12.303 10C12.303 8.89543 11.4076 8 10.303 8C11.4076 8 12.303 7.10457 12.303 6" stroke="black" stroke-width="2" stroke-linecap="round" stroke-linejoin="round"/>
<path d="M22.303 15.9998C22.303 17.1043 23.1985 17.9998 24.303 17.9998C23.1985 17.9998 22.303 18.8952 22.303 19.9998C22.303 18.8952 21.4076 17.9998 20.303 17.9998C21.4076 17.9998 22.303 17.1043 22.303 15.9998" stroke="black" stroke-width="2" stroke-linecap="round" stroke-linejoin="round"/>
</svg>
