<svg width="30" height="24" viewBox="0 0 30 24" fill="none" xmlns="http://www.w3.org/2000/svg">
<path d="M7.32455 4.41113C7.335 4.41799 7.335 4.41799 7.32455 4.41113V4.41113Z" fill="#00C7B1"/>
<path d="M7.29288 4.39062C7.30691 4.39935 7.31918 4.40634 7.32619 4.41157C7.31918 4.40808 7.30866 4.4011 7.29288 4.39062Z" fill="#00C7B1"/>
<path d="M8.27813 3.35233C8.34687 3.19422 8.38389 3.0045 8.36802 2.77262C8.36802 2.77262 9.22997 0.501212 7.98905 0.0585258C7.18175 -0.229572 6.6882 0.604857 6.59301 1.27591C6.07126 0.712016 5.38382 0.269329 4.75455 0.826201C4.38615 1.15295 4.45313 1.64658 4.7898 2.18588C4.32798 2.00846 3.8644 2.03305 3.54536 2.54776C3.01127 3.4103 4.38615 4.16919 5.67995 4.50296C6.24753 4.64877 8.22525 3.68258 8.27636 3.35584C8.27636 3.35584 8.27636 3.35408 8.27636 3.35233H8.27813Z" fill="#00C7B1"/>
<path d="M13.9047 1.00146C7.58726 1.00146 2.46671 6.10466 2.46671 12.4006C2.46671 18.6966 7.58726 23.7998 13.9047 23.7998C20.2221 23.7998 25.3426 18.6966 25.3426 12.4006C25.3426 6.10466 20.2221 1.00146 13.9047 1.00146Z" fill="#00C7B1"/>
<path d="M10.4762 15.9136C11.8216 15.9136 12.9122 14.8267 12.9122 13.4859C12.9122 12.145 11.8216 11.0581 10.4762 11.0581C9.13086 11.0581 8.04022 12.145 8.04022 13.4859C8.04022 14.8267 9.13086 15.9136 10.4762 15.9136Z" fill="#F5F4F3"/>
<path d="M11.2959 13.4761C11.2959 12.5643 10.79 11.7685 10.0444 11.3539C9.81174 11.2238 9.52442 11.2238 9.29175 11.3539C8.54438 11.7685 8.04025 12.5626 8.04025 13.4761C8.04025 14.3897 8.54614 15.1838 9.29175 15.5984C9.52442 15.7285 9.81174 15.7285 10.0444 15.5984C10.7918 15.1838 11.2959 14.3897 11.2959 13.4761Z" fill="#191919"/>
<path d="M17.3947 15.9136C18.74 15.9136 19.8307 14.8267 19.8307 13.4859C19.8307 12.145 18.74 11.0581 17.3947 11.0581C16.0493 11.0581 14.9586 12.145 14.9586 13.4859C14.9586 14.8267 16.0493 15.9136 17.3947 15.9136Z" fill="#F5F4F3"/>
<path d="M18.2143 13.4761C18.2143 12.5643 17.7084 11.7685 16.9628 11.3539C16.7301 11.2238 16.4428 11.2238 16.2101 11.3539C15.4628 11.7685 14.9586 12.5626 14.9586 13.4761C14.9586 14.3897 15.4645 15.1838 16.2101 15.5984C16.4428 15.7285 16.7301 15.7285 16.9628 15.5984C17.7102 15.1838 18.2143 14.3897 18.2143 13.4761Z" fill="#191919"/>
<path d="M12.8628 12.0184C12.7922 12.0184 12.7358 11.9622 12.7358 11.8919C12.7358 10.6621 11.7311 9.6607 10.4973 9.6607C9.26338 9.6607 8.25866 10.6621 8.25866 11.8919C8.25866 11.9622 8.20226 12.0184 8.13175 12.0184C8.06124 12.0184 8.00484 11.9622 8.00484 11.8919C8.00484 10.5216 9.12237 9.40771 10.4973 9.40771C11.8721 9.40771 12.9897 10.5216 12.9897 11.8919C12.9897 11.9622 12.9333 12.0184 12.8628 12.0184Z" fill="#191919"/>
<path d="M19.6563 12.0184C19.5858 12.0184 19.5294 11.9622 19.5294 11.8919C19.5294 10.6621 18.5247 9.6607 17.2908 9.6607C16.0569 9.6607 15.0522 10.6621 15.0522 11.8919C15.0522 11.9622 14.9958 12.0184 14.9253 12.0184C14.8548 12.0184 14.7984 11.9622 14.7984 11.8919C14.7984 10.5216 15.9159 9.40771 17.2908 9.40771C18.6657 9.40771 19.7832 10.5216 19.7832 11.8919C19.7832 11.9622 19.7268 12.0184 19.6563 12.0184Z" fill="#191919"/>
<path d="M15.5669 17.9591C15.8013 17.6341 15.9423 17.2124 15.9846 16.7082C15.9987 16.5431 15.8436 16.4148 15.6832 16.4605C14.1268 16.9032 12.7695 16.6836 12.1684 16.5396C12.008 16.5009 11.8635 16.6415 11.9005 16.8013C11.9746 17.1334 12.1367 17.6394 12.4699 18.047C12.7431 17.8063 13.2225 17.5357 13.9999 17.5357C14.5868 17.5357 15.1526 17.7167 15.5651 17.9609L15.5669 17.9591Z" fill="#191919"/>
<path d="M13.8852 18.7078C14.659 18.7078 15.2178 18.4407 15.5668 17.9593C15.1525 17.7151 14.5885 17.5342 14.0015 17.5342C13.2242 17.5342 12.743 17.8065 12.4715 18.0454C12.7765 18.4179 13.2242 18.706 13.8852 18.706V18.7078Z" fill="#FC8181"/>
<path d="M20.8335 14.7232C19.3229 12.3798 17.6202 12.3938 17.6202 12.3938H17.6237C17.5444 12.3868 17.4651 12.3833 17.384 12.3833C16.1131 12.3833 15.0449 13.2634 14.7594 14.4439C14.5602 14.2384 14.2676 14.1084 13.9397 14.1084C13.6119 14.1084 13.3193 14.2384 13.1201 14.4439C12.8345 13.2634 11.7663 12.3833 10.4955 12.3833C10.4144 12.3833 10.3351 12.3868 10.2557 12.3938H10.2593C10.2593 12.3938 8.55476 12.378 7.04591 14.7232C6.9754 14.8321 6.93839 14.9621 6.94367 15.0921L6.95954 15.5594C6.96659 15.7807 7.08998 15.9828 7.28563 16.0899L8.31856 16.6644C8.81034 17.3319 9.60354 17.7676 10.4972 17.7676C11.9867 17.7676 13.1976 16.5607 13.1976 15.0763C13.1976 15.0201 13.1959 14.9639 13.1923 14.9094C13.2805 14.6266 13.5819 14.4176 13.9415 14.4176C14.3011 14.4176 14.6025 14.6266 14.6906 14.9094C14.6871 14.9656 14.6853 15.0201 14.6853 15.0763C14.6853 16.5607 15.8963 17.7676 17.3857 17.7676C18.2794 17.7676 19.0726 17.3319 19.5644 16.6644L20.5973 16.0899C20.7912 15.981 20.9146 15.7807 20.9234 15.5594L20.9393 15.0921C20.9446 14.9621 20.9075 14.8339 20.837 14.7232H20.8335ZM10.4955 17.3934C9.21223 17.3934 8.16873 16.3534 8.16873 15.0746C8.16873 13.7957 9.21223 12.7557 10.4955 12.7557C11.7787 12.7557 12.8222 13.7957 12.8222 15.0746C12.8222 16.3534 11.7787 17.3934 10.4955 17.3934ZM17.384 17.3934C16.1007 17.3934 15.0572 16.3534 15.0572 15.0746C15.0572 13.7957 16.1007 12.7557 17.384 12.7557C18.6672 12.7557 19.7107 13.7957 19.7107 15.0746C19.7107 16.3534 18.6672 17.3934 17.384 17.3934Z" fill="#151F6D"/>
<path d="M29.4656 19.8816C29.6227 19.2887 29.0915 18.6348 28.2792 18.4211C27.4669 18.2073 26.6811 18.5147 26.524 19.1076C26.3669 19.7005 26.8981 20.3544 27.7104 20.5682C28.5227 20.7819 29.3085 20.4745 29.4656 19.8816Z" fill="#00C7B1"/>
<path d="M27.0049 18.6095C27.0049 18.6095 27.0014 17.0582 27.5161 17.0388C28.0308 17.0195 28.0308 18.0771 27.717 18.7799C27.4033 19.4826 27.1406 19.3421 27.1406 19.3421L27.0031 18.6095H27.0049Z" fill="#00C7B1"/>
<path d="M27.8685 18.3124C27.8685 18.3124 28.013 18.1033 28.3303 18.2316C28.6476 18.3581 28.6476 18.5566 28.6476 18.5566C28.6476 18.5566 28.8327 18.4389 29.1147 18.597C29.5624 18.8465 29.3756 19.2189 29.3756 19.2189C29.3756 19.2189 28.8697 19.2628 28.1382 18.9554C27.4067 18.6479 27.8685 18.3141 27.8685 18.3141V18.3124Z" fill="#00C7B1"/>
<path d="M1.12169 20.6351C0.857291 20.6351 0.631669 20.4331 0.610517 20.1643C0.443063 18.1582 1.13403 16.9197 1.74391 16.2328C2.41725 15.4739 3.14876 15.2034 3.18049 15.1911C3.44665 15.0945 3.74278 15.2315 3.83973 15.4985C3.93667 15.7638 3.79919 16.0572 3.53479 16.1538C3.4396 16.1907 1.3808 17.0093 1.63639 20.0782C1.65931 20.3611 1.44955 20.6088 1.16576 20.6316C1.15166 20.6316 1.13756 20.6333 1.12345 20.6333L1.12169 20.6351Z" fill="#00C7B1"/>
<path d="M26.3208 20.8831C25.8784 20.8831 25.4466 20.8005 25.0288 20.6354C22.9859 19.829 22.0323 17.3254 21.9935 17.2183C21.8948 16.953 22.0305 16.6578 22.2967 16.5595C22.5628 16.4611 22.859 16.5963 22.9577 16.8616C22.9718 16.8968 23.8002 19.0507 25.4113 19.6849C26.1428 19.973 26.9166 19.9063 27.775 19.4811C28.0289 19.3546 28.3373 19.4583 28.4643 19.713C28.5912 19.9678 28.4872 20.2735 28.2316 20.4C27.5794 20.7232 26.9395 20.8849 26.3226 20.8849L26.3208 20.8831Z" fill="#00C7B1"/>
<path d="M0.192778 22.2528C0.562939 22.381 0.696902 21.7099 0.714529 21.3585C0.714529 21.3585 0.714529 21.3585 0.716291 21.3585C0.718054 22.2124 0.714529 22.7342 1.13404 22.6867C1.60996 22.634 1.36143 21.3498 1.36143 21.3498C1.36143 21.3498 1.60644 22.4302 1.96602 22.4056C2.32561 22.381 2.36086 21.731 2.01714 21.0739C2.08765 21.4112 2.39612 21.8926 2.65347 21.7925C3.2845 21.5465 2.3873 20.4625 2.32561 20.185C2.20575 19.6368 1.60644 19.3504 0.889033 19.5859C0.275624 19.7879 -0.0910114 20.3396 0.0676289 20.8174C0.0870183 20.8754 0.113458 20.9281 0.143424 20.9773C0.0394262 21.3445 -0.142129 22.1368 0.192778 22.2528Z" fill="#00C7B1"/>
<path d="M29.1799 19.4583C29.1076 19.6181 28.9525 19.8184 28.7498 19.7359C28.6476 19.6937 28.6352 19.5953 28.6352 19.4969C28.6352 19.3616 28.6529 19.2281 28.6828 19.0964C28.6987 19.0243 28.5912 18.9681 28.5559 19.0436C28.4907 19.1842 28.4184 19.3212 28.3391 19.453C28.3056 19.5092 28.2686 19.569 28.1999 19.5865C28.147 19.6006 28.087 19.5865 28.0395 19.5619C27.7733 19.4214 27.8879 19.0138 27.9055 18.7819C27.9125 18.6923 27.7733 18.694 27.7662 18.7819C27.7451 19.0841 27.6411 19.5408 28.0024 19.6972C28.1399 19.7569 28.2986 19.7323 28.3955 19.6146C28.4325 19.5707 28.4643 19.5198 28.496 19.4688C28.496 19.4987 28.496 19.5303 28.496 19.5602C28.5048 19.6954 28.5647 19.8114 28.6934 19.8641C28.9613 19.9748 29.194 19.7587 29.2962 19.5303C29.3333 19.4495 29.2134 19.3792 29.1764 19.46L29.1799 19.4583Z" fill="#191919"/>
<path d="M27.3767 18.8885C27.2392 18.8182 27.0859 18.7532 26.9272 18.7515C26.8462 18.7515 26.7633 18.769 26.6963 18.8165C26.6153 18.8727 26.5765 18.9588 26.5465 19.0501C26.4778 19.2662 26.4619 19.5069 26.5835 19.7054C26.6294 19.781 26.751 19.7125 26.7034 19.6352C26.5976 19.4612 26.6241 19.2539 26.6858 19.0695C26.7122 18.9886 26.7563 18.9219 26.8426 18.8973C26.9149 18.878 26.9925 18.8903 27.063 18.9078C27.1811 18.9394 27.3256 18.9922 27.419 19.0747C27.4754 19.1257 27.5442 19.2434 27.4684 19.3066C27.4278 19.3418 27.3485 19.3506 27.2974 19.3558C27.2357 19.3611 27.1775 19.3541 27.1176 19.3383C27.0436 19.3189 26.9925 19.4279 27.0647 19.4648C27.2939 19.5789 27.3732 19.8565 27.234 20.0726C27.1864 20.1482 27.3062 20.2167 27.3538 20.1429C27.486 19.9356 27.4631 19.6738 27.3186 19.4929C27.4649 19.4823 27.6076 19.4261 27.6341 19.2803C27.6676 19.0976 27.5248 18.9623 27.3767 18.8867V18.8885Z" fill="#191919"/>
</svg>
