<svg width="37" height="36" viewBox="0 0 37 36" fill="none" xmlns="http://www.w3.org/2000/svg">
<path fill-rule="evenodd" clip-rule="evenodd" d="M22.1764 9.78016C21.8028 9.40661 21.1972 9.40661 20.8236 9.78016L10.7802 19.8236C10.5066 20.0972 10.4248 20.5086 10.5728 20.866C10.7209 21.2235 11.0697 21.4565 11.4565 21.4565H12.7319V28.3116C12.7319 30.0725 14.1594 31.5 15.9203 31.5H27.0797C28.8406 31.5 30.2681 30.0725 30.2681 28.3116V21.4565H31.5435C31.9303 21.4565 32.2791 21.2235 32.4272 20.866C32.5752 20.5086 32.4934 20.0972 32.2198 19.8236L22.1764 9.78016Z" fill="#00C7B1"/>
<path d="M10.3333 18H8L18.5 7.5L29 18H26.6667" stroke="black" stroke-width="2" stroke-linecap="round" stroke-linejoin="round"/>
<path d="M10.3333 18V26.1667C10.3333 27.4553 11.378 28.5 12.6667 28.5H24.3333C25.622 28.5 26.6667 27.4553 26.6667 26.1667V18" stroke="black" stroke-width="2" stroke-linecap="round" stroke-linejoin="round"/>
<path d="M15 28.5001V21.5001C15 20.2114 16.0447 19.1667 17.3333 19.1667H19.6667C20.9553 19.1667 22 20.2114 22 21.5001V28.5001" stroke="black" stroke-width="2" stroke-linecap="round" stroke-linejoin="round"/>
</svg>
