<svg width="93" height="54" viewBox="0 0 93 54" fill="none" xmlns="http://www.w3.org/2000/svg">
<path fill-rule="evenodd" clip-rule="evenodd" d="M50.6764 9.78016C50.3028 9.40661 49.6972 9.40661 49.3236 9.78016L39.2802 19.8236C39.0066 20.0972 38.9248 20.5086 39.0728 20.866C39.2209 21.2235 39.5697 21.4565 39.9565 21.4565H41.2319V28.3116C41.2319 30.0725 42.6594 31.5 44.4203 31.5H55.5797C57.3406 31.5 58.7681 30.0725 58.7681 28.3116V21.4565H60.0435C60.4303 21.4565 60.7791 21.2235 60.9272 20.866C61.0752 20.5086 60.9934 20.0972 60.7198 19.8236L50.6764 9.78016Z" fill="#00C7B1"/>
<path d="M38.3333 18.5H36L46.5 8L57 18.5H54.6667" stroke="black" stroke-width="2" stroke-linecap="round" stroke-linejoin="round"/>
<path d="M38.3333 18.5V26.6667C38.3333 27.9553 39.378 29 40.6667 29H52.3333C53.622 29 54.6667 27.9553 54.6667 26.6667V18.5" stroke="black" stroke-width="2" stroke-linecap="round" stroke-linejoin="round"/>
<path d="M43 29.0001V22.0001C43 20.7114 44.0447 19.6667 45.3333 19.6667H47.6667C48.9553 19.6667 50 20.7114 50 22.0001V29.0001" stroke="black" stroke-width="2" stroke-linecap="round" stroke-linejoin="round"/>
<path d="M49.8032 43.5127H43.1538V46.2949H49.8032V43.5127ZM42.1011 42.8574H50.8774V42.0518H46.9995V41.3965C48.7075 41.3267 49.6475 40.8701 49.6421 40.043C49.6475 39.146 48.5142 38.6841 46.4839 38.6787C44.4644 38.6841 43.3203 39.146 43.3257 40.043C43.3203 40.8701 44.2764 41.3267 45.979 41.3965V42.0518H42.1011V42.8574ZM42.5522 38.335H50.3833V37.5508H46.9995V36.6592H45.979V37.5508H42.5522V38.335ZM44.1636 45.5107V44.2969H48.8149V45.5107H44.1636ZM44.4106 40.043C44.4053 39.6025 45.1411 39.3877 46.4839 39.377C47.8374 39.3877 48.5571 39.6025 48.5571 40.043C48.5571 40.478 47.8374 40.709 46.4839 40.709C45.1411 40.709 44.4053 40.478 44.4106 40.043Z" fill="black"/>
</svg>
