<svg width="31" height="30" viewBox="0 0 31 30" fill="none" xmlns="http://www.w3.org/2000/svg">
<path fill-rule="evenodd" clip-rule="evenodd" d="M18.6764 5.28016C18.3028 4.90661 17.6972 4.90661 17.3236 5.28016L7.28019 15.3236C7.00662 15.5972 6.92479 16.0086 7.07284 16.366C7.22089 16.7235 7.56967 16.9565 7.95655 16.9565H9.2319V23.8116C9.2319 25.5725 10.6594 27 12.4203 27H23.5797C25.3406 27 26.7681 25.5725 26.7681 23.8116V16.9565H28.0435C28.4303 16.9565 28.7791 16.7235 28.9272 16.366C29.0752 16.0086 28.9934 15.5972 28.7198 15.3236L18.6764 5.28016Z" fill="#00C7B1"/>
<path d="M6.33333 14H4L14.5 3.5L25 14H22.6667" stroke="black" stroke-width="2" stroke-linecap="round" stroke-linejoin="round"/>
<path d="M6.33334 14V22.1667C6.33334 23.4553 7.37801 24.5 8.66668 24.5H20.3333C21.622 24.5 22.6667 23.4553 22.6667 22.1667V14" stroke="black" stroke-width="2" stroke-linecap="round" stroke-linejoin="round"/>
<path d="M11 24.5001V17.5001C11 16.2114 12.0447 15.1667 13.3333 15.1667H15.6667C16.9553 15.1667 18 16.2114 18 17.5001V24.5001" stroke="black" stroke-width="2" stroke-linecap="round" stroke-linejoin="round"/>
</svg>
