<svg width="28" height="28" viewBox="0 0 28 28" fill="none" xmlns="http://www.w3.org/2000/svg">
<path d="M16.5391 6.55483C17.0696 5.95654 17.4435 5.13997 17.4435 4.31531C17.4435 4.20212 17.4348 4.08893 17.4174 4C16.5478 4.03234 15.5043 4.5336 14.887 5.21273C14.3913 5.73017 13.9391 6.55483 13.9391 7.37948C13.9391 7.50884 13.9652 7.63012 13.9739 7.67054C14.0261 7.67863 14.113 7.6948 14.2087 7.6948C14.9826 7.6948 15.9565 7.2097 16.5391 6.55483ZM17.1478 7.86458C15.8522 7.86458 14.7913 8.6003 14.113 8.6003C13.3913 8.6003 12.4522 7.91309 11.3217 7.91309C9.17391 7.91309 7 9.56241 7 12.667C7 14.6074 7.8 16.6529 8.8 17.9707C9.65217 19.0864 10.4 20 11.4783 20C12.5391 20 13.0087 19.3451 14.3304 19.3451C15.6696 19.3451 15.9739 19.9838 17.1478 19.9838C18.313 19.9838 19.087 18.9894 19.8261 18.0111C20.6435 16.8873 20.9913 15.7959 21 15.7393C20.9304 15.7231 18.7043 14.8742 18.7043 12.5053C18.7043 10.4517 20.4522 9.53007 20.5565 9.4573C19.4 7.91309 17.6348 7.86458 17.1478 7.86458Z" fill="#3B3B3B"/>
</svg>
