<svg width="28" height="28" viewBox="0 0 28 28" fill="none" xmlns="http://www.w3.org/2000/svg">
<path d="M23.4537 16.5445C23.8461 16.1558 23.8491 15.5227 23.4605 15.1303C23.0719 14.7379 22.4387 14.7348 22.0463 15.1235L23.4537 16.5445ZM14 24.5L13.2963 25.2105C13.686 25.5965 14.314 25.5965 14.7037 25.2105L14 24.5ZM5.95369 15.1235C5.56128 14.7348 4.92813 14.7379 4.53949 15.1303C4.15085 15.5227 4.15391 16.1558 4.54631 16.5445L5.95369 15.1235ZM4.55255 16.5506C4.94836 16.9358 5.58146 16.9272 5.96663 16.5314C6.35179 16.1355 6.34316 15.5024 5.94735 15.1173L4.55255 16.5506ZM13.9999 8.17363L13.1973 8.77015C13.3854 9.02321 13.6819 9.17275 13.9972 9.17362C14.3125 9.1745 14.6097 9.02662 14.7992 8.7746L13.9999 8.17363ZM22.0492 15.1275C21.6552 15.5145 21.6495 16.1477 22.0365 16.5417C22.4235 16.9357 23.0567 16.9414 23.4507 16.5544L22.0492 15.1275ZM22.0463 15.1235L13.2963 23.7895L14.7037 25.2105L23.4537 16.5445L22.0463 15.1235ZM14.7037 23.7895L5.95369 15.1235L4.54631 16.5445L13.2963 25.2105L14.7037 23.7895ZM5.94735 15.1173C4.6436 13.8486 4.16262 11.9554 4.70274 10.2182L2.79294 9.62442C2.02931 12.0803 2.70932 14.757 4.55255 16.5506L5.94735 15.1173ZM4.70274 10.2182C5.24287 8.48114 6.71261 7.19443 8.50588 6.88872L8.16979 4.91717C5.63447 5.34937 3.55656 7.16851 2.79294 9.62442L4.70274 10.2182ZM8.50588 6.88872C10.2992 6.58302 12.1122 7.3101 13.1973 8.77015L14.8025 7.57711C13.2684 5.51291 10.7051 4.48496 8.16979 4.91717L8.50588 6.88872ZM14.7992 8.7746C15.8889 7.32536 17.6981 6.60793 19.4848 6.91649L19.8252 4.94567C17.2991 4.50942 14.7413 5.52372 13.2007 7.57265L14.7992 8.7746ZM19.4848 6.91649C21.2716 7.22506 22.7354 8.5077 23.2759 10.2385L25.185 9.64226C24.4208 7.19531 22.3513 5.38191 19.8252 4.94567L19.4848 6.91649ZM23.2759 10.2385C23.8164 11.9692 23.3428 13.857 22.0492 15.1275L23.4507 16.5544C25.2795 14.758 25.9492 12.0892 25.185 9.64226L23.2759 10.2385Z" fill="black"/>
</svg>
