<svg width="24" height="24" viewBox="0 0 24 24" fill="none" xmlns="http://www.w3.org/2000/svg">
<path d="M5.70711 4.29289C5.31658 3.90237 4.68342 3.90237 4.29289 4.29289C3.90237 4.68342 3.90237 5.31658 4.29289 5.70711L5.70711 4.29289ZM17.2929 18.7071C17.6834 19.0976 18.3166 19.0976 18.7071 18.7071C19.0976 18.3166 19.0976 17.6834 18.7071 17.2929L17.2929 18.7071ZM18.7071 5.70711C19.0976 5.31658 19.0976 4.68342 18.7071 4.29289C18.3166 3.90237 17.6834 3.90237 17.2929 4.29289L18.7071 5.70711ZM4.29289 17.2929C3.90237 17.6834 3.90237 18.3166 4.29289 18.7071C4.68342 19.0976 5.31658 19.0976 5.70711 18.7071L4.29289 17.2929ZM4.29289 5.70711L17.2929 18.7071L18.7071 17.2929L5.70711 4.29289L4.29289 5.70711ZM17.2929 4.29289L4.29289 17.2929L5.70711 18.7071L18.7071 5.70711L17.2929 4.29289Z" fill="black"/>
</svg>
