<svg width="28" height="28" viewBox="0 0 28 28" fill="none" xmlns="http://www.w3.org/2000/svg">
<path fill-rule="evenodd" clip-rule="evenodd" d="M22.75 15.834L14 24.5L5.25 15.834M5.24995 15.834C3.67646 14.3029 3.09596 12.0179 3.74784 9.92138C4.39972 7.82487 6.17354 6.27195 8.33784 5.903C10.5021 5.53404 12.6903 6.41156 13.9999 8.17368C15.3151 6.4246 17.4986 5.55873 19.655 5.93113C21.8115 6.30354 23.5781 7.85156 24.2304 9.94042C24.8828 12.0293 24.3112 14.3076 22.7499 15.841" fill="black"/>
<path d="M23.4537 16.5445C23.8461 16.1559 23.8491 15.5227 23.4605 15.1303C23.0719 14.7379 22.4387 14.7349 22.0463 15.1235L23.4537 16.5445ZM14 24.5L13.2963 25.2105C13.686 25.5965 14.314 25.5965 14.7037 25.2105L14 24.5ZM5.95369 15.1235C5.56128 14.7349 4.92813 14.7379 4.53949 15.1303C4.15085 15.5227 4.15391 16.1559 4.54631 16.5445L5.95369 15.1235ZM4.55255 16.5507C4.94836 16.9359 5.58146 16.9272 5.96663 16.5314C6.35179 16.1356 6.34316 15.5025 5.94735 15.1173L4.55255 16.5507ZM13.9999 8.17368L13.1973 8.7702C13.3854 9.02326 13.6819 9.1728 13.9972 9.17368C14.3125 9.17455 14.6097 9.02667 14.7992 8.77466L13.9999 8.17368ZM22.0492 15.1276C21.6552 15.5146 21.6495 16.1477 22.0365 16.5417C22.4235 16.9358 23.0567 16.9414 23.4507 16.5544L22.0492 15.1276ZM22.0463 15.1235L13.2963 23.7895L14.7037 25.2105L23.4537 16.5445L22.0463 15.1235ZM14.7037 23.7895L5.95369 15.1235L4.54631 16.5445L13.2963 25.2105L14.7037 23.7895ZM5.94735 15.1173C4.6436 13.8487 4.16262 11.9554 4.70274 10.2183L2.79294 9.62447C2.02931 12.0804 2.70932 14.7571 4.55255 16.5507L5.94735 15.1173ZM4.70274 10.2183C5.24287 8.48119 6.71261 7.19448 8.50588 6.88877L8.16979 4.91722C5.63447 5.34942 3.55656 7.16856 2.79294 9.62447L4.70274 10.2183ZM8.50588 6.88877C10.2992 6.58307 12.1122 7.31016 13.1973 8.7702L14.8025 7.57716C13.2684 5.51296 10.7051 4.48501 8.16979 4.91722L8.50588 6.88877ZM14.7992 8.77466C15.8889 7.32542 17.6981 6.60798 19.4848 6.91655L19.8252 4.94572C17.2991 4.50947 14.7413 5.52378 13.2007 7.5727L14.7992 8.77466ZM19.4848 6.91655C21.2716 7.22511 22.7354 8.50776 23.2759 10.2385L25.185 9.64231C24.4208 7.19536 22.3513 5.38196 19.8252 4.94572L19.4848 6.91655ZM23.2759 10.2385C23.8164 11.9693 23.3428 13.857 22.0492 15.1276L23.4507 16.5544C25.2795 14.7581 25.9492 12.0893 25.185 9.64231L23.2759 10.2385Z" fill="black"/>
</svg>
