<svg width="28" height="28" viewBox="0 0 28 28" fill="none" xmlns="http://www.w3.org/2000/svg">
<g opacity="0.8">
<path d="M20 10C21.6569 10 23 11.3431 23 13C23 14.6569 21.6569 16 20 16" stroke="#0A0A0A" stroke-width="1.5" stroke-linecap="round" stroke-linejoin="round"/>
<path d="M12 10V21C12 21.5523 11.5523 22 11 22H10C9.44772 22 9 21.5523 9 21V16" stroke="#0A0A0A" stroke-width="1.5" stroke-linecap="round" stroke-linejoin="round"/>
<path d="M14 9.99996V9.99996L18.524 6.22996C18.7924 6.00643 19.1658 5.95835 19.482 6.10661C19.7983 6.25487 20.0002 6.5727 20 6.92196V19.078C20.0002 19.4272 19.7983 19.745 19.482 19.8933C19.1658 20.0416 18.7924 19.9935 18.524 19.77L14 16H6C5.44772 16 5 15.5522 5 15V11C5 10.4477 5.44772 9.99996 6 9.99996H14" stroke="#0A0A0A" stroke-width="1.5" stroke-linecap="round" stroke-linejoin="round"/>
</g>
</svg>
