<svg width="98" height="86" viewBox="0 0 98 86" fill="none" xmlns="http://www.w3.org/2000/svg">
<rect width="98" height="86" rx="8" fill="white"/>
<rect x="0.5" y="0.5" width="97" height="85" rx="7.5" stroke="black" stroke-opacity="0.15"/>
<path d="M31.6857 13.1334L31.871 72.4315L74.0001 72.2981L73.8148 13L31.6857 13.1334ZM33.9912 70.6598C33.576 70.6598 33.2424 70.3039 33.2424 69.8591C33.2424 69.4143 33.576 69.0585 33.9838 69.0585C34.3989 69.0585 34.7325 69.4143 34.7325 69.8591C34.7325 70.3039 34.3989 70.6598 33.9912 70.6598ZM33.9838 67.3238C33.5686 67.3238 33.235 66.968 33.235 66.5232C33.235 66.0784 33.5686 65.7226 33.9763 65.7226C34.3915 65.7226 34.7251 66.0784 34.7251 66.5232C34.7251 66.968 34.3915 67.3238 33.9838 67.3238ZM33.9763 63.9879C33.5612 63.9879 33.2276 63.6321 33.2276 63.1873C33.2276 62.7425 33.5612 62.3867 33.9689 62.3867C34.3767 62.3867 34.7177 62.7425 34.7177 63.1873C34.7177 63.6321 34.3841 63.9879 33.9763 63.9879ZM33.9689 60.652C33.5538 60.652 33.2202 60.2961 33.2202 59.8513C33.2202 59.4065 33.5538 59.0507 33.9615 59.0507C34.3767 59.0507 34.7102 59.4065 34.7102 59.8513C34.7102 60.2961 34.3767 60.652 33.9689 60.652ZM33.9615 57.316C33.5464 57.316 33.2128 56.9602 33.2128 56.5154C33.2128 56.0706 33.5464 55.7148 33.9541 55.7148C34.3692 55.7148 34.7028 56.0706 34.7028 56.5154C34.7028 56.9602 34.3692 57.316 33.9615 57.316ZM33.9541 53.9801C33.539 53.9801 33.2054 53.6243 33.2054 53.1795C33.2054 52.7347 33.539 52.3788 33.9467 52.3788C34.3544 52.3788 34.6954 52.7347 34.6954 53.1795C34.6954 53.6243 34.3618 53.9801 33.9541 53.9801ZM33.9467 50.6442C33.5316 50.6442 33.198 50.2883 33.198 49.8435C33.198 49.3987 33.5316 49.0429 33.9393 49.0429C34.3544 49.0429 34.688 49.3987 34.688 49.8435C34.688 50.2883 34.3544 50.6442 33.9467 50.6442ZM33.9393 47.3082C33.5241 47.3082 33.1905 46.9524 33.1905 46.5076C33.1905 46.0628 33.5241 45.707 33.9319 45.707C34.3396 45.707 34.6806 46.0628 34.6806 46.5076C34.6806 46.9524 34.347 47.3082 33.9393 47.3082ZM33.9319 43.9723C33.5167 43.9723 33.1831 43.6165 33.1831 43.1717C33.1831 42.7269 33.5167 42.371 33.9245 42.371C34.3396 42.371 34.6732 42.7269 34.6732 43.1717C34.6732 43.6165 34.3396 43.9723 33.9319 43.9723ZM33.9245 40.6364C33.5093 40.6364 33.1757 40.2805 33.1757 39.8357C33.1757 39.3909 33.5093 39.0351 33.917 39.0351C34.3322 39.0351 34.6658 39.3909 34.6658 39.8357C34.6658 40.2805 34.3322 40.6364 33.9245 40.6364ZM33.917 37.3004C33.5019 37.3004 33.1683 36.9446 33.1683 36.4998C33.1683 36.055 33.5019 35.6992 33.9096 35.6992C34.3174 35.6992 34.6584 36.055 34.6584 36.4998C34.6584 36.9446 34.3248 37.3004 33.917 37.3004ZM33.9096 33.9645C33.4945 33.9645 33.1609 33.6087 33.1609 33.1639C33.1609 32.7191 33.4945 32.3632 33.9022 32.3632C34.3173 32.3632 34.6509 32.7191 34.6509 33.1639C34.6509 33.6087 34.3174 33.9645 33.9096 33.9645ZM33.9022 30.6286C33.4871 30.6286 33.1535 30.2727 33.1535 29.8279C33.1535 29.3831 33.4871 29.0273 33.8948 29.0273C34.3025 29.0273 34.6435 29.3831 34.6435 29.8279C34.6435 30.2727 34.3099 30.6286 33.9022 30.6286ZM33.8948 27.2926C33.4797 27.2926 33.1461 26.9368 33.1461 26.492C33.1461 26.0472 33.4797 25.6914 33.8874 25.6914C34.3025 25.6914 34.6361 26.0472 34.6361 26.492C34.6361 26.9368 34.3025 27.2926 33.8948 27.2926ZM33.8874 23.9567C33.4722 23.9567 33.1387 23.6009 33.1387 23.1561C33.1387 22.7113 33.4722 22.3554 33.88 22.3554C34.2951 22.3554 34.6287 22.7113 34.6287 23.1561C34.6287 23.6009 34.2951 23.9567 33.8874 23.9567ZM33.88 20.6208C33.4648 20.6208 33.1312 20.2649 33.1312 19.8201C33.1312 19.3753 33.4648 19.0195 33.8726 19.0195C34.2877 19.0195 34.6213 19.3753 34.6213 19.8201C34.6213 20.2649 34.2877 20.6208 33.88 20.6208ZM33.8726 17.2848C33.4574 17.2848 33.1238 16.929 33.1238 16.4842C33.1238 16.0394 33.4574 15.6836 33.8651 15.6836C34.2803 15.6836 34.6139 16.0394 34.6139 16.4842C34.6139 16.929 34.2803 17.2848 33.8726 17.2848Z" fill="white"/>
<path d="M36.2966 18.7674L70.9014 18.6636" stroke="#5793C4" stroke-width="0.42" stroke-miterlimit="10"/>
<path d="M36.3115 22.3258L70.9089 22.2146" stroke="#5793C4" stroke-width="0.42" stroke-miterlimit="10"/>
<path d="M36.319 25.8765L70.9237 25.7727" stroke="#5793C4" stroke-width="0.42" stroke-miterlimit="10"/>
<path d="M36.3337 29.4349L70.9311 29.3237" stroke="#5793C4" stroke-width="0.42" stroke-miterlimit="10"/>
<path d="M36.3412 32.9859L70.9459 32.8821" stroke="#5793C4" stroke-width="0.42" stroke-miterlimit="10"/>
<path d="M36.3561 36.5443L70.9534 36.4331" stroke="#5793C4" stroke-width="0.42" stroke-miterlimit="10"/>
<path d="M36.3635 40.095L70.9683 39.9912" stroke="#5793C4" stroke-width="0.42" stroke-miterlimit="10"/>
<path d="M36.3782 43.6534L70.9755 43.5422" stroke="#5793C4" stroke-width="0.42" stroke-miterlimit="10"/>
<path d="M36.3856 47.2044L70.9904 47.1006" stroke="#5793C4" stroke-width="0.42" stroke-miterlimit="10"/>
<path d="M36.4005 50.7628L70.9978 50.6516" stroke="#5793C4" stroke-width="0.42" stroke-miterlimit="10"/>
<path d="M36.4078 54.3135L71.0126 54.2097" stroke="#5793C4" stroke-width="0.42" stroke-miterlimit="10"/>
<path d="M36.4227 57.8719L71.0201 57.7607" stroke="#5793C4" stroke-width="0.42" stroke-miterlimit="10"/>
<path d="M36.4302 61.4229L71.0349 61.3191" stroke="#5793C4" stroke-width="0.42" stroke-miterlimit="10"/>
<path d="M36.4449 64.9811L71.0423 64.8699" stroke="#5793C4" stroke-width="0.42" stroke-miterlimit="10"/>
<path d="M36.4524 68.532L71.0571 68.4282" stroke="#5793C4" stroke-width="0.42" stroke-miterlimit="10"/>
<path d="M18.9126 60.9634L17.9118 62.0012C17.1112 62.8241 16.8073 64.0176 17.126 65.1296C17.3336 65.8635 17.7562 66.6864 18.579 67.4722C19.5205 68.3692 20.5287 68.7546 21.3738 68.8881C22.4265 69.0586 23.4866 68.7027 24.2205 67.9392L25.1768 66.9384L18.92 60.9634H18.9126Z" fill="#FFA337"/>
<path d="M36.5856 41.8149L18.8829 60.978L20.1802 63.7283L38.5575 43.6163L36.5856 41.8149Z" fill="#FFA337"/>
<path d="M22.219 65.6705L25.162 66.9382L42.798 47.5082L40.6259 45.5215L22.219 65.6705Z" fill="#FFA337"/>
<path d="M38.5576 43.6165L20.1803 63.7284L22.2189 65.6707L40.6259 45.5216L38.5576 43.6165Z" fill="#FFA337"/>
<path d="M44.5548 41.6816L42.7979 47.5084C42.7979 47.5084 41.8119 47.6715 41.1373 47.0933C40.4702 46.515 40.6258 45.5513 40.6332 45.5217C40.6036 45.5217 39.5806 45.7515 38.9801 45.2029C38.3722 44.6469 38.5353 43.6461 38.5353 43.6461C38.5353 43.6461 37.4826 43.8982 36.8896 43.357C36.2965 42.8159 36.5931 41.8151 36.5931 41.8151L42.1011 39.606L44.5622 41.6816H44.5548Z" fill="#F9CFAA"/>
<path d="M43.8283 38.8794L42.0565 39.6207C42.0565 39.6207 42.2122 40.0878 43.0425 40.8439C43.9691 41.6964 44.5473 41.7112 44.5473 41.7112L45.133 39.8728C45.2961 39.2056 44.5029 38.5829 43.8283 38.872V38.8794Z" fill="#4C351B"/>
<mask id="path-25-outside-1_230_5054" maskUnits="userSpaceOnUse" x="15" y="11" width="61" height="64" fill="black">
<rect fill="white" x="15" y="11" width="61" height="64"/>
<path fill-rule="evenodd" clip-rule="evenodd" d="M31.79 47.0047L31.6842 13.1334L73.8133 13L73.9986 72.2981L31.8695 72.4315L31.8294 59.5912L25.1674 66.9308L25.1753 66.9384L24.219 67.9392C23.4851 68.7027 22.425 69.0586 21.3723 68.8881C20.5272 68.7546 19.519 68.3691 18.5776 67.4721C17.7547 66.6864 17.3322 65.8635 17.1246 65.1296C16.8058 64.0176 17.1098 62.8241 17.9104 62.0012L18.8866 60.9888L18.8815 60.9781L31.79 47.0047ZM34.6973 56.4315L33.8969 57.3133C33.9093 57.3144 33.9218 57.3151 33.9344 57.3156C33.9391 57.3157 33.9438 57.3159 33.9486 57.3159C33.9524 57.316 33.9562 57.316 33.96 57.316C34.3677 57.316 34.7013 56.9602 34.7013 56.5154C34.7013 56.487 34.7 56.459 34.6973 56.4315ZM33.2409 69.8591C33.2409 70.3039 33.5745 70.6598 33.9897 70.6598C34.3974 70.6598 34.731 70.3039 34.731 69.8591C34.731 69.4143 34.3974 69.0585 33.9822 69.0585C33.5745 69.0585 33.2409 69.4143 33.2409 69.8591ZM33.2335 66.5232C33.2335 66.968 33.5671 67.3238 33.9822 67.3238C34.39 67.3238 34.7236 66.968 34.7236 66.5232C34.7236 66.0784 34.39 65.7226 33.9748 65.7226C33.5671 65.7226 33.2335 66.0784 33.2335 66.5232ZM33.2261 63.1873C33.2261 63.6321 33.5597 63.9879 33.9748 63.9879C34.3826 63.9879 34.7162 63.6321 34.7162 63.1873C34.7162 62.7425 34.3751 62.3867 33.9674 62.3867C33.5597 62.3867 33.2261 62.7425 33.2261 63.1873ZM33.2187 59.8513C33.2187 60.2961 33.5523 60.652 33.9674 60.652C34.3751 60.652 34.7087 60.2961 34.7087 59.8513C34.7087 59.4065 34.3751 59.0507 33.96 59.0507C33.5523 59.0507 33.2187 59.4065 33.2187 59.8513ZM33.1816 43.1717C33.1816 43.6165 33.5152 43.9723 33.9304 43.9723C34.3381 43.9723 34.6717 43.6165 34.6717 43.1717C34.6717 42.7269 34.3381 42.371 33.9229 42.371C33.5152 42.371 33.1816 42.7269 33.1816 43.1717ZM33.1742 39.8357C33.1742 40.2805 33.5078 40.6364 33.9229 40.6364C34.3307 40.6364 34.6643 40.2805 34.6643 39.8357C34.6643 39.3909 34.3307 39.0351 33.9155 39.0351C33.5078 39.0351 33.1742 39.3909 33.1742 39.8357ZM33.1668 36.4998C33.1668 36.9446 33.5004 37.3004 33.9155 37.3004C34.3233 37.3004 34.6568 36.9446 34.6568 36.4998C34.6568 36.055 34.3158 35.6992 33.9081 35.6992C33.5004 35.6992 33.1668 36.055 33.1668 36.4998ZM33.1594 33.1639C33.1594 33.6087 33.493 33.9645 33.9081 33.9645C34.3158 33.9645 34.6494 33.6087 34.6494 33.1639C34.6494 32.7191 34.3158 32.3632 33.9007 32.3632C33.493 32.3632 33.1594 32.7191 33.1594 33.1639ZM33.152 29.8279C33.152 30.2727 33.4856 30.6286 33.9007 30.6286C34.3084 30.6286 34.642 30.2727 34.642 29.8279C34.642 29.3831 34.301 29.0273 33.8933 29.0273C33.4856 29.0273 33.152 29.3831 33.152 29.8279ZM33.1446 26.492C33.1446 26.9368 33.4781 27.2926 33.8933 27.2926C34.301 27.2926 34.6346 26.9368 34.6346 26.492C34.6346 26.0472 34.301 25.6914 33.8859 25.6914C33.4781 25.6914 33.1446 26.0472 33.1446 26.492ZM33.1371 23.1561C33.1371 23.6009 33.4707 23.9567 33.8859 23.9567C34.2936 23.9567 34.6272 23.6009 34.6272 23.1561C34.6272 22.7113 34.2936 22.3554 33.8785 22.3554C33.4707 22.3554 33.1371 22.7113 33.1371 23.1561ZM33.1297 19.8201C33.1297 20.2649 33.4633 20.6208 33.8785 20.6208C34.2862 20.6208 34.6198 20.2649 34.6198 19.8201C34.6198 19.3753 34.2862 19.0195 33.871 19.0195C33.4633 19.0195 33.1297 19.3753 33.1297 19.8201ZM33.1223 16.4842C33.1223 16.929 33.4559 17.2848 33.871 17.2848C34.2788 17.2848 34.6124 16.929 34.6124 16.4842C34.6124 16.0394 34.2788 15.6836 33.8636 15.6836C33.4559 15.6836 33.1223 16.0394 33.1223 16.4842Z"/>
</mask>
<path d="M31.6842 13.1334L31.6778 11.1334C30.5733 11.1369 29.6807 12.0352 29.6842 13.1397L31.6842 13.1334ZM31.79 47.0047L33.2591 48.3619C33.6019 47.9908 33.7916 47.5037 33.79 46.9985L31.79 47.0047ZM73.8133 13L75.8133 12.9937C75.8116 12.4633 75.5993 11.9552 75.2231 11.5813C74.8468 11.2074 74.3374 10.9983 73.807 11L73.8133 13ZM73.9986 72.2981L74.005 74.2981C75.1095 74.2946 76.0021 73.3964 75.9986 72.2918L73.9986 72.2981ZM31.8695 72.4315L29.8695 72.4378C29.8712 72.9682 30.0835 73.4763 30.4597 73.8502C30.836 74.2241 31.3454 74.4332 31.8758 74.4315L31.8695 72.4315ZM31.8294 59.5912L33.8293 59.5849C33.8268 58.7595 33.3174 58.0205 32.5469 57.7243C31.7764 57.4282 30.9032 57.6358 30.3484 58.247L31.8294 59.5912ZM25.1674 66.9308L23.6865 65.5866C22.9574 66.3899 23.0015 67.6278 23.7859 68.3771L25.1674 66.9308ZM25.1753 66.9384L26.6213 68.3201C26.9878 67.9366 27.1869 67.4231 27.1748 66.8928C27.1627 66.3624 26.9404 65.8586 26.5568 65.4922L25.1753 66.9384ZM24.219 67.9392L25.6609 69.3251L25.665 69.3209L24.219 67.9392ZM21.3723 68.8881L21.6921 66.9138L21.6843 66.9125L21.3723 68.8881ZM18.5776 67.4721L17.1963 68.9186L17.198 68.9202L18.5776 67.4721ZM17.1246 65.1296L19.0491 64.5853L19.0471 64.5784L17.1246 65.1296ZM17.9104 62.0012L19.3438 63.3959L19.3501 63.3895L17.9104 62.0012ZM18.8866 60.9888L20.3263 62.3771C20.9029 61.7791 21.0499 60.887 20.6955 60.1356L18.8866 60.9888ZM18.8815 60.9781L17.4124 59.621C16.8594 60.2197 16.7249 61.0942 17.0727 61.8313L18.8815 60.9781ZM33.8969 57.3133L32.416 55.9691C31.9055 56.5315 31.7577 57.3347 32.0345 58.0421C32.3113 58.7495 32.9649 59.239 33.7216 59.3056L33.8969 57.3133ZM34.6973 56.4315L36.6882 56.2403C36.6125 55.4522 36.079 54.783 35.3277 54.5334C34.5763 54.2839 33.7485 54.5011 33.2164 55.0873L34.6973 56.4315ZM33.9344 57.3156L34.0055 55.3168L34.0048 55.3168L33.9344 57.3156ZM33.9486 57.3159L33.9806 55.3162L33.9792 55.3162L33.9486 57.3159ZM29.6842 13.1397L29.79 47.011L33.79 46.9985L33.6841 13.1272L29.6842 13.1397ZM73.807 11L31.6778 11.1334L31.6905 15.1334L73.8196 15L73.807 11ZM75.9986 72.2918L75.8133 12.9937L71.8133 13.0063L71.9986 72.3043L75.9986 72.2918ZM31.8758 74.4315L74.005 74.2981L73.9923 70.2981L31.8632 70.4315L31.8758 74.4315ZM29.8294 59.5974L29.8695 72.4378L33.8695 72.4253L33.8293 59.5849L29.8294 59.5974ZM26.6483 68.275L33.3103 60.9354L30.3484 58.247L23.6865 65.5866L26.6483 68.275ZM26.5568 65.4922L26.5488 65.4846L23.7859 68.3771L23.7939 68.3846L26.5568 65.4922ZM25.665 69.3209L26.6213 68.3201L23.7293 65.5567L22.773 66.5575L25.665 69.3209ZM21.0526 70.8623C22.7535 71.1378 24.472 70.5621 25.6609 69.3251L22.7771 66.5532C22.4982 66.8434 22.0965 66.9793 21.6921 66.9138L21.0526 70.8623ZM17.198 68.9202C18.4661 70.1283 19.8609 70.6742 21.0604 70.8636L21.6843 66.9125C21.1935 66.8351 20.572 66.61 19.9572 66.0241L17.198 68.9202ZM15.2001 65.6739C15.4994 66.7324 16.1009 67.8725 17.1963 68.9186L19.9588 66.0257C19.4085 65.5002 19.1649 64.9946 19.0491 64.5853L15.2001 65.6739ZM16.4769 60.6065C15.1778 61.9418 14.685 63.8772 15.202 65.6807L19.0471 64.5784C18.9266 64.158 19.0417 63.7064 19.3438 63.3959L16.4769 60.6065ZM17.4469 59.6006L16.4707 60.6129L19.3501 63.3895L20.3263 62.3771L17.4469 59.6006ZM17.0727 61.8313L17.0777 61.8421L20.6955 60.1356L20.6904 60.1249L17.0727 61.8313ZM30.3209 45.6476L17.4124 59.621L20.3506 62.3353L33.2591 48.3619L30.3209 45.6476ZM35.3779 58.6575L36.1782 57.7757L33.2164 55.0873L32.416 55.9691L35.3779 58.6575ZM34.0048 55.3168C34.0273 55.3176 34.0498 55.319 34.0723 55.321L33.7216 59.3056C33.7689 59.3097 33.8164 59.3127 33.864 59.3143L34.0048 55.3168ZM33.9792 55.3162C33.9884 55.3163 33.9972 55.3165 34.0055 55.3168L33.8632 59.3143C33.881 59.3149 33.8992 59.3154 33.918 59.3157L33.9792 55.3162ZM33.96 55.316C33.9668 55.316 33.9737 55.3161 33.9806 55.3162L33.9165 59.3157C33.931 59.3159 33.9455 59.316 33.96 59.316V55.316ZM32.7013 56.5154C32.7013 55.9959 33.128 55.316 33.96 55.316V59.316C35.6075 59.316 36.7013 57.9245 36.7013 56.5154H32.7013ZM32.7065 56.6227C32.703 56.5866 32.7013 56.5508 32.7013 56.5154H36.7013C36.7013 56.4233 36.6969 56.3315 36.6882 56.2403L32.7065 56.6227ZM33.9897 68.6598C34.8018 68.6598 35.2409 69.3262 35.2409 69.8591H31.2409C31.2409 71.2816 32.3472 72.6598 33.9897 72.6598V68.6598ZM32.731 69.8591C32.731 69.3396 33.1576 68.6598 33.9897 68.6598V72.6598C35.6372 72.6598 36.731 71.2683 36.731 69.8591H32.731ZM33.9822 71.0585C33.1701 71.0585 32.731 70.3921 32.731 69.8591H36.731C36.731 68.4366 35.6247 67.0585 33.9822 67.0585V71.0585ZM35.2409 69.8591C35.2409 70.3787 34.8143 71.0585 33.9822 71.0585V67.0585C32.3348 67.0585 31.2409 68.45 31.2409 69.8591H35.2409ZM33.9822 65.3238C34.7944 65.3238 35.2335 65.9903 35.2335 66.5232H31.2335C31.2335 67.9457 32.3398 69.3238 33.9822 69.3238V65.3238ZM32.7236 66.5232C32.7236 66.0037 33.1502 65.3238 33.9822 65.3238V69.3238C35.6298 69.3238 36.7236 67.9323 36.7236 66.5232H32.7236ZM33.9748 67.7226C33.1627 67.7226 32.7236 67.0561 32.7236 66.5232H36.7236C36.7236 65.1007 35.6173 63.7226 33.9748 63.7226V67.7226ZM35.2335 66.5232C35.2335 67.0428 34.8069 67.7226 33.9748 67.7226V63.7226C32.3273 63.7226 31.2335 65.1141 31.2335 66.5232H35.2335ZM33.9748 61.9879C34.787 61.9879 35.2261 62.6544 35.2261 63.1873H31.2261C31.2261 64.6098 32.3324 65.9879 33.9748 65.9879V61.9879ZM32.7162 63.1873C32.7162 62.6677 33.1428 61.9879 33.9748 61.9879V65.9879C35.6223 65.9879 36.7162 64.5964 36.7162 63.1873H32.7162ZM33.9674 64.3867C33.1603 64.3867 32.7162 63.7334 32.7162 63.1873H36.7162C36.7162 61.7515 35.59 60.3867 33.9674 60.3867V64.3867ZM35.2261 63.1873C35.2261 63.7068 34.7995 64.3867 33.9674 64.3867V60.3867C32.3199 60.3867 31.2261 61.7781 31.2261 63.1873H35.2261ZM33.9674 58.652C34.7796 58.652 35.2187 59.3184 35.2187 59.8513H31.2187C31.2187 61.2738 32.325 62.652 33.9674 62.652V58.652ZM32.7087 59.8513C32.7087 59.3318 33.1354 58.652 33.9674 58.652V62.652C35.6149 62.652 36.7087 61.2605 36.7087 59.8513H32.7087ZM33.96 61.0507C33.1478 61.0507 32.7087 60.3842 32.7087 59.8513H36.7087C36.7087 58.4288 35.6025 57.0507 33.96 57.0507V61.0507ZM35.2187 59.8513C35.2187 60.3709 34.7921 61.0507 33.96 61.0507V57.0507C32.3125 57.0507 31.2187 58.4422 31.2187 59.8513H35.2187ZM33.9304 41.9723C34.7425 41.9723 35.1816 42.6388 35.1816 43.1717H31.1816C31.1816 44.5942 32.2879 45.9723 33.9304 45.9723V41.9723ZM32.6717 43.1717C32.6717 42.6521 33.0983 41.9723 33.9304 41.9723V45.9723C35.5779 45.9723 36.6717 44.5808 36.6717 43.1717H32.6717ZM33.9229 44.371C33.1108 44.371 32.6717 43.7046 32.6717 43.1717H36.6717C36.6717 41.7492 35.5654 40.371 33.9229 40.371V44.371ZM35.1816 43.1717C35.1816 43.6912 34.755 44.371 33.9229 44.371V40.371C32.2754 40.371 31.1816 41.7626 31.1816 43.1717H35.1816ZM33.9229 38.6364C34.7351 38.6364 35.1742 39.3028 35.1742 39.8357H31.1742C31.1742 41.2582 32.2805 42.6364 33.9229 42.6364V38.6364ZM32.6643 39.8357C32.6643 39.3162 33.0909 38.6364 33.9229 38.6364V42.6364C35.5704 42.6364 36.6643 41.2449 36.6643 39.8357H32.6643ZM33.9155 41.0351C33.1034 41.0351 32.6643 40.3686 32.6643 39.8357H36.6643C36.6643 38.4132 35.558 37.0351 33.9155 37.0351V41.0351ZM35.1742 39.8357C35.1742 40.3553 34.7476 41.0351 33.9155 41.0351V37.0351C32.268 37.0351 31.1742 38.4266 31.1742 39.8357H35.1742ZM33.9155 35.3004C34.7277 35.3004 35.1668 35.9669 35.1668 36.4998H31.1668C31.1668 37.9223 32.2731 39.3004 33.9155 39.3004V35.3004ZM32.6568 36.4998C32.6568 35.9803 33.0835 35.3004 33.9155 35.3004V39.3004C35.563 39.3004 36.6568 37.9089 36.6568 36.4998H32.6568ZM33.9081 37.6992C33.101 37.6992 32.6568 37.0459 32.6568 36.4998H36.6568C36.6568 35.0641 35.5307 33.6992 33.9081 33.6992V37.6992ZM35.1668 36.4998C35.1668 37.0193 34.7402 37.6992 33.9081 37.6992V33.6992C32.2606 33.6992 31.1668 35.0907 31.1668 36.4998H35.1668ZM33.9081 31.9645C34.7203 31.9645 35.1594 32.631 35.1594 33.1639H31.1594C31.1594 34.5864 32.2657 35.9645 33.9081 35.9645V31.9645ZM32.6494 33.1639C32.6494 32.6443 33.0761 31.9645 33.9081 31.9645V35.9645C35.5556 35.9645 36.6494 34.573 36.6494 33.1639H32.6494ZM33.9007 34.3632C33.0885 34.3632 32.6494 33.6968 32.6494 33.1639H36.6494C36.6494 31.7414 35.5431 30.3632 33.9007 30.3632V34.3632ZM35.1594 33.1639C35.1594 33.6834 34.7328 34.3632 33.9007 34.3632V30.3632C32.2532 30.3632 31.1594 31.7548 31.1594 33.1639H35.1594ZM33.9007 28.6286C34.7129 28.6286 35.152 29.295 35.152 29.8279H31.152C31.152 31.2504 32.2582 32.6286 33.9007 32.6286V28.6286ZM32.642 29.8279C32.642 29.3084 33.0686 28.6286 33.9007 28.6286V32.6286C35.5482 32.6286 36.642 31.2371 36.642 29.8279H32.642ZM33.8933 31.0273C33.0861 31.0273 32.642 30.3741 32.642 29.8279H36.642C36.642 28.3922 35.5159 27.0273 33.8933 27.0273V31.0273ZM35.152 29.8279C35.152 30.3475 34.7253 31.0273 33.8933 31.0273V27.0273C32.2458 27.0273 31.152 28.4188 31.152 29.8279H35.152ZM33.8933 25.2926C34.7055 25.2926 35.1446 25.9591 35.1446 26.492H31.1446C31.1446 27.9145 32.2508 29.2926 33.8933 29.2926V25.2926ZM32.6346 26.492C32.6346 25.9725 33.0612 25.2926 33.8933 25.2926V29.2926C35.5408 29.2926 36.6346 27.9011 36.6346 26.492H32.6346ZM33.8859 27.6914C33.0737 27.6914 32.6346 27.0249 32.6346 26.492H36.6346C36.6346 25.0695 35.5283 23.6914 33.8859 23.6914V27.6914ZM35.1446 26.492C35.1446 27.0115 34.7179 27.6914 33.8859 27.6914V23.6914C32.2384 23.6914 31.1446 25.0829 31.1446 26.492H35.1446ZM33.8859 21.9567C34.698 21.9567 35.1371 22.6232 35.1371 23.1561H31.1371C31.1371 24.5786 32.2434 25.9567 33.8859 25.9567V21.9567ZM32.6272 23.1561C32.6272 22.6365 33.0538 21.9567 33.8859 21.9567V25.9567C35.5334 25.9567 36.6272 24.5652 36.6272 23.1561H32.6272ZM33.8785 24.3554C33.0663 24.3554 32.6272 23.689 32.6272 23.1561H36.6272C36.6272 21.7336 35.5209 20.3554 33.8785 20.3554V24.3554ZM35.1371 23.1561C35.1371 23.6756 34.7105 24.3554 33.8785 24.3554V20.3554C32.231 20.3554 31.1371 21.7469 31.1371 23.1561H35.1371ZM33.8785 18.6208C34.6906 18.6208 35.1297 19.2872 35.1297 19.8201H31.1297C31.1297 21.2426 32.236 22.6208 33.8785 22.6208V18.6208ZM32.6198 19.8201C32.6198 19.3006 33.0464 18.6208 33.8785 18.6208V22.6208C35.526 22.6208 36.6198 21.2292 36.6198 19.8201H32.6198ZM33.871 21.0195C33.0589 21.0195 32.6198 20.353 32.6198 19.8201H36.6198C36.6198 18.3976 35.5135 17.0195 33.871 17.0195V21.0195ZM35.1297 19.8201C35.1297 20.3397 34.7031 21.0195 33.871 21.0195V17.0195C32.2235 17.0195 31.1297 18.411 31.1297 19.8201H35.1297ZM33.871 15.2848C34.6832 15.2848 35.1223 15.9513 35.1223 16.4842H31.1223C31.1223 17.9067 32.2286 19.2848 33.871 19.2848V15.2848ZM32.6124 16.4842C32.6124 15.9647 33.039 15.2848 33.871 15.2848V19.2848C35.5186 19.2848 36.6124 17.8933 36.6124 16.4842H32.6124ZM33.8636 17.6836C33.0515 17.6836 32.6124 17.0171 32.6124 16.4842H36.6124C36.6124 15.0617 35.5061 13.6836 33.8636 13.6836V17.6836ZM35.1223 16.4842C35.1223 17.0037 34.6957 17.6836 33.8636 17.6836V13.6836C32.2161 13.6836 31.1223 15.0751 31.1223 16.4842H35.1223Z" fill="#C3D2E2" mask="url(#path-25-outside-1_230_5054)"/>
<mask id="mask0_230_5054" style="mask-type:alpha" maskUnits="userSpaceOnUse" x="14" y="11" width="62" height="64">
<mask id="path-27-outside-2_230_5054" maskUnits="userSpaceOnUse" x="15" y="11" width="61" height="64" fill="black">
<rect fill="white" x="15" y="11" width="61" height="64"/>
<path fill-rule="evenodd" clip-rule="evenodd" d="M31.79 47.0047L31.6842 13.1334L73.8133 13L73.9986 72.2981L31.8695 72.4315L31.8294 59.5912L25.1674 66.9308L25.1753 66.9384L24.219 67.9392C23.4851 68.7027 22.425 69.0586 21.3723 68.8881C20.5272 68.7546 19.519 68.3691 18.5776 67.4721C17.7547 66.6864 17.3322 65.8635 17.1246 65.1296C16.8058 64.0176 17.1098 62.8241 17.9104 62.0012L18.8866 60.9888L18.8815 60.9781L31.79 47.0047ZM34.6973 56.4315L33.8969 57.3133C33.9093 57.3144 33.9218 57.3151 33.9344 57.3156C33.9391 57.3157 33.9438 57.3159 33.9486 57.3159C33.9524 57.316 33.9562 57.316 33.96 57.316C34.3677 57.316 34.7013 56.9602 34.7013 56.5154C34.7013 56.487 34.7 56.459 34.6973 56.4315ZM33.2409 69.8591C33.2409 70.3039 33.5745 70.6598 33.9897 70.6598C34.3974 70.6598 34.731 70.3039 34.731 69.8591C34.731 69.4143 34.3974 69.0585 33.9822 69.0585C33.5745 69.0585 33.2409 69.4143 33.2409 69.8591ZM33.2335 66.5232C33.2335 66.968 33.5671 67.3238 33.9822 67.3238C34.39 67.3238 34.7236 66.968 34.7236 66.5232C34.7236 66.0784 34.39 65.7226 33.9748 65.7226C33.5671 65.7226 33.2335 66.0784 33.2335 66.5232ZM33.2261 63.1873C33.2261 63.6321 33.5597 63.9879 33.9748 63.9879C34.3826 63.9879 34.7162 63.6321 34.7162 63.1873C34.7162 62.7425 34.3751 62.3867 33.9674 62.3867C33.5597 62.3867 33.2261 62.7425 33.2261 63.1873ZM33.2187 59.8513C33.2187 60.2961 33.5523 60.652 33.9674 60.652C34.3751 60.652 34.7087 60.2961 34.7087 59.8513C34.7087 59.4065 34.3751 59.0507 33.96 59.0507C33.5523 59.0507 33.2187 59.4065 33.2187 59.8513ZM33.1816 43.1717C33.1816 43.6165 33.5152 43.9723 33.9304 43.9723C34.3381 43.9723 34.6717 43.6165 34.6717 43.1717C34.6717 42.7269 34.3381 42.371 33.9229 42.371C33.5152 42.371 33.1816 42.7269 33.1816 43.1717ZM33.1742 39.8357C33.1742 40.2805 33.5078 40.6364 33.9229 40.6364C34.3307 40.6364 34.6643 40.2805 34.6643 39.8357C34.6643 39.3909 34.3307 39.0351 33.9155 39.0351C33.5078 39.0351 33.1742 39.3909 33.1742 39.8357ZM33.1668 36.4998C33.1668 36.9446 33.5004 37.3004 33.9155 37.3004C34.3233 37.3004 34.6568 36.9446 34.6568 36.4998C34.6568 36.055 34.3158 35.6992 33.9081 35.6992C33.5004 35.6992 33.1668 36.055 33.1668 36.4998ZM33.1594 33.1639C33.1594 33.6087 33.493 33.9645 33.9081 33.9645C34.3158 33.9645 34.6494 33.6087 34.6494 33.1639C34.6494 32.7191 34.3158 32.3632 33.9007 32.3632C33.493 32.3632 33.1594 32.7191 33.1594 33.1639ZM33.152 29.8279C33.152 30.2727 33.4856 30.6286 33.9007 30.6286C34.3084 30.6286 34.642 30.2727 34.642 29.8279C34.642 29.3831 34.301 29.0273 33.8933 29.0273C33.4856 29.0273 33.152 29.3831 33.152 29.8279ZM33.1446 26.492C33.1446 26.9368 33.4781 27.2926 33.8933 27.2926C34.301 27.2926 34.6346 26.9368 34.6346 26.492C34.6346 26.0472 34.301 25.6914 33.8859 25.6914C33.4781 25.6914 33.1446 26.0472 33.1446 26.492ZM33.1371 23.1561C33.1371 23.6009 33.4707 23.9567 33.8859 23.9567C34.2936 23.9567 34.6272 23.6009 34.6272 23.1561C34.6272 22.7113 34.2936 22.3554 33.8785 22.3554C33.4707 22.3554 33.1371 22.7113 33.1371 23.1561ZM33.1297 19.8201C33.1297 20.2649 33.4633 20.6208 33.8785 20.6208C34.2862 20.6208 34.6198 20.2649 34.6198 19.8201C34.6198 19.3753 34.2862 19.0195 33.871 19.0195C33.4633 19.0195 33.1297 19.3753 33.1297 19.8201ZM33.1223 16.4842C33.1223 16.929 33.4559 17.2848 33.871 17.2848C34.2788 17.2848 34.6124 16.929 34.6124 16.4842C34.6124 16.0394 34.2788 15.6836 33.8636 15.6836C33.4559 15.6836 33.1223 16.0394 33.1223 16.4842Z"/>
</mask>
<path d="M31.6842 13.1334L31.6778 11.1334C30.5733 11.1369 29.6807 12.0352 29.6842 13.1397L31.6842 13.1334ZM31.79 47.0047L33.2591 48.3619C33.6019 47.9908 33.7916 47.5037 33.79 46.9985L31.79 47.0047ZM73.8133 13L75.8133 12.9937C75.8116 12.4633 75.5993 11.9552 75.2231 11.5813C74.8468 11.2074 74.3374 10.9983 73.807 11L73.8133 13ZM73.9986 72.2981L74.005 74.2981C75.1095 74.2946 76.0021 73.3964 75.9986 72.2918L73.9986 72.2981ZM31.8695 72.4315L29.8695 72.4378C29.8712 72.9682 30.0835 73.4763 30.4597 73.8502C30.836 74.2241 31.3454 74.4332 31.8758 74.4315L31.8695 72.4315ZM31.8294 59.5912L33.8293 59.5849C33.8268 58.7595 33.3174 58.0205 32.5469 57.7243C31.7764 57.4282 30.9032 57.6358 30.3484 58.247L31.8294 59.5912ZM25.1674 66.9308L23.6865 65.5866C22.9574 66.3899 23.0015 67.6278 23.7859 68.3771L25.1674 66.9308ZM25.1753 66.9384L26.6213 68.3201C26.9878 67.9366 27.1869 67.4231 27.1748 66.8928C27.1627 66.3624 26.9404 65.8586 26.5568 65.4922L25.1753 66.9384ZM24.219 67.9392L25.6609 69.3251L25.665 69.3209L24.219 67.9392ZM21.3723 68.8881L21.6921 66.9138L21.6843 66.9125L21.3723 68.8881ZM18.5776 67.4721L17.1963 68.9186L17.198 68.9202L18.5776 67.4721ZM17.1246 65.1296L19.0491 64.5853L19.0471 64.5784L17.1246 65.1296ZM17.9104 62.0012L19.3438 63.3959L19.3501 63.3895L17.9104 62.0012ZM18.8866 60.9888L20.3263 62.3771C20.9029 61.7791 21.0499 60.887 20.6955 60.1356L18.8866 60.9888ZM18.8815 60.9781L17.4124 59.621C16.8594 60.2197 16.7249 61.0942 17.0727 61.8313L18.8815 60.9781ZM33.8969 57.3133L32.416 55.9691C31.9055 56.5315 31.7577 57.3347 32.0345 58.0421C32.3113 58.7495 32.9649 59.239 33.7216 59.3056L33.8969 57.3133ZM34.6973 56.4315L36.6882 56.2403C36.6125 55.4522 36.079 54.783 35.3277 54.5334C34.5763 54.2839 33.7485 54.5011 33.2164 55.0873L34.6973 56.4315ZM33.9344 57.3156L34.0055 55.3168L34.0048 55.3168L33.9344 57.3156ZM33.9486 57.3159L33.9806 55.3162L33.9792 55.3162L33.9486 57.3159ZM29.6842 13.1397L29.79 47.011L33.79 46.9985L33.6841 13.1272L29.6842 13.1397ZM73.807 11L31.6778 11.1334L31.6905 15.1334L73.8196 15L73.807 11ZM75.9986 72.2918L75.8133 12.9937L71.8133 13.0063L71.9986 72.3043L75.9986 72.2918ZM31.8758 74.4315L74.005 74.2981L73.9923 70.2981L31.8632 70.4315L31.8758 74.4315ZM29.8294 59.5974L29.8695 72.4378L33.8695 72.4253L33.8293 59.5849L29.8294 59.5974ZM26.6483 68.275L33.3103 60.9354L30.3484 58.247L23.6865 65.5866L26.6483 68.275ZM26.5568 65.4922L26.5488 65.4846L23.7859 68.3771L23.7939 68.3846L26.5568 65.4922ZM25.665 69.3209L26.6213 68.3201L23.7293 65.5567L22.773 66.5575L25.665 69.3209ZM21.0526 70.8623C22.7535 71.1378 24.472 70.5621 25.6609 69.3251L22.7771 66.5532C22.4982 66.8434 22.0965 66.9793 21.6921 66.9138L21.0526 70.8623ZM17.198 68.9202C18.4661 70.1283 19.8609 70.6742 21.0604 70.8636L21.6843 66.9125C21.1935 66.8351 20.572 66.61 19.9572 66.0241L17.198 68.9202ZM15.2001 65.6739C15.4994 66.7324 16.1009 67.8725 17.1963 68.9186L19.9588 66.0257C19.4085 65.5002 19.1649 64.9946 19.0491 64.5853L15.2001 65.6739ZM16.4769 60.6065C15.1778 61.9418 14.685 63.8772 15.202 65.6807L19.0471 64.5784C18.9266 64.158 19.0417 63.7064 19.3438 63.3959L16.4769 60.6065ZM17.4469 59.6006L16.4707 60.6129L19.3501 63.3895L20.3263 62.3771L17.4469 59.6006ZM17.0727 61.8313L17.0777 61.8421L20.6955 60.1356L20.6904 60.1249L17.0727 61.8313ZM30.3209 45.6476L17.4124 59.621L20.3506 62.3353L33.2591 48.3619L30.3209 45.6476ZM35.3779 58.6575L36.1782 57.7757L33.2164 55.0873L32.416 55.9691L35.3779 58.6575ZM34.0048 55.3168C34.0273 55.3176 34.0498 55.319 34.0723 55.321L33.7216 59.3056C33.7689 59.3097 33.8164 59.3127 33.864 59.3143L34.0048 55.3168ZM33.9792 55.3162C33.9884 55.3163 33.9972 55.3165 34.0055 55.3168L33.8632 59.3143C33.881 59.3149 33.8992 59.3154 33.918 59.3157L33.9792 55.3162ZM33.96 55.316C33.9668 55.316 33.9737 55.3161 33.9806 55.3162L33.9165 59.3157C33.931 59.3159 33.9455 59.316 33.96 59.316V55.316ZM32.7013 56.5154C32.7013 55.9959 33.128 55.316 33.96 55.316V59.316C35.6075 59.316 36.7013 57.9245 36.7013 56.5154H32.7013ZM32.7065 56.6227C32.703 56.5866 32.7013 56.5508 32.7013 56.5154H36.7013C36.7013 56.4233 36.6969 56.3315 36.6882 56.2403L32.7065 56.6227ZM33.9897 68.6598C34.8018 68.6598 35.2409 69.3262 35.2409 69.8591H31.2409C31.2409 71.2816 32.3472 72.6598 33.9897 72.6598V68.6598ZM32.731 69.8591C32.731 69.3396 33.1576 68.6598 33.9897 68.6598V72.6598C35.6372 72.6598 36.731 71.2683 36.731 69.8591H32.731ZM33.9822 71.0585C33.1701 71.0585 32.731 70.3921 32.731 69.8591H36.731C36.731 68.4366 35.6247 67.0585 33.9822 67.0585V71.0585ZM35.2409 69.8591C35.2409 70.3787 34.8143 71.0585 33.9822 71.0585V67.0585C32.3348 67.0585 31.2409 68.45 31.2409 69.8591H35.2409ZM33.9822 65.3238C34.7944 65.3238 35.2335 65.9903 35.2335 66.5232H31.2335C31.2335 67.9457 32.3398 69.3238 33.9822 69.3238V65.3238ZM32.7236 66.5232C32.7236 66.0037 33.1502 65.3238 33.9822 65.3238V69.3238C35.6298 69.3238 36.7236 67.9323 36.7236 66.5232H32.7236ZM33.9748 67.7226C33.1627 67.7226 32.7236 67.0561 32.7236 66.5232H36.7236C36.7236 65.1007 35.6173 63.7226 33.9748 63.7226V67.7226ZM35.2335 66.5232C35.2335 67.0428 34.8069 67.7226 33.9748 67.7226V63.7226C32.3273 63.7226 31.2335 65.1141 31.2335 66.5232H35.2335ZM33.9748 61.9879C34.787 61.9879 35.2261 62.6544 35.2261 63.1873H31.2261C31.2261 64.6098 32.3324 65.9879 33.9748 65.9879V61.9879ZM32.7162 63.1873C32.7162 62.6677 33.1428 61.9879 33.9748 61.9879V65.9879C35.6223 65.9879 36.7162 64.5964 36.7162 63.1873H32.7162ZM33.9674 64.3867C33.1603 64.3867 32.7162 63.7334 32.7162 63.1873H36.7162C36.7162 61.7515 35.59 60.3867 33.9674 60.3867V64.3867ZM35.2261 63.1873C35.2261 63.7068 34.7995 64.3867 33.9674 64.3867V60.3867C32.3199 60.3867 31.2261 61.7781 31.2261 63.1873H35.2261ZM33.9674 58.652C34.7796 58.652 35.2187 59.3184 35.2187 59.8513H31.2187C31.2187 61.2738 32.325 62.652 33.9674 62.652V58.652ZM32.7087 59.8513C32.7087 59.3318 33.1354 58.652 33.9674 58.652V62.652C35.6149 62.652 36.7087 61.2605 36.7087 59.8513H32.7087ZM33.96 61.0507C33.1478 61.0507 32.7087 60.3842 32.7087 59.8513H36.7087C36.7087 58.4288 35.6025 57.0507 33.96 57.0507V61.0507ZM35.2187 59.8513C35.2187 60.3709 34.7921 61.0507 33.96 61.0507V57.0507C32.3125 57.0507 31.2187 58.4422 31.2187 59.8513H35.2187ZM33.9304 41.9723C34.7425 41.9723 35.1816 42.6388 35.1816 43.1717H31.1816C31.1816 44.5942 32.2879 45.9723 33.9304 45.9723V41.9723ZM32.6717 43.1717C32.6717 42.6521 33.0983 41.9723 33.9304 41.9723V45.9723C35.5779 45.9723 36.6717 44.5808 36.6717 43.1717H32.6717ZM33.9229 44.371C33.1108 44.371 32.6717 43.7046 32.6717 43.1717H36.6717C36.6717 41.7492 35.5654 40.371 33.9229 40.371V44.371ZM35.1816 43.1717C35.1816 43.6912 34.755 44.371 33.9229 44.371V40.371C32.2754 40.371 31.1816 41.7626 31.1816 43.1717H35.1816ZM33.9229 38.6364C34.7351 38.6364 35.1742 39.3028 35.1742 39.8357H31.1742C31.1742 41.2582 32.2805 42.6364 33.9229 42.6364V38.6364ZM32.6643 39.8357C32.6643 39.3162 33.0909 38.6364 33.9229 38.6364V42.6364C35.5704 42.6364 36.6643 41.2449 36.6643 39.8357H32.6643ZM33.9155 41.0351C33.1034 41.0351 32.6643 40.3686 32.6643 39.8357H36.6643C36.6643 38.4132 35.558 37.0351 33.9155 37.0351V41.0351ZM35.1742 39.8357C35.1742 40.3553 34.7476 41.0351 33.9155 41.0351V37.0351C32.268 37.0351 31.1742 38.4266 31.1742 39.8357H35.1742ZM33.9155 35.3004C34.7277 35.3004 35.1668 35.9669 35.1668 36.4998H31.1668C31.1668 37.9223 32.2731 39.3004 33.9155 39.3004V35.3004ZM32.6568 36.4998C32.6568 35.9803 33.0835 35.3004 33.9155 35.3004V39.3004C35.563 39.3004 36.6568 37.9089 36.6568 36.4998H32.6568ZM33.9081 37.6992C33.101 37.6992 32.6568 37.0459 32.6568 36.4998H36.6568C36.6568 35.0641 35.5307 33.6992 33.9081 33.6992V37.6992ZM35.1668 36.4998C35.1668 37.0193 34.7402 37.6992 33.9081 37.6992V33.6992C32.2606 33.6992 31.1668 35.0907 31.1668 36.4998H35.1668ZM33.9081 31.9645C34.7203 31.9645 35.1594 32.631 35.1594 33.1639H31.1594C31.1594 34.5864 32.2657 35.9645 33.9081 35.9645V31.9645ZM32.6494 33.1639C32.6494 32.6443 33.0761 31.9645 33.9081 31.9645V35.9645C35.5556 35.9645 36.6494 34.573 36.6494 33.1639H32.6494ZM33.9007 34.3632C33.0885 34.3632 32.6494 33.6968 32.6494 33.1639H36.6494C36.6494 31.7414 35.5431 30.3632 33.9007 30.3632V34.3632ZM35.1594 33.1639C35.1594 33.6834 34.7328 34.3632 33.9007 34.3632V30.3632C32.2532 30.3632 31.1594 31.7548 31.1594 33.1639H35.1594ZM33.9007 28.6286C34.7129 28.6286 35.152 29.295 35.152 29.8279H31.152C31.152 31.2504 32.2582 32.6286 33.9007 32.6286V28.6286ZM32.642 29.8279C32.642 29.3084 33.0686 28.6286 33.9007 28.6286V32.6286C35.5482 32.6286 36.642 31.2371 36.642 29.8279H32.642ZM33.8933 31.0273C33.0861 31.0273 32.642 30.3741 32.642 29.8279H36.642C36.642 28.3922 35.5159 27.0273 33.8933 27.0273V31.0273ZM35.152 29.8279C35.152 30.3475 34.7253 31.0273 33.8933 31.0273V27.0273C32.2458 27.0273 31.152 28.4188 31.152 29.8279H35.152ZM33.8933 25.2926C34.7055 25.2926 35.1446 25.9591 35.1446 26.492H31.1446C31.1446 27.9145 32.2508 29.2926 33.8933 29.2926V25.2926ZM32.6346 26.492C32.6346 25.9725 33.0612 25.2926 33.8933 25.2926V29.2926C35.5408 29.2926 36.6346 27.9011 36.6346 26.492H32.6346ZM33.8859 27.6914C33.0737 27.6914 32.6346 27.0249 32.6346 26.492H36.6346C36.6346 25.0695 35.5283 23.6914 33.8859 23.6914V27.6914ZM35.1446 26.492C35.1446 27.0115 34.7179 27.6914 33.8859 27.6914V23.6914C32.2384 23.6914 31.1446 25.0829 31.1446 26.492H35.1446ZM33.8859 21.9567C34.698 21.9567 35.1371 22.6232 35.1371 23.1561H31.1371C31.1371 24.5786 32.2434 25.9567 33.8859 25.9567V21.9567ZM32.6272 23.1561C32.6272 22.6365 33.0538 21.9567 33.8859 21.9567V25.9567C35.5334 25.9567 36.6272 24.5652 36.6272 23.1561H32.6272ZM33.8785 24.3554C33.0663 24.3554 32.6272 23.689 32.6272 23.1561H36.6272C36.6272 21.7336 35.5209 20.3554 33.8785 20.3554V24.3554ZM35.1371 23.1561C35.1371 23.6756 34.7105 24.3554 33.8785 24.3554V20.3554C32.231 20.3554 31.1371 21.7469 31.1371 23.1561H35.1371ZM33.8785 18.6208C34.6906 18.6208 35.1297 19.2872 35.1297 19.8201H31.1297C31.1297 21.2426 32.236 22.6208 33.8785 22.6208V18.6208ZM32.6198 19.8201C32.6198 19.3006 33.0464 18.6208 33.8785 18.6208V22.6208C35.526 22.6208 36.6198 21.2292 36.6198 19.8201H32.6198ZM33.871 21.0195C33.0589 21.0195 32.6198 20.353 32.6198 19.8201H36.6198C36.6198 18.3976 35.5135 17.0195 33.871 17.0195V21.0195ZM35.1297 19.8201C35.1297 20.3397 34.7031 21.0195 33.871 21.0195V17.0195C32.2235 17.0195 31.1297 18.411 31.1297 19.8201H35.1297ZM33.871 15.2848C34.6832 15.2848 35.1223 15.9513 35.1223 16.4842H31.1223C31.1223 17.9067 32.2286 19.2848 33.871 19.2848V15.2848ZM32.6124 16.4842C32.6124 15.9647 33.039 15.2848 33.871 15.2848V19.2848C35.5186 19.2848 36.6124 17.8933 36.6124 16.4842H32.6124ZM33.8636 17.6836C33.0515 17.6836 32.6124 17.0171 32.6124 16.4842H36.6124C36.6124 15.0617 35.5061 13.6836 33.8636 13.6836V17.6836ZM35.1223 16.4842C35.1223 17.0037 34.6957 17.6836 33.8636 17.6836V13.6836C32.2161 13.6836 31.1223 15.0751 31.1223 16.4842H35.1223Z" fill="#C3D2E2" mask="url(#path-27-outside-2_230_5054)"/>
</mask>
<g mask="url(#mask0_230_5054)">
<path d="M33.5 48L28.5 45.5L12 58.5L12.5 66.5L24 74.5L29 68L33.5 48Z" fill="#EC9657"/>
</g>
</svg>
