<svg width="28" height="28" viewBox="0 0 28 28" fill="none" xmlns="http://www.w3.org/2000/svg">
<rect x="5" y="10.1392" width="18.5" height="4.11111" rx="1" stroke="black" stroke-width="2" stroke-linecap="round" stroke-linejoin="round"/>
<path d="M14.2497 10.1392V23.5003" stroke="black" stroke-width="2" stroke-linecap="round" stroke-linejoin="round"/>
<path d="M21.4444 14.2502V21.4447C21.4444 22.5799 20.5241 23.5002 19.3889 23.5002H9.1111C7.97585 23.5002 7.05554 22.5799 7.05554 21.4447V14.2502" stroke="black" stroke-width="2" stroke-linecap="round" stroke-linejoin="round"/>
<path d="M9.62499 10.1393C8.20592 10.1393 7.05554 8.98896 7.05554 7.5699C7.05554 6.15083 8.20592 5.00045 9.62499 5.00045C11.6541 4.9651 13.4892 7.0041 14.25 10.1393C15.0108 7.0041 16.8459 4.9651 18.875 5.00045C20.2941 5.00045 21.4444 6.15083 21.4444 7.5699C21.4444 8.98896 20.2941 10.1393 18.875 10.1393" stroke="black" stroke-width="2" stroke-linecap="round" stroke-linejoin="round"/>
</svg>
