<svg width="79" height="60" viewBox="0 0 79 60" fill="none" xmlns="http://www.w3.org/2000/svg">
<g clip-path="url(#clip0_877_5155)">
<path d="M15.7975 39.0032C15.7975 39.0032 12.0881 39.1993 7.31494 45.6609" stroke="#00C7B1" stroke-width="3" stroke-miterlimit="10" stroke-linecap="round"/>
<path d="M15.797 39.0032C15.797 39.0032 12.0876 39.1993 7.31445 45.6609" stroke="url(#paint0_linear_877_5155)" stroke-width="3" stroke-miterlimit="10" stroke-linecap="round"/>
<path d="M66.5547 39C66.5547 39 70.2529 39.3308 74.8022 45.9636" stroke="#00C7B1" stroke-width="3" stroke-miterlimit="10" stroke-linecap="round"/>
<path d="M66.5547 39C66.5547 39 70.2529 39.3308 74.8022 45.9636" stroke="url(#paint1_linear_877_5155)" stroke-width="3" stroke-miterlimit="10" stroke-linecap="round"/>
<path d="M25.4429 10.8672C25.4727 10.886 25.47 10.8833 25.4429 10.8672V10.8672Z" fill="#00C7B1"/>
<path d="M25.3625 10.8167C25.3977 10.8394 25.4253 10.857 25.4429 10.8697C25.4278 10.8596 25.4002 10.8419 25.3625 10.8167Z" fill="#00C7B1"/>
<path d="M27.7703 8.2589C27.9385 7.87008 28.0264 7.40045 27.9913 6.82983C27.9913 6.82983 30.0952 1.23221 27.0673 0.143991C25.099 -0.565495 23.8889 1.48722 23.6579 3.14353C22.385 1.75233 20.7054 0.664113 19.1714 2.03764C18.2725 2.84055 18.4383 4.05753 19.2567 5.38561C18.1294 4.94881 16.9971 5.00941 16.2188 6.27689C14.9158 8.40282 18.27 10.2737 21.4284 11.0943C22.8143 11.4554 27.6448 9.07444 27.7678 8.26648C27.7678 8.26396 27.7678 8.26143 27.7678 8.2589H27.7703Z" fill="#00C7B1"/>
<g opacity="0.5">
<path d="M25.4429 10.8672C25.4727 10.886 25.47 10.8833 25.4429 10.8672V10.8672Z" fill="url(#paint2_radial_877_5155)"/>
<path d="M25.3625 10.8167C25.3977 10.8394 25.4253 10.857 25.4429 10.8697C25.4278 10.8596 25.4002 10.8419 25.3625 10.8167Z" fill="url(#paint3_radial_877_5155)"/>
<path d="M27.7703 8.2589C27.9385 7.87008 28.0264 7.40045 27.9913 6.82983C27.9913 6.82983 30.0952 1.23221 27.0673 0.143991C25.099 -0.565495 23.8889 1.48722 23.6579 3.14353C22.385 1.75233 20.7054 0.664113 19.1714 2.03764C18.2725 2.84055 18.4383 4.05753 19.2567 5.38561C18.1294 4.94881 16.9971 5.00941 16.2188 6.27689C14.9158 8.40282 18.27 10.2737 21.4284 11.0943C22.8143 11.4554 27.6448 9.07444 27.7678 8.26648C27.7678 8.26396 27.7678 8.26143 27.7678 8.2589H27.7703Z" fill="url(#paint4_radial_877_5155)"/>
</g>
<path d="M41.5086 2.4668C26.0857 2.4668 13.5852 15.0406 13.5852 30.5483C13.5852 46.056 26.0882 58.6299 41.5086 58.6299C56.929 58.6299 69.432 46.056 69.432 30.5483C69.432 15.0406 56.929 2.4668 41.5086 2.4668Z" fill="#00C7B1"/>
<path opacity="0.3" d="M41.5086 2.4668C26.0857 2.4668 13.5852 15.0406 13.5852 30.5483C13.5852 46.056 26.0882 58.6299 41.5086 58.6299C56.929 58.6299 69.432 46.056 69.432 30.5483C69.432 15.0406 56.929 2.4668 41.5086 2.4668Z" fill="url(#paint5_radial_877_5155)"/>
<path d="M6.91057 49.9066C6.91057 49.9066 6.00015 52.9432 4.83573 52.9739C3.6713 53.0045 5.26391 49.1737 5.26391 49.1737C5.26391 49.1737 4.57689 50.0782 3.81548 49.5475C3.05406 49.0169 3.49348 48.3536 3.66532 47.9878C3.23303 48.2499 2.91466 48.167 2.69517 47.9938C2.41044 47.7711 2.29645 47.3919 2.37131 47.0398C2.42648 46.7822 2.52866 46.4441 2.706 46.1719C3.4777 44.9853 4.74888 43.4915 7.50824 45.0909C10.2676 46.6902 8.86207 49.0161 8.86207 49.0161C8.86207 49.0161 8.61948 50.1974 7.88643 50.267C7.15337 50.3366 6.91057 49.9066 6.91057 49.9066Z" fill="#00C7B1"/>
<path d="M8.07305 46.3145C7.83999 46.569 7.67897 46.8491 7.63642 47.1967C7.60682 47.4558 7.61391 47.85 7.81168 48.0492C7.82338 48.0603 7.83508 48.0714 7.84429 48.0828C7.96123 48.2118 7.75807 48.4263 7.6294 48.3042C7.62054 48.2952 7.61133 48.2837 7.60247 48.2748C7.31188 47.956 7.00945 47.6976 6.61242 47.5238C6.35873 47.414 6.08686 47.3374 5.92122 47.6207C5.74454 47.9157 6.01371 48.2986 6.16523 48.5476C6.38579 48.9093 6.66181 49.2327 6.97341 49.5205C7.11911 49.6556 6.93364 49.9059 6.78759 49.7683C6.40864 49.416 6.07983 49.0236 5.82393 48.5725C5.62078 48.2084 5.41738 47.7882 5.6908 47.4056C5.78194 47.2781 5.91707 47.1751 6.06772 47.1285C6.25248 47.072 6.43455 47.1229 6.60843 47.1878C6.87563 47.2855 7.11116 47.4284 7.32497 47.5973C7.31277 47.474 7.31086 47.3519 7.31961 47.2334C7.34845 46.8062 7.53485 46.4359 7.82093 46.1255C7.95507 45.9792 8.20436 46.1661 8.06773 46.3127L8.07305 46.3145Z" fill="#191919"/>
<path d="M5.05227 48.2756C4.93585 48.4398 4.6887 48.25 4.80547 48.0884C4.98348 47.839 5.15901 47.5901 5.2792 47.3081C5.32699 47.1969 5.39575 47.0725 5.39136 46.9507C5.3856 46.8011 5.24201 46.681 5.12994 46.6049C4.948 46.4826 4.67537 46.4366 4.51559 46.6171C4.50029 46.6346 4.48818 46.6566 4.47323 46.6766C4.4123 46.7846 4.34074 46.8889 4.26917 46.9933C4.1837 47.1251 4.10072 47.2566 4.0149 47.3859C3.92124 47.5316 3.66264 47.3868 3.74744 47.2321C3.7535 47.2211 3.76204 47.2097 3.7681 47.1986C3.78697 47.1705 3.80335 47.1427 3.82258 47.1171C3.84751 47.0779 3.86995 47.039 3.89772 47.002C3.96858 46.8926 4.04159 46.7804 4.11245 46.6711C4.14771 46.6151 4.18297 46.5592 4.22072 46.5029C4.22856 46.4865 4.23924 46.4723 4.24708 46.4559C4.35295 46.2345 4.41501 45.8995 4.18771 45.7248C3.97744 45.5631 3.68595 45.7263 3.52551 45.8839C3.30743 46.1006 3.13506 46.3721 2.97975 46.6386C2.87965 46.8107 2.63249 46.621 2.73294 46.4514C2.91711 46.1375 3.13188 45.7887 3.42241 45.5644C3.68059 45.3625 4.04972 45.2649 4.34268 45.4558C4.5913 45.6198 4.67738 45.9264 4.64347 46.2091C4.87225 46.1592 5.11963 46.2239 5.32108 46.3589C5.47535 46.4647 5.62564 46.6145 5.68176 46.7978C5.73329 46.9665 5.69356 47.1353 5.62971 47.2946C5.48487 47.654 5.28295 47.9679 5.05795 48.2799L5.05227 48.2756Z" fill="#191919"/>
<path d="M74.8373 50.2002C74.8373 50.2002 76.1604 53.081 77.3178 52.9497C78.4752 52.8185 76.3663 49.2458 76.3663 49.2458C76.3663 49.2458 77.1722 50.0462 77.8526 49.4149C78.5329 48.7837 78.0057 48.1879 77.7848 47.8495C78.2492 48.049 78.553 47.9227 78.7463 47.7208C78.9974 47.4607 79.0577 47.0693 78.9346 46.731C78.8443 46.4836 78.6961 46.1629 78.4827 45.918C77.5538 44.85 76.0876 43.5472 73.5769 45.514C71.0663 47.4809 72.7811 49.5892 72.7811 49.5892C72.7811 49.5892 73.1853 50.7253 73.9209 50.6925C74.6565 50.6597 74.8373 50.2002 74.8373 50.2002Z" fill="#00C7B1"/>
<path d="M75.7385 48.7055C75.5502 49.1979 75.274 49.6397 74.9426 50.0462C74.8171 50.2003 74.5987 49.9806 74.7242 49.8266C74.9903 49.4983 75.2213 49.1398 75.3895 48.751C75.505 48.4833 75.7184 48.0642 75.5025 47.7991C75.2966 47.5441 75.0431 47.6552 74.8046 47.7991C74.4355 48.0263 74.1719 48.3268 73.9283 48.6803C73.9208 48.6904 73.9158 48.703 73.9057 48.7131C73.7978 48.8495 73.5643 48.6702 73.6622 48.5237C73.6723 48.5111 73.6823 48.4985 73.6923 48.4833C73.8631 48.2586 73.8129 47.8673 73.7476 47.6148C73.6597 47.2765 73.4614 47.0215 73.1927 46.8018C73.0396 46.6755 73.258 46.4559 73.4111 46.5821C73.7375 46.8498 73.9735 47.1906 74.0614 47.6097C74.0865 47.7259 74.1016 47.8471 74.1066 47.9683C74.2899 47.7789 74.4957 47.6097 74.7393 47.4759C74.91 47.3825 75.0908 47.2967 75.2891 47.3295C75.4448 47.3547 75.5929 47.4355 75.7009 47.5517C76.0197 47.8875 75.8892 48.3192 75.741 48.7005L75.7385 48.7055Z" fill="#191919"/>
<path d="M78.2794 46.4125C78.0885 46.1727 77.8802 45.9277 77.6341 45.7409C77.4559 45.6046 77.142 45.4859 76.9562 45.6753C76.7529 45.8798 76.8633 46.2004 76.9989 46.4075C77.009 46.4226 77.0215 46.4352 77.0316 46.4504C77.0768 46.4984 77.1194 46.5514 77.1621 46.6019C77.25 46.7029 77.3353 46.8014 77.4232 46.9023C77.4534 46.9352 77.481 46.9705 77.5111 47.0033C77.5337 47.0286 77.5538 47.0538 77.5764 47.0791C77.5839 47.0892 77.5939 47.0993 77.6015 47.1094C77.7069 47.2483 77.4734 47.43 77.3579 47.2988C77.2575 47.1826 77.1571 47.0665 77.0567 46.9503C76.9613 46.8493 76.8684 46.7483 76.7855 46.6372C76.7755 46.6271 76.7654 46.617 76.7554 46.6069C76.5696 46.4504 76.3085 46.5337 76.1453 46.6802C76.0449 46.7685 75.9244 46.9049 75.9319 47.0488C75.9394 47.175 76.0323 47.2937 76.0951 47.3972C76.2533 47.6623 76.4616 47.882 76.6725 48.1042C76.8106 48.2481 76.5922 48.4703 76.4541 48.3238C76.188 48.0436 75.9445 47.7633 75.7511 47.4275C75.6658 47.2786 75.603 47.1195 75.6306 46.9427C75.6607 46.7534 75.7888 46.5842 75.9269 46.458C76.1051 46.2964 76.3436 46.1979 76.5771 46.2156C76.5043 45.9378 76.5445 45.6248 76.7679 45.4278C77.0265 45.2006 77.3931 45.2435 77.6768 45.3975C78.0032 45.5768 78.2718 45.9025 78.5003 46.1903C78.6233 46.3469 78.4049 46.5665 78.2819 46.41L78.2794 46.4125Z" fill="#191919"/>
<path d="M32.9301 39.3159C36.2239 39.3159 38.8941 36.621 38.8941 33.2968C38.8941 29.9725 36.2239 27.2776 32.9301 27.2776C29.6363 27.2776 26.9661 29.9725 26.9661 33.2968C26.9661 36.621 29.6363 39.3159 32.9301 39.3159Z" fill="#F5F4F3"/>
<path d="M34.9366 33.2713C34.9366 31.01 33.7005 29.0409 31.8727 28.0118C31.3013 27.6917 30.5989 27.6917 30.0299 28.0118C28.2022 29.0409 26.9661 31.01 26.9661 33.2713C26.9661 35.5326 28.2022 37.5017 30.0299 38.5308C30.6014 38.8509 31.3038 38.8509 31.8727 38.5308C33.7005 37.5017 34.9366 35.5326 34.9366 33.2713Z" fill="#191919"/>
<path d="M49.8681 39.3159C53.1619 39.3159 55.8321 36.621 55.8321 33.2968C55.8321 29.9725 53.1619 27.2776 49.8681 27.2776C46.5742 27.2776 43.9041 29.9725 43.9041 33.2968C43.9041 36.621 46.5742 39.3159 49.8681 39.3159Z" fill="#F5F4F3"/>
<path d="M51.8746 33.2713C51.8746 31.01 50.6385 29.0409 48.8107 28.0118C48.2392 27.6917 47.5369 27.6917 46.9679 28.0118C45.1402 29.0409 43.9041 31.01 43.9041 33.2713C43.9041 35.5326 45.1402 37.5017 46.9679 38.5308C47.5394 38.8509 48.2418 38.8509 48.8107 38.5308C50.6385 37.5017 51.8746 35.5326 51.8746 33.2713Z" fill="#191919"/>
<path d="M58.2867 36.361C54.5885 30.5501 50.4195 30.5883 50.4195 30.5883C50.422 30.5883 50.4245 30.5883 50.4295 30.5883C50.2357 30.5705 50.0418 30.5603 49.8455 30.5603C46.7338 30.5603 44.1206 32.7403 43.4207 35.6673C42.9323 35.1592 42.2148 34.8339 41.4142 34.8339C40.6137 34.8339 39.8962 35.1592 39.4078 35.6673C38.7079 32.7403 36.0947 30.5603 32.983 30.5603C32.7866 30.5603 32.5903 30.5705 32.3989 30.5883C32.4015 30.5883 32.404 30.5883 32.409 30.5883C32.409 30.5883 28.2375 30.5501 24.5417 36.361C24.368 36.6328 24.2774 36.9504 24.29 37.2756L24.3303 38.4317C24.3479 38.9805 24.65 39.4811 25.1283 39.7478L27.6559 41.1707C28.8593 42.8273 30.8003 43.9046 32.9881 43.9046C36.6334 43.9046 39.5991 40.9115 39.5991 37.2325C39.5991 37.0927 39.5941 36.9555 39.584 36.8158C39.8005 36.1145 40.5406 35.5962 41.4193 35.5962C42.2979 35.5962 43.038 36.1145 43.2545 36.8158C43.247 36.953 43.2394 37.0927 43.2394 37.2325C43.2394 40.9115 46.2051 43.9046 49.8505 43.9046C52.0382 43.9046 53.9792 42.8273 55.1826 41.1707L57.7102 39.7478C58.186 39.4811 58.4881 38.9805 58.5083 38.4317L58.5486 37.2756C58.5586 36.953 58.4705 36.6354 58.2968 36.361H58.2867ZM32.9805 42.9823C29.8386 42.9823 27.2833 40.4034 27.2833 37.2325C27.2833 34.0615 29.8386 31.4826 32.9805 31.4826C36.1224 31.4826 38.6777 34.0615 38.6777 37.2325C38.6777 40.4034 36.1224 42.9823 32.9805 42.9823ZM49.8429 42.9823C46.7011 42.9823 44.1458 40.4034 44.1458 37.2325C44.1458 34.0615 46.7011 31.4826 49.8429 31.4826C52.9848 31.4826 55.5401 34.0615 55.5401 37.2325C55.5401 40.4034 52.9848 42.9823 49.8429 42.9823Z" fill="#151F6D"/>
<path d="M55.0615 26.9702C55.0389 26.9702 55.0162 26.9702 54.9935 26.9651L45.5629 25.2272C45.3589 25.1891 45.223 24.9909 45.2582 24.7825C45.296 24.5742 45.4924 24.437 45.6988 24.4751L55.1295 26.213C55.3334 26.2511 55.4694 26.4493 55.4341 26.6577C55.4014 26.8406 55.2428 26.9702 55.064 26.9702H55.0615Z" fill="#191919"/>
<path d="M27.1501 26.9702C26.9713 26.9702 26.8127 26.8406 26.78 26.6577C26.7422 26.4519 26.8782 26.2511 27.0846 26.213L36.5153 24.4751C36.7192 24.437 36.9181 24.5742 36.9558 24.7825C36.9936 24.9883 36.8577 25.1891 36.6512 25.2272L27.2205 26.9651C27.1979 26.9702 27.1752 26.9702 27.1526 26.9702H27.1501Z" fill="#191919"/>
<path d="M38.6175 45.066C38.6175 45.066 38.6376 45.0533 38.6477 45.0456C39.7353 44.2834 40.8304 44.0014 41.8399 44.0014C41.8626 44.0014 41.8852 44.0014 41.9104 44.0014C41.9331 44.0014 41.9557 44.0014 41.9809 44.0014C42.9577 44.0014 44.0151 44.2707 45.0674 44.9796C45.1681 44.4181 45.0775 43.826 44.8182 43.3611C44.7049 43.1553 44.5589 42.9749 44.3852 42.8351C44.3348 42.7919 44.2794 42.7513 44.2215 42.7106C44.2014 42.6954 44.1812 42.6827 44.1636 42.67C44.1561 42.6649 44.1485 42.6598 44.141 42.6547C43.3253 42.0831 42.4995 41.8696 41.7443 41.8696C41.7266 41.8696 41.709 41.8696 41.6914 41.8696C41.6738 41.8696 41.6561 41.8696 41.6385 41.8696C40.8807 41.8696 40.0575 42.0831 39.2418 42.6547C39.2343 42.6598 39.2267 42.6649 39.2192 42.67C39.199 42.6827 39.1789 42.6979 39.1613 42.7106C39.1034 42.7513 39.048 42.7919 38.9976 42.8326C38.7736 43.013 38.5999 43.2569 38.4765 43.5339C38.2499 44.0446 38.2096 44.6747 38.3783 45.2438C38.4312 45.2032 38.4815 45.1625 38.5369 45.1244C38.5621 45.1066 38.5898 45.0863 38.615 45.0685L38.6175 45.066Z" fill="#191919"/>
<path d="M40.5936 46.2244C40.5936 46.2244 40.6087 46.2143 40.6163 46.2066C40.727 46.1304 41.15 45.8611 41.6887 45.8458C42.2275 45.8611 42.6504 46.1279 42.7612 46.2066C42.7688 46.2117 42.7763 46.2168 42.7839 46.2244C43.5064 46.7936 44.4479 46.4937 44.886 45.5537C44.9716 45.3707 45.0295 45.1776 45.0647 44.9794C44.0124 44.2731 42.9525 44.0012 41.9782 44.0012C41.9556 44.0012 41.9329 44.0012 41.9078 44.0012C41.8851 44.0012 41.8624 44.0012 41.8373 44.0012C40.8277 44.0012 39.7326 44.2858 38.645 45.0455C38.635 45.0531 38.6249 45.0582 38.6148 45.0658C38.5896 45.0836 38.562 45.1014 38.5368 45.1217C38.4814 45.1624 38.4285 45.203 38.3782 45.2411C38.4109 45.3478 38.4461 45.452 38.494 45.5511C38.932 46.4912 39.8711 46.791 40.5961 46.2219L40.5936 46.2244Z" fill="#F49292"/>
<path d="M52.6246 44.1587C52.6246 44.1587 52.6246 44.1536 52.6246 44.1511C52.6246 44.1435 52.6171 44.1231 52.6045 44.0977C52.5793 44.0291 52.5491 43.9605 52.5164 43.8945C52.2269 43.2415 51.4137 41.501 50.9958 40.3399C50.9606 40.256 50.8422 40.2586 50.8145 40.345C50.5729 41.0589 50.3538 41.6789 49.9661 42.5834C49.7446 43.1119 49.299 43.9961 49.2814 44.0977C49.1907 44.3417 49.1404 44.611 49.1404 44.893C49.1404 46.0262 49.9485 46.946 50.9429 46.946C51.9374 46.946 52.7455 46.0262 52.7455 44.893C52.7455 44.6339 52.7027 44.3874 52.6246 44.1587Z" fill="#C4EBF7"/>
</g>
<defs>
<linearGradient id="paint0_linear_877_5155" x1="16.6808" y1="38.9597" x2="10.3131" y2="40.3571" gradientUnits="userSpaceOnUse">
<stop stop-color="#0E7A6A"/>
<stop offset="1" stop-color="#00C7B1" stop-opacity="0"/>
</linearGradient>
<linearGradient id="paint1_linear_877_5155" x1="65.5" y1="39.0896" x2="75.5" y2="41.0896" gradientUnits="userSpaceOnUse">
<stop stop-color="#0E7A6A"/>
<stop offset="1" stop-color="#00C7B1" stop-opacity="0"/>
</linearGradient>
<radialGradient id="paint2_radial_877_5155" cx="0" cy="0" r="1" gradientUnits="userSpaceOnUse" gradientTransform="translate(18.9711 -0.200695) scale(10.358 10.2898)">
<stop stop-color="#00C7B1"/>
<stop offset="0.33" stop-color="#00C4AE"/>
<stop offset="0.53" stop-color="#01BCA6"/>
<stop offset="0.7" stop-color="#04AD99"/>
<stop offset="0.84" stop-color="#089987"/>
<stop offset="0.98" stop-color="#0C7F6F"/>
<stop offset="1" stop-color="#0E7A6A"/>
</radialGradient>
<radialGradient id="paint3_radial_877_5155" cx="0" cy="0" r="1" gradientUnits="userSpaceOnUse" gradientTransform="translate(19.4475 0.487479) scale(9.59568 9.64999)">
<stop stop-color="#00C7B1"/>
<stop offset="0.33" stop-color="#00C4AE"/>
<stop offset="0.53" stop-color="#01BCA6"/>
<stop offset="0.7" stop-color="#04AD99"/>
<stop offset="0.84" stop-color="#089987"/>
<stop offset="0.98" stop-color="#0C7F6F"/>
<stop offset="1" stop-color="#0E7A6A"/>
</radialGradient>
<radialGradient id="paint4_radial_877_5155" cx="0" cy="0" r="1" gradientUnits="userSpaceOnUse" gradientTransform="translate(19.4475 0.487373) scale(9.59569 9.65003)">
<stop stop-color="#00C7B1"/>
<stop offset="0.33" stop-color="#00C4AE"/>
<stop offset="0.53" stop-color="#01BCA6"/>
<stop offset="0.7" stop-color="#04AD99"/>
<stop offset="0.84" stop-color="#089987"/>
<stop offset="0.98" stop-color="#0C7F6F"/>
<stop offset="1" stop-color="#0E7A6A"/>
</radialGradient>
<radialGradient id="paint5_radial_877_5155" cx="0" cy="0" r="1" gradientUnits="userSpaceOnUse" gradientTransform="translate(41.5086 30.5483) scale(27.9234 28.0815)">
<stop stop-color="#00C7B1"/>
<stop offset="0.33" stop-color="#00C4AE"/>
<stop offset="0.53" stop-color="#01BCA6"/>
<stop offset="0.7" stop-color="#04AD99"/>
<stop offset="0.84" stop-color="#089987"/>
<stop offset="0.98" stop-color="#0C7F6F"/>
<stop offset="1" stop-color="#0E7A6A"/>
</radialGradient>
<clipPath id="clip0_877_5155">
<rect width="79" height="60" fill="white"/>
</clipPath>
</defs>
</svg>
