<svg width="95" height="95" viewBox="0 0 95 95" fill="none" xmlns="http://www.w3.org/2000/svg">
<circle cx="47.5" cy="47.5" r="47.5" fill="#5AC4B1" fill-opacity="0.12"/>
<circle cx="47.5" cy="47.5" r="47" stroke="#5AC4B1" stroke-opacity="0.5"/>
<g clip-path="url(#clip0_1539_6952)">
<path d="M30.8901 28.9358C30.9183 28.9539 30.9157 28.9513 30.8901 28.9358V28.9358Z" fill="#00C7B1"/>
<path d="M30.812 28.8848C30.8473 28.9076 30.875 28.9254 30.8926 28.9381C30.8775 28.928 30.8498 28.9102 30.812 28.8848Z" fill="#00C7B1"/>
<path d="M33.2264 26.311C33.3951 25.9198 33.4832 25.4472 33.4479 24.8729C33.4479 24.8729 35.5576 19.24 32.5215 18.1449C30.5477 17.4309 29.3343 19.4966 29.1027 21.1634C27.8263 19.7634 26.142 18.6683 24.6038 20.0505C23.7026 20.8585 23.8687 22.0831 24.6894 23.4196C23.5591 22.9801 22.4236 23.041 21.6432 24.3165C20.3366 26.4559 23.7 28.3386 26.8671 29.1644C28.2568 29.5277 33.1005 27.1317 33.2239 26.3187C33.2239 26.3161 33.2239 26.3136 33.2239 26.311H33.2264Z" fill="#00C7B1"/>
<path d="M47 20.4824C31.5373 20.4824 19 33.1331 19 48.7412C19 64.3494 31.5373 77 47 77C62.4627 77 75 64.3468 75 48.7412C75 33.1356 62.4652 20.4824 47 20.4824Z" fill="#00C7B1"/>
<path d="M38.4806 57.5373C41.7745 57.5373 44.4447 54.8425 44.4447 51.5182C44.4447 48.1939 41.7745 45.499 38.4806 45.499C35.1868 45.499 32.5166 48.1939 32.5166 51.5182C32.5166 54.8425 35.1868 57.5373 38.4806 57.5373Z" fill="#F5F4F3"/>
<path d="M40.4871 51.4927C40.4871 49.2314 39.251 47.2623 37.4233 46.2333C36.8518 45.9131 36.1494 45.9131 35.5804 46.2333C33.7527 47.2623 32.5166 49.2314 32.5166 51.4927C32.5166 53.754 33.7527 55.7232 35.5804 56.7522C36.1519 57.0723 36.8543 57.0723 37.4233 56.7522C39.251 55.7232 40.4871 53.754 40.4871 51.4927Z" fill="#191919"/>
<path d="M55.4186 57.5373C58.7125 57.5373 61.3827 54.8425 61.3827 51.5182C61.3827 48.1939 58.7125 45.499 55.4186 45.499C52.1248 45.499 49.4546 48.1939 49.4546 51.5182C49.4546 54.8425 52.1248 57.5373 55.4186 57.5373Z" fill="#F5F4F3"/>
<path d="M57.4251 51.4927C57.4251 49.2314 56.189 47.2623 54.3613 46.2333C53.7898 45.9131 53.0874 45.9131 52.5184 46.2333C50.6907 47.2623 49.4546 49.2314 49.4546 51.4927C49.4546 53.754 50.6907 55.7232 52.5184 56.7522C53.0899 57.0723 53.7923 57.0723 54.3613 56.7522C56.189 55.7232 57.4251 53.754 57.4251 51.4927Z" fill="#191919"/>
<path d="M63.8373 54.5824C60.139 48.7716 55.97 48.8097 55.97 48.8097C55.9725 48.8097 55.975 48.8097 55.9801 48.8097C55.7862 48.7919 55.5924 48.7817 55.396 48.7817C52.2843 48.7817 49.6711 50.9617 48.9712 53.8888C48.4828 53.3806 47.7653 53.0554 46.9648 53.0554C46.1642 53.0554 45.4467 53.3806 44.9583 53.8888C44.2584 50.9617 41.6452 48.7817 38.5336 48.7817C38.3372 48.7817 38.1408 48.7919 37.9495 48.8097C37.952 48.8097 37.9545 48.8097 37.9596 48.8097C37.9596 48.8097 33.788 48.7716 30.0923 54.5824C29.9186 54.8543 29.8279 55.1719 29.8405 55.4971L29.8808 56.6531C29.8984 57.202 30.2005 57.7025 30.6788 57.9693L33.2065 59.3921C34.4098 61.0487 36.3509 62.126 38.5386 62.126C42.184 62.126 45.1496 59.133 45.1496 55.4539C45.1496 55.3141 45.1446 55.1769 45.1345 55.0372C45.351 54.3359 46.0912 53.8176 46.9698 53.8176C47.8484 53.8176 48.5886 54.3359 48.8051 55.0372C48.7975 55.1744 48.79 55.3141 48.79 55.4539C48.79 59.133 51.7556 62.126 55.401 62.126C57.5888 62.126 59.5298 61.0487 60.7332 59.3921L63.2608 57.9693C63.7366 57.7025 64.0387 57.202 64.0588 56.6531L64.0991 55.4971C64.1092 55.1744 64.0211 54.8568 63.8473 54.5824H63.8373ZM38.531 61.2037C35.3892 61.2037 32.8339 58.6248 32.8339 55.4539C32.8339 52.283 35.3892 49.704 38.531 49.704C41.6729 49.704 44.2282 52.283 44.2282 55.4539C44.2282 58.6248 41.6729 61.2037 38.531 61.2037ZM55.3935 61.2037C52.2516 61.2037 49.6963 58.6248 49.6963 55.4539C49.6963 52.283 52.2516 49.704 55.3935 49.704C58.5354 49.704 61.0906 52.283 61.0906 55.4539C61.0906 58.6248 58.5354 61.2037 55.3935 61.2037Z" fill="#151F6D"/>
<path d="M60.6121 45.1916C60.5894 45.1916 60.5667 45.1916 60.5441 45.1865L51.1134 43.4486C50.9095 43.4105 50.7735 43.2123 50.8088 43.004C50.8465 42.7956 51.0429 42.6584 51.2494 42.6965L60.68 44.4345C60.8839 44.4726 61.0199 44.6707 60.9847 44.8791C60.9519 45.062 60.7933 45.1916 60.6146 45.1916H60.6121Z" fill="#191919"/>
<path d="M32.7006 45.1916C32.5218 45.1916 32.3632 45.062 32.3305 44.8791C32.2928 44.6733 32.4287 44.4726 32.6351 44.4345L42.0658 42.6965C42.2697 42.6584 42.4686 42.7956 42.5064 43.004C42.5441 43.2098 42.4082 43.4105 42.2018 43.4486L32.7711 45.1865C32.7484 45.1916 32.7258 45.1916 32.7031 45.1916H32.7006Z" fill="#191919"/>
<path d="M44.168 63.2874C44.168 63.2874 44.1882 63.2747 44.1982 63.2671C45.2858 62.5048 46.3809 62.2228 47.3905 62.2228C47.4131 62.2228 47.4358 62.2228 47.461 62.2228C47.4836 62.2228 47.5063 62.2228 47.5314 62.2228C48.5082 62.2228 49.5656 62.4921 50.6179 63.201C50.7186 62.6395 50.628 62.0475 50.3687 61.5825C50.2554 61.3767 50.1094 61.1963 49.9357 61.0566C49.8853 61.0134 49.83 60.9727 49.772 60.9321C49.7519 60.9168 49.7318 60.9041 49.7141 60.8914C49.7066 60.8863 49.699 60.8813 49.6915 60.8762C48.8758 60.3045 48.0501 60.0911 47.2948 60.0911C47.2772 60.0911 47.2596 60.0911 47.2419 60.0911C47.2243 60.0911 47.2067 60.0911 47.1891 60.0911C46.4313 60.0911 45.608 60.3045 44.7924 60.8762C44.7848 60.8813 44.7773 60.8863 44.7697 60.8914C44.7496 60.9041 44.7294 60.9194 44.7118 60.9321C44.6539 60.9727 44.5985 61.0134 44.5482 61.054C44.3241 61.2344 44.1504 61.4783 44.027 61.7553C43.8005 62.266 43.7602 62.8961 43.9289 63.4653C43.9817 63.4246 44.0321 63.3839 44.0875 63.3458C44.1126 63.328 44.1403 63.3077 44.1655 63.2899L44.168 63.2874Z" fill="#191919"/>
<path d="M46.1441 64.4459C46.1441 64.4459 46.1592 64.4357 46.1668 64.4281C46.2776 64.3518 46.7005 64.0825 47.2393 64.0673C47.778 64.0825 48.201 64.3493 48.3117 64.4281C48.3193 64.4332 48.3268 64.4382 48.3344 64.4459C49.0569 65.015 49.9985 64.7152 50.4365 63.7751C50.5221 63.5921 50.58 63.399 50.6153 63.2009C49.563 62.4945 48.5031 62.2227 47.5288 62.2227C47.5061 62.2227 47.4835 62.2227 47.4583 62.2227C47.4356 62.2227 47.413 62.2227 47.3878 62.2227C46.3783 62.2227 45.2831 62.5072 44.1956 63.2669C44.1855 63.2745 44.1754 63.2796 44.1654 63.2873C44.1402 63.305 44.1125 63.3228 44.0873 63.3432C44.0319 63.3838 43.9791 63.4245 43.9287 63.4626C43.9614 63.5693 43.9967 63.6735 44.0445 63.7725C44.4826 64.7126 45.4216 65.0125 46.1467 64.4433L46.1441 64.4459Z" fill="#F49292"/>
<path d="M58.1752 62.3802C58.1752 62.3802 58.1752 62.3751 58.1752 62.3725C58.1752 62.3649 58.1676 62.3446 58.155 62.3192C58.1299 62.2506 58.0997 62.182 58.0669 62.1159C57.7774 61.4629 56.9642 59.7225 56.5463 58.5613C56.5111 58.4775 56.3928 58.48 56.3651 58.5664C56.1234 59.2804 55.9044 59.9003 55.5167 60.8049C55.2951 61.3333 54.8495 62.2175 54.8319 62.3192C54.7413 62.5631 54.6909 62.8324 54.6909 63.1144C54.6909 64.2476 55.499 65.1674 56.4935 65.1674C57.4879 65.1674 58.296 64.2476 58.296 63.1144C58.296 62.8553 58.2532 62.6088 58.1752 62.3802Z" fill="#C4EBF7"/>
</g>
<defs>
<clipPath id="clip0_1539_6952">
<rect width="56" height="59" fill="white" transform="translate(19 18)"/>
</clipPath>
</defs>
</svg>
