<svg width="30" height="30" viewBox="0 0 30 30" fill="none" xmlns="http://www.w3.org/2000/svg">
<g opacity="0.8">
<path d="M20.9545 6.25C23.3284 7.83292 24.9559 10.3138 25.4625 13.1217C26.3515 13.6965 26.8593 14.7081 26.789 15.7645C26.7187 16.8209 26.0815 17.7563 25.1241 18.2083C23.7287 22.5511 19.689 25.4961 15.1275 25.4961C10.5661 25.4961 6.52642 22.5511 5.13096 18.2083C4.17358 17.7563 3.53637 16.8209 3.4661 15.7645C3.39583 14.7081 3.90356 13.6965 4.79263 13.1217C5.28898 10.3705 6.86193 7.9309 9.16296 6.34333" stroke="black" stroke-width="2" stroke-linecap="round" stroke-linejoin="round"/>
<path d="M12.2045 19.667C12.9725 20.4509 14.0237 20.8926 15.1211 20.8926C16.2185 20.8926 17.2698 20.4509 18.0378 19.667" stroke="black" stroke-width="2" stroke-linecap="round" stroke-linejoin="round"/>
<path d="M11.0378 3.33301C12.7878 4.49967 13.9545 7.41634 13.9545 9.16634" stroke="black" stroke-width="2" stroke-linecap="round" stroke-linejoin="round"/>
<path d="M15.7045 3.33301C17.4545 5.66634 18.0378 7.41634 18.0378 9.16634" stroke="black" stroke-width="2" stroke-linecap="round" stroke-linejoin="round"/>
<path d="M11.6211 15.0003H11.6328" stroke="black" stroke-width="2" stroke-linecap="round" stroke-linejoin="round"/>
<path d="M18.6211 15.0003H18.6328" stroke="black" stroke-width="2" stroke-linecap="round" stroke-linejoin="round"/>
</g>
</svg>
