<svg width="28" height="28" viewBox="0 0 28 28" fill="none" xmlns="http://www.w3.org/2000/svg">
<path fill-rule="evenodd" clip-rule="evenodd" d="M21.7 13.6703C21.7 13.1385 21.6523 12.6271 21.5636 12.1362H14.5V15.0374H18.5364C18.3625 15.9749 17.8341 16.7692 17.0398 17.301V19.1828H19.4636C20.8818 17.8771 21.7 15.9544 21.7 13.6703Z" fill="#3B3B3B"/>
<path fill-rule="evenodd" clip-rule="evenodd" d="M14.5 21.0003C16.525 21.0003 18.2227 20.3287 19.4636 19.1832L17.0398 17.3014C16.3682 17.7514 15.5091 18.0173 14.5 18.0173C12.5466 18.0173 10.8932 16.698 10.3034 14.9253H7.79773V16.8685C9.03182 19.3196 11.5682 21.0003 14.5 21.0003Z" fill="#3B3B3B"/>
<path fill-rule="evenodd" clip-rule="evenodd" d="M10.3034 14.925C10.1534 14.475 10.0682 13.9943 10.0682 13.5C10.0682 13.0057 10.1534 12.525 10.3034 12.075V10.1318H7.79773C7.28977 11.1443 7 12.2898 7 13.5C7 14.7102 7.28977 15.8557 7.79773 16.8682L10.3034 14.925Z" fill="#3B3B3B"/>
<path fill-rule="evenodd" clip-rule="evenodd" d="M14.5 8.98295C15.6011 8.98295 16.5898 9.36136 17.367 10.1045L19.5182 7.95341C18.2193 6.74318 16.5216 6 14.5 6C11.5682 6 9.03182 7.68068 7.79773 10.1318L10.3034 12.075C10.8932 10.3023 12.5466 8.98295 14.5 8.98295Z" fill="#3B3B3B"/>
</svg>
