<svg width="98" height="86" viewBox="0 0 98 86" fill="none" xmlns="http://www.w3.org/2000/svg">
<rect width="98" height="86" rx="8" fill="white"/>
<rect x="0.5" y="0.5" width="97" height="85" rx="7.5" stroke="black" stroke-opacity="0.15"/>
<path d="M69.9657 64.6559C70.0459 64.0503 69.7965 62.5186 69.7164 62.2603C64.7649 46.0255 61.1403 31.2601 56.0909 14.6602C55.6812 13.3155 54.3988 12.1488 53.3213 11.7303C52.6801 11.4275 50.9168 10.9021 50.0707 11.0178C49.4117 11.0713 48.637 11.2049 48.0581 11.4809C45.3419 12.3181 42.5278 13.3066 39.8472 14.2506C37.4427 14.7849 35.2074 15.8625 32.8385 16.4769C32.0994 16.6729 31.5027 16.9846 31.0307 17.3764C29.6058 18.2491 28.6529 19.8165 29.1249 21.8292C32.9988 38.34 38.7696 54.6283 43.6588 70.8987C44.1575 72.5462 46.0276 74.1492 47.9601 73.9889C50.4092 73.7841 52.8137 72.6798 55.1736 72.0564C58.442 71.2014 61.6747 70.3821 64.845 69.1977C65.1834 69.073 65.5308 69.0018 65.8068 68.8237C66.1363 68.7079 66.644 68.4942 66.831 68.3784C68.9861 66.9624 69.8054 66.0184 69.9746 64.647L69.9657 64.6559Z" fill="#D8D8D8"/>
<path d="M70.9642 64.768C70.9708 64.7141 70.973 64.6604 70.971 64.6074C70.9979 64.1739 70.9433 63.6184 70.8903 63.2004C70.829 62.7177 70.7388 62.1915 70.6696 61.966C68.1984 53.8634 66.0578 46.126 63.9012 38.3291L63.8892 38.2855C61.7373 30.5056 59.5689 22.6662 57.0447 14.3677L57.0446 14.3673C56.7811 13.5025 56.2542 12.7393 55.6646 12.1432C55.0851 11.5574 54.3929 11.08 53.713 10.8095C53.3091 10.6234 52.6572 10.4047 52.0096 10.2448C51.3873 10.0912 50.5871 9.94435 49.9626 10.0217C49.288 10.078 48.4173 10.2171 47.6957 10.5439C44.9967 11.3776 42.208 12.3565 39.5679 13.2862C38.3193 13.5684 37.1259 13.9846 35.99 14.3906C35.8953 14.4244 35.801 14.4582 35.7071 14.4918C34.6401 14.874 33.6243 15.2378 32.5845 15.5075L32.5845 15.5075L32.5794 15.5089C31.7397 15.7314 31.0281 16.0897 30.4451 16.5597C28.7537 17.624 27.5674 19.5787 28.1484 22.056L28.1484 22.0561C30.8379 33.5187 34.4457 44.8975 38.0277 56.1945C39.6171 61.2074 41.2014 66.2041 42.6981 71.185L42.6987 71.1869C43.0173 72.2395 43.7486 73.2204 44.6635 73.9162C45.5817 74.6144 46.7713 75.0892 48.0399 74.984L48.0406 74.9839C49.3788 74.872 50.6779 74.5171 51.8984 74.1317C52.3182 73.9992 52.7221 73.8655 53.1167 73.7349C53.9057 73.4737 54.6575 73.2248 55.4251 73.022C55.6388 72.9661 55.8527 72.9103 56.0667 72.8544C59.1086 72.0604 62.175 71.26 65.1899 70.1338C65.2816 70.1001 65.3433 70.0808 65.4194 70.0569C65.4834 70.0369 65.5576 70.0137 65.6684 69.976C65.8274 69.9219 66.0296 69.8465 66.2348 69.7299C66.5804 69.6027 67.0952 69.3877 67.3544 69.2272C67.362 69.2225 67.3696 69.2176 67.3771 69.2127C69.5692 67.7725 70.7369 66.6103 70.9642 64.768Z" stroke="#CCCCCC" stroke-width="2" stroke-linejoin="round"/>
<path d="M67.1067 62.6966C67.08 62.4562 67.0266 62.2068 66.9553 61.9575C62.3245 46.1947 58.1478 30.3606 53.0894 14.7403C52.6708 13.449 51.8426 12.6386 50.8719 12.2379C50.2931 11.9529 49.6163 11.8371 48.8593 11.9529C48.2715 12.0063 47.6927 12.1844 47.1761 12.4605C44.7449 13.2976 42.3048 14.1169 39.9003 15.0609C37.7452 15.6131 35.6435 16.4502 33.515 17.0647C32.8471 17.2606 32.3128 17.5723 31.8942 17.9641C30.6207 18.8369 29.7747 20.3775 30.22 22.3278C33.8802 38.3667 39.2502 54.1651 43.8277 69.9546C44.2907 71.5576 45.9917 73.0983 47.7283 72.9202C49.9279 72.6975 52.0831 71.5933 54.1937 70.9699C57.1236 70.0971 60.0179 69.2778 62.8499 68.0934C63.1527 67.9687 63.4465 67.8262 63.6959 67.7015C63.9096 67.5858 64.0699 67.5145 64.2659 67.4611C66.136 66.8822 67.6054 64.7271 67.0978 62.6966H67.1067Z" fill="#6BB099"/>
<path d="M32.1793 19.4336C32.1793 19.4336 31.3243 20.1549 31.3956 21.4997C31.4668 22.8444 33.4884 28.722 33.4884 28.722C33.4884 28.722 34.2186 29.6838 35.1804 29.666C36.1422 29.6482 40.9423 27.8404 40.9423 27.8404C40.9423 27.8404 42.0733 27.2081 42.0555 26.184C42.0377 25.1598 40.0072 18.4629 40.0072 18.4629C40.0072 18.4629 39.4106 17.1627 38.1371 17.1894C36.8636 17.2161 32.1793 19.4425 32.1793 19.4425V19.4336Z" fill="#D8D8D8"/>
<path d="M34.1963 23.9255C35.1602 23.7867 35.8184 22.8179 35.6663 21.7615C35.5143 20.7051 34.6096 19.9612 33.6457 20.0999C32.6818 20.2386 32.0236 21.2075 32.1757 22.2639C32.3277 23.3203 33.2324 24.0642 34.1963 23.9255Z" fill="#303030"/>
<path d="M38.1589 22.3351C39.1229 22.1964 39.781 21.2276 39.629 20.1711C39.4769 19.1147 38.5723 18.3708 37.6083 18.5095C36.6444 18.6483 35.9863 19.6171 36.1383 20.6735C36.2904 21.7299 37.195 22.4739 38.1589 22.3351Z" fill="#303030"/>
<path d="M35.7308 28.6813C36.6948 28.5426 37.3529 27.5737 37.2009 26.5173C37.0488 25.4609 36.1442 24.717 35.1802 24.8557C34.2163 24.9945 33.5582 25.9633 33.7102 27.0197C33.8623 28.0761 34.7669 28.8201 35.7308 28.6813Z" fill="#303030"/>
<path d="M39.6796 27.1818C40.6435 27.0431 41.3016 26.0742 41.1496 25.0178C40.9975 23.9614 40.0929 23.2175 39.129 23.3562C38.1651 23.495 37.5069 24.4638 37.659 25.5202C37.811 26.5766 38.7157 27.3205 39.6796 27.1818Z" fill="#303030"/>
</svg>
