<svg width="28" height="28" viewBox="0 0 28 28" fill="none" xmlns="http://www.w3.org/2000/svg">
<g opacity="0.8">
<rect x="6" y="9.88867" width="15.0001" height="3.11093" rx="1" stroke="#0A0A0A" stroke-width="1.5" stroke-linecap="round" stroke-linejoin="round"/>
<path d="M13.5 9.88867V19.9992" stroke="#0A0A0A" stroke-width="1.5" stroke-linecap="round" stroke-linejoin="round"/>
<path d="M19.3334 13V18.4441C19.3334 19.3032 18.5872 19.9996 17.6668 19.9996H9.33336C8.41288 19.9996 7.66669 19.3032 7.66669 18.4441V13" stroke="#0A0A0A" stroke-width="1.5" stroke-linecap="round" stroke-linejoin="round"/>
<path d="M9.75003 9.88901C8.59943 9.88901 7.66669 9.0185 7.66669 7.94468C7.66669 6.87085 8.59943 6.00034 9.75003 6.00034C11.3952 5.97359 12.8832 7.51653 13.5001 9.88901C14.117 7.51653 15.6049 5.97359 17.2501 6.00034C18.4007 6.00034 19.3334 6.87085 19.3334 7.94468C19.3334 9.0185 18.4007 9.88901 17.2501 9.88901" stroke="#0A0A0A" stroke-width="1.5" stroke-linecap="round" stroke-linejoin="round"/>
</g>
</svg>
