<svg width="98" height="86" viewBox="0 0 98 86" fill="none" xmlns="http://www.w3.org/2000/svg">
<rect width="98" height="86" rx="8" fill="white"/>
<rect x="0.5" y="0.5" width="97" height="85" rx="7.5" stroke="black" stroke-opacity="0.15"/>
<path d="M81 63.9988V48.3689H31.2005C31.2005 48.3689 28.7454 50.6948 28.7454 56.1793C28.7454 61.6638 31.2005 63.9897 31.2005 63.9897H80.991L81 63.9988Z" fill="#6AADBC"/>
<path d="M81 53.2832V49.7898H64.2582C64.2582 49.7898 62.6909 51.2016 62.6909 55.8444C62.6909 60.4872 64.5481 62.5869 64.5481 62.5869H81V53.2832Z" fill="#FFF7E7"/>
<path d="M81 56.4329H69.4402" stroke="#D4CCBE" stroke-width="0.21" stroke-miterlimit="10"/>
<path d="M81 59.4011H68.5977" stroke="#D4CCBE" stroke-width="0.21" stroke-miterlimit="10"/>
<path d="M81.0002 53.5637H67.9456" stroke="#D4CCBE" stroke-width="0.21" stroke-miterlimit="10"/>
<path d="M78.4181 42.1516V48.3782H34.2082C34.2082 48.3782 33.1211 47.2922 33.1935 45.093C33.266 42.8847 34.2082 42.1607 34.2082 42.1607H78.4181V42.1516Z" fill="#F8C86D"/>
<path d="M78.4181 43.0203H61.5767C61.5767 43.0203 60.861 43.2737 60.861 45.1833C60.861 47.0929 61.5767 47.5002 61.5767 47.5002H78.4181V43.0112V43.0203Z" fill="#FFF7E7"/>
<path d="M63.8416 44.5046H78.4181" stroke="#D4CCBE" stroke-width="0.21" stroke-miterlimit="10"/>
<path d="M78.4182 46.0161H66.7043" stroke="#D4CCBE" stroke-width="0.21" stroke-miterlimit="10"/>
<path d="M49.4008 42.1516H43.2766V48.3782H49.4008V42.1516Z" fill="#FDE09B"/>
<path d="M37.7866 42.1968C37.7866 42.1968 36.2012 39.7714 36.1378 35.5358C36.0744 31.3003 37.7866 28.7209 37.7866 28.7209H75.1567V42.1968H37.7866Z" fill="#EE7C8B"/>
<path d="M75.1657 29.7888H65.4359C65.4359 29.7888 64.1313 30.8568 64.1313 35.1737C64.1313 39.4907 65.4359 41.1288 65.4359 41.1288H75.1657V29.7888Z" fill="#FFF7E7"/>
<path d="M67.3384 33.0562H75.1657" stroke="#D4CCBE" stroke-width="0.21" stroke-miterlimit="10"/>
<path d="M68.9148 35.4543H75.1658" stroke="#D4CCBE" stroke-width="0.21" stroke-miterlimit="10"/>
<path d="M66.5957 38.6038H75.1659" stroke="#D4CCBE" stroke-width="0.21" stroke-miterlimit="10"/>
<mask id="mask0_230_5143" style="mask-type:alpha" maskUnits="userSpaceOnUse" x="27" y="20" width="25" height="25">
<ellipse cx="39.2724" cy="32.5764" rx="11.7772" ry="11.7654" fill="#D9D9D9"/>
</mask>
<g mask="url(#mask0_230_5143)">
<path opacity="0.75" d="M22.467 36.3594L22.3855 27.3363L55.1534 27.0195L55.2259 36.0427L22.467 36.3594Z" fill="white"/>
<path opacity="0.75" d="M23.21 40.622L23.1829 38.3595L55.9508 38.0518L55.9689 40.3053L23.21 40.622Z" fill="white"/>
</g>
<path d="M28.8539 41.4367C26.9514 39.1017 25.8915 36.2056 25.8552 33.1013C25.8099 29.4722 27.1598 26.0059 29.6692 23.3451C34.8603 17.8335 43.4486 17.5258 48.8118 22.6482C54.1749 27.7798 54.3018 36.4228 49.1107 41.9344C43.9197 47.4461 35.3314 47.7538 29.9682 42.6313C29.5696 42.2512 29.1982 41.853 28.8539 41.4276V41.4367ZM48.1504 25.2638C47.8787 24.9289 47.5706 24.6031 47.2536 24.2954C42.8235 20.0599 35.6938 20.3585 31.3543 24.9651C29.2435 27.2005 28.102 30.1057 28.1382 33.1466C28.1744 36.1603 29.3703 38.9478 31.5083 40.9842C35.9384 45.2197 43.0681 44.921 47.4076 40.3144C51.4299 36.0517 51.6564 29.5627 48.1414 25.2638H48.1504Z" fill="#DDDDDD"/>
<path d="M16.4697 60.2702C15.9896 60.777 14.8662 60.4965 13.9693 59.6548C13.0725 58.8041 12.7373 57.6999 13.2265 57.1931L28.8358 40.7759C29.316 40.269 30.4394 40.5405 31.3272 41.3913C32.2241 42.242 32.5593 43.3461 32.07 43.853L16.4697 60.2702Z" fill="#DDDDDD"/>
<mask id="path-23-outside-1_230_5143" maskUnits="userSpaceOnUse" x="11" y="16.001" width="72" height="50" fill="black">
<rect fill="white" x="11" y="16.001" width="72" height="50"/>
<path fill-rule="evenodd" clip-rule="evenodd" d="M25.8539 33.1023C25.8883 36.0437 26.8417 38.7982 28.5601 41.0655L13.2251 57.1941C12.7359 57.7009 13.0711 58.8051 13.968 59.6558C14.8649 60.4975 15.9882 60.778 16.4684 60.2712L31.8237 44.1119C32.2697 44.4057 32.7296 44.6695 33.2007 44.9033C33.1971 44.9656 33.1943 45.0291 33.1921 45.0939C33.1235 47.1776 34.0958 48.262 34.1981 48.3702H31.1991C31.1991 48.3702 28.744 50.6961 28.744 56.1806C28.744 61.6651 31.1991 63.991 31.1991 63.991H80.9897L80.9987 64.0001V62.5881H80.9988L80.9988 59.5074V59.2974V56.5389V56.3289L80.9988 53.2844V49.791H80.9987V48.3702H78.4167V44.6107H78.4168V44.4007H78.4167V42.1616H75.1553V41.13H75.1643V38.71H75.1645V38.5H75.1643V35.5603H75.1644V35.3503H75.1643V33.1621H75.1645V32.9521H75.1643V29.79H75.1553V28.722H52.4298C51.8101 26.4709 50.6026 24.364 48.8105 22.6492C43.4473 17.5268 34.859 17.8345 29.6679 23.3461C27.1585 26.0069 25.8086 29.4731 25.8539 33.1023Z"/>
</mask>
<path d="M28.5601 41.0655L30.0095 42.4436C30.6848 41.7334 30.746 40.6385 30.154 39.8574L28.5601 41.0655ZM25.8539 33.1023L27.8538 33.079L27.8538 33.0774L25.8539 33.1023ZM13.2251 57.1941L14.6641 58.5831C14.6676 58.5795 14.6711 58.5759 14.6746 58.5722L13.2251 57.1941ZM13.968 59.6558L12.5916 61.1069L12.5994 61.1142L13.968 59.6558ZM16.4684 60.2712L15.0186 58.8935L15.0165 58.8957L16.4684 60.2712ZM31.8237 44.1119L32.9238 42.4416C32.1151 41.9089 31.0409 42.0322 30.3738 42.7342L31.8237 44.1119ZM33.2007 44.9033L35.1974 45.0181C35.2434 44.2183 34.8076 43.4682 34.0901 43.112L33.2007 44.9033ZM33.1921 45.0939L35.191 45.1598L35.1911 45.1595L33.1921 45.0939ZM34.1981 48.3702V50.3702C34.997 50.3702 35.7192 49.8948 36.0351 49.1611C36.351 48.4274 36.2 47.576 35.651 46.9957L34.1981 48.3702ZM31.1991 48.3702V46.3702C30.6874 46.3702 30.1951 46.5663 29.8236 46.9183L31.1991 48.3702ZM31.1991 63.991L29.8236 65.4429C30.1951 65.7948 30.6874 65.991 31.1991 65.991V63.991ZM80.9897 63.991L82.4042 62.5771C82.0291 62.2018 81.5202 61.991 80.9897 61.991V63.991ZM80.9987 64.0001L79.5842 65.414C80.1561 65.9861 81.0164 66.1574 81.7639 65.8479C82.5113 65.5384 82.9987 64.8091 82.9987 64.0001H80.9987ZM80.9987 62.5881V60.5881C79.8941 60.5881 78.9987 61.4835 78.9987 62.5881H80.9987ZM80.9988 62.5881V64.5881C82.1033 64.5881 82.9988 63.6927 82.9988 62.5881L80.9988 62.5881ZM80.9988 59.5074L82.9988 59.5074V59.5074H80.9988ZM80.9988 56.3289H82.9988V56.3289L80.9988 56.3289ZM80.9988 53.2844H78.9988V53.2844L80.9988 53.2844ZM80.9988 49.791H82.9988C82.9988 48.6864 82.1033 47.791 80.9988 47.791V49.791ZM80.9987 49.791H78.9987C78.9987 50.8955 79.8941 51.791 80.9987 51.791V49.791ZM80.9987 48.3702H82.9987C82.9987 47.2656 82.1033 46.3702 80.9987 46.3702V48.3702ZM78.4167 48.3702H76.4167C76.4167 49.4748 77.3121 50.3702 78.4167 50.3702V48.3702ZM78.4167 44.6107V42.6107C77.3121 42.6107 76.4167 43.5061 76.4167 44.6107H78.4167ZM78.4168 44.6107V46.6107C79.5214 46.6107 80.4168 45.7152 80.4168 44.6107H78.4168ZM78.4168 44.4007H80.4168C80.4168 43.2961 79.5214 42.4007 78.4168 42.4007V44.4007ZM78.4167 44.4007H76.4167C76.4167 45.5052 77.3121 46.4007 78.4167 46.4007V44.4007ZM78.4167 42.1616H80.4167C80.4167 41.0571 79.5213 40.1616 78.4167 40.1616V42.1616ZM75.1553 42.1616H73.1553C73.1553 43.2662 74.0508 44.1616 75.1553 44.1616V42.1616ZM75.1553 41.13V39.13C74.0508 39.13 73.1553 40.0255 73.1553 41.13H75.1553ZM75.1643 41.13V43.13C76.2689 43.13 77.1643 42.2346 77.1643 41.13H75.1643ZM75.1643 38.71V36.71C74.0598 36.71 73.1643 37.6054 73.1643 38.71H75.1643ZM75.1645 38.71V40.71C76.2691 40.71 77.1645 39.8145 77.1645 38.71H75.1645ZM75.1645 38.5H77.1645C77.1645 37.3954 76.2691 36.5 75.1645 36.5V38.5ZM75.1643 38.5H73.1643C73.1643 39.6045 74.0598 40.5 75.1643 40.5V38.5ZM75.1643 35.5603V33.5603C74.0598 33.5603 73.1643 34.4557 73.1643 35.5603H75.1643ZM75.1644 35.5603V37.5603C76.269 37.5603 77.1644 36.6649 77.1644 35.5603H75.1644ZM75.1644 35.3503H77.1644C77.1644 34.2457 76.269 33.3503 75.1644 33.3503V35.3503ZM75.1643 35.3503H73.1643C73.1643 36.4549 74.0598 37.3503 75.1643 37.3503V35.3503ZM75.1643 33.1621V31.1621C74.0598 31.1621 73.1643 32.0575 73.1643 33.1621H75.1643ZM75.1645 33.1621V35.1621C76.269 35.1621 77.1645 34.2667 77.1645 33.1621H75.1645ZM75.1645 32.9521H77.1645C77.1645 31.8475 76.269 30.9521 75.1645 30.9521V32.9521ZM75.1643 32.9521H73.1643C73.1643 34.0567 74.0598 34.9521 75.1643 34.9521V32.9521ZM75.1643 29.79H77.1643C77.1643 28.6854 76.2689 27.79 75.1643 27.79V29.79ZM75.1553 29.79H73.1553C73.1553 30.8946 74.0508 31.79 75.1553 31.79V29.79ZM75.1553 28.722H77.1553C77.1553 27.6174 76.2599 26.722 75.1553 26.722V28.722ZM52.4298 28.722L50.5015 29.2528C50.7404 30.1207 51.5297 30.722 52.4298 30.722V28.722ZM48.8105 22.6492L50.1931 21.2041L50.1919 21.2029L48.8105 22.6492ZM29.6679 23.3461L31.1229 24.7183L31.1239 24.7173L29.6679 23.3461ZM30.154 39.8574C28.6961 37.9338 27.8832 35.5951 27.8538 33.079L23.8541 33.1257C23.8934 36.4922 24.9873 39.6626 26.9661 42.2735L30.154 39.8574ZM14.6746 58.5722L30.0095 42.4436L27.1107 39.6874L11.7757 55.816L14.6746 58.5722ZM15.3444 58.2047C15.1004 57.9733 15.008 57.7728 14.9912 57.7172C14.9838 57.6928 15.0123 57.7672 14.9934 57.9194C14.9726 58.0875 14.8905 58.3486 14.6641 58.5831L11.7861 55.8051C10.8186 56.8075 10.9291 58.1031 11.1624 58.8748C11.4151 59.7107 11.9387 60.4875 12.5916 61.1068L15.3444 58.2047ZM15.0165 58.8957C15.2445 58.6551 15.5038 58.5631 15.6655 58.5356C15.8125 58.5106 15.8836 58.5348 15.8545 58.5277C15.7901 58.5117 15.5807 58.4265 15.3366 58.1974L12.5994 61.1142C13.2521 61.7268 14.0529 62.2027 14.8944 62.4107C15.6638 62.6009 16.9633 62.6568 17.9203 61.6467L15.0165 58.8957ZM30.3738 42.7342L15.0186 58.8935L17.9182 61.6489L33.2735 45.4895L30.3738 42.7342ZM34.0901 43.112C33.6911 42.9139 33.3016 42.6905 32.9238 42.4416L30.7235 45.7821C31.2377 46.1208 31.7681 46.425 32.3114 46.6947L34.0901 43.112ZM35.1911 45.1595C35.1926 45.111 35.1948 45.0638 35.1974 45.0181L31.204 44.7886C31.1995 44.8673 31.1959 44.9473 31.1932 45.0283L35.1911 45.1595ZM35.651 46.9957C35.78 47.1321 35.1455 46.5404 35.191 45.1598L31.1932 45.028C31.1014 47.8149 32.4116 49.392 32.7453 49.7447L35.651 46.9957ZM31.1991 50.3702H34.1981V46.3702H31.1991V50.3702ZM30.744 56.1806C30.744 53.7486 31.2858 52.0934 31.7715 51.0906C32.0165 50.5849 32.2524 50.2346 32.4096 50.0272C32.4882 49.9234 32.5472 49.8553 32.5777 49.8215C32.593 49.8046 32.6011 49.7964 32.601 49.7965C32.6009 49.7966 32.5988 49.7987 32.5944 49.803C32.5922 49.8051 32.5895 49.8078 32.5862 49.811C32.5846 49.8126 32.5828 49.8143 32.5809 49.8161C32.5799 49.8171 32.5789 49.818 32.5779 49.819C32.5773 49.8195 32.5765 49.8203 32.5763 49.8205C32.5754 49.8213 32.5746 49.8221 31.1991 48.3702C29.8236 46.9183 29.8228 46.9191 29.8219 46.9199C29.8216 46.9202 29.8208 46.921 29.8202 46.9216C29.819 46.9227 29.8177 46.9239 29.8165 46.9251C29.814 46.9275 29.8113 46.9301 29.8085 46.9328C29.8028 46.9383 29.7966 46.9443 29.7897 46.951C29.7761 46.9644 29.7602 46.9804 29.7421 46.9988C29.706 47.0357 29.6614 47.0827 29.6095 47.1401C29.5058 47.255 29.373 47.4115 29.2215 47.6114C28.9183 48.0115 28.5404 48.5855 28.1716 49.3468C27.4298 50.8781 26.744 53.1281 26.744 56.1806H30.744ZM31.1991 63.991C32.5746 62.5391 32.5754 62.5399 32.5763 62.5407C32.5765 62.5409 32.5773 62.5417 32.5779 62.5422C32.5789 62.5432 32.5799 62.5441 32.5809 62.545C32.5828 62.5469 32.5846 62.5486 32.5862 62.5502C32.5895 62.5534 32.5922 62.556 32.5944 62.5582C32.5988 62.5624 32.6009 62.5646 32.601 62.5647C32.6011 62.5648 32.593 62.5565 32.5777 62.5396C32.5472 62.5058 32.4882 62.4378 32.4096 62.334C32.2524 62.1266 32.0165 61.7763 31.7715 61.2706C31.2858 60.2678 30.744 58.6126 30.744 56.1806H26.744C26.744 59.2331 27.4298 61.4831 28.1716 63.0144C28.5404 63.7757 28.9183 64.3496 29.2215 64.7498C29.373 64.9497 29.5058 65.1062 29.6095 65.2211C29.6614 65.2785 29.706 65.3255 29.7421 65.3624C29.7602 65.3808 29.7761 65.3967 29.7897 65.4102C29.7966 65.4169 29.8028 65.4229 29.8085 65.4284C29.8113 65.4311 29.814 65.4337 29.8165 65.4361C29.8178 65.4373 29.819 65.4385 29.8202 65.4396C29.8208 65.4402 29.8216 65.441 29.8219 65.4413C29.8228 65.4421 29.8236 65.4429 31.1991 63.991ZM80.9897 61.991H31.1991V65.991H80.9897V61.991ZM82.4132 62.5861L82.4042 62.5771L79.5751 65.4049L79.5842 65.414L82.4132 62.5861ZM78.9987 62.5881V64.0001H82.9987V62.5881H78.9987ZM80.9988 60.5881H80.9987V64.5881H80.9988V60.5881ZM78.9988 59.5074L78.9988 62.5881L82.9988 62.5881L82.9988 59.5074L78.9988 59.5074ZM78.9988 59.2974V59.5074H82.9988V59.2974H78.9988ZM78.9988 56.5389V59.2974H82.9988V56.5389H78.9988ZM78.9988 56.3289V56.5389H82.9988V56.3289H78.9988ZM78.9988 53.2844L78.9988 56.3289L82.9988 56.3289L82.9988 53.2844L78.9988 53.2844ZM78.9988 49.791V53.2844H82.9988V49.791H78.9988ZM80.9987 51.791H80.9988V47.791H80.9987V51.791ZM78.9987 48.3702V49.791H82.9987V48.3702H78.9987ZM78.4167 50.3702H80.9987V46.3702H78.4167V50.3702ZM76.4167 44.6107V48.3702H80.4167V44.6107H76.4167ZM78.4168 42.6107H78.4167V46.6107H78.4168V42.6107ZM76.4168 44.4007V44.6107H80.4168V44.4007H76.4168ZM78.4167 46.4007H78.4168V42.4007H78.4167V46.4007ZM76.4167 42.1616V44.4007H80.4167V42.1616H76.4167ZM75.1553 44.1616H78.4167V40.1616H75.1553V44.1616ZM73.1553 41.13V42.1616H77.1553V41.13H73.1553ZM75.1643 39.13H75.1553V43.13H75.1643V39.13ZM73.1643 38.71V41.13H77.1643V38.71H73.1643ZM75.1645 36.71H75.1643V40.71H75.1645V36.71ZM73.1645 38.5V38.71H77.1645V38.5H73.1645ZM75.1643 40.5H75.1645V36.5H75.1643V40.5ZM73.1643 35.5603V38.5H77.1643V35.5603H73.1643ZM75.1644 33.5603H75.1643V37.5603H75.1644V33.5603ZM73.1644 35.3503V35.5603H77.1644V35.3503H73.1644ZM75.1643 37.3503H75.1644V33.3503H75.1643V37.3503ZM73.1643 33.1621V35.3503H77.1643V33.1621H73.1643ZM75.1645 31.1621H75.1643V35.1621H75.1645V31.1621ZM73.1645 32.9521V33.1621H77.1645V32.9521H73.1645ZM75.1643 34.9521H75.1645V30.9521H75.1643V34.9521ZM73.1643 29.79V32.9521H77.1643V29.79H73.1643ZM75.1553 31.79H75.1643V27.79H75.1553V31.79ZM73.1553 28.722V29.79H77.1553V28.722H73.1553ZM52.4298 30.722H75.1553V26.722H52.4298V30.722ZM47.4278 24.0943C48.9491 25.5498 49.9741 27.3369 50.5015 29.2528L54.3581 28.1912C53.6461 25.6049 52.2562 23.1781 50.1931 21.2041L47.4278 24.0943ZM31.1239 24.7173C35.5793 19.9867 42.8952 19.7651 47.4291 24.0955L50.1919 21.2029C43.9994 15.2884 34.1387 15.6822 28.212 21.9749L31.1239 24.7173ZM27.8538 33.0774C27.815 29.9684 28.9685 27.0027 31.1229 24.7183L28.213 21.9739C25.3485 25.011 23.8023 28.9779 23.8541 33.1273L27.8538 33.0774Z" fill="black" mask="url(#path-23-outside-1_230_5143)"/>
<mask id="mask1_230_5143" style="mask-type:alpha" maskUnits="userSpaceOnUse" x="11" y="16" width="72" height="50">
<mask id="path-25-outside-2_230_5143" maskUnits="userSpaceOnUse" x="11" y="16" width="72" height="50" fill="black">
<rect fill="white" x="11" y="16" width="72" height="50"/>
<path fill-rule="evenodd" clip-rule="evenodd" d="M25.8539 33.1013C25.8883 36.0427 26.8417 38.7972 28.5601 41.0645L13.2251 57.1931C12.7359 57.7 13.0711 58.8041 13.968 59.6548C14.8649 60.4965 15.9882 60.7771 16.4684 60.2702L31.8237 44.1109C32.2697 44.4047 32.7296 44.6685 33.2007 44.9024C33.1971 44.9646 33.1943 45.0281 33.1921 45.0929C33.1235 47.1767 34.0958 48.2611 34.1981 48.3692H31.1991C31.1991 48.3692 28.744 50.6951 28.744 56.1796C28.744 61.6641 31.1991 63.99 31.1991 63.99H80.9897L80.9987 63.9991V62.5871H80.9988L80.9988 59.5064V59.2964V56.538V56.328L80.9988 53.2834V49.79H80.9987V48.3692H78.4167V44.6097H78.4168V44.3997H78.4167V42.1606H75.1553V41.129H75.1643V38.709H75.1645V38.499H75.1643V35.5593H75.1644V35.3493H75.1643V33.1611H75.1645V32.9511H75.1643V29.789H75.1553V28.721H52.4298C51.8101 26.4699 50.6026 24.363 48.8105 22.6482C43.4473 17.5258 34.859 17.8335 29.6679 23.3451C27.1585 26.0059 25.8086 29.4722 25.8539 33.1013Z"/>
</mask>
<path d="M28.5601 41.0645L30.0095 42.4426C30.6848 41.7324 30.746 40.6375 30.154 39.8565L28.5601 41.0645ZM25.8539 33.1013L27.8538 33.078L27.8538 33.0764L25.8539 33.1013ZM13.2251 57.1931L14.6641 58.5821C14.6676 58.5785 14.6711 58.5749 14.6746 58.5712L13.2251 57.1931ZM13.968 59.6548L12.5916 61.1059L12.5994 61.1132L13.968 59.6548ZM16.4684 60.2702L15.0186 58.8926L15.0165 58.8947L16.4684 60.2702ZM31.8237 44.1109L32.9238 42.4407C32.1151 41.908 31.0409 42.0312 30.3738 42.7332L31.8237 44.1109ZM33.2007 44.9024L35.1974 45.0171C35.2434 44.2173 34.8076 43.4672 34.0901 43.111L33.2007 44.9024ZM33.1921 45.0929L35.191 45.1588L35.1911 45.1585L33.1921 45.0929ZM34.1981 48.3692V50.3692C34.997 50.3692 35.7192 49.8938 36.0351 49.1601C36.351 48.4264 36.2 47.575 35.651 46.9947L34.1981 48.3692ZM31.1991 48.3692V46.3692C30.6874 46.3692 30.1951 46.5654 29.8236 46.9173L31.1991 48.3692ZM31.1991 63.99L29.8236 65.4419C30.1951 65.7939 30.6874 65.99 31.1991 65.99V63.99ZM80.9897 63.99L82.4042 62.5761C82.0291 62.2009 81.5202 61.99 80.9897 61.99V63.99ZM80.9987 63.9991L79.5842 65.413C80.1561 65.9852 81.0164 66.1564 81.7639 65.8469C82.5113 65.5374 82.9987 64.8081 82.9987 63.9991H80.9987ZM80.9987 62.5871V60.5871C79.8941 60.5871 78.9987 61.4825 78.9987 62.5871H80.9987ZM80.9988 62.5871V64.5871C82.1033 64.5871 82.9988 63.6917 82.9988 62.5871L80.9988 62.5871ZM80.9988 59.5064L82.9988 59.5064V59.5064H80.9988ZM80.9988 56.328H82.9988V56.328L80.9988 56.328ZM80.9988 53.2834H78.9988V53.2834L80.9988 53.2834ZM80.9988 49.79H82.9988C82.9988 48.6854 82.1033 47.79 80.9988 47.79V49.79ZM80.9987 49.79H78.9987C78.9987 50.8946 79.8941 51.79 80.9987 51.79V49.79ZM80.9987 48.3692H82.9987C82.9987 47.2646 82.1033 46.3692 80.9987 46.3692V48.3692ZM78.4167 48.3692H76.4167C76.4167 49.4738 77.3121 50.3692 78.4167 50.3692V48.3692ZM78.4167 44.6097V42.6097C77.3121 42.6097 76.4167 43.5051 76.4167 44.6097H78.4167ZM78.4168 44.6097V46.6097C79.5214 46.6097 80.4168 45.7143 80.4168 44.6097H78.4168ZM78.4168 44.3997H80.4168C80.4168 43.2951 79.5214 42.3997 78.4168 42.3997V44.3997ZM78.4167 44.3997H76.4167C76.4167 45.5043 77.3121 46.3997 78.4167 46.3997V44.3997ZM78.4167 42.1606H80.4167C80.4167 41.0561 79.5213 40.1606 78.4167 40.1606V42.1606ZM75.1553 42.1606H73.1553C73.1553 43.2652 74.0508 44.1606 75.1553 44.1606V42.1606ZM75.1553 41.129V39.129C74.0508 39.129 73.1553 40.0245 73.1553 41.129H75.1553ZM75.1643 41.129V43.129C76.2689 43.129 77.1643 42.2336 77.1643 41.129H75.1643ZM75.1643 38.709V36.709C74.0598 36.709 73.1643 37.6044 73.1643 38.709H75.1643ZM75.1645 38.709V40.709C76.2691 40.709 77.1645 39.8136 77.1645 38.709H75.1645ZM75.1645 38.499H77.1645C77.1645 37.3944 76.2691 36.499 75.1645 36.499V38.499ZM75.1643 38.499H73.1643C73.1643 39.6036 74.0598 40.499 75.1643 40.499V38.499ZM75.1643 35.5593V33.5593C74.0598 33.5593 73.1643 34.4548 73.1643 35.5593H75.1643ZM75.1644 35.5593V37.5593C76.269 37.5593 77.1644 36.6639 77.1644 35.5593H75.1644ZM75.1644 35.3493H77.1644C77.1644 34.2448 76.269 33.3493 75.1644 33.3493V35.3493ZM75.1643 35.3493H73.1643C73.1643 36.4539 74.0598 37.3493 75.1643 37.3493V35.3493ZM75.1643 33.1611V31.1611C74.0598 31.1611 73.1643 32.0565 73.1643 33.1611H75.1643ZM75.1645 33.1611V35.1611C76.269 35.1611 77.1645 34.2657 77.1645 33.1611H75.1645ZM75.1645 32.9511H77.1645C77.1645 31.8465 76.269 30.9511 75.1645 30.9511V32.9511ZM75.1643 32.9511H73.1643C73.1643 34.0557 74.0598 34.9511 75.1643 34.9511V32.9511ZM75.1643 29.789H77.1643C77.1643 28.6845 76.2689 27.789 75.1643 27.789V29.789ZM75.1553 29.789H73.1553C73.1553 30.8936 74.0508 31.789 75.1553 31.789V29.789ZM75.1553 28.721H77.1553C77.1553 27.6165 76.2599 26.721 75.1553 26.721V28.721ZM52.4298 28.721L50.5015 29.2518C50.7404 30.1197 51.5297 30.721 52.4298 30.721V28.721ZM48.8105 22.6482L50.1931 21.2032L50.1919 21.2019L48.8105 22.6482ZM29.6679 23.3451L31.1229 24.7174L31.1239 24.7164L29.6679 23.3451ZM30.154 39.8565C28.6961 37.9328 27.8832 35.5942 27.8538 33.078L23.8541 33.1247C23.8934 36.4912 24.9873 39.6616 26.9661 42.2725L30.154 39.8565ZM14.6746 58.5712L30.0095 42.4426L27.1107 39.6864L11.7757 55.815L14.6746 58.5712ZM15.3444 58.2038C15.1004 57.9723 15.008 57.7718 14.9912 57.7162C14.9838 57.6918 15.0123 57.7662 14.9934 57.9184C14.9726 58.0865 14.8905 58.3476 14.6641 58.5821L11.7861 55.8041C10.8186 56.8065 10.9291 58.1021 11.1624 58.8738C11.4151 59.7097 11.9387 60.4866 12.5916 61.1059L15.3444 58.2038ZM15.0165 58.8947C15.2445 58.6541 15.5038 58.5622 15.6655 58.5346C15.8125 58.5096 15.8836 58.5339 15.8545 58.5267C15.7901 58.5107 15.5807 58.4255 15.3366 58.1964L12.5994 61.1132C13.2521 61.7258 14.0529 62.2017 14.8944 62.4098C15.6638 62.6 16.9633 62.6559 17.9203 61.6457L15.0165 58.8947ZM30.3738 42.7332L15.0186 58.8926L17.9182 61.6479L33.2735 45.4886L30.3738 42.7332ZM34.0901 43.111C33.6911 42.9129 33.3016 42.6895 32.9238 42.4407L30.7235 45.7811C31.2377 46.1198 31.7681 46.424 32.3114 46.6937L34.0901 43.111ZM35.1911 45.1585C35.1926 45.11 35.1948 45.0629 35.1974 45.0171L31.204 44.7876C31.1995 44.8664 31.1959 44.9463 31.1932 45.0273L35.1911 45.1585ZM35.651 46.9947C35.78 47.1311 35.1455 46.5394 35.191 45.1588L31.1932 45.0271C31.1014 47.814 32.4116 49.391 32.7453 49.7437L35.651 46.9947ZM31.1991 50.3692H34.1981V46.3692H31.1991V50.3692ZM30.744 56.1796C30.744 53.7476 31.2858 52.0924 31.7715 51.0897C32.0165 50.5839 32.2524 50.2336 32.4096 50.0262C32.4882 49.9224 32.5472 49.8544 32.5777 49.8206C32.593 49.8037 32.6011 49.7954 32.601 49.7955C32.6009 49.7956 32.5988 49.7978 32.5944 49.802C32.5922 49.8042 32.5895 49.8068 32.5862 49.81C32.5846 49.8116 32.5828 49.8133 32.5809 49.8152C32.5799 49.8161 32.5789 49.8171 32.5779 49.818C32.5773 49.8185 32.5765 49.8193 32.5763 49.8195C32.5754 49.8203 32.5746 49.8211 31.1991 48.3692C29.8236 46.9173 29.8228 46.9181 29.8219 46.9189C29.8216 46.9192 29.8208 46.92 29.8202 46.9206C29.819 46.9217 29.8177 46.9229 29.8165 46.9241C29.814 46.9265 29.8113 46.9291 29.8085 46.9318C29.8028 46.9373 29.7966 46.9434 29.7897 46.9501C29.7761 46.9635 29.7602 46.9794 29.7421 46.9978C29.706 47.0347 29.6614 47.0817 29.6095 47.1392C29.5058 47.254 29.373 47.4105 29.2215 47.6104C28.9183 48.0106 28.5404 48.5845 28.1716 49.3458C27.4298 50.8771 26.744 53.1271 26.744 56.1796H30.744ZM31.1991 63.99C32.5746 62.5381 32.5754 62.5389 32.5763 62.5397C32.5765 62.5399 32.5773 62.5407 32.5779 62.5412C32.5789 62.5422 32.5799 62.5431 32.5809 62.5441C32.5828 62.5459 32.5846 62.5476 32.5862 62.5492C32.5895 62.5524 32.5922 62.5551 32.5944 62.5572C32.5988 62.5615 32.6009 62.5636 32.601 62.5637C32.6011 62.5639 32.593 62.5556 32.5777 62.5387C32.5472 62.5049 32.4882 62.4368 32.4096 62.333C32.2524 62.1256 32.0165 61.7753 31.7715 61.2696C31.2858 60.2668 30.744 58.6116 30.744 56.1796H26.744C26.744 59.2321 27.4298 61.4821 28.1716 63.0134C28.5404 63.7747 28.9183 64.3487 29.2215 64.7488C29.373 64.9488 29.5058 65.1053 29.6095 65.2201C29.6614 65.2775 29.706 65.3245 29.7421 65.3614C29.7602 65.3799 29.7761 65.3958 29.7897 65.4092C29.7966 65.4159 29.8028 65.422 29.8085 65.4274C29.8113 65.4301 29.814 65.4327 29.8165 65.4351C29.8178 65.4363 29.819 65.4375 29.8202 65.4386C29.8208 65.4392 29.8216 65.44 29.8219 65.4403C29.8228 65.4411 29.8236 65.4419 31.1991 63.99ZM80.9897 61.99H31.1991V65.99H80.9897V61.99ZM82.4132 62.5852L82.4042 62.5761L79.5751 65.4039L79.5842 65.413L82.4132 62.5852ZM78.9987 62.5871V63.9991H82.9987V62.5871H78.9987ZM80.9988 60.5871H80.9987V64.5871H80.9988V60.5871ZM78.9988 59.5064L78.9988 62.5871L82.9988 62.5871L82.9988 59.5064L78.9988 59.5064ZM78.9988 59.2964V59.5064H82.9988V59.2964H78.9988ZM78.9988 56.538V59.2964H82.9988V56.538H78.9988ZM78.9988 56.328V56.538H82.9988V56.328H78.9988ZM78.9988 53.2834L78.9988 56.328L82.9988 56.328L82.9988 53.2834L78.9988 53.2834ZM78.9988 49.79V53.2834H82.9988V49.79H78.9988ZM80.9987 51.79H80.9988V47.79H80.9987V51.79ZM78.9987 48.3692V49.79H82.9987V48.3692H78.9987ZM78.4167 50.3692H80.9987V46.3692H78.4167V50.3692ZM76.4167 44.6097V48.3692H80.4167V44.6097H76.4167ZM78.4168 42.6097H78.4167V46.6097H78.4168V42.6097ZM76.4168 44.3997V44.6097H80.4168V44.3997H76.4168ZM78.4167 46.3997H78.4168V42.3997H78.4167V46.3997ZM76.4167 42.1606V44.3997H80.4167V42.1606H76.4167ZM75.1553 44.1606H78.4167V40.1606H75.1553V44.1606ZM73.1553 41.129V42.1606H77.1553V41.129H73.1553ZM75.1643 39.129H75.1553V43.129H75.1643V39.129ZM73.1643 38.709V41.129H77.1643V38.709H73.1643ZM75.1645 36.709H75.1643V40.709H75.1645V36.709ZM73.1645 38.499V38.709H77.1645V38.499H73.1645ZM75.1643 40.499H75.1645V36.499H75.1643V40.499ZM73.1643 35.5593V38.499H77.1643V35.5593H73.1643ZM75.1644 33.5593H75.1643V37.5593H75.1644V33.5593ZM73.1644 35.3493V35.5593H77.1644V35.3493H73.1644ZM75.1643 37.3493H75.1644V33.3493H75.1643V37.3493ZM73.1643 33.1611V35.3493H77.1643V33.1611H73.1643ZM75.1645 31.1611H75.1643V35.1611H75.1645V31.1611ZM73.1645 32.9511V33.1611H77.1645V32.9511H73.1645ZM75.1643 34.9511H75.1645V30.9511H75.1643V34.9511ZM73.1643 29.789V32.9511H77.1643V29.789H73.1643ZM75.1553 31.789H75.1643V27.789H75.1553V31.789ZM73.1553 28.721V29.789H77.1553V28.721H73.1553ZM52.4298 30.721H75.1553V26.721H52.4298V30.721ZM47.4278 24.0933C48.9491 25.5489 49.9741 27.3359 50.5015 29.2518L54.3581 28.1902C53.6461 25.6039 52.2562 23.1772 50.1931 21.2032L47.4278 24.0933ZM31.1239 24.7164C35.5793 19.9858 42.8952 19.7642 47.4291 24.0945L50.1919 21.2019C43.9994 15.2874 34.1387 15.6812 28.212 21.9739L31.1239 24.7164ZM27.8538 33.0764C27.815 29.9674 28.9685 27.0017 31.1229 24.7174L28.213 21.9729C25.3485 25.0101 23.8023 28.9769 23.8541 33.1263L27.8538 33.0764Z" fill="black" mask="url(#path-25-outside-2_230_5143)"/>
</mask>
<g mask="url(#mask1_230_5143)">
<path d="M22.5 61.4564L27 51.9659L31 48.9689L36 38.979L52.5 28.9891L56.5 23.4956L51 14.0042H31.5L21.5 18.0001L23 39.978L15 47.4705L6.5 56.9609L15 64.9529L22.5 61.4564Z" fill="#B1B1B1"/>
<path d="M82 44.9739L78 47.9709L31.5 48.4704L27.5 50.9678L25 56.4623L29.5 67.9507L79 69.9487L88 65.4533L93.5 50.4683L82 44.9739Z" fill="#357D8D"/>
<path d="M33.5 43.975L30.5 48.9699L77.5 49.4694L81 45.9729L87 39.4795L78 38.98L75 42.4765L33.5 43.975Z" fill="#DA9D29"/>
<path d="M54.5 25.4934L51 30.9879L47.5 41.4773L73.5 43.9748L78 39.4793L81.5 25.4934H54.5Z" fill="#C95867"/>
</g>
</svg>
