<svg width="335" height="52" viewBox="0 0 335 52" fill="none" xmlns="http://www.w3.org/2000/svg">
<rect width="335" height="52" rx="8" fill="#EEF9F7"/>
<path d="M47.5684 19.9668H46.4883V23.207H44.3828V24.0957H46.4883V25.75H44.3828V26.625H46.4883V29.2363H47.5684V19.9668ZM37.5059 22.332H44.3828V21.457H41.5254V19.9531H40.459V21.457H37.5059V22.332ZM38.2305 25.3262C38.2168 26.707 39.3516 27.6436 40.9785 27.6504C42.6055 27.6436 43.7471 26.707 43.7539 25.3262C43.7471 23.9316 42.6055 23.002 40.9785 23.002C39.3516 23.002 38.2168 23.9316 38.2305 25.3262ZM39.2285 25.3262C39.2217 24.4512 39.9395 23.8633 40.9785 23.8496C42.0176 23.8633 42.7354 24.4512 42.7422 25.3262C42.7354 26.2012 42.0176 26.7959 40.9785 26.7891C39.9395 26.7959 39.2217 26.2012 39.2285 25.3262ZM39.707 31.8477H47.8418V30.9453H40.7871V28.416H39.707V31.8477ZM53.307 22.2637V21.7441H56.0414V20.8555H49.4789V21.7441H52.2543V22.2637C52.2406 24.0205 50.9691 25.5859 49.1508 26.2012L49.6977 27.0625C51.1537 26.5361 52.2748 25.4492 52.7943 24.0547C53.3207 25.2783 54.3803 26.2422 55.7816 26.707L56.2875 25.8594C54.5033 25.2783 53.3139 23.8564 53.307 22.2637ZM50.7641 29.8379C50.7709 31.2598 52.2953 32.0801 54.7973 32.0801C57.2924 32.0801 58.8031 31.2598 58.8031 29.8379C58.8031 28.4365 57.2924 27.623 54.7973 27.623C52.2953 27.623 50.7709 28.4365 50.7641 29.8379ZM51.8441 29.8379C51.8305 28.9902 52.9652 28.4844 54.7973 28.4844C56.6361 28.4844 57.7572 28.9902 57.7641 29.8379C57.7572 30.7129 56.6361 31.2256 54.7973 31.2188C52.9652 31.2256 51.8305 30.7129 51.8441 29.8379ZM57.6273 27.2949H58.6938V23.959H60.5258V23.0566H58.6938V19.9531H57.6273V27.2949ZM71.3094 19.9531H70.2703V32.1074H71.3094V19.9531ZM61.0418 25.2031C61.0486 27.7871 62.074 29.4346 63.6531 29.4277C65.1502 29.4346 66.1688 27.9512 66.2713 25.5859H67.8367V31.4922H68.8621V20.2129H67.8367V24.6973H66.2645C66.1277 22.4072 65.1297 20.9854 63.6531 20.9785C62.074 20.9854 61.0486 22.6191 61.0418 25.2031ZM62.0535 25.2031C62.0398 23.2275 62.6688 21.9902 63.6531 21.9902C64.6443 21.9902 65.2732 23.2275 65.2664 25.2031C65.2732 27.1719 64.6443 28.416 63.6531 28.4023C62.6688 28.416 62.0398 27.1719 62.0535 25.2031ZM76.8703 23.2207V21.0059H75.7766V23.2207C75.7697 25.4629 74.3615 27.8008 72.5773 28.6758L73.2746 29.5371C74.6555 28.8057 75.7971 27.2471 76.3371 25.4287C76.8771 27.1582 78.0187 28.6074 79.3996 29.3184L80.0422 28.4434C78.2785 27.6367 76.8635 25.4219 76.8703 23.2207ZM78.716 24.9844H81.6008V32.1348H82.6672V19.9531H81.6008V24.1094H78.716V24.9844ZM91.4648 21.9219V20.582H90.4121V21.8398C90.4053 23.7197 89.1816 25.3467 87.3633 26.0234L87.9375 26.8848C89.3594 26.3311 90.4463 25.2168 90.9658 23.7744C91.499 25.0459 92.5586 26.0508 93.8984 26.543L94.4863 25.6953C92.7227 25.0938 91.4648 23.5762 91.4648 21.9219ZM88.9766 29.8652C88.9834 31.2803 90.5078 32.0801 93.0098 32.0801C95.5049 32.0801 97.0156 31.2803 97.0156 29.8652C97.0156 28.4775 95.5049 27.6641 93.0098 27.6641C90.5078 27.6641 88.9834 28.4775 88.9766 29.8652ZM90.0566 29.8652C90.043 29.0381 91.1777 28.5254 93.0098 28.5254C94.8486 28.5254 95.9697 29.0381 95.9766 29.8652C95.9697 30.7266 94.8486 31.2256 93.0098 31.2324C91.1777 31.2256 90.043 30.7266 90.0566 29.8652ZM95.8398 27.3496H96.9062V24.0273H98.7383V23.125H96.9062V19.9531H95.8398V27.3496ZM108.606 19.9531H107.539V26.8574H108.606V23.8359H110.438V22.9336H108.606V19.9531ZM99.6781 26.1328H100.621C103.178 26.1396 104.627 26.0713 106.336 25.7227L106.2 24.8477C104.573 25.1621 103.185 25.2578 100.745 25.2441V21.6621H105.065V20.7871H99.6781V26.1328ZM100.936 31.9434H108.606V27.4863H100.936V31.9434ZM101.989 31.0684V28.3613H107.539V31.0684H101.989ZM124.349 21.3477H119.974V19.8848H118.921V21.3477H114.491V22.2363H124.349V21.3477ZM113.917 28.7168H118.921V32.1348H119.974V28.7168H125.046V27.8281H113.917V28.7168ZM115.489 24.9707C115.476 26.2559 116.966 26.9805 119.454 26.9941C121.922 26.9805 123.412 26.2559 123.419 24.9707C123.412 23.6582 121.922 22.9336 119.454 22.9336C116.966 22.9336 115.476 23.6582 115.489 24.9707ZM116.597 24.9707C116.583 24.2051 117.643 23.7607 119.454 23.7539C121.245 23.7607 122.298 24.2051 122.312 24.9707C122.298 25.7227 121.245 26.167 119.454 26.1602C117.643 26.167 116.583 25.7227 116.597 24.9707ZM138.219 19.9668H137.139V28.1152H138.219V24.5469H140.037V23.6445H138.219V19.9668ZM128.676 26.8711L128.799 27.7461C130.938 27.7529 133.844 27.7324 136.482 27.2676L136.387 26.4883C135.32 26.6455 134.172 26.7412 133.037 26.7959V25.9414C134.445 25.8047 135.334 25.1553 135.348 24.1504C135.334 23.043 134.213 22.3594 132.49 22.3594C130.781 22.3594 129.64 23.043 129.646 24.1504C129.64 25.1621 130.556 25.8115 131.971 25.9414V26.8369C130.781 26.8711 129.646 26.8711 128.676 26.8711ZM128.977 21.8945H136.018V21.0742H133.037V19.8574H131.971V21.0742H128.977V21.8945ZM130.166 29.5781H137.139V32.1074H138.219V28.7168H130.166V29.5781ZM130.672 24.1504C130.665 23.5078 131.369 23.1113 132.49 23.125C133.611 23.1113 134.322 23.5078 134.322 24.1504C134.322 24.7861 133.611 25.2168 132.49 25.2031C131.369 25.2168 130.665 24.7861 130.672 24.1504ZM150.506 19.9531H149.426V23.125H146.979V24.0137H149.426V27.1992H150.506V19.9531ZM140.485 26.2285L141.045 27.0898C142.495 26.5361 143.622 25.4014 144.142 23.9795C144.668 25.2305 145.728 26.2559 147.088 26.748L147.649 25.8867C145.871 25.2783 144.655 23.7676 144.655 22.1816V21.7441H147.375V20.8418H140.827V21.7441H143.575V22.1953C143.575 23.9316 142.289 25.5791 140.485 26.2285ZM142.399 29.8379C142.392 31.2734 143.944 32.0938 146.473 32.1074C148.996 32.0938 150.547 31.2734 150.547 29.8379C150.547 28.4092 148.996 27.5752 146.473 27.582C143.944 27.5752 142.392 28.4092 142.399 29.8379ZM143.465 29.8379C143.458 28.9492 144.607 28.416 146.473 28.416C148.332 28.416 149.481 28.9492 149.481 29.8379C149.481 30.7197 148.332 31.2529 146.473 31.2461C144.607 31.2529 143.458 30.7197 143.465 29.8379ZM159.198 23.9453H154.372V21.6348H159.102V20.7461H153.292V24.8203H155.671V26.5635C154.447 26.6045 153.251 26.6182 152.184 26.625L152.348 27.5C154.632 27.5 157.523 27.4248 160.141 27.0625L160.059 26.2695C159.007 26.3857 157.872 26.4678 156.737 26.5156V24.8203H159.198V23.9453ZM154.262 31.8477H162.548V30.9453H155.329V28.4297H154.262V31.8477ZM161.071 29.0586H162.151V19.9668H161.071V29.0586ZM170.388 20.4043C168.549 20.4111 167.223 21.5186 167.23 23.0977C167.223 24.6836 168.549 25.7773 170.388 25.7773C172.207 25.7773 173.526 24.6836 173.533 23.0977C173.526 21.5186 172.207 20.4111 170.388 20.4043ZM168.283 23.0977C168.269 22.0449 169.165 21.2998 170.388 21.3066C171.591 21.2998 172.494 22.0449 172.494 23.0977C172.494 24.1641 171.591 24.9023 170.388 24.9023C169.165 24.9023 168.269 24.1641 168.283 23.0977ZM169.076 27.6504H175.912V28.9082H169.103V31.9434H177.416V31.082H170.156V29.7148H176.978V26.7891H169.076V27.6504ZM175.912 26.2012H176.978V19.9531H175.912V26.2012ZM188.719 19.9531H187.639V23.125H185.191V24.0137H187.639V27.1992H188.719V19.9531ZM178.697 26.2285L179.258 27.0898C180.707 26.5361 181.835 25.4014 182.354 23.9795C182.881 25.2305 183.94 26.2559 185.301 26.748L185.861 25.8867C184.084 25.2783 182.867 23.7676 182.867 22.1816V21.7441H185.588V20.8418H179.039V21.7441H181.787V22.1953C181.787 23.9316 180.502 25.5791 178.697 26.2285ZM180.611 29.8379C180.604 31.2734 182.156 32.0938 184.686 32.1074C187.208 32.0938 188.76 31.2734 188.76 29.8379C188.76 28.4092 187.208 27.5752 184.686 27.582C182.156 27.5752 180.604 28.4092 180.611 29.8379ZM181.678 29.8379C181.671 28.9492 182.819 28.416 184.686 28.416C186.545 28.416 187.693 28.9492 187.693 29.8379C187.693 30.7197 186.545 31.2529 184.686 31.2461C182.819 31.2529 181.671 30.7197 181.678 29.8379ZM197.082 21.3066H190.903V22.1816H196.002C196.009 23.1523 195.982 24.6289 195.647 26.666L196.727 26.7617C197.076 24.5059 197.076 22.8994 197.082 21.9355V21.3066ZM190.219 28.5391L190.356 29.4277C192.53 29.4414 195.387 29.3867 197.944 28.9902L197.889 28.1836C196.624 28.334 195.244 28.4229 193.897 28.4707V24.7793H192.844V28.5049C191.908 28.5254 191.019 28.5322 190.219 28.5391ZM198.655 32.1074H199.721V25.9688H201.69V25.0391H199.721V19.9531H198.655V32.1074ZM214.821 20.6094H206.564V21.498H213.755V21.5117C213.762 22.4551 213.762 23.5488 213.42 25.0801H205.155V25.9688H216.284V25.0801H214.5C214.821 23.5625 214.821 22.4551 214.821 21.5117V20.6094ZM206.523 31.9434H214.876V27.6504H206.523V31.9434ZM207.589 31.0684V28.498H213.81V31.0684H207.589ZM219.767 20.7188C218.14 20.7256 216.985 21.9014 216.992 23.5898C216.985 25.2852 218.14 26.4336 219.767 26.4336C221.374 26.4336 222.549 25.2852 222.556 23.5898C222.549 21.9014 221.374 20.7256 219.767 20.7188ZM217.962 23.5898C217.949 22.4619 218.721 21.6484 219.767 21.6484C220.799 21.6484 221.565 22.4619 221.572 23.5898C221.565 24.7178 220.799 25.5381 219.767 25.5312C218.721 25.5381 217.949 24.7178 217.962 23.5898ZM218.988 28.7441H226.125V32.1074H227.177V27.8828H218.988V28.7441ZM223.527 27.1172H224.539V23.9863H226.152V27.1992H227.177V19.9668H226.152V23.0977H224.539V20.1992H223.527V27.1172ZM234.092 20.7461C231.556 20.7529 229.648 22.0791 229.648 24.082C229.648 26.1055 231.556 27.4316 234.092 27.418C236.628 27.4316 238.535 26.1055 238.535 24.082C238.535 22.0791 236.628 20.7529 234.092 20.7461ZM228.555 30.4941H239.684V29.5918H228.555V30.4941ZM230.674 24.082C230.66 22.626 232.13 21.6143 234.092 21.6211C236.04 21.6143 237.496 22.626 237.496 24.082C237.496 25.5586 236.04 26.543 234.092 26.543C232.13 26.543 230.66 25.5586 230.674 24.082ZM251.383 29.7012H246.311V27.4043H250.262V26.5156H242.715V24.5332H249.975V20.8555H241.621V21.7441H248.922V23.6582H241.649V27.4043H245.258V29.7012H240.254V30.6035H251.383V29.7012ZM265.144 19.9531H264.064V21.7305H261.254C261.329 21.3613 261.37 20.9717 261.37 20.5684H255.888V21.457H260.188C259.983 23.4189 258.253 24.8682 255.273 25.5586L255.655 26.4473C258.356 25.7979 260.242 24.5059 261.001 22.5918H264.064V24.0547H260.823V24.9023H264.064V26.1738H265.144V19.9531ZM257.269 27.5957H264.064V28.8672H257.296V31.998H265.554V31.1094H258.363V29.6875H265.144V26.7207H257.269V27.5957ZM277.158 19.9531H276.132V32.1074H277.158V19.9531ZM266.617 28.8672L267.3 29.6738C268.517 28.915 269.399 27.4863 269.837 25.8115C270.26 27.3564 271.108 28.6689 272.304 29.3867L272.961 28.5938C271.286 27.623 270.336 25.5244 270.336 23.4258V22.2773H272.564V21.3887H266.959V22.2773H269.296V23.4258C269.303 25.6338 268.312 27.8555 266.617 28.8672ZM271.634 25.2168H273.685V31.4785H274.697V20.2539H273.685V24.3418H271.634V25.2168ZM288.502 19.9668H287.422V26.9531H288.502V19.9668ZM278.508 25.7637L278.672 26.6523C280.866 26.6523 283.812 26.6113 286.479 26.1602L286.41 25.3809C285.344 25.5312 284.202 25.6201 283.074 25.6748V24.4102H285.494V23.5488H280.695V21.457H285.385V20.5684H279.615V24.4102H281.994V25.7227C280.743 25.7637 279.54 25.7637 278.508 25.7637ZM280.49 31.9434H288.502V27.5H287.449V28.7988H281.557V27.5H280.49V31.9434ZM281.557 31.0684V29.6328H287.449V31.0684H281.557ZM300.188 19.9531H299.121V32.1074H300.188V19.9531ZM290.959 28.9766H291.944C293.892 28.9766 295.813 28.8262 297.973 28.375L297.823 27.459C295.786 27.8896 293.871 28.0332 292.012 28.0469V21.1562H290.959V28.9766ZM311.272 19.9531H310.206V32.1348H311.272V25.668H313.309V24.7656H311.272V19.9531ZM302.399 29.0859H303.356C305.667 29.0859 307.26 29.0176 309.167 28.6758L309.03 27.7461C307.219 28.0811 305.667 28.1768 303.466 28.1836V22.0312H308.073V21.1426H302.399V29.0859ZM314.851 31.082C315.336 31.0752 315.733 30.6787 315.726 30.1934C315.733 29.7148 315.336 29.3184 314.851 29.3184C314.372 29.3184 313.962 29.7148 313.976 30.1934C313.962 30.6787 314.372 31.0752 314.851 31.082Z" fill="#5AC4B1"/>
<circle cx="22.5" cy="25.5" r="6.375" stroke="#5AC4B1" stroke-opacity="0.5" stroke-width="1.5" stroke-linecap="round" stroke-linejoin="round"/>
<path d="M22.5 22.6667H22.5071" stroke="#5AC4B1" stroke-opacity="0.5" stroke-width="1.5" stroke-linecap="round" stroke-linejoin="round"/>
<path d="M21.7917 25.5H22.5001V28.3333H23.2084" stroke="#5AC4B1" stroke-opacity="0.5" stroke-width="1.5" stroke-linecap="round" stroke-linejoin="round"/>
</svg>
