<svg width="30" height="30" viewBox="0 0 30 30" fill="none" xmlns="http://www.w3.org/2000/svg">
<path d="M20.9545 6.25C23.3284 7.83292 24.9559 10.3138 25.4625 13.1217C26.3515 13.6965 26.8593 14.7081 26.789 15.7645C26.7187 16.8209 26.0815 17.7563 25.1241 18.2083C23.7287 22.5511 19.689 25.4961 15.1275 25.4961C10.5661 25.4961 6.52642 22.5511 5.13096 18.2083C4.17358 17.7563 3.53636 16.8209 3.4661 15.7645C3.39583 14.7081 3.90355 13.6965 4.79262 13.1217C5.28897 10.3705 6.86192 7.9309 9.16296 6.34333" stroke="#949494" stroke-width="2" stroke-linecap="round" stroke-linejoin="round"/>
<path d="M12.2045 19.6667C12.9725 20.4506 14.0237 20.8923 15.1211 20.8923C16.2185 20.8923 17.2698 20.4506 18.0378 19.6667" stroke="#949494" stroke-width="2" stroke-linecap="round" stroke-linejoin="round"/>
<path d="M11.0378 3.33325C12.7878 4.49992 13.9545 7.41659 13.9545 9.16659" stroke="#949494" stroke-width="2" stroke-linecap="round" stroke-linejoin="round"/>
<path d="M15.7045 3.33325C17.4545 5.66659 18.0378 7.41659 18.0378 9.16659" stroke="#949494" stroke-width="2" stroke-linecap="round" stroke-linejoin="round"/>
<path d="M11.6211 15.0001H11.6328" stroke="#949494" stroke-width="2" stroke-linecap="round" stroke-linejoin="round"/>
<path d="M18.6211 15.0001H18.6328" stroke="#949494" stroke-width="2" stroke-linecap="round" stroke-linejoin="round"/>
</svg>
