<svg width="93" height="54" viewBox="0 0 93 54" fill="none" xmlns="http://www.w3.org/2000/svg">
<path d="M51.9545 10.75C54.3284 12.3329 55.9559 14.8138 56.4625 17.6217C57.3515 18.1965 57.8593 19.2081 57.789 20.2645C57.7187 21.3209 57.0815 22.2563 56.1241 22.7083C54.7287 27.0511 50.689 29.9961 46.1275 29.9961C41.5661 29.9961 37.5264 27.0511 36.131 22.7083C35.1736 22.2563 34.5364 21.3209 34.4661 20.2645C34.3958 19.2081 34.9036 18.1965 35.7926 17.6217C36.289 14.8705 37.8619 12.4309 40.163 10.8433" stroke="#949494" stroke-width="2" stroke-linecap="round" stroke-linejoin="round"/>
<path d="M43.2045 24.1667C43.9725 24.9506 45.0237 25.3923 46.1211 25.3923C47.2185 25.3923 48.2698 24.9506 49.0378 24.1667" stroke="#949494" stroke-width="2" stroke-linecap="round" stroke-linejoin="round"/>
<path d="M42.0378 7.83325C43.7878 8.99992 44.9545 11.9166 44.9545 13.6666" stroke="#949494" stroke-width="2" stroke-linecap="round" stroke-linejoin="round"/>
<path d="M46.7045 7.83325C48.4545 10.1666 49.0378 11.9166 49.0378 13.6666" stroke="#949494" stroke-width="2" stroke-linecap="round" stroke-linejoin="round"/>
<path d="M42.6211 19.5001H42.6328" stroke="#949494" stroke-width="2" stroke-linecap="round" stroke-linejoin="round"/>
<path d="M49.6211 19.5001H49.6328" stroke="#949494" stroke-width="2" stroke-linecap="round" stroke-linejoin="round"/>
<path d="M39.1536 37.7227V45.5H40.2815V39.8711H40.346L42.6341 45.4893H43.5687L45.846 39.8818H45.9212V45.5H47.0491V37.7227H45.6097L43.1497 43.749H43.053L40.5931 37.7227H39.1536ZM47.6374 37.7227L50.4519 42.4492V45.5H51.6335V42.4492L54.4587 37.7227H53.1159L51.0856 41.2461H50.9997L48.9802 37.7227H47.6374Z" fill="#747474"/>
</svg>
