<svg width="37" height="36" viewBox="0 0 37 36" fill="none" xmlns="http://www.w3.org/2000/svg">
<path fill-rule="evenodd" clip-rule="evenodd" d="M28.6737 11.2938C23.6307 7.80917 18.2787 10.0875 16.4389 11.3923C14.1571 13.0105 12.5654 15.459 11.9795 18.2342C11.0629 19.0093 10.5553 20.1973 10.6352 21.4322C10.7151 22.667 11.3712 23.7754 12.3794 24.4189C13.9312 28.8449 18.0229 31.8176 22.627 31.8176C27.231 31.8176 31.3227 28.8449 32.8745 24.4189C33.8827 23.7754 34.5388 22.667 34.6187 21.4322C34.6987 20.1973 34.191 19.0093 33.2744 18.2342C32.676 15.3999 31.0292 12.9089 28.6737 11.2938Z" fill="#00C7B1"/>
<path d="M24.4544 9.75C26.8283 11.3329 28.4558 13.8138 28.9624 16.6217C29.8515 17.1965 30.3592 18.2081 30.289 19.2645C30.2187 20.3209 29.5815 21.2563 28.6241 21.7083C27.2286 26.0511 23.189 28.9961 18.6275 28.9961C14.0661 28.9961 10.0264 26.0511 8.63092 21.7083C7.67355 21.2563 7.03633 20.3209 6.96606 19.2645C6.8958 18.2081 7.40352 17.1965 8.29259 16.6217C8.78894 13.8705 10.3619 11.4309 12.6629 9.84333" stroke="black" stroke-width="2" stroke-linecap="round" stroke-linejoin="round"/>
<path d="M15.7044 23.1667C16.4725 23.9506 17.5237 24.3923 18.6211 24.3923C19.7185 24.3923 20.7697 23.9506 21.5378 23.1667" stroke="black" stroke-width="2" stroke-linecap="round" stroke-linejoin="round"/>
<path d="M14.5378 6.83325C16.2878 7.99992 17.4544 10.9166 17.4544 12.6666" stroke="black" stroke-width="2" stroke-linecap="round" stroke-linejoin="round"/>
<path d="M19.2044 6.83325C20.9544 9.16659 21.5378 10.9166 21.5378 12.6666" stroke="black" stroke-width="2" stroke-linecap="round" stroke-linejoin="round"/>
<path d="M15.1211 18.5001H15.1328" stroke="black" stroke-width="2" stroke-linecap="round" stroke-linejoin="round"/>
<path d="M22.1211 18.5001H22.1328" stroke="black" stroke-width="2" stroke-linecap="round" stroke-linejoin="round"/>
</svg>
