<svg width="31" height="30" viewBox="0 0 31 30" fill="none" xmlns="http://www.w3.org/2000/svg">
<path fill-rule="evenodd" clip-rule="evenodd" d="M23.6738 6.81641C18.6307 3.38954 13.2787 5.63013 11.4389 6.91324C9.15714 8.5047 7.56541 10.9126 6.97952 13.6418C6.06295 14.4041 5.55526 15.5724 5.63517 16.7868C5.71507 18.0012 6.37124 19.0911 7.37945 19.724C8.9312 24.0766 13.0229 27 17.627 27C22.231 27 26.3227 24.0766 27.8745 19.724C28.8827 19.0911 29.5389 18.0012 29.6188 16.7868C29.6987 15.5724 29.191 14.4041 28.2744 13.6418C27.676 10.8545 26.0292 8.40473 23.6738 6.81641Z" fill="#00C7B1"/>
<path d="M19.9545 5.25C22.3284 6.83292 23.9559 9.31375 24.4625 12.1217C25.3515 12.6965 25.8593 13.7081 25.789 14.7645C25.7187 15.8209 25.0815 16.7563 24.1241 17.2083C22.7287 21.5511 18.689 24.4961 14.1275 24.4961C9.56609 24.4961 5.52642 21.5511 4.13096 17.2083C3.17358 16.7563 2.53636 15.8209 2.4661 14.7645C2.39583 13.7081 2.90355 12.6965 3.79262 12.1217C4.28897 9.37053 5.86192 6.9309 8.16296 5.34333" stroke="black" stroke-width="2" stroke-linecap="round" stroke-linejoin="round"/>
<path d="M11.2045 18.6667C11.9725 19.4506 13.0237 19.8923 14.1211 19.8923C15.2185 19.8923 16.2698 19.4506 17.0378 18.6667" stroke="black" stroke-width="2" stroke-linecap="round" stroke-linejoin="round"/>
<path d="M10.0378 2.33325C11.7878 3.49992 12.9545 6.41659 12.9545 8.16659" stroke="black" stroke-width="2" stroke-linecap="round" stroke-linejoin="round"/>
<path d="M14.7045 2.33325C16.4545 4.66659 17.0378 6.41659 17.0378 8.16659" stroke="black" stroke-width="2" stroke-linecap="round" stroke-linejoin="round"/>
<path d="M10.6211 14.0001H10.6328" stroke="black" stroke-width="2" stroke-linecap="round" stroke-linejoin="round"/>
<path d="M17.6211 14.0001H17.6328" stroke="black" stroke-width="2" stroke-linecap="round" stroke-linejoin="round"/>
</svg>
