<svg width="31" height="30" viewBox="0 0 31 30" fill="none" xmlns="http://www.w3.org/2000/svg">
<path d="M4.53358 7.69751C4.53358 6.59294 5.42902 5.69751 6.53358 5.69751H19.0717C20.1763 5.69751 21.0717 6.59293 21.0717 7.6975C21.0717 8.2495 21.0717 8.8299 21.0717 9.31641C21.0717 9.31641 21.0717 9.31641 21.0717 9.31641C21.0717 9.31641 21.0717 17.189 21.0717 19.0337C21.0717 20.1476 21.0717 21.2497 21.0717 22.303C21.0717 23.4075 20.1763 24.3029 19.0717 24.3029H6.53359C5.42902 24.3029 4.53358 23.4075 4.53358 22.3029V7.69751Z" stroke="#949494" stroke-width="2" stroke-linecap="round" stroke-linejoin="round"/>
<path d="M8.6682 9.83176H14.87" stroke="#949494" stroke-width="2" stroke-linecap="round" stroke-linejoin="round"/>
<path d="M8.6682 13.9665H14.87" stroke="#949494" stroke-width="2" stroke-linecap="round" stroke-linejoin="round"/>
<path d="M8.6682 18.1008H12.8027" stroke="#949494" stroke-width="2" stroke-linecap="round" stroke-linejoin="round"/>
<path fill-rule="evenodd" clip-rule="evenodd" d="M13.8363 21.2018H17.1619L26.5847 11.0542C27.5031 10.0652 27.5031 8.46172 26.5847 7.47271C25.6663 6.48371 24.1774 6.48371 23.259 7.47271L13.8363 17.6203V21.2018" fill="white"/>
<path d="M13.8363 21.2018H17.1619L26.5847 11.0542C27.5031 10.0652 27.5031 8.46172 26.5847 7.47271C25.6663 6.48371 24.1774 6.48371 23.259 7.47271L13.8363 17.6203V21.2018" stroke="#949494" stroke-width="2" stroke-linecap="round" stroke-linejoin="round"/>
<path d="M22.5136 8.24219L25.8393 11.7462" stroke="#949494" stroke-width="2" stroke-linecap="round" stroke-linejoin="round"/>
<path d="M15.2036 16.655L18.1742 19.8343" stroke="#949494" stroke-width="2" stroke-linecap="round" stroke-linejoin="round"/>
</svg>
