<svg width="32" height="32" viewBox="0 0 32 32" fill="none" xmlns="http://www.w3.org/2000/svg">
<g clip-path="url(#clip0_1356_10237)">
<path d="M16.4615 31.1579C24.6228 31.1579 31.2388 24.56 31.2388 16.421C31.2388 8.28211 24.6228 1.6842 16.4615 1.6842C8.30031 1.6842 1.68433 8.28211 1.68433 16.421C1.68433 24.56 8.30031 31.1579 16.4615 31.1579Z" fill="#FF6B6B" fill-opacity="0.15"/>
<mask id="mask0_1356_10237" style="mask-type:alpha" maskUnits="userSpaceOnUse" x="5" y="8" width="24" height="33">
<ellipse cx="16.1902" cy="13.7999" rx="4.79571" ry="4.8" fill="#5AC4B1"/>
<ellipse cx="16.5899" cy="30.5998" rx="11.5896" ry="10.4" fill="#5AC4B1"/>
</mask>
<g mask="url(#mask0_1356_10237)">
<path d="M16.0565 30.5804C23.9939 30.5804 30.4285 24.1401 30.4285 16.1956C30.4285 8.25109 23.9939 1.81079 16.0565 1.81079C8.11912 1.81079 1.68457 8.25109 1.68457 16.1956C1.68457 24.1401 8.11912 30.5804 16.0565 30.5804Z" fill="#FF9999"/>
</g>
<path d="M16.0563 31.0804C24.2703 31.0804 30.9282 24.4158 30.9282 16.1956C30.9282 7.97536 24.2703 1.31079 16.0563 1.31079C7.84231 1.31079 1.18433 7.97536 1.18433 16.1956C1.18433 24.4158 7.84231 31.0804 16.0563 31.0804Z" stroke="#FFC4C4"/>
</g>
<defs>
<clipPath id="clip0_1356_10237">
<rect width="32" height="32" fill="white"/>
</clipPath>
</defs>
</svg>
