<svg width="95" height="95" viewBox="0 0 95 95" fill="none" xmlns="http://www.w3.org/2000/svg">
<circle cx="47.5" cy="47.5" r="47.5" fill="#5AC4B1" fill-opacity="0.12"/>
<circle cx="47.5" cy="47.5" r="47" stroke="#5AC4B1" stroke-opacity="0.5"/>
<g clip-path="url(#clip0_521_4601)">
<path d="M30.8904 28.9358C30.9181 28.9533 30.9156 28.9508 30.8904 28.9358V28.9358Z" fill="#00C7B1"/>
<path d="M30.8123 28.8848C30.8475 28.9076 30.8752 28.9254 30.8928 28.9381C30.8777 28.928 30.85 28.9102 30.8123 28.8848Z" fill="#00C7B1"/>
<path d="M33.2266 26.311C33.3953 25.9198 33.4834 25.4472 33.4482 24.8729C33.4482 24.8729 35.5579 19.24 32.5217 18.1449C30.548 17.4309 29.3345 19.4966 29.1029 21.1634C27.8265 19.7634 26.1423 18.6683 24.6041 20.0505C23.7028 20.8585 23.869 22.0831 24.6897 23.4196C23.5593 22.9801 22.4239 23.041 21.6435 24.3165C20.3369 26.4559 23.7003 28.3386 26.8673 29.1644C28.257 29.5277 33.1007 27.1317 33.2241 26.3187C33.2241 26.3161 33.2241 26.3136 33.2241 26.311H33.2266Z" fill="#00C7B1"/>
<path d="M47 20.4824C31.5373 20.4824 19 33.1331 19 48.7412C19 64.3494 31.5373 77.0001 47 77.0001C62.4627 77.0001 75 64.3469 75 48.7412C75 33.1356 62.4652 20.4824 47 20.4824Z" fill="#00C7B1"/>
<path d="M38.4806 57.5373C41.7745 57.5373 44.4447 54.8425 44.4447 51.5182C44.4447 48.1939 41.7745 45.499 38.4806 45.499C35.1868 45.499 32.5166 48.1939 32.5166 51.5182C32.5166 54.8425 35.1868 57.5373 38.4806 57.5373Z" fill="#F5F4F3"/>
<path d="M40.4871 51.4927C40.4871 49.2314 39.251 47.2623 37.4233 46.2333C36.8518 45.9131 36.1494 45.9131 35.5804 46.2333C33.7527 47.2623 32.5166 49.2314 32.5166 51.4927C32.5166 53.7541 33.7527 55.7232 35.5804 56.7522C36.1519 57.0723 36.8543 57.0723 37.4233 56.7522C39.251 55.7232 40.4871 53.7541 40.4871 51.4927Z" fill="#191919"/>
<path d="M55.4186 57.5373C58.7125 57.5373 61.3827 54.8425 61.3827 51.5182C61.3827 48.1939 58.7125 45.499 55.4186 45.499C52.1248 45.499 49.4546 48.1939 49.4546 51.5182C49.4546 54.8425 52.1248 57.5373 55.4186 57.5373Z" fill="#F5F4F3"/>
<path d="M57.4251 51.4927C57.4251 49.2314 56.189 47.2623 54.3613 46.2333C53.7898 45.9131 53.0874 45.9131 52.5184 46.2333C50.6907 47.2623 49.4546 49.2314 49.4546 51.4927C49.4546 53.7541 50.6907 55.7232 52.5184 56.7522C53.0899 57.0723 53.7923 57.0723 54.3613 56.7522C56.189 55.7232 57.4251 53.7541 57.4251 51.4927Z" fill="#191919"/>
<path d="M63.8374 54.5824C60.1391 48.7716 55.9701 48.8097 55.9701 48.8097C55.9726 48.8097 55.9776 48.8097 55.9801 48.8097C55.7863 48.7919 55.5924 48.7817 55.3961 48.7817C52.2844 48.7817 49.6712 50.9617 48.9713 53.8888C48.4829 53.3806 47.7654 53.0554 46.9648 53.0554C46.1643 53.0554 45.4443 53.3806 44.9584 53.8888C44.2585 50.9617 41.6453 48.7817 38.5336 48.7817C38.3373 48.7817 38.1409 48.7919 37.947 48.8097C37.9496 48.8097 37.9546 48.8097 37.9571 48.8097C37.9571 48.8097 33.7856 48.7716 30.0898 54.5824C29.9161 54.8543 29.8255 55.1719 29.8381 55.4971L29.8784 56.6531C29.896 57.202 30.1981 57.7025 30.6739 57.9693L33.2015 59.3921C34.4049 61.0487 36.3459 62.126 38.5336 62.126C42.179 62.126 45.1447 59.133 45.1447 55.4539C45.1447 55.3141 45.1396 55.1769 45.1296 55.0372C45.3461 54.3359 46.0862 53.8176 46.9648 53.8176C47.8435 53.8176 48.5836 54.3359 48.8001 55.0372C48.7926 55.1744 48.785 55.3141 48.785 55.4539C48.785 59.133 51.7507 62.126 55.3961 62.126C57.5838 62.126 59.5248 61.0487 60.7282 59.3921L63.2558 57.9693C63.7316 57.7025 64.0337 57.202 64.0513 56.6531L64.0916 55.4971C64.1017 55.1744 64.0136 54.8568 63.8399 54.5824H63.8374ZM38.5311 61.2037C35.3892 61.2037 32.8339 58.6248 32.8339 55.4539C32.8339 52.283 35.3892 49.704 38.5311 49.704C41.673 49.704 44.2283 52.283 44.2283 55.4539C44.2283 58.6248 41.673 61.2037 38.5311 61.2037ZM55.3935 61.2037C52.2517 61.2037 49.6964 58.6248 49.6964 55.4539C49.6964 52.283 52.2517 49.704 55.3935 49.704C58.5354 49.704 61.0907 52.283 61.0907 55.4539C61.0907 58.6248 58.5354 61.2037 55.3935 61.2037Z" fill="#151F6D"/>
<path d="M51.2092 44.394C51.0204 44.394 50.8567 44.2517 50.8341 44.0586C50.8089 43.8502 50.9574 43.6597 51.1639 43.6343L60.6802 42.4833C60.8866 42.4579 61.0754 42.6078 61.1006 42.8161C61.1258 43.0245 60.9772 43.215 60.7708 43.2404L51.2545 44.3914C51.2394 44.3914 51.2243 44.394 51.2092 44.394Z" fill="#191919"/>
<path d="M50.4516 63.0687C50.7185 62.4615 50.7336 61.6891 50.434 61.0488C49.996 60.1087 49.0569 59.8089 48.3319 60.378C48.3243 60.3831 48.3168 60.3882 48.3092 60.3958C48.1984 60.472 47.7755 60.7414 47.2368 60.7566C46.698 60.7414 46.2751 60.4746 46.1643 60.3958C46.1567 60.3907 46.1492 60.3856 46.1416 60.378C45.4191 59.8089 44.4775 60.1087 44.0395 61.0488C43.7122 61.7526 43.76 62.6139 44.1075 63.2441C44.689 62.8375 45.759 62.4132 47.705 62.4132C49.1753 62.4132 49.9935 62.7206 50.4466 63.0713L50.4516 63.0687Z" fill="#191919"/>
<path d="M44.5455 63.7674C44.5958 63.8106 44.6512 63.8513 44.7091 63.8919C44.7293 63.9072 44.7494 63.9199 44.767 63.9326C44.7746 63.9377 44.7821 63.9427 44.7897 63.9478C45.6054 64.5195 46.4311 64.7329 47.1864 64.7329C47.204 64.7329 47.2216 64.7329 47.2392 64.7329C47.2569 64.7329 47.2745 64.7329 47.2921 64.7329C48.0499 64.7329 48.8731 64.5195 49.6888 63.9478C49.6964 63.9427 49.7039 63.9377 49.7115 63.9326C49.7316 63.9199 49.7517 63.9046 49.7694 63.8919C49.8273 63.8513 49.8827 63.8106 49.933 63.77C50.1571 63.5896 50.3308 63.3457 50.4541 63.0687C50.001 62.7181 49.1828 62.4106 47.7125 62.4106C45.7665 62.4106 44.694 62.835 44.115 63.2415C44.2283 63.4473 44.3743 63.6277 44.548 63.7674H44.5455Z" fill="#F49292"/>
<path d="M44.3213 47.8797C44.1501 47.8797 44.0091 47.74 44.0091 47.5647C44.0091 44.5157 41.552 42.0359 38.531 42.0359C35.5099 42.0359 33.0528 44.5157 33.0528 47.5647C33.0528 47.7374 32.9144 47.8797 32.7406 47.8797C32.5669 47.8797 32.4285 47.74 32.4285 47.5647C32.4285 44.1676 35.165 41.4058 38.531 41.4058C41.8969 41.4058 44.6335 44.1676 44.6335 47.5647C44.6335 47.7374 44.495 47.8797 44.3213 47.8797Z" fill="#191919"/>
</g>
<defs>
<clipPath id="clip0_521_4601">
<rect width="56" height="59" fill="white" transform="translate(19 18)"/>
</clipPath>
</defs>
</svg>
