<svg width="335" height="80" viewBox="0 0 335 80" fill="none" xmlns="http://www.w3.org/2000/svg">
<rect width="335" height="80" rx="8" fill="#F6F6F6"/>
<path d="M20.4453 32.457C21.2246 32.457 21.8535 31.8281 21.8535 31.0488C21.8535 30.2832 21.2246 29.6543 20.4453 29.6543C19.6797 29.6543 19.0508 30.2832 19.0508 31.0488C19.0508 31.8281 19.6797 32.457 20.4453 32.457ZM41.5273 23.9531H40.4609V30.4746H41.5273V23.9531ZM31.7793 27.3438C31.7725 28.998 33.1191 30.1396 34.9648 30.1328C36.8105 30.1396 38.1436 28.998 38.1504 27.3438C38.1436 25.6826 36.8105 24.541 34.9648 24.5547C33.1191 24.541 31.7725 25.6826 31.7793 27.3438ZM32.832 27.3438C32.8184 26.2295 33.7139 25.4502 34.9648 25.457C36.2021 25.4502 37.0977 26.2295 37.0977 27.3438C37.0977 28.4512 36.2021 29.2373 34.9648 29.2441C33.7139 29.2373 32.8184 28.4512 32.832 27.3438ZM33.6523 35.9434H41.5273V31.0898H40.4609V32.5664H34.7188V31.0898H33.6523V35.9434ZM34.7188 35.0684V33.4277H40.4609V35.0684H34.7188ZM48.9613 24.7051H43.684V25.5664H47.8949V27.2891H43.7113V30.8711H44.5727C47.0336 30.8711 48.2709 30.8301 49.7816 30.584L49.6723 29.6953C48.2436 29.9551 47.0609 30.0029 44.7777 29.9961V28.1094H48.9613V24.7051ZM45.0785 32.9629H52.1879V36.1348H53.268V32.0879H45.0785V32.9629ZM49.768 29.1758H52.1879V31.4316H53.268V23.9668H52.1879V25.7715H49.768V26.6465H52.1879V28.2871H49.768V29.1758ZM64.2977 23.9531H63.2313V36.1074H64.2977V29.8594H66.3348V28.9707H64.2977V23.9531ZM54.823 26.7969H62.0555V25.9082H59.0203V24.1035H57.9539V25.9082H54.823V26.7969ZM55.5203 30.5977C55.5135 32.2451 56.7713 33.3867 58.5008 33.3867C60.2166 33.3867 61.4676 32.2451 61.4813 30.5977C61.4676 28.957 60.2166 27.8086 58.5008 27.8086C56.7713 27.8086 55.5135 28.957 55.5203 30.5977ZM56.5457 30.5977C56.5389 29.4971 57.366 28.7041 58.5008 28.7109C59.6219 28.7041 60.4422 29.4971 60.4559 30.5977C60.4422 31.7051 59.6219 32.4844 58.5008 32.4707C57.366 32.4844 56.5389 31.7051 56.5457 30.5977ZM76.6262 23.9668H75.5598V32.8809H76.6262V23.9668ZM66.7141 30.2832L67.302 31.1172C68.7238 30.5498 69.8312 29.3535 70.3576 27.8633C70.8977 29.2646 71.9914 30.3584 73.3996 30.8984L73.9602 30.0371C72.1486 29.3809 70.884 27.7197 70.8977 25.8672V24.6504H69.8039V25.8672C69.8039 27.7881 68.5529 29.5654 66.7141 30.2832ZM68.7785 35.8477H77.009V34.9453H69.8449V32.0605H68.7785V35.8477ZM91.4805 23.9668H90.4004V25.8672H87.2422C86.6748 25.1631 85.7861 24.7393 84.7539 24.7324C82.9355 24.7393 81.5889 25.9971 81.5957 27.7812C81.5889 29.5586 82.9355 30.8164 84.7539 30.8164C85.793 30.8164 86.6953 30.3857 87.2559 29.668H90.4004V32.9492H91.4805V23.9668ZM82.6211 27.7812C82.6211 26.5713 83.5098 25.6963 84.7539 25.6895C85.9502 25.6963 86.8594 26.5713 86.8594 27.7812C86.8594 28.998 85.9502 29.8662 84.7539 29.8594C83.5098 29.8662 82.6211 28.998 82.6211 27.7812ZM83.6738 35.8477H91.8223V34.9453H84.7539V32.0059H83.6738V35.8477ZM87.7275 26.7559H90.4004V28.7793H87.7344C87.8369 28.4717 87.8984 28.1367 87.8984 27.7812C87.8984 27.4121 87.8369 27.0703 87.7275 26.7559ZM99.1332 24.6914H93.6234V25.5664H98.0805V27.1934H93.6508V30.6934H94.5941C96.8568 30.7002 98.4838 30.6182 100.432 30.2969L100.323 29.4082C98.4291 29.7227 96.8637 29.7979 94.7035 29.8047V28.041H99.1332V24.6914ZM94.6488 32.8672H101.539V36.1074H102.606V31.9922H94.6488V32.8672ZM101.539 31.3496H102.606V27.9863H104.452V27.084H102.606V23.9668H101.539V31.3496ZM114.88 23.9531H113.8V28.8477H111.134V29.7363H113.8V36.1348H114.88V23.9531ZM104.831 32.9219L105.446 33.7559C106.834 33.0859 107.962 31.6709 108.488 29.9756C109.028 31.5752 110.17 32.9082 111.557 33.5371L112.173 32.7031C110.375 31.8965 109.001 29.9209 109.001 27.918V26.9473H111.762V26.0723H109.014V24.1855H107.948V26.0723H105.159V26.9473H107.948V27.918C107.948 30.0098 106.615 32.0879 104.831 32.9219ZM127.632 33.7012H122.56V31.4043H126.511V30.5156H118.964V28.5332H126.224V24.8555H117.87V25.7441H125.171V27.6582H117.898V31.4043H121.507V33.7012H116.503V34.6035H127.632V33.7012ZM135.172 35.1367C137.147 35.1367 138.624 33.9336 138.617 32.3066C138.624 31.0488 137.845 30.126 136.553 29.9277V29.8594C137.592 29.5654 138.248 28.7451 138.234 27.6172C138.248 26.2021 137.1 24.9648 135.213 24.9648C133.456 24.9648 131.993 26.0176 131.932 27.5898H133.121C133.176 26.6191 134.14 26.0381 135.199 26.0312C136.327 26.0381 137.052 26.6943 137.045 27.6855C137.052 28.7041 136.211 29.3809 135.008 29.3809H134.201V30.4609H135.008C136.546 30.4678 137.407 31.2266 137.414 32.3066C137.407 33.3389 136.464 34.043 135.158 34.043C133.976 34.043 133.039 33.4551 132.971 32.5117H131.727C131.788 34.084 133.203 35.1367 135.172 35.1367ZM143.002 24.4043C141.163 24.4111 139.837 25.5186 139.844 27.0977C139.837 28.6836 141.163 29.7773 143.002 29.7773C144.821 29.7773 146.14 28.6836 146.147 27.0977C146.14 25.5186 144.821 24.4111 143.002 24.4043ZM140.897 27.0977C140.883 26.0449 141.779 25.2998 143.002 25.3066C144.205 25.2998 145.108 26.0449 145.108 27.0977C145.108 28.1641 144.205 28.9023 143.002 28.9023C141.779 28.9023 140.883 28.1641 140.897 27.0977ZM141.69 31.6504H148.526V32.9082H141.717V35.9434H150.03V35.082H142.77V33.7148H149.592V30.7891H141.69V31.6504ZM148.526 30.2012H149.592V23.9531H148.526V30.2012ZM164.747 23.9531H163.695V28.9023H161.945V24.2266H160.933V35.4785H161.945V29.8184H163.695V36.1074H164.747V23.9531ZM154.986 32.9629H155.738C157.077 32.9629 158.472 32.874 160.167 32.5664L160.03 31.6094C158.554 31.9102 157.255 31.999 156.052 32.0059V25.4434H154.986V32.9629ZM177.199 33.7012H172.127V31.4043H176.078V30.5156H168.531V28.5332H175.791V24.8555H167.437V25.7441H174.738V27.6582H167.464V31.4043H171.074V33.7012H166.07V34.6035H177.199V33.7012ZM190.385 23.9531H189.319V32.9219H190.385V28.5605H192.217V27.6582H190.385V23.9531ZM181.116 27.8086C181.109 29.5654 182.49 30.8027 184.301 30.8027C186.126 30.8027 187.487 29.5654 187.5 27.8086C187.487 26.0449 186.126 24.8213 184.301 24.8145C182.49 24.8213 181.109 26.0449 181.116 27.8086ZM182.168 27.8086C182.162 26.6055 183.098 25.7578 184.301 25.7578C185.525 25.7578 186.441 26.6055 186.448 27.8086C186.441 29.0049 185.525 29.8594 184.301 29.8594C183.098 29.8594 182.162 29.0049 182.168 27.8086ZM182.784 35.8477H190.946V34.9453H183.836V31.9922H182.784V35.8477ZM202.96 23.9531H201.907V28.9023H200.157V24.2266H199.145V35.4785H200.157V29.8184H201.907V36.1074H202.96V23.9531ZM193.198 32.9629H193.95C195.29 32.9629 196.684 32.874 198.38 32.5664L198.243 31.6094C196.766 31.9102 195.468 31.999 194.264 32.0059V25.4434H193.198V32.9629ZM218.511 30.1738H207.382V31.0625H212.496V33.5508H213.562V31.0625H218.511V30.1738ZM208.804 35.8477H217.267V34.9453H209.884V32.3477H208.804V35.8477ZM208.832 28.7793H217.062V24.5547H208.832V28.7793ZM209.884 27.918V25.4023H215.996V27.918H209.884ZM223.211 27.6855V26.0996H225.945V25.2109H219.328V26.0996H222.158V27.6855C222.145 29.7568 220.641 32.0674 218.891 32.9219L219.547 33.7695C220.907 33.0723 222.124 31.5 222.685 29.7158C223.231 31.3633 224.387 32.7988 225.754 33.4688L226.369 32.6211C224.605 31.7803 223.197 29.6338 223.211 27.6855ZM227.436 36.1074H228.502V29.791H230.539V28.875H228.502V23.9531H227.436V36.1074ZM240.202 23.9531H239.135V36.1074H240.202V29.8047H242.17V28.9023H240.202V23.9531ZM230.877 32.9492L231.479 33.7969C235.437 31.8418 237.05 28.7041 237.057 25.2656H231.438V26.168H235.97C235.724 29.0459 234.015 31.3906 230.877 32.9492ZM247.181 24.4727H246.128V29.7637H251.788V24.4727H250.722V26.2227H247.181V24.4727ZM247.181 28.8887V27.0566H250.722V28.8887H247.181ZM247.359 31.6777H254.044V32.9355H247.386V35.9707H255.562V35.0957H248.439V33.7559H255.111V30.8164H247.359V31.6777ZM254.044 30.2422H255.111V27.4941H256.943V26.5918H255.111V23.9531H254.044V30.2422ZM263.365 28.2051H262.312V29.9961H257.308V30.8711H268.382V29.9961H263.365V28.2051ZM257.978 27.9863L258.388 28.8477C260.254 28.5264 262.08 27.5625 262.845 26.1475C263.604 27.5488 265.436 28.5264 267.275 28.8477L267.712 27.9863C265.566 27.6924 263.379 26.3389 263.379 24.7188V24.1445H262.298V24.7188C262.298 26.3389 260.125 27.6924 257.978 27.9863ZM258.648 33.9883C258.641 35.3418 260.207 36.0801 262.845 36.0801C265.457 36.0801 267.015 35.3418 267.029 33.9883C267.015 32.6416 265.457 31.8896 262.845 31.8828C260.207 31.8896 258.641 32.6416 258.648 33.9883ZM259.742 33.9883C259.728 33.1816 260.877 32.7305 262.845 32.7305C264.794 32.7305 265.942 33.1816 265.949 33.9883C265.942 34.7881 264.794 35.2529 262.845 35.2461C260.877 35.2529 259.728 34.7881 259.742 33.9883ZM279.043 23.9668H277.963V30.9531H279.043V23.9668ZM269.049 29.7637L269.213 30.6523C271.407 30.6523 274.354 30.6113 277.02 30.1602L276.951 29.3809C275.885 29.5312 274.743 29.6201 273.615 29.6748V28.4102H276.035V27.5488H271.236V25.457H275.926V24.5684H270.156V28.4102H272.535V29.7227C271.284 29.7637 270.081 29.7637 269.049 29.7637ZM271.031 35.9434H279.043V31.5H277.99V32.7988H272.098V31.5H271.031V35.9434ZM272.098 35.0684V33.6328H277.99V35.0684H272.098ZM290.729 23.9531H289.663V36.1074H290.729V23.9531ZM281.5 32.9766H282.485C284.433 32.9766 286.354 32.8262 288.514 32.375L288.364 31.459C286.327 31.8896 284.413 32.0332 282.553 32.0469V25.1562H281.5V32.9766ZM301.813 23.9531H300.747V36.1348H301.813V29.668H303.85V28.7656H301.813V23.9531ZM292.94 33.0859H293.897C296.208 33.0859 297.801 33.0176 299.708 32.6758L299.571 31.7461C297.76 32.0811 296.208 32.1768 294.007 32.1836V26.0312H298.614V25.1426H292.94V33.0859ZM305.392 35.082C305.877 35.0752 306.274 34.6787 306.267 34.1934C306.274 33.7148 305.877 33.3184 305.392 33.3184C304.913 33.3184 304.503 33.7148 304.517 34.1934C304.503 34.6787 304.913 35.0752 305.392 35.082ZM41.5684 43.9668H40.4883V45.8672H37.3301C36.7627 45.1631 35.874 44.7393 34.8418 44.7324C33.0234 44.7393 31.6768 45.9971 31.6836 47.7812C31.6768 49.5586 33.0234 50.8164 34.8418 50.8164C35.8809 50.8164 36.7832 50.3857 37.3438 49.668H40.4883V52.9492H41.5684V43.9668ZM32.709 47.7812C32.709 46.5713 33.5977 45.6963 34.8418 45.6895C36.0381 45.6963 36.9473 46.5713 36.9473 47.7812C36.9473 48.998 36.0381 49.8662 34.8418 49.8594C33.5977 49.8662 32.709 48.998 32.709 47.7812ZM33.7617 55.8477H41.9102V54.9453H34.8418V52.0059H33.7617V55.8477ZM37.8154 46.7559H40.4883V48.7793H37.8223C37.9248 48.4717 37.9863 48.1367 37.9863 47.7812C37.9863 47.4121 37.9248 47.0703 37.8154 46.7559ZM49.2211 44.6914H43.7113V45.5664H48.1684V47.1934H43.7387V50.6934H44.682C46.9447 50.7002 48.5717 50.6182 50.5199 50.2969L50.4105 49.4082C48.517 49.7227 46.9516 49.7979 44.7914 49.8047V48.041H49.2211V44.6914ZM44.7367 52.8672H51.6273V56.1074H52.6937V51.9922H44.7367V52.8672ZM51.6273 51.3496H52.6937V47.9863H54.5395V47.084H52.6937V43.9668H51.6273V51.3496ZM64.9129 43.9531H63.8328V56.1348H64.9129V43.9531ZM55.3426 49.1348C55.3494 51.7256 56.6346 53.3662 58.4461 53.3594C60.2508 53.3662 61.5564 51.7256 61.5496 49.1348C61.5564 46.5508 60.2508 44.9033 58.4461 44.8965C56.6346 44.9033 55.3494 46.5508 55.3426 49.1348ZM56.3816 49.1348C56.3816 47.1592 57.2293 45.8604 58.4461 45.8535C59.6697 45.8604 60.5105 47.1592 60.5105 49.1348C60.5105 51.1104 59.6697 52.4092 58.4461 52.4023C57.2293 52.4092 56.3816 51.1104 56.3816 49.1348ZM72.1246 51.0898H71.1129V55.9434H75.3375V51.0898H74.3395V52.6074H72.1246V51.0898ZM69.8961 47.2891C69.8893 48.957 71.2018 50.0918 73.0543 50.0918C74.7018 50.0918 75.9527 49.1484 76.1646 47.7129H78.7008V50.3926H79.7809V43.9531H78.7008V46.8242H76.1578C75.9254 45.4229 74.6881 44.5 73.0543 44.5C71.2018 44.5 69.8893 45.6279 69.8961 47.2891ZM70.9215 47.2891C70.9215 46.1816 71.8033 45.4023 73.0543 45.4023C74.2779 45.4023 75.1598 46.1816 75.1598 47.2891C75.1598 48.4033 74.2779 49.1963 73.0543 49.2031C71.8033 49.1963 70.9215 48.4033 70.9215 47.2891ZM72.1246 55.0957V53.4277H74.3395V55.0957H72.1246ZM75.5016 55.2188L76.0621 56.0391C77.1354 55.5811 77.8805 54.7197 78.2633 53.7285C78.6393 54.7334 79.3707 55.5947 80.4918 56.0391L81.0523 55.2188C79.5689 54.6719 78.7965 53.3252 78.8102 52.0469V51.0078H77.7438V52.0469C77.7369 53.2773 76.9645 54.6104 75.5016 55.2188ZM91.2344 47.6445H83.9746V44.4043H82.9082V48.5059H91.2344V47.6445ZM81.3906 51.0352H92.5195V50.1602H81.3906V51.0352ZM82.8398 55.8066H91.3027V54.918H83.9062V52.2793H82.8398V55.8066ZM106.294 43.9668H105.214V46.2363H102.377C102.479 45.8057 102.534 45.3477 102.534 44.8691H96.9969V45.7715H101.365C101.153 47.877 99.3143 49.5244 96.3816 50.3926L96.8328 51.2402C99.4373 50.4678 101.31 49.0527 102.11 47.0977H105.214V48.7383H101.987V49.627H105.214V51.2676H106.294V43.9668ZM98.2547 53.7148C98.2478 55.1709 99.827 56.0527 102.315 56.0527C104.776 56.0527 106.362 55.1709 106.362 53.7148C106.362 52.2656 104.776 51.3906 102.315 51.3906C99.827 51.3906 98.2478 52.2656 98.2547 53.7148ZM99.3074 53.7148C99.3143 52.7988 100.483 52.2451 102.315 52.252C104.12 52.2451 105.289 52.7988 105.296 53.7148C105.289 54.6309 104.12 55.1846 102.315 55.1777C100.483 55.1846 99.3143 54.6309 99.3074 53.7148ZM119.032 50.9258H107.904V51.8281H112.907V56.1074H113.96V51.8281H119.032V50.9258ZM109.161 47.125C109.168 48.7451 110.884 49.7705 113.441 49.7637C115.99 49.7705 117.72 48.7451 117.72 47.125C117.72 45.4775 115.99 44.4521 113.441 44.4453C110.884 44.4521 109.168 45.4775 109.161 47.125ZM110.269 47.125C110.255 46.0244 111.547 45.3203 113.441 45.3203C115.334 45.3203 116.619 46.0244 116.626 47.125C116.619 48.2051 115.334 48.9023 113.441 48.9023C111.547 48.9023 110.255 48.2051 110.269 47.125ZM130.035 43.9531H128.996V56.1074H130.035V43.9531ZM119.767 49.2031C119.774 51.7871 120.799 53.4346 122.379 53.4277C123.876 53.4346 124.894 51.9512 124.997 49.5859H126.562V55.4922H127.588V44.2129H126.562V48.6973H124.99C124.853 46.4072 123.855 44.9854 122.379 44.9785C120.799 44.9854 119.774 46.6191 119.767 49.2031ZM120.779 49.2031C120.765 47.2275 121.394 45.9902 122.379 45.9902C123.37 45.9902 123.999 47.2275 123.992 49.2031C123.999 51.1719 123.37 52.416 122.379 52.4023C121.394 52.416 120.765 51.1719 120.779 49.2031ZM141.146 47.6445H133.887V44.4043H132.82V48.5059H141.146V47.6445ZM131.303 51.0352H142.432V50.1602H131.303V51.0352ZM132.752 55.8066H141.215V54.918H133.818V52.2793H132.752V55.8066ZM155.878 45.1836H147.305V46.0723H154.798V46.4004C154.791 47.8564 154.791 49.5586 154.333 51.8828L155.427 52.0059C155.864 49.5586 155.864 47.8906 155.878 46.4004V45.1836ZM146.13 54.3848H157.204V53.4961H151.53V49.1484H150.477V53.4961H146.13V54.3848ZM168.152 43.9668H167.126V47.0293H165.472V44.1992H164.446V51.0488H165.472V47.918H167.126V51.1309H168.152V43.9668ZM157.898 50.4609L158.431 51.2676C161.514 49.9551 163.154 47.7607 163.161 44.8555H158.39V45.7441H162.054C161.849 47.7881 160.42 49.4355 157.898 50.4609ZM159.948 52.5664H167.099V56.1074H168.152V51.6914H159.948V52.5664ZM179.851 43.9531H178.826V53.0723H179.851V43.9531ZM169.57 50.4883L170.171 51.3223C171.334 50.7549 172.188 49.6816 172.619 48.4717C173.036 49.5723 173.836 50.5088 174.957 51.0215L175.558 50.1738C174.013 49.5176 173.125 48.0547 173.125 46.6328V44.8145H172.086V46.6328C172.092 48.0684 171.135 49.75 169.57 50.4883ZM171.88 55.8477H180.22V54.9453H172.947V51.9512H171.88V55.8477ZM174.505 47.9316H176.42V52.7305H177.459V44.1992H176.42V47.043H174.505V47.9316ZM191.305 43.9531H190.238V48.5469H187.668V49.4355H190.238V56.1348H191.305V43.9531ZM181.789 53.1953H182.719C185.07 53.1953 186.554 53.1133 188.324 52.8262L188.201 51.9375C186.533 52.2383 185.098 52.2998 182.869 52.3066V49.3672H186.93V48.4922H182.869V45.9629H187.463V45.0742H181.789V53.1953ZM204.057 53.7012H198.985V51.4043H202.936V50.5156H195.389V48.5332H202.649V44.8555H194.295V45.7441H201.596V47.6582H194.323V51.4043H197.932V53.7012H192.928V54.6035H204.057V53.7012ZM218.857 50.1738H207.728V51.0625H212.841V53.5508H213.907V51.0625H218.857V50.1738ZM209.15 55.8477H217.613V54.9453H210.23V52.3477H209.15V55.8477ZM209.177 48.7793H217.407V44.5547H209.177V48.7793ZM210.23 47.918V45.4023H216.341V47.918H210.23ZM223.42 44.8418C221.499 44.8486 220.131 46.0107 220.138 47.6992C220.131 49.3945 221.499 50.5498 223.42 50.5566C225.327 50.5498 226.68 49.3945 226.687 47.6992C226.68 46.0107 225.327 44.8486 223.42 44.8418ZM219.509 52.5391L219.66 53.4551C221.847 53.4551 224.835 53.4414 227.617 52.9219L227.535 52.1289C224.848 52.5254 221.752 52.5459 219.509 52.5391ZM221.191 47.6992C221.184 46.5713 222.121 45.7852 223.42 45.7852C224.705 45.7852 225.641 46.5713 225.634 47.6992C225.641 48.834 224.705 49.6133 223.42 49.6133C222.121 49.6133 221.184 48.834 221.191 47.6992ZM228.341 56.1348H229.408V43.9531H228.341V56.1348ZM237.211 46.0586H234.709V44.3223H233.643V46.0586H231.113V46.9336H237.211V46.0586ZM231.551 50.5156C231.551 52.1494 232.651 53.2979 234.162 53.3047C235.693 53.2979 236.787 52.1494 236.801 50.5156C236.787 48.9023 235.693 47.7607 234.162 47.7539C232.651 47.7607 231.551 48.9023 231.551 50.5156ZM232.508 50.5156C232.508 49.4492 233.198 48.6699 234.162 48.6562C235.133 48.6699 235.844 49.4492 235.844 50.5156C235.844 51.5957 235.133 52.3682 234.162 52.3613C233.198 52.3682 232.508 51.5957 232.508 50.5156ZM237.84 55.5059H238.852V49.9688H240.465V56.1074H241.49V43.9531H240.465V49.0801H238.852V44.2539H237.84V55.5059ZM252.093 45.6758V45.5938H255.975V44.7188H246.993V45.5938H250.889V45.6758C250.883 47.3027 248.722 48.6836 246.61 48.998L247.034 49.8457C248.9 49.5244 250.753 48.5127 251.491 47.0498C252.229 48.5127 254.082 49.5244 255.975 49.8457L256.372 48.998C254.253 48.6836 252.086 47.3027 252.093 45.6758ZM245.954 51.7734H250.944V56.1074H251.997V51.7734H257.028V50.8848H245.954V51.7734ZM261.263 47.4121V45.1016H260.224V47.4531C260.224 49.5381 259.198 51.6914 257.517 52.6758L258.2 53.4824C259.417 52.7441 260.32 51.3496 260.764 49.7295C261.188 51.2129 262.029 52.5117 263.204 53.2227L263.82 52.3887C262.206 51.4316 261.263 49.3467 261.263 47.4121ZM262.48 49.2305H264.544V55.4922H265.556V44.2129H264.544V48.3145H262.48V49.2305ZM267.032 56.1074H268.071V43.9531H267.032V56.1074ZM280.482 53.6465H277.72V50.3379C278.725 49.7979 279.334 48.9365 279.334 47.8496C279.334 45.9697 277.488 44.7324 274.89 44.7188C272.293 44.7324 270.447 45.9697 270.447 47.8496C270.447 48.957 271.076 49.832 272.115 50.3721V53.6465H269.353V54.5488H280.482V53.6465ZM271.486 47.8496C271.479 46.4893 272.894 45.5938 274.89 45.6074C276.866 45.5938 278.295 46.4893 278.295 47.8496C278.295 49.21 276.866 50.1191 274.89 50.1191C272.894 50.1191 271.479 49.21 271.486 47.8496ZM273.168 53.6465V50.7617C273.687 50.8984 274.268 50.9668 274.89 50.9668C275.526 50.9668 276.114 50.8916 276.64 50.7549V53.6465H273.168ZM282.338 55.082C282.823 55.0752 283.22 54.6787 283.213 54.1934C283.22 53.7148 282.823 53.3184 282.338 53.3184C281.859 53.3184 281.449 53.7148 281.463 54.1934C281.449 54.6787 281.859 55.0752 282.338 55.082Z" fill="#0A0A0A" fill-opacity="0.5"/>
</svg>
