<svg width="275" height="158" viewBox="0 0 275 158" fill="none" xmlns="http://www.w3.org/2000/svg">
<path d="M64.5977 70.0977H55.668V71.8906H57.0918V79.1064C56.4502 79.1152 55.835 79.1152 55.2637 79.1152L55.5098 80.9434C58.2607 80.9258 61.917 80.8643 65.1953 80.293L65.0723 78.6758C64.457 78.7549 63.8242 78.8164 63.1738 78.8691V71.8906H64.5977V70.0977ZM59.2539 79.0713V71.8906H61.0117V79.001C60.4229 79.0273 59.834 79.0537 59.2539 79.0713ZM65.8457 84.6172H68.0957V76.5312H70.4512V74.7031H68.0957V68.6211H65.8457V84.6172ZM75.184 69.0957C72.7143 69.0869 70.8773 70.6162 70.8773 72.752C70.8773 74.8701 72.7143 76.3818 75.184 76.3906C77.6186 76.3818 79.4467 74.8701 79.4555 72.752C79.4467 70.6162 77.6186 69.0869 75.184 69.0957ZM73.057 72.752C73.0395 71.6006 73.9535 70.9238 75.184 70.9238C76.3969 70.9238 77.2846 71.6006 77.2934 72.752C77.2846 73.8945 76.3969 74.5713 75.184 74.5801C73.9447 74.5713 73.0395 73.8945 73.057 72.752ZM73.2855 79.0273H81.7934V80.0117H73.3207V84.4414H84.4652V82.6836H75.518V81.6465H84.0258V77.3047H73.2855V79.0273ZM81.7758 76.6367H84.0258V68.6211H81.7758V76.6367ZM93.0828 68.8496C89.3914 68.8496 87.2469 69.8164 87.2469 71.5742C87.2469 73.3584 89.3914 74.3164 93.0828 74.3164C96.7654 74.3164 98.8924 73.3584 98.9012 71.5742C98.8924 69.8164 96.7654 68.8496 93.0828 68.8496ZM85.7879 76.8477H100.378V75.0723H85.7879V76.8477ZM87.4754 79.4141H96.3875V80.293H87.493V84.5117H99.0242V82.8242H89.6902V81.8574H98.6023V77.7793H87.4754V79.4141ZM89.6023 71.5742C89.5936 70.8623 90.7361 70.4844 93.0828 70.4844C95.4471 70.4844 96.5809 70.8623 96.5809 71.5742C96.5809 72.3564 95.4471 72.6641 93.0828 72.6641C90.7361 72.6641 89.5936 72.3564 89.6023 71.5742ZM157.88 71.0645H155.137V69.0605H152.923V71.0645H150.145V72.8398H157.88V71.0645ZM150.514 77.3574C150.514 79.5898 152.009 81.1719 154.048 81.1719C156.096 81.1719 157.554 79.5898 157.563 77.3574C157.554 75.1338 156.096 73.5693 154.048 73.5605C152.009 73.5693 150.514 75.1338 150.514 77.3574ZM152.483 77.3574C152.483 76.1533 153.116 75.4238 154.048 75.4238C154.944 75.4238 155.586 76.1533 155.595 77.3574C155.586 78.5791 154.944 79.2734 154.048 79.2734C153.116 79.2734 152.483 78.5791 152.483 77.3574ZM158.477 83.9316H160.569V76.918H161.87V84.6172H163.997V68.6211H161.87V75.125H160.569V68.9375H158.477V83.9316ZM183.658 77.4453H169.068V79.2383H175.22V84.6172H177.435V79.2383H183.658V77.4453ZM169.789 74.7559L170.615 76.5137C173.401 76.1357 175.396 74.9404 176.372 73.2969C177.338 74.9404 179.351 76.1357 182.164 76.5137L182.972 74.7559C179.685 74.3604 177.919 72.7959 177.69 71.2227H182.357V69.4648H170.386V71.2227H175.053C174.816 72.7959 173.023 74.3604 169.789 74.7559ZM189.357 72.6465V69.9922H187.178V72.752C187.178 75.459 186.299 78.2803 183.926 79.748L185.297 81.4004C186.747 80.5215 187.705 79.001 188.276 77.1904C188.786 78.8252 189.656 80.2139 191.045 81.0488L192.258 79.3086C190.069 77.9111 189.349 75.2393 189.357 72.6465ZM190.57 75.8457H192.645V83.8789H194.736V68.8496H192.645V74.0176H190.57V75.8457ZM195.949 84.6172H198.094V68.6211H195.949V84.6172ZM214.024 80.9082H210.772V76.9443C211.976 76.1973 212.697 75.0811 212.705 73.7012C212.697 71.1084 210.139 69.4033 206.676 69.3945C203.196 69.4033 200.664 71.1084 200.664 73.7012C200.664 75.1074 201.412 76.2412 202.651 76.9883V80.9082H199.381V82.7539H214.024V80.9082ZM202.879 73.7012C202.879 72.0928 204.382 71.1611 206.676 71.1699C208.935 71.1611 210.482 72.0928 210.491 73.7012C210.482 75.2656 208.935 76.2324 206.676 76.2324C204.382 76.2324 202.879 75.2656 202.879 73.7012ZM204.866 80.9082V77.8057C205.428 77.9111 206.035 77.9727 206.676 77.9727C207.318 77.9727 207.933 77.9111 208.504 77.7969V80.9082H204.866ZM216.612 83.1582C217.394 83.1582 218.071 82.499 218.071 81.6816C218.071 80.873 217.394 80.2139 216.612 80.2227C215.786 80.2139 215.118 80.873 215.136 81.6816C215.118 82.499 215.786 83.1582 216.612 83.1582Z" fill="#0A0A0A"/>
<path d="M118.65 68.6211H116.505V74.7734H115.152V68.8496H113.025V79.2646C110.617 78.0166 109.791 75.3623 109.791 72.5762V72.0664H112.234V70.2734H104.904V72.0664H107.611V72.5762C107.602 75.6348 106.794 78.4648 104.359 79.8359L105.748 81.5586C107.277 80.6445 108.217 79.1152 108.745 77.2432C109.316 78.8691 110.274 80.1963 111.759 80.9785L113.025 79.2998V83.8789H115.152V76.6016H116.505V84.6172H118.65V68.6211ZM134.475 75.9336H119.85V77.7617H134.475V75.9336ZM121.52 81.6641C121.52 83.5537 123.629 84.626 127.127 84.6172C130.599 84.626 132.682 83.5537 132.699 81.6641C132.682 79.7832 130.599 78.7197 127.127 78.7285C123.629 78.7197 121.52 79.7832 121.52 81.6641ZM121.625 74.8086H132.805V73.0332H123.857V70.8535H132.717V69.043H121.625V74.8086ZM123.805 81.6641C123.796 80.8555 124.912 80.4336 127.127 80.4336C129.298 80.4336 130.44 80.8555 130.449 81.6641C130.44 82.5078 129.298 82.9121 127.127 82.9121C124.912 82.9121 123.796 82.5078 123.805 81.6641ZM149.631 77.1992H143.426V76.0391H148.155V74.3164H139.049V73.2617H147.856V68.9199H136.782V70.6602H145.606V71.6445H136.817V76.0391H141.194V77.1992H134.989V78.9922H149.631V77.1992ZM136.623 81.6641H145.676V84.5469H147.944V79.9062H136.623V81.6641Z" fill="#FD7473"/>
<path d="M35.7994 107.736H24.7115V108.639H35.7994V107.736ZM26.0514 111.893C26.0445 113.301 27.6236 114.08 30.2486 114.08C32.8531 114.08 34.4186 113.301 34.4322 111.893C34.4186 110.498 32.8531 109.705 30.2486 109.705C27.6236 109.705 26.0445 110.498 26.0514 111.893ZM26.1197 106.574H34.5006V105.699H27.1725V103.348H34.4186V102.445H26.1197V106.574ZM27.1451 111.893C27.1314 111.045 28.3004 110.553 30.2486 110.539C32.1764 110.553 33.3453 111.045 33.3521 111.893C33.3453 112.747 32.1764 113.232 30.2486 113.232C28.3004 113.232 27.1314 112.747 27.1451 111.893ZM47.5264 108.652H42.4814V107.367H46.3506V106.506H38.9131V105.207H46.0908V102.268H37.8057V103.143H45.0107V104.4H37.8467V107.367H41.4287V108.652H36.3975V109.541H47.5264V108.652ZM37.6416 111.346H45.0791V113.998H46.1592V110.471H37.6416V111.346ZM57.517 101.953H56.4506V114.107H57.517V107.859H59.5541V106.971H57.517V101.953ZM48.0424 104.797H55.2748V103.908H52.2397V102.104H51.1732V103.908H48.0424V104.797ZM48.7397 108.598C48.7328 110.245 49.9906 111.387 51.7201 111.387C53.4359 111.387 54.6869 110.245 54.7006 108.598C54.6869 106.957 53.4359 105.809 51.7201 105.809C49.9906 105.809 48.7328 106.957 48.7397 108.598ZM49.765 108.598C49.7582 107.497 50.5854 106.704 51.7201 106.711C52.8412 106.704 53.6615 107.497 53.6752 108.598C53.6615 109.705 52.8412 110.484 51.7201 110.471C50.5854 110.484 49.7582 109.705 49.765 108.598ZM69.8455 101.967H68.7791V110.881H69.8455V101.967ZM59.9334 108.283L60.5213 109.117C61.9432 108.55 63.0506 107.354 63.577 105.863C64.117 107.265 65.2107 108.358 66.6189 108.898L67.1795 108.037C65.368 107.381 64.1033 105.72 64.117 103.867V102.65H63.0232V103.867C63.0232 105.788 61.7723 107.565 59.9334 108.283ZM61.9979 113.848H70.2283V112.945H63.0643V110.061H61.9979V113.848ZM77.9732 102.691C76.1549 102.685 74.8082 103.874 74.815 105.576C74.8082 107.265 76.1549 108.454 77.9732 108.447C78.9986 108.454 79.8736 108.064 80.4342 107.422H83.6197V109.158H84.6998V101.953H83.6197V103.717H80.4342C79.8668 103.074 78.9986 102.685 77.9732 102.691ZM75.8404 105.576C75.8404 104.421 76.7291 103.614 77.9732 103.621C79.1764 103.614 80.0787 104.421 80.0787 105.576C80.0787 106.704 79.1764 107.538 77.9732 107.531C76.7291 107.538 75.8404 106.704 75.8404 105.576ZM76.5924 111.756C76.5855 113.232 78.1441 114.08 80.6666 114.08C83.1822 114.08 84.7408 113.232 84.7408 111.756C84.7408 110.293 83.1822 109.445 80.6666 109.445C78.1441 109.445 76.5855 110.293 76.5924 111.756ZM77.6451 111.756C77.6383 110.833 78.8004 110.286 80.6666 110.279C82.5328 110.286 83.6949 110.833 83.6881 111.756C83.6949 112.672 82.5328 113.226 80.6666 113.219C78.8004 113.226 77.6383 112.672 77.6451 111.756ZM80.9469 104.592H83.6197V106.533H80.9537C81.0563 106.239 81.1178 105.918 81.1178 105.576C81.1178 105.221 81.0563 104.893 80.9469 104.592ZM90.3838 103.922V102.582H89.3311V103.84C89.3242 105.72 88.1006 107.347 86.2822 108.023L86.8564 108.885C88.2783 108.331 89.3652 107.217 89.8848 105.774C90.418 107.046 91.4775 108.051 92.8174 108.543L93.4053 107.695C91.6416 107.094 90.3838 105.576 90.3838 103.922ZM87.8955 111.865C87.9023 113.28 89.4268 114.08 91.9287 114.08C94.4238 114.08 95.9346 113.28 95.9346 111.865C95.9346 110.478 94.4238 109.664 91.9287 109.664C89.4268 109.664 87.9023 110.478 87.8955 111.865ZM88.9756 111.865C88.9619 111.038 90.0967 110.525 91.9287 110.525C93.7676 110.525 94.8887 111.038 94.8955 111.865C94.8887 112.727 93.7676 113.226 91.9287 113.232C90.0967 113.226 88.9619 112.727 88.9756 111.865ZM94.7588 109.35H95.8252V106.027H97.6572V105.125H95.8252V101.953H94.7588V109.35ZM103.56 102.746C101.024 102.753 99.1166 104.079 99.1166 106.082C99.1166 108.105 101.024 109.432 103.56 109.418C106.096 109.432 108.003 108.105 108.003 106.082C108.003 104.079 106.096 102.753 103.56 102.746ZM98.0229 112.494H109.152V111.592H98.0229V112.494ZM100.142 106.082C100.128 104.626 101.598 103.614 103.56 103.621C105.508 103.614 106.964 104.626 106.964 106.082C106.964 107.559 105.508 108.543 103.56 108.543C101.598 108.543 100.128 107.559 100.142 106.082ZM120.851 111.701H115.779V109.404H119.73V108.516H112.183V106.533H119.443V102.855H111.09V103.744H118.39V105.658H111.117V109.404H114.726V111.701H109.722V112.604H120.851V111.701ZM126.108 102.473H125.055V107.764H130.715V102.473H129.649V104.223H126.108V102.473ZM126.108 106.889V105.057H129.649V106.889H126.108ZM126.286 109.678H132.971V110.936H126.313V113.971H134.489V113.096H127.366V111.756H134.038V108.816H126.286V109.678ZM132.971 108.242H134.038V105.494H135.87V104.592H134.038V101.953H132.971V108.242ZM142.196 102.664H136.796V107.613H137.739C140.241 107.627 141.725 107.559 143.468 107.189L143.331 106.328C141.67 106.663 140.234 106.752 137.849 106.738V103.539H142.196V102.664ZM137.985 109.568H144.671V110.84H138.013V113.943H146.188V113.068H139.065V111.688H145.737V108.693H137.985V109.568ZM144.671 108.092H145.737V105.426H147.569V104.537H145.737V101.953H144.671V108.092ZM155.109 103.922V102.582H154.056V103.84C154.05 105.72 152.826 107.347 151.008 108.023L151.582 108.885C153.004 108.331 154.091 107.217 154.61 105.774C155.143 107.046 156.203 108.051 157.543 108.543L158.131 107.695C156.367 107.094 155.109 105.576 155.109 103.922ZM152.621 111.865C152.628 113.28 154.152 114.08 156.654 114.08C159.149 114.08 160.66 113.28 160.66 111.865C160.66 110.478 159.149 109.664 156.654 109.664C154.152 109.664 152.628 110.478 152.621 111.865ZM153.701 111.865C153.687 111.038 154.822 110.525 156.654 110.525C158.493 110.525 159.614 111.038 159.621 111.865C159.614 112.727 158.493 113.226 156.654 113.232C154.822 113.226 153.687 112.727 153.701 111.865ZM159.484 109.35H160.551V106.027H162.383V105.125H160.551V101.953H159.484V109.35ZM168.053 103.361H163.24V111.1H164.02C166.016 111.106 167.185 111.045 168.613 110.771L168.518 109.883C167.192 110.122 166.07 110.177 164.266 110.184V107.436H167.875V106.574H164.266V104.236H168.053V103.361ZM169.42 113.492H170.459V107.736H172.127V114.107H173.166V101.953H172.127V106.848H170.459V102.213H169.42V113.492ZM185.563 107.6H174.434V108.447H185.563V107.6ZM175.774 110.225H183.102V111.264H175.788V113.943H184.565V113.164H176.868V112.002H184.169V109.418H175.774V110.225ZM175.842 103.102H183.047V104.1H175.883V106.684H184.346V105.904H176.95V104.838H184.128V102.322H175.842V103.102ZM198.749 101.967H197.669V110.115H198.749V106.547H200.568V105.645H198.749V101.967ZM189.206 108.871L189.329 109.746C191.469 109.753 194.374 109.732 197.013 109.268L196.917 108.488C195.851 108.646 194.703 108.741 193.568 108.796V107.941C194.976 107.805 195.865 107.155 195.878 106.15C195.865 105.043 194.744 104.359 193.021 104.359C191.312 104.359 190.17 105.043 190.177 106.15C190.17 107.162 191.086 107.812 192.501 107.941V108.837C191.312 108.871 190.177 108.871 189.206 108.871ZM189.507 103.895H196.548V103.074H193.568V101.857H192.501V103.074H189.507V103.895ZM190.697 111.578H197.669V114.107H198.749V110.717H190.697V111.578ZM191.203 106.15C191.196 105.508 191.9 105.111 193.021 105.125C194.142 105.111 194.853 105.508 194.853 106.15C194.853 106.786 194.142 107.217 193.021 107.203C191.9 107.217 191.196 106.786 191.203 106.15ZM210.996 101.967H209.93V110.854H210.996V101.967ZM201.248 105.795C201.241 107.565 202.615 108.796 204.433 108.789C206.252 108.796 207.612 107.565 207.619 105.795C207.612 104.045 206.252 102.821 204.433 102.814C202.615 102.821 201.241 104.045 201.248 105.795ZM202.301 105.795C202.287 104.605 203.203 103.758 204.433 103.758C205.643 103.758 206.566 104.605 206.566 105.795C206.566 107.005 205.643 107.846 204.433 107.846C203.203 107.846 202.287 107.005 202.301 105.795ZM203.148 113.848H211.379V112.945H204.215V109.951H203.148V113.848ZM222.067 101.953H221V114.107H222.067V107.859H224.104V106.971H222.067V101.953ZM212.592 104.797H219.824V103.908H216.789V102.104H215.723V103.908H212.592V104.797ZM213.289 108.598C213.282 110.245 214.54 111.387 216.27 111.387C217.986 111.387 219.237 110.245 219.25 108.598C219.237 106.957 217.986 105.809 216.27 105.809C214.54 105.809 213.282 106.957 213.289 108.598ZM214.315 108.598C214.308 107.497 215.135 106.704 216.27 106.711C217.391 106.704 218.211 107.497 218.225 108.598C218.211 109.705 217.391 110.484 216.27 110.471C215.135 110.484 214.308 109.705 214.315 108.598ZM234.409 101.953H233.329V114.107H234.409V101.953ZM224.51 110.949L225.098 111.824C229.172 109.869 230.799 106.772 230.813 103.279H225.071V104.154H229.719C229.48 107.06 227.798 109.391 224.51 110.949ZM246.478 101.953H245.438V114.107H246.478V101.953ZM236.21 107.203C236.217 109.787 237.242 111.435 238.821 111.428C240.318 111.435 241.337 109.951 241.439 107.586H243.005V113.492H244.03V102.213H243.005V106.697H241.433C241.296 104.407 240.298 102.985 238.821 102.979C237.242 102.985 236.217 104.619 236.21 107.203ZM237.222 107.203C237.208 105.228 237.837 103.99 238.821 103.99C239.812 103.99 240.441 105.228 240.435 107.203C240.441 109.172 239.812 110.416 238.821 110.402C237.837 110.416 237.208 109.172 237.222 107.203ZM38.115 122.896C36.3172 122.903 35.0594 124.551 35.0662 127.135C35.0594 129.726 36.3172 131.366 38.115 131.359C39.8103 131.366 41.0271 129.876 41.1434 127.49H43.8572V134.135H44.9236V121.953H43.8572V126.602H41.1297C40.9656 124.325 39.7693 122.903 38.115 122.896ZM36.0916 127.135C36.0984 125.159 36.9187 123.86 38.115 123.854C39.3045 123.86 40.1385 125.159 40.1385 127.135C40.1385 129.11 39.3045 130.409 38.115 130.402C36.9187 130.409 36.0984 129.11 36.0916 127.135ZM56.6096 121.953H55.5432V124.729H53.1096V125.631H55.5432V128.051H53.0139V128.953H55.5432V134.135H56.6096V121.953ZM46.9709 123.949H51.2639V126.506H47.0119V131.291H47.9143C49.8557 131.291 51.4143 131.223 53.3557 130.922L53.26 130.02C51.4143 130.307 49.9035 130.375 48.0783 130.375V127.381H52.3166V123.061H46.9709V123.949ZM63.7838 122.186C61.1383 122.192 59.4771 123.033 59.4771 124.482C59.4771 125.904 61.1383 126.745 63.7838 126.738C66.4293 126.745 68.0699 125.904 68.0768 124.482C68.0699 123.033 66.4293 122.192 63.7838 122.186ZM58.2467 128.557H63.2506V129.951H59.6002V133.943H67.9674V129.951H64.3033V128.557H69.3209V127.668H58.2467V128.557ZM60.5846 124.482C60.5777 123.573 61.815 123.033 63.7838 123.033C65.732 123.033 66.9762 123.573 66.983 124.482C66.9762 125.371 65.732 125.891 63.7838 125.891C61.815 125.891 60.5777 125.371 60.5846 124.482ZM60.6666 133.068V130.812H66.9146V133.068H60.6666ZM79.9678 121.953H78.8877V134.135H79.9678V121.953ZM70.3975 127.135C70.4043 129.726 71.6895 131.366 73.501 131.359C75.3057 131.366 76.6113 129.726 76.6045 127.135C76.6113 124.551 75.3057 122.903 73.501 122.896C71.6895 122.903 70.4043 124.551 70.3975 127.135ZM71.4365 127.135C71.4365 125.159 72.2842 123.86 73.501 123.854C74.7246 123.86 75.5654 125.159 75.5654 127.135C75.5654 129.11 74.7246 130.409 73.501 130.402C72.2842 130.409 71.4365 129.11 71.4365 127.135ZM88.8748 130.115V129.445H87.8357V130.115C87.8221 131.277 86.8992 132.576 85.3611 133.15L85.908 133.943C87.0701 133.506 87.9041 132.658 88.3416 131.681C88.7039 132.699 89.4559 133.588 90.6385 134.039C91.7596 133.567 92.5047 132.631 92.8807 131.646C93.3045 132.665 94.1521 133.513 95.3689 133.943L95.9021 133.15C94.3436 132.61 93.4207 131.366 93.4275 130.115V129.445H92.3748V130.115C92.3816 131.052 91.7664 132.269 90.6043 132.986C89.449 132.33 88.868 131.188 88.8748 130.115ZM85.0467 125.521C85.0398 127.189 86.3865 128.338 88.2322 128.338C90.0779 128.338 91.4109 127.189 91.4178 125.521C91.4109 123.826 90.0779 122.671 88.2322 122.678C86.3865 122.671 85.0398 123.826 85.0467 125.521ZM86.0994 125.521C86.0857 124.387 86.9812 123.58 88.2322 123.594C89.4695 123.58 90.365 124.387 90.365 125.521C90.365 126.649 89.4695 127.442 88.2322 127.449C86.9812 127.442 86.0857 126.649 86.0994 125.521ZM93.7283 128.912H94.7947V121.967H93.7283V128.912ZM98.9338 129.254H97.8674V133.943H106.084V129.254H105.004V130.676H98.9338V129.254ZM96.4592 128.393H107.533V127.504H96.4592V128.393ZM97.0881 125.781L97.4982 126.643C99.3713 126.362 101.231 125.412 102.003 124.045C102.776 125.405 104.628 126.362 106.508 126.643L106.904 125.781C104.765 125.508 102.55 124.161 102.557 122.664V122.09H101.449V122.664C101.449 124.209 99.2551 125.487 97.0881 125.781ZM98.9338 133.082V131.523H105.004V133.082H98.9338ZM118.18 121.953H117.114V134.107H118.18V121.953ZM108.952 130.977H109.936C111.884 130.977 113.805 130.826 115.965 130.375L115.815 129.459C113.778 129.89 111.864 130.033 110.004 130.047V123.156H108.952V130.977ZM129.265 121.953H128.198V134.135H129.265V127.668H131.302V126.766H129.265V121.953ZM120.392 131.086H121.349C123.659 131.086 125.252 131.018 127.159 130.676L127.022 129.746C125.211 130.081 123.659 130.177 121.458 130.184V124.031H126.065V123.143H120.392V131.086ZM132.843 133.082C133.329 133.075 133.725 132.679 133.718 132.193C133.725 131.715 133.329 131.318 132.843 131.318C132.365 131.318 131.954 131.715 131.968 132.193C131.954 132.679 132.365 133.075 132.843 133.082ZM141.053 122.896C139.248 122.903 137.984 124.551 137.99 127.135C137.984 129.726 139.248 131.366 141.053 131.359C142.844 131.366 144.115 129.726 144.129 127.135C144.115 124.551 142.844 122.903 141.053 122.896ZM139.002 127.135C139.009 125.159 139.85 123.86 141.053 123.854C142.27 123.86 143.09 125.159 143.09 127.135C143.09 129.11 142.27 130.409 141.053 130.402C139.85 130.409 139.009 129.11 139.002 127.135ZM146.139 134.107H147.205V127.736H149.242V126.807H147.205V121.953H146.139V134.107ZM154.462 123.279H149.881V124.182H153.422V126.643H149.909V131.195H150.702C152.233 131.195 153.607 131.141 155.337 130.84L155.241 129.965C153.669 130.231 152.349 130.286 150.948 130.293V127.531H154.462V123.279ZM156.088 133.479H157.073V127.654H158.864V134.107H159.889V121.953H158.864V126.766H157.073V122.227H156.088V133.479ZM165.177 122.842C163.256 122.849 161.889 124.011 161.896 125.699C161.889 127.395 163.256 128.55 165.177 128.557C167.084 128.55 168.438 127.395 168.444 125.699C168.438 124.011 167.084 122.849 165.177 122.842ZM161.267 130.539L161.417 131.455C163.604 131.455 166.592 131.441 169.374 130.922L169.292 130.129C166.605 130.525 163.509 130.546 161.267 130.539ZM162.948 125.699C162.941 124.571 163.878 123.785 165.177 123.785C166.462 123.785 167.398 124.571 167.392 125.699C167.398 126.834 166.462 127.613 165.177 127.613C163.878 127.613 162.941 126.834 162.948 125.699ZM170.099 134.135H171.165V121.953H170.099V134.135ZM185.513 121.953H184.447V129.801H185.513V126.26H187.346V125.344H185.513V121.953ZM176.039 124.195H183.285V123.348H180.195V121.857H179.129V123.348H176.039V124.195ZM176.736 126.971C176.729 128.283 177.898 129.124 179.662 129.117C181.405 129.124 182.574 128.283 182.588 126.971C182.574 125.672 181.405 124.831 179.662 124.824C177.898 124.831 176.729 125.672 176.736 126.971ZM177.693 131.988C177.686 133.308 179.19 134.08 181.672 134.08C184.146 134.08 185.65 133.308 185.65 131.988C185.65 130.662 184.146 129.89 181.672 129.883C179.19 129.89 177.686 130.662 177.693 131.988ZM177.762 126.971C177.755 126.171 178.513 125.645 179.662 125.631C180.797 125.645 181.562 126.171 181.576 126.971C181.562 127.771 180.797 128.283 179.662 128.283C178.513 128.283 177.755 127.771 177.762 126.971ZM178.76 131.988C178.746 131.182 179.853 130.73 181.672 130.73C183.483 130.73 184.591 131.182 184.584 131.988C184.591 132.774 183.483 133.253 181.672 133.246C179.853 133.253 178.746 132.774 178.76 131.988ZM197.377 122.473H189.147V126.574H192.715V128.133H187.711V129.008H198.785V128.133H193.781V126.574H197.377V122.473ZM188.942 131.141H196.338V134.107H197.418V130.279H188.942V131.141ZM190.199 125.713V123.334H196.311V125.713H190.199ZM204.948 122.172C202.234 122.172 200.641 122.917 200.641 124.264C200.641 125.645 202.234 126.39 204.948 126.396C207.648 126.39 209.234 125.645 209.241 124.264C209.234 122.917 207.648 122.172 204.948 122.172ZM199.411 128.092H210.485V127.217H199.411V128.092ZM200.751 129.965H208.01V131.072H200.778V133.971H209.432V133.123H201.844V131.865H209.063V129.145H200.751V129.965ZM201.762 124.264C201.749 123.464 202.931 122.985 204.948 122.979C206.964 122.985 208.14 123.464 208.147 124.264C208.14 125.111 206.964 125.576 204.948 125.576C202.931 125.576 201.749 125.111 201.762 124.264ZM223.63 121.953H222.564V134.135H223.63V127.668H225.667V126.766H223.63V121.953ZM214.757 131.086H215.714C218.025 131.086 219.618 131.018 221.525 130.676L221.388 129.746C219.577 130.081 218.025 130.177 215.824 130.184V124.031H220.431V123.143H214.757V131.086ZM230.244 125.221V123.006H229.178V125.221C229.164 127.524 227.667 129.849 225.855 130.676L226.539 131.578C227.961 130.86 229.157 129.322 229.718 127.49C230.299 129.22 231.495 130.662 232.883 131.332L233.539 130.484C231.748 129.671 230.237 127.442 230.244 125.221ZM234.865 134.135H235.945V121.953H234.865V134.135ZM78.2416 141.967H77.1615V150.115H78.2416V146.547H80.06V145.645H78.2416V141.967ZM68.6986 148.871L68.8217 149.746C70.9613 149.753 73.8666 149.732 76.5053 149.268L76.4096 148.488C75.3432 148.646 74.1947 148.741 73.06 148.796V147.941C74.4682 147.805 75.3568 147.155 75.3705 146.15C75.3568 145.043 74.2357 144.359 72.5131 144.359C70.8041 144.359 69.6625 145.043 69.6693 146.15C69.6625 147.162 70.5785 147.812 71.9936 147.941V148.837C70.8041 148.871 69.6693 148.871 68.6986 148.871ZM68.9994 143.895H76.0404V143.074H73.06V141.857H71.9936V143.074H68.9994V143.895ZM70.1889 151.578H77.1615V154.107H78.2416V150.717H70.1889V151.578ZM70.6947 146.15C70.6879 145.508 71.392 145.111 72.5131 145.125C73.6342 145.111 74.3451 145.508 74.3451 146.15C74.3451 146.786 73.6342 147.217 72.5131 147.203C71.392 147.217 70.6879 146.786 70.6947 146.15ZM90.4881 141.967H89.4217V150.854H90.4881V141.967ZM80.74 145.795C80.7332 147.565 82.1072 148.796 83.9256 148.789C85.7439 148.796 87.1043 147.565 87.1111 145.795C87.1043 144.045 85.7439 142.821 83.9256 142.814C82.1072 142.821 80.7332 144.045 80.74 145.795ZM81.7928 145.795C81.7791 144.605 82.6951 143.758 83.9256 143.758C85.1355 143.758 86.0584 144.605 86.0584 145.795C86.0584 147.005 85.1355 147.846 83.9256 147.846C82.6951 147.846 81.7791 147.005 81.7928 145.795ZM82.6404 153.848H90.8709V152.945H83.7068V149.951H82.6404V153.848ZM101.559 141.953H100.492V154.107H101.559V147.859H103.596V146.971H101.559V141.953ZM92.0842 144.797H99.3166V143.908H96.2814V142.104H95.215V143.908H92.0842V144.797ZM92.7814 148.598C92.7746 150.245 94.0324 151.387 95.7619 151.387C97.4777 151.387 98.7287 150.245 98.7424 148.598C98.7287 146.957 97.4777 145.809 95.7619 145.809C94.0324 145.809 92.7746 146.957 92.7814 148.598ZM93.8068 148.598C93.8 147.497 94.6272 146.704 95.7619 146.711C96.883 146.704 97.7033 147.497 97.717 148.598C97.7033 149.705 96.883 150.484 95.7619 150.471C94.6272 150.484 93.8 149.705 93.8068 148.598ZM107.12 142.896C105.322 142.903 104.064 144.551 104.071 147.135C104.064 149.726 105.322 151.366 107.12 151.359C108.296 151.366 109.239 150.648 109.745 149.418H112.862V154.135H113.928V141.953H112.862V144.674H109.67C109.143 143.553 108.234 142.903 107.12 142.896ZM105.096 147.135C105.103 145.159 105.923 143.86 107.12 143.854C108.309 143.86 109.143 145.159 109.143 147.135C109.143 149.11 108.309 150.409 107.12 150.402C105.923 150.409 105.103 149.11 105.096 147.135ZM109.977 145.576H112.862V148.529H110.018C110.107 148.105 110.155 147.634 110.155 147.135C110.155 146.567 110.093 146.048 109.977 145.576ZM125.72 143.006H123.013V141.926H121.96V143.006H119.267V143.812H121.96C121.94 144.865 120.655 145.727 118.98 146.014L119.363 146.793C120.832 146.52 121.988 145.836 122.5 144.899C123.02 145.788 124.168 146.424 125.624 146.67L126.007 145.877C124.339 145.61 123.04 144.817 123.013 143.812H125.72V143.006ZM118.652 147.627L118.788 148.461C120.928 148.475 123.813 148.447 126.376 148.01L126.308 147.258C125.262 147.401 124.134 147.483 123.013 147.538V146.232H121.96V147.579C120.771 147.62 119.629 147.627 118.652 147.627ZM120.238 150.211H127.087V151.236H120.265V153.971H128.619V153.15H121.331V152.016H128.154V149.404H120.238V150.211ZM127.074 148.871H128.154V145.781H129.972V144.893H128.154V141.953H127.074V148.871ZM133.715 142.691C131.896 142.685 130.55 143.874 130.556 145.576C130.55 147.265 131.896 148.454 133.715 148.447C134.74 148.454 135.615 148.064 136.176 147.422H139.361V149.158H140.441V141.953H139.361V143.717H136.176C135.608 143.074 134.74 142.685 133.715 142.691ZM131.582 145.576C131.582 144.421 132.471 143.614 133.715 143.621C134.918 143.614 135.82 144.421 135.82 145.576C135.82 146.704 134.918 147.538 133.715 147.531C132.471 147.538 131.582 146.704 131.582 145.576ZM132.334 151.756C132.327 153.232 133.886 154.08 136.408 154.08C138.924 154.08 140.482 153.232 140.482 151.756C140.482 150.293 138.924 149.445 136.408 149.445C133.886 149.445 132.327 150.293 132.334 151.756ZM133.387 151.756C133.38 150.833 134.542 150.286 136.408 150.279C138.274 150.286 139.436 150.833 139.429 151.756C139.436 152.672 138.274 153.226 136.408 153.219C134.542 153.226 133.38 152.672 133.387 151.756ZM136.688 144.592H139.361V146.533H136.695C136.798 146.239 136.859 145.918 136.859 145.576C136.859 145.221 136.798 144.893 136.688 144.592ZM156.294 149.172H145.165V150.047H150.169V154.107H151.221V150.047H156.294V149.172ZM146.587 147.695H154.858V142.459H153.778V144.141H147.653V142.459H146.587V147.695ZM147.653 146.82V145.016H153.778V146.82H147.653ZM163.044 142.787H157.452V148.652H158.368C160.884 148.666 162.285 148.611 163.96 148.324L163.837 147.436C162.237 147.723 160.891 147.791 158.519 147.791V146.109H162.812V145.262H158.519V143.676H163.044V142.787ZM158.423 150.799H165.313V154.107H166.38V149.924H158.423V150.799ZM165.313 149.322H166.38V146.109H168.212V145.193H166.38V141.953H165.313V149.322ZM178.394 147.805H171.066V143.977H178.271V143.088H169.999V148.693H178.394V147.805ZM168.578 152.453H179.706V151.551H168.578V152.453ZM190.34 141.953H189.273V144.729H186.84V145.631H189.273V148.051H186.744V148.953H189.273V154.135H190.34V141.953ZM180.701 143.949H184.994V146.506H180.742V151.291H181.644C183.586 151.291 185.144 151.223 187.086 150.922L186.99 150.02C185.144 150.307 183.634 150.375 181.808 150.375V147.381H186.047V143.061H180.701V143.949ZM203.106 151.646H200.344V148.338C201.349 147.798 201.957 146.937 201.957 145.85C201.957 143.97 200.112 142.732 197.514 142.719C194.916 142.732 193.07 143.97 193.07 145.85C193.07 146.957 193.699 147.832 194.738 148.372V151.646H191.977V152.549H203.106V151.646ZM194.11 145.85C194.103 144.489 195.518 143.594 197.514 143.607C199.489 143.594 200.918 144.489 200.918 145.85C200.918 147.21 199.489 148.119 197.514 148.119C195.518 148.119 194.103 147.21 194.11 145.85ZM195.791 151.646V148.762C196.311 148.898 196.892 148.967 197.514 148.967C198.15 148.967 198.737 148.892 199.264 148.755V151.646H195.791ZM204.962 153.082C205.447 153.075 205.843 152.679 205.837 152.193C205.843 151.715 205.447 151.318 204.962 151.318C204.483 151.318 204.073 151.715 204.087 152.193C204.073 152.679 204.483 153.075 204.962 153.082Z" fill="#0A0A0A" fill-opacity="0.45"/>
<g opacity="0.2">
<path d="M46.2972 7.6167L44.2649 37.5433L46.8259 37.816L48.2578 8.10632L46.2972 7.6167Z" fill="#171F69"/>
<path d="M57.5361 22.0751L35.8516 20.8737L35.5871 23.3575L57.1301 23.9822L57.5361 22.0751Z" fill="#171F69"/>
<path d="M54.0591 29.8179L40.3939 14.5549L39.0641 15.6146L52.8937 30.5051L54.0591 29.8179Z" fill="#171F69"/>
<path d="M39.2977 29.9777L54.9024 16.7708L53.8255 15.4547L38.6071 28.8433L39.2977 29.9777Z" fill="#171F69"/>
</g>
<g opacity="0.4">
<path d="M29.999 33.5737L30.2868 35.7523C30.5944 38.0323 31.9968 40.0086 34.0497 41.0451L34.4199 41.2297C35.6601 41.8586 35.4653 43.6877 34.1205 44.0414L33.7197 44.1439C31.4946 44.7249 29.6998 46.3606 28.9266 48.5256L28.1864 50.5947C27.6535 52.082 25.4766 51.8502 25.2689 50.284L24.9811 48.1054C24.6735 45.8254 23.271 43.8491 21.2181 42.8126L20.8479 42.628C19.6077 41.999 19.8025 40.17 21.1473 39.8163L21.5481 39.7138C23.7732 39.1328 25.568 37.4971 26.3413 35.3321L27.0814 33.263C27.6144 31.7757 29.7912 32.0075 29.999 33.5737Z" fill="#5AC4B1"/>
</g>
<g opacity="0.2">
<path d="M228.703 7.6167L230.735 37.5433L228.174 37.816L226.742 8.10632L228.703 7.6167Z" fill="#171F69"/>
<path d="M217.464 22.0751L239.148 20.8737L239.413 23.3575L217.87 23.9822L217.464 22.0751Z" fill="#171F69"/>
<path d="M220.941 29.8179L234.606 14.5549L235.936 15.6146L222.106 30.5051L220.941 29.8179Z" fill="#171F69"/>
<path d="M235.702 29.9777L220.098 16.7708L221.174 15.4547L236.393 28.8433L235.702 29.9777Z" fill="#171F69"/>
</g>
<g opacity="0.4">
<path d="M245.001 33.5737L244.713 35.7523C244.406 38.0323 243.003 40.0086 240.95 41.0451L240.58 41.2297C239.34 41.8586 239.535 43.6877 240.879 44.0414L241.28 44.1439C243.505 44.7249 245.3 46.3606 246.073 48.5256L246.814 50.5947C247.347 52.082 249.523 51.8502 249.731 50.284L250.019 48.1054C250.327 45.8254 251.729 43.8491 253.782 42.8126L254.152 42.628C255.392 41.999 255.197 40.17 253.853 39.8163L253.452 39.7138C251.227 39.1328 249.432 37.4971 248.659 35.3321L247.919 33.263C247.386 31.7757 245.209 32.0075 245.001 33.5737Z" fill="#5AC4B1"/>
</g>
<path d="M122.74 10.0093C122.767 10.0266 122.767 10.0266 122.74 10.0093V10.0093Z" fill="#00C7B1"/>
<path d="M122.668 9.96143C122.7 9.98136 122.728 9.9973 122.744 10.0093C122.728 10.0013 122.704 9.98534 122.668 9.96143Z" fill="#00C7B1"/>
<path d="M124.92 7.60603C125.077 7.24731 125.162 6.81685 125.125 6.29074C125.125 6.29074 127.096 1.13719 124.259 0.132788C122.414 -0.520871 121.286 1.37235 121.068 2.8949C119.876 1.61548 118.304 0.611075 116.866 1.87455C116.024 2.6159 116.177 3.73589 116.947 4.95951C115.891 4.55695 114.831 4.61275 114.102 5.78057C112.881 7.73756 116.024 9.45939 118.981 10.2167C120.279 10.5475 124.799 8.35535 124.916 7.614C124.916 7.614 124.916 7.61001 124.916 7.60603H124.92Z" fill="#00C7B1"/>
<path d="M137.78 2.27344C123.341 2.27344 111.637 13.852 111.637 28.1368C111.637 42.4217 123.341 54.0002 137.78 54.0002C152.22 54.0002 163.924 42.4217 163.924 28.1368C163.924 13.852 152.22 2.27344 137.78 2.27344Z" fill="#00C7B1"/>
<path d="M108.562 46.8175C107.958 46.8175 107.442 46.3591 107.394 45.7493C107.011 41.1976 108.591 38.3877 109.985 36.8293C111.524 35.1074 113.196 34.4936 113.268 34.4657C113.877 34.2465 114.554 34.5574 114.775 35.1632C114.997 35.7651 114.682 36.4307 114.078 36.6499C113.861 36.7336 109.155 38.591 109.739 45.554C109.791 46.1957 109.312 46.7577 108.663 46.8095C108.631 46.8095 108.599 46.8135 108.566 46.8135L108.562 46.8175Z" fill="#00C7B1"/>
<path d="M106.439 50.4891C107.285 50.7801 107.591 49.2574 107.632 48.4602C107.632 48.4602 107.632 48.4602 107.636 48.4602C107.64 50.3974 107.632 51.5813 108.591 51.4737C109.678 51.3541 109.11 48.4402 109.11 48.4402C109.11 48.4402 109.67 50.8917 110.492 50.8359C111.314 50.7801 111.395 49.3052 110.609 47.8144C110.77 48.5797 111.475 49.6719 112.064 49.4447C113.506 48.8867 111.455 46.4272 111.314 45.7974C111.04 44.5538 109.67 43.904 108.031 44.4382C106.629 44.8966 105.791 46.1482 106.153 47.2324C106.197 47.364 106.258 47.4836 106.326 47.5952C106.089 48.4283 105.674 50.226 106.439 50.4891V50.4891Z" fill="#00C7B1"/>
<path d="M166.284 46.8175C166.888 46.8175 167.404 46.3591 167.452 45.7493C167.835 41.1976 166.256 38.3877 164.862 36.8293C163.322 35.1074 161.65 34.4936 161.578 34.4657C160.97 34.2465 160.293 34.5574 160.071 35.1632C159.849 35.7651 160.164 36.4307 160.768 36.6499C160.986 36.7336 165.691 38.591 165.107 45.554C165.055 46.1957 165.534 46.7577 166.183 46.8095C166.215 46.8095 166.247 46.8135 166.28 46.8135L166.284 46.8175Z" fill="#00C7B1"/>
<path d="M168.407 50.4891C167.561 50.7801 167.255 49.2574 167.214 48.4602C167.214 48.4602 167.214 48.4602 167.21 48.4602C167.206 50.3974 167.214 51.5813 166.256 51.4737C165.168 51.3541 165.736 48.4402 165.736 48.4402C165.736 48.4402 165.176 50.8917 164.354 50.8359C163.532 50.7801 163.451 49.3052 164.237 47.8144C164.076 48.5797 163.371 49.6719 162.783 49.4447C161.34 48.8867 163.391 46.4272 163.532 45.7974C163.806 44.5538 165.176 43.904 166.816 44.4382C168.218 44.8966 169.056 46.1482 168.693 47.2324C168.649 47.364 168.588 47.4836 168.52 47.5952C168.758 48.4283 169.173 50.226 168.407 50.4891V50.4891Z" fill="#00C7B1"/>
<path d="M129.741 36.1871C132.741 36.1871 135.173 33.7206 135.173 30.678C135.173 27.6354 132.741 25.1689 129.741 25.1689C126.742 25.1689 124.31 27.6354 124.31 30.678C124.31 33.7206 126.742 36.1871 129.741 36.1871Z" fill="#F5F4F3"/>
<path d="M131.569 30.6546C131.569 28.5849 130.443 26.7827 128.778 25.8409C128.258 25.5478 127.618 25.5478 127.1 25.8409C125.436 26.7827 124.31 28.5849 124.31 30.6546C124.31 32.7243 125.436 34.5265 127.1 35.4683C127.621 35.7614 128.26 35.7614 128.778 35.4683C130.443 34.5265 131.569 32.7243 131.569 30.6546V30.6546Z" fill="#191919"/>
<path d="M145.167 36.1871C148.167 36.1871 150.599 33.7206 150.599 30.678C150.599 27.6354 148.167 25.1689 145.167 25.1689C142.167 25.1689 139.735 27.6354 139.735 30.678C139.735 33.7206 142.167 36.1871 145.167 36.1871Z" fill="#F5F4F3"/>
<path d="M146.994 30.6546C146.994 28.5849 145.869 26.7827 144.204 25.8409C143.684 25.5478 143.044 25.5478 142.526 25.8409C140.861 26.7827 139.735 28.5849 139.735 30.6546C139.735 32.7243 140.861 34.5265 142.526 35.4683C143.046 35.7614 143.686 35.7614 144.204 35.4683C145.869 34.5265 146.994 32.7243 146.994 30.6546Z" fill="#191919"/>
<path d="M152.834 33.4819C149.466 28.1635 145.669 28.1984 145.669 28.1984C145.671 28.1984 145.674 28.1984 145.678 28.1984C145.502 28.1822 145.325 28.1729 145.146 28.1729C142.312 28.1729 139.933 30.1681 139.295 32.8471C138.85 32.382 138.197 32.0843 137.468 32.0843C136.739 32.0843 136.085 32.382 135.641 32.8471C135.003 30.1681 132.623 28.1729 129.789 28.1729C129.611 28.1729 129.432 28.1822 129.258 28.1984C129.26 28.1984 129.262 28.1984 129.267 28.1984C129.267 28.1984 125.468 28.1635 122.102 33.4819C121.944 33.7308 121.861 34.0214 121.873 34.3191L121.909 35.3772C121.925 35.8795 122.2 36.3376 122.636 36.5818L124.938 37.8841C126.034 39.4003 127.802 40.3863 129.794 40.3863C133.114 40.3863 135.815 37.6469 135.815 34.2796C135.815 34.1517 135.81 34.0261 135.801 33.8982C135.998 33.2564 136.672 32.782 137.472 32.782C138.273 32.782 138.947 33.2564 139.144 33.8982C139.137 34.0238 139.13 34.1517 139.13 34.2796C139.13 37.6469 141.831 40.3863 145.151 40.3863C147.143 40.3863 148.911 39.4003 150.007 37.8841L152.309 36.5818C152.742 36.3376 153.017 35.8795 153.036 35.3772L153.072 34.3191C153.082 34.0238 153.001 33.7331 152.843 33.4819H152.834ZM129.787 39.5421C126.926 39.5421 124.599 37.1818 124.599 34.2796C124.599 31.3774 126.926 29.017 129.787 29.017C132.649 29.017 134.976 31.3774 134.976 34.2796C134.976 37.1818 132.649 39.5421 129.787 39.5421ZM145.144 39.5421C142.283 39.5421 139.956 37.1818 139.956 34.2796C139.956 31.3774 142.283 29.017 145.144 29.017C148.005 29.017 150.333 31.3774 150.333 34.2796C150.333 37.1818 148.005 39.5421 145.144 39.5421Z" fill="#151F6D"/>
<path d="M149.897 24.8871C149.876 24.8871 149.856 24.8871 149.835 24.8824L141.246 23.2918C141.061 23.2569 140.937 23.0755 140.969 22.8849C141.003 22.6942 141.182 22.5686 141.37 22.6035L149.959 24.1941C150.145 24.229 150.268 24.4104 150.236 24.6011C150.206 24.7685 150.062 24.8871 149.899 24.8871H149.897Z" fill="#191919"/>
<path d="M124.477 24.8871C124.314 24.8871 124.17 24.7685 124.14 24.6011C124.106 24.4127 124.23 24.229 124.418 24.1941L133.006 22.6035C133.192 22.5686 133.373 22.6942 133.407 22.8849C133.442 23.0732 133.318 23.2569 133.13 23.2918L124.541 24.8824C124.521 24.8871 124.5 24.8871 124.479 24.8871H124.477Z" fill="#191919"/>
<path d="M134.921 41.4489C134.921 41.4489 134.939 41.4373 134.948 41.4303C135.939 40.7326 136.936 40.4745 137.855 40.4745C137.876 40.4745 137.897 40.4745 137.92 40.4745C137.94 40.4745 137.961 40.4745 137.984 40.4745C138.873 40.4745 139.836 40.721 140.795 41.3698C140.886 40.8559 140.804 40.3141 140.568 39.8885C140.465 39.7001 140.332 39.535 140.173 39.4071C140.127 39.3676 140.077 39.3304 140.024 39.2932C140.006 39.2792 139.988 39.2676 139.972 39.256C139.965 39.2513 139.958 39.2467 139.951 39.242C139.208 38.7188 138.456 38.5234 137.768 38.5234C137.752 38.5234 137.736 38.5234 137.72 38.5234C137.704 38.5234 137.688 38.5234 137.672 38.5234C136.982 38.5234 136.232 38.7188 135.489 39.242C135.482 39.2467 135.475 39.2513 135.469 39.256C135.45 39.2676 135.432 39.2815 135.416 39.2932C135.363 39.3304 135.313 39.3676 135.267 39.4048C135.063 39.5699 134.905 39.7932 134.792 40.0466C134.586 40.5141 134.549 41.0908 134.703 41.6117C134.751 41.5745 134.797 41.5373 134.847 41.5024C134.87 41.4861 134.895 41.4675 134.918 41.4512L134.921 41.4489Z" fill="#191919"/>
<path d="M136.72 42.5094C136.72 42.5094 136.734 42.5001 136.741 42.4931C136.842 42.4234 137.227 42.1769 137.718 42.1629C138.208 42.1769 138.594 42.421 138.695 42.4931C138.701 42.4978 138.708 42.5024 138.715 42.5094C139.373 43.0303 140.231 42.7559 140.63 41.8955C140.708 41.728 140.76 41.5513 140.792 41.3699C139.834 40.7234 138.869 40.4746 137.981 40.4746C137.961 40.4746 137.94 40.4746 137.917 40.4746C137.897 40.4746 137.876 40.4746 137.853 40.4746C136.934 40.4746 135.936 40.7351 134.946 41.4304C134.937 41.4374 134.928 41.442 134.918 41.449C134.895 41.4653 134.87 41.4815 134.847 41.5001C134.797 41.5374 134.749 41.5746 134.703 41.6094C134.733 41.7071 134.765 41.8025 134.808 41.8932C135.207 42.7536 136.062 43.028 136.723 42.5071L136.72 42.5094Z" fill="#F49292"/>
<path d="M147.678 40.6187C147.678 40.6187 147.678 40.6141 147.678 40.6117C147.678 40.6048 147.671 40.5862 147.659 40.5629C147.636 40.5001 147.609 40.4373 147.579 40.3769C147.315 39.7792 146.575 38.1863 146.194 37.1235C146.162 37.0468 146.054 37.0491 146.029 37.1282C145.809 37.7816 145.609 38.349 145.256 39.1769C145.055 39.6606 144.649 40.4699 144.633 40.5629C144.55 40.7861 144.504 41.0326 144.504 41.2908C144.504 42.3279 145.24 43.1698 146.146 43.1698C147.052 43.1698 147.788 42.3279 147.788 41.2908C147.788 41.0536 147.749 40.828 147.678 40.6187Z" fill="#C4EBF7"/>
</svg>
