<svg width="272" height="138" viewBox="0 0 272 138" fill="none" xmlns="http://www.w3.org/2000/svg">
<path d="M63.5977 70.0977H54.668V71.8906H56.0918V79.1064C55.4502 79.1152 54.835 79.1152 54.2637 79.1152L54.5098 80.9434C57.2607 80.9258 60.917 80.8643 64.1953 80.293L64.0723 78.6758C63.457 78.7549 62.8242 78.8164 62.1738 78.8691V71.8906H63.5977V70.0977ZM58.2539 79.0713V71.8906H60.0117V79.001C59.4229 79.0273 58.834 79.0537 58.2539 79.0713ZM64.8457 84.6172H67.0957V76.5312H69.4512V74.7031H67.0957V68.6211H64.8457V84.6172ZM74.184 69.0957C71.7143 69.0869 69.8773 70.6162 69.8773 72.752C69.8773 74.8701 71.7143 76.3818 74.184 76.3906C76.6186 76.3818 78.4467 74.8701 78.4555 72.752C78.4467 70.6162 76.6186 69.0869 74.184 69.0957ZM72.057 72.752C72.0395 71.6006 72.9535 70.9238 74.184 70.9238C75.3969 70.9238 76.2846 71.6006 76.2934 72.752C76.2846 73.8945 75.3969 74.5713 74.184 74.5801C72.9447 74.5713 72.0395 73.8945 72.057 72.752ZM72.2855 79.0273H80.7934V80.0117H72.3207V84.4414H83.4652V82.6836H74.518V81.6465H83.0258V77.3047H72.2855V79.0273ZM80.7758 76.6367H83.0258V68.6211H80.7758V76.6367ZM101.333 68.6387H99.0832V79.502H101.333V75.0547H103.372V73.209H101.333V68.6387ZM88.3605 77.4453L88.5891 79.1855C91.4104 79.1855 95.1193 79.1504 98.5031 78.5527L98.3449 77.0059C97.1145 77.1641 95.7961 77.2607 94.4777 77.3311V76.5049C96.1916 76.2588 97.2639 75.415 97.2727 74.1934C97.2639 72.708 95.7082 71.7939 93.3527 71.8027C90.9797 71.7939 89.424 72.708 89.4328 74.1934C89.424 75.415 90.5051 76.2676 92.2453 76.5137V77.4102C90.8566 77.4453 89.5295 77.4453 88.3605 77.4453ZM88.7824 71.4336H97.9406V69.7988H94.4777V68.498H92.2453V69.7988H88.7824V71.4336ZM90.3996 81.875H99.0832V84.6172H101.333V80.1523H90.3996V81.875ZM91.5773 74.1934C91.5686 73.5693 92.2102 73.2969 93.3527 73.2969C94.4777 73.2969 95.1193 73.5693 95.1281 74.1934C95.1193 74.7734 94.4777 75.1162 93.3527 75.1074C92.2102 75.1162 91.5686 74.7734 91.5773 74.1934ZM117.088 68.6387H114.838V80.1348H117.088V68.6387ZM103.939 73.6836C103.939 76.0654 105.855 77.7441 108.316 77.7441C110.768 77.7441 112.684 76.0654 112.693 73.6836C112.684 71.3369 110.768 69.6494 108.316 69.6582C105.855 69.6494 103.939 71.3369 103.939 73.6836ZM106.136 73.6836C106.119 72.3828 107.059 71.6006 108.316 71.6094C109.529 71.6006 110.469 72.3828 110.478 73.6836C110.469 75.0195 109.529 75.793 108.316 75.793C107.059 75.793 106.119 75.0195 106.136 73.6836ZM106.365 84.3359H117.509V82.543H108.632V78.9746H106.365V84.3359ZM126.145 68.8496C122.453 68.8496 120.309 69.8164 120.309 71.5742C120.309 73.3584 122.453 74.3164 126.145 74.3164C129.827 74.3164 131.954 73.3584 131.963 71.5742C131.954 69.8164 129.827 68.8496 126.145 68.8496ZM118.85 76.8477H133.439V75.0723H118.85V76.8477ZM120.537 79.4141H129.449V80.293H120.555V84.5117H132.086V82.8242H122.752V81.8574H131.664V77.7793H120.537V79.4141ZM122.664 71.5742C122.655 70.8623 123.798 70.4844 126.145 70.4844C128.509 70.4844 129.643 70.8623 129.643 71.5742C129.643 72.3564 128.509 72.6641 126.145 72.6641C123.798 72.6641 122.655 72.3564 122.664 71.5742ZM181.814 68.6387H179.687V72.7344H178.439V68.8496H176.347V78.3066H178.439V74.5449H179.687V78.4824H181.814V68.6387ZM167.98 71.9258H175.838V70.1504H173.043V68.709H170.81V70.1504H167.98V71.9258ZM168.472 75.2305C168.463 76.874 169.931 78.0166 171.935 78.0254C173.965 78.0166 175.424 76.874 175.433 75.2305C175.424 73.5518 173.965 72.4355 171.935 72.4355C169.931 72.4355 168.463 73.5518 168.472 75.2305ZM168.964 82.7539L170.019 84.4238C171.487 83.9492 172.498 83.0439 173.069 81.9189C173.588 83.0879 174.528 84.0635 176.013 84.582C177.463 84.0547 178.386 83.0176 178.896 81.8398C179.459 83.0176 180.478 83.9492 182.025 84.4238L183.062 82.7539C180.935 82.2178 180.039 80.7939 180.056 79.3086V78.9746H177.824V79.3086C177.806 80.3809 177.244 81.6377 175.969 82.4814C174.713 81.6816 174.185 80.4775 174.203 79.3086V78.9746H171.97V79.3086C171.97 80.7148 171.039 82.1562 168.964 82.7539ZM170.476 75.2305C170.467 74.4482 171.065 74.0352 171.935 74.0352C172.805 74.0352 173.403 74.4482 173.412 75.2305C173.403 75.9775 172.805 76.4082 171.935 76.4082C171.056 76.4082 170.467 75.9775 170.476 75.2305ZM187.637 69.7461C185.211 69.7461 183.471 71.9521 183.488 75.4414C183.471 78.957 185.211 81.1543 187.637 81.1543C189.869 81.1543 191.521 79.2734 191.759 76.1973H194.51V84.6523H196.725V68.6211H194.51V74.4043H191.732C191.416 71.5215 189.799 69.7461 187.637 69.7461ZM185.633 75.4414C185.624 73.0684 186.441 71.7676 187.637 71.7676C188.841 71.7676 189.641 73.0684 189.641 75.4414C189.641 77.8232 188.841 79.124 187.637 79.1152C186.441 79.124 185.624 77.8232 185.633 75.4414ZM213.024 80.9082H209.772V76.9443C210.976 76.1973 211.697 75.0811 211.705 73.7012C211.697 71.1084 209.139 69.4033 205.676 69.3945C202.196 69.4033 199.664 71.1084 199.664 73.7012C199.664 75.1074 200.412 76.2412 201.651 76.9883V80.9082H198.381V82.7539H213.024V80.9082ZM201.879 73.7012C201.879 72.0928 203.382 71.1611 205.676 71.1699C207.935 71.1611 209.482 72.0928 209.491 73.7012C209.482 75.2656 207.935 76.2324 205.676 76.2324C203.382 76.2324 201.879 75.2656 201.879 73.7012ZM203.866 80.9082V77.8057C204.428 77.9111 205.035 77.9727 205.676 77.9727C206.318 77.9727 206.933 77.9111 207.504 77.7969V80.9082H203.866ZM215.612 83.1582C216.394 83.1582 217.071 82.499 217.071 81.6816C217.071 80.873 216.394 80.2139 215.612 80.2227C214.786 80.2139 214.118 80.873 214.136 81.6816C214.118 82.499 214.786 83.1582 215.612 83.1582Z" fill="#0A0A0A"/>
<path d="M142.571 69.2715C140.216 69.2803 138.537 70.5898 138.546 72.5234C138.537 74.1143 139.715 75.3184 141.481 75.6699V76.9268C140.119 76.9619 138.827 76.9707 137.72 76.9707L137.948 78.7461C140.62 78.7549 144.285 78.6758 147.581 78.0957L147.405 76.4609C146.236 76.6279 144.988 76.7422 143.731 76.8213V75.6523C145.445 75.2832 146.588 74.0879 146.596 72.5234C146.588 70.5898 144.909 69.2803 142.571 69.2715ZM139.829 84.3184H151.096V82.5254H142.079V79.7656H139.829V84.3184ZM140.637 72.5234C140.62 71.5215 141.437 70.9766 142.571 70.959C143.714 70.9766 144.487 71.5215 144.487 72.5234C144.487 73.499 143.722 74.0615 142.571 74.0703C141.437 74.0615 140.62 73.499 140.637 72.5234ZM148.302 80.8379H150.552V75.5293H152.591V73.666H150.552V68.6387H148.302V80.8379ZM167.554 80.9961H163.968V78.5527H166.236V76.7422H156.849V74.9668H165.866V69.6582H154.581V71.4512H163.652V73.1738H154.599V78.5527H156.655V80.9961H152.911V82.8418H167.554V80.9961ZM158.835 80.9961V78.5527H161.771V80.9961H158.835Z" fill="#00C7B1"/>
<path d="M89.998 101.967H88.918V110.115H89.998V106.547H91.8164V105.645H89.998V101.967ZM80.4551 108.871L80.5781 109.746C82.7178 109.753 85.623 109.732 88.2617 109.268L88.166 108.488C87.0996 108.646 85.9512 108.741 84.8164 108.796V107.941C86.2246 107.805 87.1133 107.155 87.127 106.15C87.1133 105.043 85.9922 104.359 84.2695 104.359C82.5605 104.359 81.4189 105.043 81.4258 106.15C81.4189 107.162 82.335 107.812 83.75 107.941V108.837C82.5605 108.871 81.4258 108.871 80.4551 108.871ZM80.7559 103.895H87.7969V103.074H84.8164V101.857H83.75V103.074H80.7559V103.895ZM81.9453 111.578H88.918V114.107H89.998V110.717H81.9453V111.578ZM82.4512 106.15C82.4443 105.508 83.1484 105.111 84.2695 105.125C85.3906 105.111 86.1016 105.508 86.1016 106.15C86.1016 106.786 85.3906 107.217 84.2695 107.203C83.1484 107.217 82.4443 106.786 82.4512 106.15ZM102.245 101.967H101.178V110.854H102.245V101.967ZM92.4965 105.795C92.4896 107.565 93.8637 108.796 95.682 108.789C97.5004 108.796 98.8607 107.565 98.8676 105.795C98.8607 104.045 97.5004 102.821 95.682 102.814C93.8637 102.821 92.4896 104.045 92.4965 105.795ZM93.5492 105.795C93.5355 104.605 94.4516 103.758 95.682 103.758C96.892 103.758 97.8148 104.605 97.8148 105.795C97.8148 107.005 96.892 107.846 95.682 107.846C94.4516 107.846 93.5355 107.005 93.5492 105.795ZM94.3969 113.848H102.627V112.945H95.4633V109.951H94.3969V113.848ZM113.93 101.953H112.85V114.135H113.93V101.953ZM104.36 107.135C104.367 109.726 105.652 111.366 107.464 111.359C109.268 111.366 110.574 109.726 110.567 107.135C110.574 104.551 109.268 102.903 107.464 102.896C105.652 102.903 104.367 104.551 104.36 107.135ZM105.399 107.135C105.399 105.159 106.247 103.86 107.464 103.854C108.687 103.86 109.528 105.159 109.528 107.135C109.528 109.11 108.687 110.409 107.464 110.402C106.247 110.409 105.399 109.11 105.399 107.135ZM122.427 102.527C120.65 102.527 119.413 103.484 119.42 104.934C119.413 106.212 120.418 107.121 121.921 107.285V108.516C120.759 108.557 119.652 108.563 118.709 108.557L118.845 109.445C120.944 109.452 123.856 109.411 126.433 108.953L126.351 108.146C125.292 108.304 124.136 108.406 123.002 108.468V107.278C124.464 107.094 125.442 106.191 125.449 104.934C125.442 103.484 124.205 102.527 122.427 102.527ZM120.431 104.934C120.418 103.99 121.245 103.361 122.427 103.361C123.617 103.361 124.43 103.99 124.437 104.934C124.43 105.856 123.617 106.485 122.427 106.492C121.245 106.485 120.418 105.856 120.431 104.934ZM120.486 113.834H128.648V112.932H121.566V110.457H120.486V113.834ZM127.13 111.264H128.211V106.998H130.029V106.082H128.211V101.967H127.13V111.264ZM141.551 111.701H138.529V109.391H140.43V108.502H132.883V106.533H140.143V102.855H131.789V103.744H139.09V105.645H131.816V109.391H133.553V111.701H130.422V112.604H141.551V111.701ZM134.605 111.701V109.391H137.477V111.701H134.605ZM149.368 107.203H144.172V103.99H149.313V103.115H143.12V108.092H145.635V110.525C144.425 110.56 143.249 110.566 142.19 110.566L142.34 111.469C144.664 111.476 147.604 111.421 150.297 111.031L150.215 110.225C149.087 110.354 147.891 110.437 146.702 110.484V108.092H149.368V107.203ZM151.022 114.135H152.088V101.953H151.022V114.135ZM158.005 110.102V109.363H156.979V110.102C156.966 111.277 156.043 112.597 154.505 113.15L155.038 113.957C156.2 113.513 157.034 112.658 157.471 111.681C157.841 112.706 158.593 113.602 159.755 114.053C160.889 113.574 161.635 112.631 162.017 111.64C162.428 112.665 163.275 113.513 164.485 113.957L165.046 113.15C163.46 112.624 162.551 111.359 162.557 110.102V109.363H161.505V110.102C161.498 111.038 160.903 112.275 159.734 113.007C158.579 112.337 157.998 111.195 158.005 110.102ZM154.026 105.494C154.026 107.169 155.352 108.338 157.171 108.338C158.798 108.338 160.062 107.354 160.267 105.904H162.817V108.898H163.897V101.953H162.817V105.016H160.261C160.021 103.607 158.77 102.644 157.171 102.65C155.352 102.644 154.026 103.826 154.026 105.494ZM155.065 105.494C155.052 104.366 155.947 103.553 157.171 103.566C158.367 103.553 159.262 104.366 159.262 105.494C159.262 106.622 158.367 107.442 157.171 107.449C155.947 107.442 155.052 106.622 155.065 105.494ZM168.788 102.896C166.99 102.903 165.733 104.551 165.739 107.135C165.733 109.726 166.99 111.366 168.788 111.359C170.484 111.366 171.7 109.876 171.817 107.49H174.53V114.135H175.597V101.953H174.53V106.602H171.803C171.639 104.325 170.443 102.903 168.788 102.896ZM166.765 107.135C166.772 105.159 167.592 103.86 168.788 103.854C169.978 103.86 170.812 105.159 170.812 107.135C170.812 109.11 169.978 110.409 168.788 110.402C167.592 110.409 166.772 109.11 166.765 107.135ZM188.349 111.646H185.587V108.338C186.592 107.798 187.201 106.937 187.201 105.85C187.201 103.97 185.355 102.732 182.757 102.719C180.16 102.732 178.314 103.97 178.314 105.85C178.314 106.957 178.943 107.832 179.982 108.372V111.646H177.22V112.549H188.349V111.646ZM179.353 105.85C179.346 104.489 180.761 103.594 182.757 103.607C184.733 103.594 186.162 104.489 186.162 105.85C186.162 107.21 184.733 108.119 182.757 108.119C180.761 108.119 179.346 107.21 179.353 105.85ZM181.035 111.646V108.762C181.554 108.898 182.135 108.967 182.757 108.967C183.393 108.967 183.981 108.892 184.507 108.755V111.646H181.035ZM190.205 113.082C190.69 113.075 191.087 112.679 191.08 112.193C191.087 111.715 190.69 111.318 190.205 111.318C189.727 111.318 189.316 111.715 189.33 112.193C189.316 112.679 189.727 113.075 190.205 113.082ZM12.1 131.646H7.02774V128.68H10.7191V122.979H2.2836V128.68H5.97501V131.646H0.9711V132.549H12.1V131.646ZM3.33633 127.818V123.84H9.68008V127.818H3.33633ZM23.7586 128.092H12.6707V128.967H23.7586V128.092ZM14.0789 126.752H22.4871V125.863H15.1453V123.361H22.3777V122.486H14.0789V126.752ZM14.1063 133.834H22.5828V132.932H15.1727V130.279H14.1063V133.834ZM36.9859 121.953H35.9195V129.801H36.9859V126.26H38.818V125.344H36.9859V121.953ZM27.5113 124.195H34.7574V123.348H31.6676V121.857H30.6012V123.348H27.5113V124.195ZM28.2086 126.971C28.2018 128.283 29.3707 129.124 31.1344 129.117C32.8775 129.124 34.0465 128.283 34.0602 126.971C34.0465 125.672 32.8775 124.831 31.1344 124.824C29.3707 124.831 28.2018 125.672 28.2086 126.971ZM29.1656 131.988C29.1588 133.308 30.6627 134.08 33.1441 134.08C35.6188 134.08 37.1227 133.308 37.1227 131.988C37.1227 130.662 35.6188 129.89 33.1441 129.883C30.6627 129.89 29.1588 130.662 29.1656 131.988ZM29.234 126.971C29.2272 126.171 29.9859 125.645 31.1344 125.631C32.2691 125.645 33.0348 126.171 33.0484 126.971C33.0348 127.771 32.2691 128.283 31.1344 128.283C29.9859 128.283 29.2272 127.771 29.234 126.971ZM30.232 131.988C30.2184 131.182 31.3258 130.73 33.1441 130.73C34.9557 130.73 36.0631 131.182 36.0563 131.988C36.0631 132.774 34.9557 133.253 33.1441 133.246C31.3258 133.253 30.2184 132.774 30.232 131.988ZM48.8496 122.473H40.6191V126.574H44.1875V128.133H39.1836V129.008H50.2578V128.133H45.2539V126.574H48.8496V122.473ZM40.4141 131.141H47.8106V134.107H48.8906V130.279H40.4141V131.141ZM41.6719 125.713V123.334H47.7832V125.713H41.6719ZM60.9047 121.953H59.8246V134.135H60.9047V121.953ZM51.3344 127.135C51.3412 129.726 52.6264 131.366 54.4379 131.359C56.2426 131.366 57.5482 129.726 57.5414 127.135C57.5482 124.551 56.2426 122.903 54.4379 122.896C52.6264 122.903 51.3412 124.551 51.3344 127.135ZM52.3734 127.135C52.3734 125.159 53.2211 123.86 54.4379 123.854C55.6615 123.86 56.5023 125.159 56.5023 127.135C56.5023 129.11 55.6615 130.409 54.4379 130.402C53.2211 130.409 52.3734 129.11 52.3734 127.135ZM75.1848 121.967H74.1047V130.115H75.1848V126.547H77.0031V125.645H75.1848V121.967ZM65.6418 128.871L65.7648 129.746C67.9045 129.753 70.8098 129.732 73.4484 129.268L73.3527 128.488C72.2863 128.646 71.1379 128.741 70.0031 128.796V127.941C71.4113 127.805 72.3 127.155 72.3137 126.15C72.3 125.043 71.1789 124.359 69.4563 124.359C67.7473 124.359 66.6057 125.043 66.6125 126.15C66.6057 127.162 67.5217 127.812 68.9367 127.941V128.837C67.7473 128.871 66.6125 128.871 65.6418 128.871ZM65.9426 123.895H72.9836V123.074H70.0031V121.857H68.9367V123.074H65.9426V123.895ZM67.132 131.578H74.1047V134.107H75.1848V130.717H67.132V131.578ZM67.6379 126.15C67.6311 125.508 68.3352 125.111 69.4563 125.125C70.5773 125.111 71.2883 125.508 71.2883 126.15C71.2883 126.786 70.5773 127.217 69.4563 127.203C68.3352 127.217 67.6311 126.786 67.6379 126.15ZM87.4313 121.967H86.3649V130.854H87.4313V121.967ZM77.6832 125.795C77.6764 127.565 79.0504 128.796 80.8688 128.789C82.6871 128.796 84.0475 127.565 84.0543 125.795C84.0475 124.045 82.6871 122.821 80.8688 122.814C79.0504 122.821 77.6764 124.045 77.6832 125.795ZM78.7359 125.795C78.7223 124.605 79.6383 123.758 80.8688 123.758C82.0787 123.758 83.0016 124.605 83.0016 125.795C83.0016 127.005 82.0787 127.846 80.8688 127.846C79.6383 127.846 78.7223 127.005 78.7359 125.795ZM79.5836 133.848H87.8141V132.945H80.65V129.951H79.5836V133.848ZM95.9145 122.527C94.1371 122.527 92.8998 123.484 92.9066 124.934C92.8998 126.212 93.9047 127.121 95.4086 127.285V128.516C94.2465 128.557 93.1391 128.563 92.1957 128.557L92.3324 129.445C94.4311 129.452 97.3432 129.411 99.9203 128.953L99.8383 128.146C98.7787 128.304 97.6234 128.406 96.4887 128.468V127.278C97.9516 127.094 98.9291 126.191 98.9359 124.934C98.9291 123.484 97.6918 122.527 95.9145 122.527ZM93.9184 124.934C93.9047 123.99 94.7318 123.361 95.9145 123.361C97.1039 123.361 97.9174 123.99 97.9242 124.934C97.9174 125.856 97.1039 126.485 95.9145 126.492C94.7318 126.485 93.9047 125.856 93.9184 124.934ZM93.9731 133.834H102.135V132.932H95.0531V130.457H93.9731V133.834ZM100.618 131.264H101.698V126.998H103.516V126.082H101.698V121.967H100.618V131.264ZM115.038 131.701H112.016V129.391H113.917V128.502H106.37V126.533H113.63V122.855H105.276V123.744H112.577V125.645H105.304V129.391H107.04V131.701H103.909V132.604H115.038V131.701ZM108.093 131.701V129.391H110.964V131.701H108.093ZM122.855 127.203H117.659V123.99H122.8V123.115H116.607V128.092H119.122V130.525C117.912 130.56 116.737 130.566 115.677 130.566L115.827 131.469C118.152 131.476 121.091 131.421 123.784 131.031L123.702 130.225C122.574 130.354 121.378 130.437 120.189 130.484V128.092H122.855V127.203ZM124.509 134.135H125.575V121.953H124.509V134.135ZM133.461 123.02H127.882V128.693H133.461V127.6H136.304V130.84H137.384V121.967H136.304V124.1H133.461V123.02ZM128.949 127.832V123.908H132.408V127.832H128.949ZM129.523 133.848H137.658V132.945H130.603V130.047H129.523V133.848ZM133.461 126.711V125.002H136.304V126.711H133.461ZM152.198 121.953H151.118V123.73H148.308C148.383 123.361 148.424 122.972 148.424 122.568H142.942V123.457H147.242C147.037 125.419 145.307 126.868 142.327 127.559L142.709 128.447C145.41 127.798 147.296 126.506 148.055 124.592H151.118V126.055H147.877V126.902H151.118V128.174H152.198V121.953ZM144.323 129.596H151.118V130.867H144.35V133.998H152.608V133.109H145.416V131.688H152.198V128.721H144.323V129.596ZM160.561 123.307H154.382V124.182H159.481C159.488 125.152 159.461 126.629 159.126 128.666L160.206 128.762C160.555 126.506 160.555 124.899 160.561 123.936V123.307ZM153.698 130.539L153.835 131.428C156.009 131.441 158.866 131.387 161.423 130.99L161.368 130.184C160.103 130.334 158.722 130.423 157.376 130.471V126.779H156.323V130.505C155.387 130.525 154.498 130.532 153.698 130.539ZM162.134 134.107H163.2V127.969H165.169V127.039H163.2V121.953H162.134V134.107ZM169.868 125.686V124.1H172.767V123.211H165.917V124.1H168.788V125.686C168.781 127.791 167.264 130.088 165.521 130.922L166.163 131.77C167.551 131.072 168.781 129.527 169.349 127.743C169.916 129.425 171.14 130.826 172.562 131.469L173.163 130.621C171.372 129.849 169.875 127.75 169.868 125.686ZM174.462 134.107H175.542V121.953H174.462V134.107ZM188.336 127.6H177.207V128.447H188.336V127.6ZM178.546 130.225H185.875V131.264H178.56V133.943H187.338V133.164H179.64V132.002H186.941V129.418H178.546V130.225ZM178.615 123.102H185.82V124.1H178.656V126.684H187.119V125.904H179.722V124.838H186.9V122.322H178.615V123.102ZM201.536 121.953H200.469V129.062H201.536V125.795H203.368V124.893H201.536V121.953ZM192.553 128.297H198.213V122.65H197.147V124.51H193.606V122.65H192.553V128.297ZM193.606 127.436V125.371H197.147V127.436H193.606ZM193.907 133.943H201.864V133.068H194.973V130.607H201.631V129.746H193.907V133.943ZM209.27 122.172C206.556 122.172 204.964 122.917 204.964 124.264C204.964 125.645 206.556 126.39 209.27 126.396C211.971 126.39 213.556 125.645 213.563 124.264C213.556 122.917 211.971 122.172 209.27 122.172ZM203.733 128.092H214.807V127.217H203.733V128.092ZM205.073 129.965H212.333V131.072H205.1V133.971H213.755V133.123H206.167V131.865H213.386V129.145H205.073V129.965ZM206.085 124.264C206.071 123.464 207.254 122.985 209.27 122.979C211.287 122.985 212.463 123.464 212.47 124.264C212.463 125.111 211.287 125.576 209.27 125.576C207.254 125.576 206.071 125.111 206.085 124.264ZM224.644 123.088V122.391H223.537V123.088C223.537 124.831 221.315 126.28 219.121 126.588L219.558 127.463C221.452 127.148 223.318 126.116 224.097 124.612C224.877 126.103 226.75 127.148 228.636 127.463L229.074 126.588C226.88 126.28 224.651 124.804 224.644 123.088ZM218.546 129.705H223.537V134.107H224.589V129.705H229.621V128.803H218.546V129.705ZM237.475 130.115V129.445H236.436V130.115C236.422 131.277 235.499 132.576 233.961 133.15L234.508 133.943C235.67 133.506 236.504 132.658 236.942 131.681C237.304 132.699 238.056 133.588 239.239 134.039C240.36 133.567 241.105 132.631 241.481 131.646C241.905 132.665 242.752 133.513 243.969 133.943L244.502 133.15C242.944 132.61 242.021 131.366 242.028 130.115V129.445H240.975V130.115C240.982 131.052 240.367 132.269 239.204 132.986C238.049 132.33 237.468 131.188 237.475 130.115ZM233.647 125.521C233.64 127.189 234.987 128.338 236.832 128.338C238.678 128.338 240.011 127.189 240.018 125.521C240.011 123.826 238.678 122.671 236.832 122.678C234.987 122.671 233.64 123.826 233.647 125.521ZM234.7 125.521C234.686 124.387 235.581 123.58 236.832 123.594C238.07 123.58 238.965 124.387 238.965 125.521C238.965 126.649 238.07 127.442 236.832 127.449C235.581 127.442 234.686 126.649 234.7 125.521ZM242.329 128.912H243.395V121.967H242.329V128.912ZM248.327 122.896C246.529 122.903 245.271 124.551 245.278 127.135C245.271 129.726 246.529 131.366 248.327 131.359C250.022 131.366 251.239 129.876 251.355 127.49H254.069V134.135H255.136V121.953H254.069V126.602H251.342C251.178 124.325 249.981 122.903 248.327 122.896ZM246.304 127.135C246.31 125.159 247.131 123.86 248.327 123.854C249.516 123.86 250.35 125.159 250.35 127.135C250.35 129.11 249.516 130.409 248.327 130.402C247.131 130.409 246.31 129.11 246.304 127.135ZM267.888 131.646H265.126V128.338C266.131 127.798 266.739 126.937 266.739 125.85C266.739 123.97 264.894 122.732 262.296 122.719C259.698 122.732 257.853 123.97 257.853 125.85C257.853 126.957 258.482 127.832 259.521 128.372V131.646H256.759V132.549H267.888V131.646ZM258.892 125.85C258.885 124.489 260.3 123.594 262.296 123.607C264.272 123.594 265.7 124.489 265.7 125.85C265.7 127.21 264.272 128.119 262.296 128.119C260.3 128.119 258.885 127.21 258.892 125.85ZM260.573 131.646V128.762C261.093 128.898 261.674 128.967 262.296 128.967C262.932 128.967 263.52 128.892 264.046 128.755V131.646H260.573ZM269.744 133.082C270.229 133.075 270.626 132.679 270.619 132.193C270.626 131.715 270.229 131.318 269.744 131.318C269.265 131.318 268.855 131.715 268.869 132.193C268.855 132.679 269.265 133.075 269.744 133.082Z" fill="#0A0A0A" fill-opacity="0.45"/>
<g opacity="0.2">
<path d="M45.2972 7.6167L43.2649 37.5433L45.8259 37.816L47.2578 8.10632L45.2972 7.6167Z" fill="#171F69"/>
<path d="M56.536 22.0751L34.8516 20.8737L34.5871 23.3575L56.1301 23.9822L56.536 22.0751Z" fill="#171F69"/>
<path d="M53.0591 29.8179L39.3939 14.5549L38.0641 15.6146L51.8937 30.5051L53.0591 29.8179Z" fill="#171F69"/>
<path d="M38.2976 29.9777L53.9024 16.7708L52.8255 15.4547L37.6071 28.8433L38.2976 29.9777Z" fill="#171F69"/>
</g>
<g opacity="0.4">
<path d="M28.999 33.5737L29.2868 35.7523C29.5944 38.0323 30.9968 40.0086 33.0497 41.0451L33.4199 41.2297C34.6601 41.8586 34.4653 43.6877 33.1205 44.0414L32.7197 44.1439C30.4946 44.7249 28.6998 46.3606 27.9266 48.5256L27.1864 50.5947C26.6535 52.082 24.4766 51.8502 24.2689 50.284L23.9811 48.1054C23.6735 45.8254 22.271 43.8491 20.2181 42.8126L19.8479 42.628C18.6077 41.999 18.8025 40.17 20.1473 39.8163L20.5481 39.7138C22.7732 39.1328 24.568 37.4971 25.3413 35.3321L26.0814 33.263C26.6144 31.7757 28.7912 32.0075 28.999 33.5737Z" fill="#5AC4B1"/>
</g>
<g opacity="0.2">
<path d="M227.703 7.6167L229.735 37.5433L227.174 37.816L225.742 8.10632L227.703 7.6167Z" fill="#171F69"/>
<path d="M216.464 22.0751L238.148 20.8737L238.413 23.3575L216.87 23.9822L216.464 22.0751Z" fill="#171F69"/>
<path d="M219.941 29.8179L233.606 14.5549L234.936 15.6146L221.106 30.5051L219.941 29.8179Z" fill="#171F69"/>
<path d="M234.702 29.9777L219.098 16.7708L220.174 15.4547L235.393 28.8433L234.702 29.9777Z" fill="#171F69"/>
</g>
<g opacity="0.4">
<path d="M244.001 33.5737L243.713 35.7523C243.406 38.0323 242.003 40.0086 239.95 41.0451L239.58 41.2297C238.34 41.8586 238.535 43.6877 239.879 44.0414L240.28 44.1439C242.505 44.7249 244.3 46.3606 245.073 48.5256L245.814 50.5947C246.347 52.082 248.523 51.8502 248.731 50.284L249.019 48.1054C249.327 45.8254 250.729 43.8491 252.782 42.8126L253.152 42.628C254.392 41.999 254.197 40.17 252.853 39.8163L252.452 39.7138C250.227 39.1328 248.432 37.4971 247.659 35.3321L246.919 33.263C246.386 31.7757 244.209 32.0075 244.001 33.5737Z" fill="#5AC4B1"/>
</g>
<path d="M121.74 10.0093C121.767 10.0266 121.767 10.0266 121.74 10.0093V10.0093Z" fill="#00C7B1"/>
<path d="M121.668 9.96143C121.7 9.98136 121.728 9.9973 121.744 10.0093C121.728 10.0013 121.704 9.98534 121.668 9.96143Z" fill="#00C7B1"/>
<path d="M123.92 7.60603C124.077 7.24731 124.162 6.81685 124.125 6.29074C124.125 6.29074 126.096 1.13719 123.259 0.132788C121.414 -0.520872 120.286 1.37235 120.068 2.8949C118.876 1.61548 117.304 0.611075 115.866 1.87455C115.024 2.6159 115.177 3.73589 115.947 4.95951C114.891 4.55695 113.831 4.61275 113.102 5.78057C111.881 7.73756 115.024 9.45939 117.981 10.2167C119.279 10.5475 123.799 8.35535 123.916 7.614C123.916 7.614 123.916 7.61001 123.916 7.60603H123.92Z" fill="#00C7B1"/>
<path d="M136.78 2.27344C122.341 2.27344 110.637 13.852 110.637 28.1368C110.637 42.4217 122.341 54.0002 136.78 54.0002C151.22 54.0002 162.924 42.4217 162.924 28.1368C162.924 13.852 151.22 2.27344 136.78 2.27344Z" fill="#00C7B1"/>
<g clip-path="url(#clip0_947_3851)">
<path d="M134.534 26.9922C134.374 26.9922 134.243 26.8629 134.243 26.7006C134.243 23.8785 131.947 21.5832 129.125 21.5832C126.303 21.5832 124.006 23.8785 124.006 26.7006C124.006 26.8605 123.876 26.9922 123.714 26.9922C123.552 26.9922 123.422 26.8629 123.422 26.7006C123.425 23.5563 125.981 21 129.123 21C132.265 21 134.823 23.5563 134.823 26.7006C134.823 26.8605 134.694 26.9922 134.532 26.9922H134.534Z" fill="#191919"/>
<path d="M150.822 26.9922C150.662 26.9922 150.531 26.8629 150.531 26.7006C150.531 23.8785 148.235 21.5832 145.413 21.5832C142.591 21.5832 140.296 23.8785 140.296 26.7006C140.296 26.8605 140.167 26.9922 140.004 26.9922C139.842 26.9922 139.713 26.8629 139.713 26.7006C139.713 23.5563 142.269 21 145.413 21C148.558 21 151.114 23.5563 151.114 26.7006C151.114 26.8605 150.985 26.9922 150.822 26.9922Z" fill="#191919"/>
<path d="M148.654 34.9857C148.278 34.9857 147.972 34.68 147.972 34.3037C147.972 32.8527 146.582 31.6698 144.875 31.6698C143.167 31.6698 141.778 32.8503 141.778 34.3037C141.778 34.68 141.472 34.9857 141.096 34.9857C140.719 34.9857 140.414 34.68 140.414 34.3037C140.414 32.1001 142.415 30.3081 144.872 30.3081C147.33 30.3081 149.331 32.1001 149.331 34.3037C149.331 34.68 149.026 34.9857 148.649 34.9857H148.654Z" fill="#191919"/>
<path d="M132.902 34.5814C132.526 34.5814 132.22 34.2757 132.22 33.8994C132.22 32.4484 130.83 31.2655 129.123 31.2655C127.415 31.2655 126.026 32.446 126.026 33.8994C126.026 34.2757 125.72 34.5814 125.344 34.5814C124.967 34.5814 124.662 34.2757 124.662 33.8994C124.662 31.6958 126.663 29.9038 129.121 29.9038C131.578 29.9038 133.579 31.6958 133.579 33.8994C133.579 34.2757 133.274 34.5814 132.897 34.5814H132.902Z" fill="#191919"/>
<path d="M140.719 40.625C141.258 39.8795 141.578 38.9129 141.676 37.7535C141.709 37.3725 141.354 37.0786 140.987 37.1844C137.427 38.198 134.325 37.6947 132.952 37.3655C132.585 37.2785 132.255 37.6007 132.338 37.9675C132.509 38.7318 132.876 39.8912 133.641 40.8272C134.264 40.2769 135.362 39.6514 137.14 39.6514C138.483 39.6514 139.774 40.0676 140.722 40.625H140.719Z" fill="#191919"/>
<path d="M136.872 42.3417C138.64 42.3417 139.92 41.7303 140.719 40.625C139.774 40.0676 138.48 39.6514 137.138 39.6514C135.36 39.6514 134.261 40.2746 133.638 40.8272C134.334 41.6809 135.362 42.3441 136.872 42.3441V42.3417Z" fill="#FC8181"/>
<path d="M129.123 40.1784C125.718 40.1784 122.947 37.4081 122.947 34.0028C122.947 30.5975 125.718 27.8271 129.123 27.8271C132.528 27.8271 135.298 30.5975 135.298 34.0028C135.298 37.4081 132.528 40.1784 129.123 40.1784ZM129.123 28.6808C126.188 28.6808 123.801 31.0678 123.801 34.0028C123.801 36.9378 126.188 39.3248 129.123 39.3248C132.058 39.3248 134.445 36.9378 134.445 34.0028C134.445 31.0678 132.058 28.6808 129.123 28.6808Z" fill="#151F6D"/>
<path d="M128.587 27.8528C128.587 27.8528 124.69 27.8176 121.237 33.196C121.075 33.4476 120.991 33.7416 121 34.0403L121.038 35.1103C121.054 35.6183 121.336 36.0816 121.781 36.3285L125.294 38.2875C125.294 38.2875 123.229 35.9428 123.425 33.2477C123.594 31.9895 124.979 28.1915 128.587 27.8481V27.8528Z" fill="#151F6D"/>
<path d="M144.877 40.1784C141.472 40.1784 138.701 37.4081 138.701 34.0028C138.701 30.5975 141.472 27.8271 144.877 27.8271C148.282 27.8271 151.053 30.5975 151.053 34.0028C151.053 37.4081 148.282 40.1784 144.877 40.1784ZM144.877 28.6808C141.942 28.6808 139.555 31.0678 139.555 34.0028C139.555 36.9378 141.942 39.3248 144.877 39.3248C147.812 39.3248 150.199 36.9378 150.199 34.0028C150.199 31.0678 147.812 28.6808 144.877 28.6808Z" fill="#151F6D"/>
<path d="M145.413 27.8529C145.413 27.8529 149.31 27.8177 152.762 33.1961C152.925 33.4477 153.009 33.7417 152.998 34.0427L152.96 35.1127C152.944 35.6207 152.661 36.084 152.217 36.3309L148.703 38.2899C148.703 38.2899 150.768 35.9452 150.573 33.2502C150.404 31.992 149.019 28.1939 145.411 27.8506L145.413 27.8529Z" fill="#151F6D"/>
<path d="M139.482 34.0075H138.777C138.777 33.1703 137.979 32.4907 137.001 32.4907C136.023 32.4907 135.226 33.1727 135.226 34.0075H134.52C134.52 32.7823 135.632 31.7852 137.001 31.7852C138.37 31.7852 139.482 32.7823 139.482 34.0075Z" fill="#151F6D"/>
</g>
<path d="M172.349 45.108C172.708 43.7628 171.494 42.2791 169.637 41.7942C167.78 41.3092 165.984 42.0066 165.625 43.3518C165.266 44.6971 166.48 46.1807 168.337 46.6657C170.193 47.1506 171.99 46.4532 172.349 45.108Z" fill="#00C7B1"/>
<path d="M166.724 42.2224C166.724 42.2224 166.716 38.7026 167.892 38.6588C169.069 38.6149 169.069 41.0146 168.351 42.609C167.634 44.2035 167.034 43.8846 167.034 43.8846L166.72 42.2224H166.724Z" fill="#00C7B1"/>
<path d="M168.698 41.5488C168.698 41.5488 169.028 41.0744 169.754 41.3654C170.479 41.6524 170.479 42.1029 170.479 42.1029C170.479 42.1029 170.902 41.8358 171.546 42.1945C172.57 42.7606 172.143 43.6056 172.143 43.6056C172.143 43.6056 170.986 43.7053 169.314 43.0077C167.642 42.3101 168.698 41.5528 168.698 41.5528V41.5488Z" fill="#00C7B1"/>
<path d="M107.562 46.8175C106.958 46.8175 106.442 46.3591 106.394 45.7493C106.011 41.1976 107.591 38.3877 108.985 36.8293C110.524 35.1074 112.196 34.4936 112.268 34.4657C112.877 34.2465 113.554 34.5574 113.775 35.1632C113.997 35.7651 113.682 36.4307 113.078 36.6499C112.861 36.7336 108.155 38.591 108.739 45.554C108.791 46.1957 108.312 46.7577 107.663 46.8095C107.631 46.8095 107.599 46.8135 107.566 46.8135L107.562 46.8175Z" fill="#00C7B1"/>
<path d="M165.161 47.3807C164.149 47.3807 163.162 47.1934 162.207 46.8187C157.538 44.9891 155.358 39.3089 155.269 39.0657C155.044 38.4638 155.354 37.7941 155.962 37.5709C156.571 37.3477 157.248 37.6546 157.473 38.2565C157.506 38.3362 159.399 43.2232 163.082 44.6622C164.754 45.3159 166.522 45.1645 168.484 44.1998C169.065 43.9128 169.77 44.148 170.06 44.726C170.35 45.304 170.112 45.9976 169.528 46.2846C168.037 47.018 166.575 47.3847 165.165 47.3847L165.161 47.3807Z" fill="#00C7B1"/>
<path d="M105.439 50.4891C106.285 50.7801 106.591 49.2574 106.632 48.4602C106.632 48.4602 106.632 48.4602 106.636 48.4602C106.64 50.3974 106.632 51.5813 107.591 51.4737C108.678 51.3541 108.11 48.4402 108.11 48.4402C108.11 48.4402 108.67 50.8917 109.492 50.8359C110.314 50.7801 110.395 49.3052 109.609 47.8144C109.77 48.5797 110.475 49.6719 111.064 49.4447C112.506 48.8867 110.455 46.4272 110.314 45.7974C110.04 44.5538 108.67 43.904 107.031 44.4382C105.629 44.8966 104.791 46.1482 105.153 47.2324C105.197 47.364 105.258 47.4836 105.326 47.5952C105.089 48.4283 104.674 50.226 105.439 50.4891Z" fill="#00C7B1"/>
<path d="M171.695 44.1475C171.53 44.5103 171.176 44.9647 170.712 44.7774C170.479 44.6817 170.451 44.4585 170.451 44.2352C170.451 43.9283 170.491 43.6254 170.559 43.3264C170.596 43.163 170.35 43.0354 170.269 43.2068C170.12 43.5257 169.955 43.8366 169.774 44.1356C169.697 44.2631 169.612 44.3987 169.455 44.4385C169.334 44.4704 169.198 44.4385 169.089 44.3827C168.48 44.0638 168.742 43.1391 168.783 42.6129C168.799 42.4096 168.48 42.4136 168.464 42.6129C168.416 43.2985 168.178 44.3349 169.004 44.6897C169.318 44.8252 169.681 44.7694 169.903 44.5023C169.987 44.4027 170.06 44.2871 170.132 44.1715C170.132 44.2392 170.132 44.311 170.132 44.3787C170.152 44.6857 170.289 44.9488 170.583 45.0683C171.196 45.3195 171.728 44.8292 171.961 44.311C172.046 44.1276 171.772 43.9682 171.687 44.1515L171.695 44.1475Z" fill="#191919"/>
<path d="M167.574 42.8558C167.26 42.6964 166.909 42.5489 166.546 42.5449C166.361 42.5449 166.172 42.5848 166.019 42.6924C165.833 42.82 165.745 43.0153 165.676 43.2226C165.519 43.7129 165.483 44.259 165.761 44.7094C165.866 44.8808 166.144 44.7253 166.035 44.5499C165.793 44.1553 165.853 43.685 165.994 43.2664C166.055 43.0831 166.156 42.9316 166.353 42.8758C166.518 42.8319 166.696 42.8598 166.857 42.8997C167.127 42.9714 167.457 43.091 167.671 43.2784C167.799 43.394 167.957 43.661 167.783 43.8045C167.691 43.8843 167.509 43.9042 167.393 43.9161C167.252 43.9281 167.119 43.9122 166.982 43.8763C166.812 43.8324 166.696 44.0796 166.861 44.1633C167.384 44.4224 167.566 45.0522 167.247 45.5425C167.139 45.7139 167.413 45.8694 167.521 45.7019C167.824 45.2316 167.771 44.6376 167.441 44.2271C167.775 44.2031 168.102 44.0756 168.162 43.7447C168.239 43.3302 167.912 43.0233 167.574 42.8519V42.8558Z" fill="#191919"/>
<defs>
<clipPath id="clip0_947_3851">
<rect width="32" height="21.342" fill="white" transform="translate(121 21)"/>
</clipPath>
</defs>
</svg>
