<svg width="275" height="138" viewBox="0 0 275 138" fill="none" xmlns="http://www.w3.org/2000/svg">
<path d="M64.5977 70.0977H55.668V71.8906H57.0918V79.1064C56.4502 79.1152 55.835 79.1152 55.2637 79.1152L55.5098 80.9434C58.2607 80.9258 61.917 80.8643 65.1953 80.293L65.0723 78.6758C64.457 78.7549 63.8242 78.8164 63.1738 78.8691V71.8906H64.5977V70.0977ZM59.2539 79.0713V71.8906H61.0117V79.001C60.4229 79.0273 59.834 79.0537 59.2539 79.0713ZM65.8457 84.6172H68.0957V76.5312H70.4512V74.7031H68.0957V68.6211H65.8457V84.6172ZM75.184 69.0957C72.7143 69.0869 70.8773 70.6162 70.8773 72.752C70.8773 74.8701 72.7143 76.3818 75.184 76.3906C77.6186 76.3818 79.4467 74.8701 79.4555 72.752C79.4467 70.6162 77.6186 69.0869 75.184 69.0957ZM73.057 72.752C73.0395 71.6006 73.9535 70.9238 75.184 70.9238C76.3969 70.9238 77.2846 71.6006 77.2934 72.752C77.2846 73.8945 76.3969 74.5713 75.184 74.5801C73.9447 74.5713 73.0395 73.8945 73.057 72.752ZM73.2855 79.0273H81.7934V80.0117H73.3207V84.4414H84.4652V82.6836H75.518V81.6465H84.0258V77.3047H73.2855V79.0273ZM81.7758 76.6367H84.0258V68.6211H81.7758V76.6367ZM93.0828 68.8496C89.3914 68.8496 87.2469 69.8164 87.2469 71.5742C87.2469 73.3584 89.3914 74.3164 93.0828 74.3164C96.7654 74.3164 98.8924 73.3584 98.9012 71.5742C98.8924 69.8164 96.7654 68.8496 93.0828 68.8496ZM85.7879 76.8477H100.378V75.0723H85.7879V76.8477ZM87.4754 79.4141H96.3875V80.293H87.493V84.5117H99.0242V82.8242H89.6902V81.8574H98.6023V77.7793H87.4754V79.4141ZM89.6023 71.5742C89.5936 70.8623 90.7361 70.4844 93.0828 70.4844C95.4471 70.4844 96.5809 70.8623 96.5809 71.5742C96.5809 72.3564 95.4471 72.6641 93.0828 72.6641C90.7361 72.6641 89.5936 72.3564 89.6023 71.5742ZM157.88 71.0645H155.137V69.0605H152.923V71.0645H150.145V72.8398H157.88V71.0645ZM150.514 77.3574C150.514 79.5898 152.009 81.1719 154.048 81.1719C156.096 81.1719 157.554 79.5898 157.563 77.3574C157.554 75.1338 156.096 73.5693 154.048 73.5605C152.009 73.5693 150.514 75.1338 150.514 77.3574ZM152.483 77.3574C152.483 76.1533 153.116 75.4238 154.048 75.4238C154.944 75.4238 155.586 76.1533 155.595 77.3574C155.586 78.5791 154.944 79.2734 154.048 79.2734C153.116 79.2734 152.483 78.5791 152.483 77.3574ZM158.477 83.9316H160.569V76.918H161.87V84.6172H163.997V68.6211H161.87V75.125H160.569V68.9375H158.477V83.9316ZM183.658 77.4453H169.068V79.2383H175.22V84.6172H177.435V79.2383H183.658V77.4453ZM169.789 74.7559L170.615 76.5137C173.401 76.1357 175.396 74.9404 176.372 73.2969C177.338 74.9404 179.351 76.1357 182.164 76.5137L182.972 74.7559C179.685 74.3604 177.919 72.7959 177.69 71.2227H182.357V69.4648H170.386V71.2227H175.053C174.816 72.7959 173.023 74.3604 169.789 74.7559ZM189.357 72.6465V69.9922H187.178V72.752C187.178 75.459 186.299 78.2803 183.926 79.748L185.297 81.4004C186.747 80.5215 187.705 79.001 188.276 77.1904C188.786 78.8252 189.656 80.2139 191.045 81.0488L192.258 79.3086C190.069 77.9111 189.349 75.2393 189.357 72.6465ZM190.57 75.8457H192.645V83.8789H194.736V68.8496H192.645V74.0176H190.57V75.8457ZM195.949 84.6172H198.094V68.6211H195.949V84.6172ZM214.024 80.9082H210.772V76.9443C211.976 76.1973 212.697 75.0811 212.705 73.7012C212.697 71.1084 210.139 69.4033 206.676 69.3945C203.196 69.4033 200.664 71.1084 200.664 73.7012C200.664 75.1074 201.412 76.2412 202.651 76.9883V80.9082H199.381V82.7539H214.024V80.9082ZM202.879 73.7012C202.879 72.0928 204.382 71.1611 206.676 71.1699C208.935 71.1611 210.482 72.0928 210.491 73.7012C210.482 75.2656 208.935 76.2324 206.676 76.2324C204.382 76.2324 202.879 75.2656 202.879 73.7012ZM204.866 80.9082V77.8057C205.428 77.9111 206.035 77.9727 206.676 77.9727C207.318 77.9727 207.933 77.9111 208.504 77.7969V80.9082H204.866ZM216.612 83.1582C217.394 83.1582 218.071 82.499 218.071 81.6816C218.071 80.873 217.394 80.2139 216.612 80.2227C215.786 80.2139 215.118 80.873 215.136 81.6816C215.118 82.499 215.786 83.1582 216.612 83.1582Z" fill="#0A0A0A"/>
<path d="M118.65 68.6211H116.505V74.7734H115.152V68.8496H113.025V79.2646C110.617 78.0166 109.791 75.3623 109.791 72.5762V72.0664H112.234V70.2734H104.904V72.0664H107.611V72.5762C107.602 75.6348 106.794 78.4648 104.359 79.8359L105.748 81.5586C107.277 80.6445 108.217 79.1152 108.745 77.2432C109.316 78.8691 110.274 80.1963 111.759 80.9785L113.025 79.2998V83.8789H115.152V76.6016H116.505V84.6172H118.65V68.6211ZM134.475 75.9336H119.85V77.7617H134.475V75.9336ZM121.52 81.6641C121.52 83.5537 123.629 84.626 127.127 84.6172C130.599 84.626 132.682 83.5537 132.699 81.6641C132.682 79.7832 130.599 78.7197 127.127 78.7285C123.629 78.7197 121.52 79.7832 121.52 81.6641ZM121.625 74.8086H132.805V73.0332H123.857V70.8535H132.717V69.043H121.625V74.8086ZM123.805 81.6641C123.796 80.8555 124.912 80.4336 127.127 80.4336C129.298 80.4336 130.44 80.8555 130.449 81.6641C130.44 82.5078 129.298 82.9121 127.127 82.9121C124.912 82.9121 123.796 82.5078 123.805 81.6641ZM149.631 77.1992H143.426V76.0391H148.155V74.3164H139.049V73.2617H147.856V68.9199H136.782V70.6602H145.606V71.6445H136.817V76.0391H141.194V77.1992H134.989V78.9922H149.631V77.1992ZM136.623 81.6641H145.676V84.5469H147.944V79.9062H136.623V81.6641Z" fill="#FD7473"/>
<path d="M20.5588 102.896C18.7541 102.903 17.4895 104.551 17.4963 107.135C17.4895 109.726 18.7541 111.366 20.5588 111.359C22.3498 111.366 23.6213 109.726 23.635 107.135C23.6213 104.551 22.3498 102.903 20.5588 102.896ZM18.508 107.135C18.5148 105.159 19.3557 103.86 20.5588 103.854C21.7756 103.86 22.5959 105.159 22.5959 107.135C22.5959 109.11 21.7756 110.409 20.5588 110.402C19.3557 110.409 18.5148 109.11 18.508 107.135ZM25.6447 114.107H26.7111V107.736H28.7482V106.807H26.7111V101.953H25.6447V114.107ZM39.026 101.953H37.9459V114.135H39.026V101.953ZM29.4557 107.135C29.4625 109.726 30.7477 111.366 32.5592 111.359C34.3639 111.366 35.6695 109.726 35.6627 107.135C35.6695 104.551 34.3639 102.903 32.5592 102.896C30.7477 102.903 29.4625 104.551 29.4557 107.135ZM30.4947 107.135C30.4947 105.159 31.3424 103.86 32.5592 103.854C33.7828 103.86 34.6236 105.159 34.6236 107.135C34.6236 109.11 33.7828 110.409 32.5592 110.402C31.3424 110.409 30.4947 109.11 30.4947 107.135ZM50.1104 101.953H49.0439V114.107H50.1104V107.805H52.0791V106.902H50.1104V101.953ZM40.7861 110.949L41.3877 111.797C45.3457 109.842 46.959 106.704 46.9658 103.266H41.3467V104.168H45.8789C45.6328 107.046 43.9238 109.391 40.7861 110.949ZM64.951 101.953H63.8709V114.107H64.951V108.037H66.8924V107.135H64.951V101.953ZM55.367 110.867L55.5447 111.783C57.6775 111.783 60.5486 111.756 63.201 111.305L63.1326 110.484C62.0731 110.635 60.9246 110.73 59.7967 110.785V109.486C61.2049 109.322 62.1414 108.495 62.1482 107.285C62.1414 105.911 60.9588 105.022 59.2635 105.029C57.5408 105.022 56.3787 105.911 56.3924 107.285C56.3787 108.488 57.3016 109.322 58.7166 109.486V110.826C57.5135 110.86 56.3582 110.867 55.367 110.867ZM55.5857 104.318H62.9139V103.443H59.7967V101.98H58.7166V103.443H55.5857V104.318ZM57.3904 107.285C57.3973 106.438 58.1356 105.863 59.2635 105.863C60.3709 105.863 61.116 106.438 61.1229 107.285C61.116 108.126 60.3709 108.68 59.2635 108.666C58.1356 108.68 57.3973 108.126 57.3904 107.285ZM73.3693 103.02H67.7912V108.693H73.3693V107.6H76.2131V110.84H77.2932V101.967H76.2131V104.1H73.3693V103.02ZM68.8576 107.832V103.908H72.3166V107.832H68.8576ZM69.4318 113.848H77.5666V112.945H70.5119V110.047H69.4318V113.848ZM73.3693 106.711V105.002H76.2131V106.711H73.3693ZM93.1045 107.641H82.0303V108.529H87.0342V109.828C84.7168 109.931 83.3633 110.676 83.3701 111.961C83.3633 113.321 84.9287 114.08 87.5674 114.08C90.1719 114.08 91.7373 113.321 91.751 111.961C91.7373 110.676 90.377 109.931 88.0869 109.828V108.529H93.1045V107.641ZM82.6592 106.055L83.042 106.902C85.0449 106.663 86.8975 105.768 87.5674 104.421C88.2373 105.768 90.1035 106.663 92.0928 106.902L92.4893 106.055C90.3496 105.836 88.3398 104.763 88.2646 103.402H92.1201V102.527H83.042V103.402H86.8701C86.7949 104.763 84.7646 105.836 82.6592 106.055ZM84.4639 111.961C84.4502 111.134 85.6191 110.662 87.5674 110.648C89.4951 110.662 90.6641 111.134 90.6709 111.961C90.6641 112.768 89.4951 113.253 87.5674 113.246C85.6191 113.253 84.4502 112.768 84.4639 111.961ZM103.765 101.967H102.699V108.871H103.765V101.967ZM93.8256 107.709L94.3725 108.557C95.8217 108.017 96.9565 106.896 97.4965 105.487C98.0434 106.813 99.1713 107.839 100.579 108.324L101.126 107.504C99.3354 106.868 98.0229 105.351 98.0365 103.635V102.445H96.9428V103.635C96.9428 105.419 95.6645 107.066 93.8256 107.709ZM95.8627 113.943H103.765V109.568H95.8627V113.943ZM96.9154 113.068V110.443H102.712V113.068H96.9154ZM115.847 101.953H114.808V114.107H115.847V101.953ZM105.58 107.203C105.587 109.787 106.612 111.435 108.191 111.428C109.688 111.435 110.707 109.951 110.809 107.586H112.375V113.492H113.4V102.213H112.375V106.697H110.803C110.666 104.407 109.668 102.985 108.191 102.979C106.612 102.985 105.587 104.619 105.58 107.203ZM106.592 107.203C106.578 105.228 107.207 103.99 108.191 103.99C109.182 103.99 109.811 105.228 109.804 107.203C109.811 109.172 109.182 110.416 108.191 110.402C107.207 110.416 106.578 109.172 106.592 107.203ZM121.408 105.221V103.006H120.315V105.221C120.308 107.463 118.9 109.801 117.115 110.676L117.813 111.537C119.194 110.806 120.335 109.247 120.875 107.429C121.415 109.158 122.557 110.607 123.938 111.318L124.58 110.443C122.817 109.637 121.402 107.422 121.408 105.221ZM123.254 106.984H126.139V114.135H127.205V101.953H126.139V106.109H123.254V106.984ZM133.624 102.691H132.558V108.434H138.067V106.109H140.938V110.375H142.019V101.953H140.938V105.221H138.067V102.691H137.015V104.66H133.624V102.691ZM133.419 113.219L133.815 114.053C135.654 113.731 137.35 112.781 138.081 111.387C138.806 112.795 140.508 113.731 142.36 114.053L142.784 113.219C140.604 112.863 138.635 111.578 138.642 109.869V109.514H137.548V109.869C137.534 111.537 135.552 112.843 133.419 113.219ZM133.624 107.559V105.521H137.015V107.559H133.624ZM146.91 102.896C145.112 102.903 143.854 104.551 143.861 107.135C143.854 109.726 145.112 111.366 146.91 111.359C148.605 111.366 149.822 109.876 149.938 107.49H152.652V114.135H153.718V101.953H152.652V106.602H149.924C149.76 104.325 148.564 102.903 146.91 102.896ZM144.886 107.135C144.893 105.159 145.713 103.86 146.91 103.854C148.099 103.86 148.933 105.159 148.933 107.135C148.933 109.11 148.099 110.409 146.91 110.402C145.713 110.409 144.893 109.11 144.886 107.135ZM166.717 106.807H164.748V101.953H163.681V114.107H164.748V107.709H166.717V106.807ZM155.847 111.018H156.818C158.657 111.018 160.544 110.895 162.642 110.471L162.506 109.555C160.503 109.979 158.691 110.115 156.914 110.115V103.156H155.847V111.018ZM181.243 107.969H176.212V106.547H179.944V105.672H172.616V103.389H179.862V102.527H171.563V106.547H175.172V107.969H170.155V108.83H181.243V107.969ZM171.495 111.906C171.488 113.308 173.067 114.094 175.692 114.107C178.296 114.094 179.862 113.308 179.876 111.906C179.862 110.519 178.296 109.726 175.692 109.719C173.067 109.726 171.488 110.519 171.495 111.906ZM172.588 111.906C172.575 111.065 173.744 110.566 175.692 110.566C177.62 110.566 178.789 111.065 178.796 111.906C178.789 112.761 177.62 113.253 175.692 113.246C173.744 113.253 172.575 112.761 172.588 111.906ZM185.204 102.691C183.386 102.685 182.039 103.874 182.046 105.576C182.039 107.265 183.386 108.454 185.204 108.447C186.229 108.454 187.104 108.064 187.665 107.422H190.851V109.158H191.931V101.953H190.851V103.717H187.665C187.098 103.074 186.229 102.685 185.204 102.691ZM183.071 105.576C183.071 104.421 183.96 103.614 185.204 103.621C186.407 103.614 187.31 104.421 187.31 105.576C187.31 106.704 186.407 107.538 185.204 107.531C183.96 107.538 183.071 106.704 183.071 105.576ZM183.823 111.756C183.816 113.232 185.375 114.08 187.897 114.08C190.413 114.08 191.972 113.232 191.972 111.756C191.972 110.293 190.413 109.445 187.897 109.445C185.375 109.445 183.816 110.293 183.823 111.756ZM184.876 111.756C184.869 110.833 186.031 110.286 187.897 110.279C189.764 110.286 190.926 110.833 190.919 111.756C190.926 112.672 189.764 113.226 187.897 113.219C186.031 113.226 184.869 112.672 184.876 111.756ZM188.178 104.592H190.851V106.533H188.185C188.287 106.239 188.349 105.918 188.349 105.576C188.349 105.221 188.287 104.893 188.178 104.592ZM197.615 103.922V102.582H196.562V103.84C196.555 105.72 195.331 107.347 193.513 108.023L194.087 108.885C195.509 108.331 196.596 107.217 197.116 105.774C197.649 107.046 198.708 108.051 200.048 108.543L200.636 107.695C198.872 107.094 197.615 105.576 197.615 103.922ZM195.126 111.865C195.133 113.28 196.658 114.08 199.16 114.08C201.655 114.08 203.165 113.28 203.165 111.865C203.165 110.478 201.655 109.664 199.16 109.664C196.658 109.664 195.133 110.478 195.126 111.865ZM196.206 111.865C196.193 111.038 197.328 110.525 199.16 110.525C200.998 110.525 202.12 111.038 202.126 111.865C202.12 112.727 200.998 113.226 199.16 113.232C197.328 113.226 196.193 112.727 196.206 111.865ZM201.99 109.35H203.056V106.027H204.888V105.125H203.056V101.953H201.99V109.35ZM210.791 102.746C208.255 102.753 206.347 104.079 206.347 106.082C206.347 108.105 208.255 109.432 210.791 109.418C213.327 109.432 215.234 108.105 215.234 106.082C215.234 104.079 213.327 102.753 210.791 102.746ZM205.254 112.494H216.383V111.592H205.254V112.494ZM207.373 106.082C207.359 104.626 208.829 103.614 210.791 103.621C212.739 103.614 214.195 104.626 214.195 106.082C214.195 107.559 212.739 108.543 210.791 108.543C208.829 108.543 207.359 107.559 207.373 106.082ZM228.082 111.701H223.01V109.404H226.961V108.516H219.414V106.533H226.674V102.855H218.321V103.744H225.621V105.658H218.348V109.404H221.957V111.701H216.953V112.604H228.082V111.701ZM233.339 102.473H232.286V107.764H237.946V102.473H236.88V104.223H233.339V102.473ZM233.339 106.889V105.057H236.88V106.889H233.339ZM233.517 109.678H240.202V110.936H233.544V113.971H241.72V113.096H234.597V111.756H241.269V108.816H233.517V109.678ZM240.202 108.242H241.269V105.494H243.101V104.592H241.269V101.953H240.202V108.242ZM249.427 102.664H244.027V107.613H244.97C247.472 107.627 248.955 107.559 250.699 107.189L250.562 106.328C248.901 106.663 247.465 106.752 245.079 106.738V103.539H249.427V102.664ZM245.216 109.568H251.902V110.84H245.244V113.943H253.419V113.068H246.296V111.688H252.968V108.693H245.216V109.568ZM251.902 108.092H252.968V105.426H254.8V104.537H252.968V101.953H251.902V108.092ZM12.3609 123.922V122.582H11.3082V123.84C11.3014 125.72 10.0777 127.347 8.25937 128.023L8.83359 128.885C10.2555 128.331 11.3424 127.217 11.8619 125.774C12.3951 127.046 13.4547 128.051 14.7945 128.543L15.3824 127.695C13.6187 127.094 12.3609 125.576 12.3609 123.922ZM9.87265 131.865C9.87949 133.28 11.4039 134.08 13.9059 134.08C16.401 134.08 17.9117 133.28 17.9117 131.865C17.9117 130.478 16.401 129.664 13.9059 129.664C11.4039 129.664 9.87949 130.478 9.87265 131.865ZM10.9527 131.865C10.9391 131.038 12.0738 130.525 13.9059 130.525C15.7447 130.525 16.8658 131.038 16.8727 131.865C16.8658 132.727 15.7447 133.226 13.9059 133.232C12.0738 133.226 10.9391 132.727 10.9527 131.865ZM16.7359 129.35H17.8023V126.027H19.6344V125.125H17.8023V121.953H16.7359V129.35ZM25.3047 123.361H20.4922V131.1H21.2715C23.2676 131.106 24.4365 131.045 25.8652 130.771L25.7695 129.883C24.4434 130.122 23.3223 130.177 21.5176 130.184V127.436H25.1269V126.574H21.5176V124.236H25.3047V123.361ZM26.6719 133.492H27.7109V127.736H29.3789V134.107H30.418V121.953H29.3789V126.848H27.7109V122.213H26.6719V133.492ZM42.8148 127.6H31.6859V128.447H42.8148V127.6ZM33.0258 130.225H40.3539V131.264H33.0394V133.943H41.8168V133.164H34.1195V132.002H41.4203V129.418H33.0258V130.225ZM33.0941 123.102H40.2992V124.1H33.1352V126.684H41.598V125.904H34.2016V124.838H41.3793V122.322H33.0941V123.102ZM56.0012 121.967H54.9211V130.115H56.0012V126.547H57.8195V125.645H56.0012V121.967ZM46.4582 128.871L46.5812 129.746C48.7209 129.753 51.6262 129.732 54.2648 129.268L54.1691 128.488C53.1027 128.646 51.9543 128.741 50.8195 128.796V127.941C52.2277 127.805 53.1164 127.155 53.1301 126.15C53.1164 125.043 51.9953 124.359 50.2727 124.359C48.5637 124.359 47.4221 125.043 47.4289 126.15C47.4221 127.162 48.3381 127.812 49.7531 127.941V128.837C48.5637 128.871 47.4289 128.871 46.4582 128.871ZM46.759 123.895H53.8V123.074H50.8195V121.857H49.7531V123.074H46.759V123.895ZM47.9484 131.578H54.9211V134.107H56.0012V130.717H47.9484V131.578ZM48.4543 126.15C48.4475 125.508 49.1516 125.111 50.2727 125.125C51.3937 125.111 52.1047 125.508 52.1047 126.15C52.1047 126.786 51.3937 127.217 50.2727 127.203C49.1516 127.217 48.4475 126.786 48.4543 126.15ZM68.2477 121.967H67.1812V130.854H68.2477V121.967ZM58.4996 125.795C58.4928 127.565 59.8668 128.796 61.6852 128.789C63.5035 128.796 64.8639 127.565 64.8707 125.795C64.8639 124.045 63.5035 122.821 61.6852 122.814C59.8668 122.821 58.4928 124.045 58.4996 125.795ZM59.5523 125.795C59.5387 124.605 60.4547 123.758 61.6852 123.758C62.8951 123.758 63.818 124.605 63.818 125.795C63.818 127.005 62.8951 127.846 61.6852 127.846C60.4547 127.846 59.5387 127.005 59.5523 125.795ZM60.4 133.848H68.6305V132.945H61.4664V129.951H60.4V133.848ZM79.4141 121.912H78.3476V128.639H79.4141V125.754H81.2598V124.865H79.4141V121.912ZM69.9394 123.922H77.1855V123.061H74.0957V121.83H73.0293V123.061H69.9394V123.922ZM70.6367 126.465C70.6299 127.702 71.792 128.454 73.5625 128.461C75.3262 128.454 76.4746 127.702 76.4883 126.465C76.4746 125.234 75.3262 124.476 73.5625 124.469C71.792 124.476 70.6299 125.234 70.6367 126.465ZM71.6621 130.074H78.3476V131.168H71.6894V133.971H79.8652V133.15H72.7422V131.961H79.4141V129.268H71.6621V130.074ZM71.6621 126.465C71.6553 125.74 72.4072 125.269 73.5625 125.262C74.7109 125.269 75.4629 125.74 75.4766 126.465C75.4629 127.196 74.7109 127.654 73.5625 127.654C72.4072 127.654 71.6553 127.196 71.6621 126.465ZM90.823 123.088V122.391H89.7156V123.088C89.7156 124.831 87.4939 126.28 85.2996 126.588L85.7371 127.463C87.6307 127.148 89.4969 126.116 90.2762 124.612C91.0555 126.103 92.9285 127.148 94.8152 127.463L95.2527 126.588C93.0584 126.28 90.8299 124.804 90.823 123.088ZM84.7254 129.705H89.7156V134.107H90.7684V129.705H95.7996V128.803H84.7254V129.705ZM101.959 129.09H100.947V133.943H105.171V129.09H104.173V130.607H101.959V129.09ZM99.7301 125.289C99.7232 126.957 101.036 128.092 102.888 128.092C104.536 128.092 105.787 127.148 105.999 125.713H108.535V128.393H109.615V121.953H108.535V124.824H105.992C105.759 123.423 104.522 122.5 102.888 122.5C101.036 122.5 99.7232 123.628 99.7301 125.289ZM100.755 125.289C100.755 124.182 101.637 123.402 102.888 123.402C104.112 123.402 104.994 124.182 104.994 125.289C104.994 126.403 104.112 127.196 102.888 127.203C101.637 127.196 100.755 126.403 100.755 125.289ZM101.959 133.096V131.428H104.173V133.096H101.959ZM105.336 133.219L105.896 134.039C106.969 133.581 107.714 132.72 108.097 131.729C108.473 132.733 109.205 133.595 110.326 134.039L110.886 133.219C109.403 132.672 108.63 131.325 108.644 130.047V129.008H107.578V130.047C107.571 131.277 106.798 132.61 105.336 133.219ZM114.506 122.896C112.708 122.903 111.45 124.551 111.457 127.135C111.45 129.726 112.708 131.366 114.506 131.359C116.201 131.366 117.418 129.876 117.534 127.49H120.248V134.135H121.314V121.953H120.248V126.602H117.521C117.356 124.325 116.16 122.903 114.506 122.896ZM112.482 127.135C112.489 125.159 113.31 123.86 114.506 123.854C115.695 123.86 116.529 125.159 116.529 127.135C116.529 129.11 115.695 130.409 114.506 130.402C113.31 130.409 112.489 129.11 112.482 127.135ZM134.067 131.646H131.305V128.338C132.31 127.798 132.918 126.937 132.918 125.85C132.918 123.97 131.073 122.732 128.475 122.719C125.877 122.732 124.032 123.97 124.032 125.85C124.032 126.957 124.661 127.832 125.7 128.372V131.646H122.938V132.549H134.067V131.646ZM125.071 125.85C125.064 124.489 126.479 123.594 128.475 123.607C130.451 123.594 131.879 124.489 131.879 125.85C131.879 127.21 130.451 128.119 128.475 128.119C126.479 128.119 125.064 127.21 125.071 125.85ZM126.752 131.646V128.762C127.272 128.898 127.853 128.967 128.475 128.967C129.111 128.967 129.699 128.892 130.225 128.755V131.646H126.752ZM135.923 133.082C136.408 133.075 136.804 132.679 136.798 132.193C136.804 131.715 136.408 131.318 135.923 131.318C135.444 131.318 135.034 131.715 135.048 132.193C135.034 132.679 135.444 133.075 135.923 133.082ZM144.16 122.896C142.355 122.903 141.09 124.551 141.097 127.135C141.09 129.726 142.355 131.366 144.16 131.359C145.951 131.366 147.222 129.726 147.236 127.135C147.222 124.551 145.951 122.903 144.16 122.896ZM142.109 127.135C142.116 125.159 142.957 123.86 144.16 123.854C145.377 123.86 146.197 125.159 146.197 127.135C146.197 129.11 145.377 130.409 144.16 130.402C142.957 130.409 142.116 129.11 142.109 127.135ZM149.246 134.107H150.312V127.736H152.349V126.807H150.312V121.953H149.246V134.107ZM157.568 123.279H152.988V124.182H156.529V126.643H153.016V131.195H153.809C155.34 131.195 156.714 131.141 158.443 130.84L158.348 129.965C156.775 130.231 155.456 130.286 154.055 130.293V127.531H157.568V123.279ZM159.195 133.479H160.18V127.654H161.971V134.107H162.996V121.953H161.971V126.766H160.18V122.227H159.195V133.479ZM177.085 122.473H168.854V126.574H172.423V128.133H167.419V129.008H178.493V128.133H173.489V126.574H177.085V122.473ZM168.649 131.141H176.046V134.107H177.126V130.279H168.649V131.141ZM169.907 125.713V123.334H176.018V125.713H169.907ZM190.234 128.652H185.189V127.367H189.058V126.506H181.62V125.207H188.798V122.268H180.513V123.143H187.718V124.4H180.554V127.367H184.136V128.652H179.105V129.541H190.234V128.652ZM180.349 131.346H187.786V133.998H188.866V130.471H180.349V131.346ZM196.355 122.172C193.641 122.172 192.048 122.917 192.048 124.264C192.048 125.645 193.641 126.39 196.355 126.396C199.055 126.39 200.641 125.645 200.648 124.264C200.641 122.917 199.055 122.172 196.355 122.172ZM190.818 128.092H201.892V127.217H190.818V128.092ZM192.158 129.965H199.418V131.072H192.185V133.971H200.839V133.123H193.252V131.865H200.47V129.145H192.158V129.965ZM193.17 124.264C193.156 123.464 194.338 122.985 196.355 122.979C198.372 122.985 199.547 123.464 199.554 124.264C199.547 125.111 198.372 125.576 196.355 125.576C194.338 125.576 193.156 125.111 193.17 124.264ZM209.979 125.686V124.1H212.877V123.211H206.028V124.1H208.899V125.686C208.892 127.791 207.374 130.088 205.631 130.922L206.274 131.77C207.662 131.072 208.892 129.527 209.459 127.743C210.027 129.425 211.25 130.826 212.672 131.469L213.274 130.621C211.483 129.849 209.986 127.75 209.979 125.686ZM214.573 134.107H215.653V121.953H214.573V134.107ZM223.511 123.225H218.001V124.113H222.451C222.396 124.865 222.273 125.583 222.048 126.267L217.386 126.574L217.577 127.504L221.72 127.114C220.961 128.755 219.58 130.156 217.345 131.277L217.96 132.098C220.974 130.587 222.485 128.55 223.121 126.26H226.327V128.611H222.964V129.486H226.327V134.107H227.393V121.939H226.327V125.371H223.326C223.449 124.674 223.511 123.956 223.511 123.225ZM235.169 123.676V123.594H239.052V122.719H230.07V123.594H233.966V123.676C233.959 125.303 231.799 126.684 229.687 126.998L230.111 127.846C231.977 127.524 233.829 126.513 234.568 125.05C235.306 126.513 237.158 127.524 239.052 127.846L239.448 126.998C237.329 126.684 235.162 125.303 235.169 123.676ZM229.03 129.773H234.021V134.107H235.073V129.773H240.105V128.885H229.03V129.773ZM244.339 125.412V123.102H243.3V125.453C243.3 127.538 242.275 129.691 240.593 130.676L241.277 131.482C242.494 130.744 243.396 129.35 243.84 127.729C244.264 129.213 245.105 130.512 246.281 131.223L246.896 130.389C245.283 129.432 244.339 127.347 244.339 125.412ZM245.556 127.23H247.621V133.492H248.632V122.213H247.621V126.314H245.556V127.23ZM250.109 134.107H251.148V121.953H250.109V134.107ZM263.559 131.646H260.797V128.338C261.802 127.798 262.41 126.937 262.41 125.85C262.41 123.97 260.564 122.732 257.967 122.719C255.369 122.732 253.523 123.97 253.523 125.85C253.523 126.957 254.152 127.832 255.191 128.372V131.646H252.43V132.549H263.559V131.646ZM254.562 125.85C254.556 124.489 255.971 123.594 257.967 123.607C259.942 123.594 261.371 124.489 261.371 125.85C261.371 127.21 259.942 128.119 257.967 128.119C255.971 128.119 254.556 127.21 254.562 125.85ZM256.244 131.646V128.762C256.764 128.898 257.345 128.967 257.967 128.967C258.603 128.967 259.19 128.892 259.717 128.755V131.646H256.244ZM265.414 133.082C265.9 133.075 266.296 132.679 266.289 132.193C266.296 131.715 265.9 131.318 265.414 131.318C264.936 131.318 264.526 131.715 264.539 132.193C264.526 132.679 264.936 133.075 265.414 133.082Z" fill="#0A0A0A" fill-opacity="0.45"/>
<g opacity="0.2">
<path d="M46.2972 7.6167L44.2649 37.5433L46.8259 37.816L48.2578 8.10632L46.2972 7.6167Z" fill="#171F69"/>
<path d="M57.5361 22.0751L35.8516 20.8737L35.5871 23.3575L57.1301 23.9822L57.5361 22.0751Z" fill="#171F69"/>
<path d="M54.0591 29.8179L40.3939 14.5549L39.0641 15.6146L52.8937 30.5051L54.0591 29.8179Z" fill="#171F69"/>
<path d="M39.2977 29.9777L54.9024 16.7708L53.8255 15.4547L38.6071 28.8433L39.2977 29.9777Z" fill="#171F69"/>
</g>
<g opacity="0.4">
<path d="M29.999 33.5737L30.2868 35.7523C30.5944 38.0323 31.9968 40.0086 34.0497 41.0451L34.4199 41.2297C35.6601 41.8586 35.4653 43.6877 34.1205 44.0414L33.7197 44.1439C31.4946 44.7249 29.6998 46.3606 28.9266 48.5256L28.1864 50.5947C27.6535 52.082 25.4766 51.8502 25.2689 50.284L24.9811 48.1054C24.6735 45.8254 23.271 43.8491 21.2181 42.8126L20.8479 42.628C19.6077 41.999 19.8025 40.17 21.1473 39.8163L21.5481 39.7138C23.7732 39.1328 25.568 37.4971 26.3413 35.3321L27.0814 33.263C27.6144 31.7757 29.7912 32.0075 29.999 33.5737Z" fill="#5AC4B1"/>
</g>
<g opacity="0.2">
<path d="M228.703 7.6167L230.735 37.5433L228.174 37.816L226.742 8.10632L228.703 7.6167Z" fill="#171F69"/>
<path d="M217.464 22.0751L239.148 20.8737L239.413 23.3575L217.87 23.9822L217.464 22.0751Z" fill="#171F69"/>
<path d="M220.941 29.8179L234.606 14.5549L235.936 15.6146L222.106 30.5051L220.941 29.8179Z" fill="#171F69"/>
<path d="M235.702 29.9777L220.098 16.7708L221.174 15.4547L236.393 28.8433L235.702 29.9777Z" fill="#171F69"/>
</g>
<g opacity="0.4">
<path d="M245.001 33.5737L244.713 35.7523C244.406 38.0323 243.003 40.0086 240.95 41.0451L240.58 41.2297C239.34 41.8586 239.535 43.6877 240.879 44.0414L241.28 44.1439C243.505 44.7249 245.3 46.3606 246.073 48.5256L246.814 50.5947C247.347 52.082 249.523 51.8502 249.731 50.284L250.019 48.1054C250.327 45.8254 251.729 43.8491 253.782 42.8126L254.152 42.628C255.392 41.999 255.197 40.17 253.853 39.8163L253.452 39.7138C251.227 39.1328 249.432 37.4971 248.659 35.3321L247.919 33.263C247.386 31.7757 245.209 32.0075 245.001 33.5737Z" fill="#5AC4B1"/>
</g>
<path d="M122.74 10.0093C122.767 10.0266 122.767 10.0266 122.74 10.0093V10.0093Z" fill="#00C7B1"/>
<path d="M122.668 9.96143C122.7 9.98136 122.728 9.9973 122.744 10.0093C122.728 10.0013 122.704 9.98534 122.668 9.96143Z" fill="#00C7B1"/>
<path d="M124.92 7.60603C125.077 7.24731 125.162 6.81685 125.125 6.29074C125.125 6.29074 127.096 1.13719 124.259 0.132788C122.414 -0.520872 121.286 1.37235 121.068 2.8949C119.876 1.61548 118.304 0.611075 116.866 1.87455C116.024 2.6159 116.177 3.73589 116.947 4.95951C115.891 4.55695 114.831 4.61275 114.102 5.78057C112.881 7.73756 116.024 9.45939 118.981 10.2167C120.279 10.5475 124.799 8.35535 124.916 7.614C124.916 7.614 124.916 7.61001 124.916 7.60603H124.92Z" fill="#00C7B1"/>
<path d="M137.78 2.27344C123.341 2.27344 111.637 13.852 111.637 28.1368C111.637 42.4217 123.341 54.0002 137.78 54.0002C152.22 54.0002 163.924 42.4217 163.924 28.1368C163.924 13.852 152.22 2.27344 137.78 2.27344Z" fill="#00C7B1"/>
<path d="M108.562 46.8175C107.958 46.8175 107.442 46.3591 107.394 45.7493C107.011 41.1976 108.591 38.3877 109.985 36.8293C111.524 35.1074 113.196 34.4936 113.268 34.4657C113.877 34.2465 114.554 34.5574 114.775 35.1632C114.997 35.7651 114.682 36.4307 114.078 36.6499C113.861 36.7336 109.155 38.591 109.739 45.554C109.791 46.1957 109.312 46.7577 108.663 46.8095C108.631 46.8095 108.599 46.8135 108.566 46.8135L108.562 46.8175Z" fill="#00C7B1"/>
<path d="M106.439 50.4891C107.285 50.7801 107.591 49.2574 107.632 48.4602C107.632 48.4602 107.632 48.4602 107.636 48.4602C107.64 50.3974 107.632 51.5813 108.591 51.4737C109.678 51.3541 109.11 48.4402 109.11 48.4402C109.11 48.4402 109.67 50.8917 110.492 50.8359C111.314 50.7801 111.395 49.3052 110.609 47.8144C110.77 48.5797 111.475 49.6719 112.064 49.4447C113.506 48.8867 111.455 46.4272 111.314 45.7974C111.04 44.5538 109.67 43.904 108.031 44.4382C106.629 44.8966 105.791 46.1482 106.153 47.2324C106.197 47.364 106.258 47.4836 106.326 47.5952C106.089 48.4283 105.674 50.226 106.439 50.4891Z" fill="#00C7B1"/>
<path d="M166.284 46.8175C166.888 46.8175 167.404 46.3591 167.452 45.7493C167.835 41.1976 166.256 38.3877 164.862 36.8293C163.322 35.1074 161.65 34.4936 161.578 34.4657C160.97 34.2465 160.293 34.5574 160.071 35.1632C159.849 35.7651 160.164 36.4307 160.768 36.6499C160.986 36.7336 165.691 38.591 165.107 45.554C165.055 46.1957 165.534 46.7577 166.183 46.8095C166.215 46.8095 166.247 46.8135 166.28 46.8135L166.284 46.8175Z" fill="#00C7B1"/>
<path d="M168.407 50.4891C167.561 50.7801 167.255 49.2574 167.214 48.4602C167.214 48.4602 167.214 48.4602 167.21 48.4602C167.206 50.3974 167.214 51.5813 166.256 51.4737C165.168 51.3541 165.736 48.4402 165.736 48.4402C165.736 48.4402 165.176 50.8917 164.354 50.8359C163.532 50.7801 163.451 49.3052 164.237 47.8144C164.076 48.5797 163.371 49.6719 162.783 49.4447C161.34 48.8867 163.391 46.4272 163.532 45.7974C163.806 44.5538 165.176 43.904 166.816 44.4382C168.218 44.8966 169.056 46.1482 168.693 47.2324C168.649 47.364 168.588 47.4836 168.52 47.5952C168.758 48.4283 169.173 50.226 168.407 50.4891Z" fill="#00C7B1"/>
<path d="M129.741 36.1871C132.741 36.1871 135.173 33.7206 135.173 30.678C135.173 27.6354 132.741 25.1689 129.741 25.1689C126.742 25.1689 124.31 27.6354 124.31 30.678C124.31 33.7206 126.742 36.1871 129.741 36.1871Z" fill="#F5F4F3"/>
<path d="M131.569 30.6546C131.569 28.5849 130.443 26.7827 128.778 25.8409C128.258 25.5478 127.618 25.5478 127.1 25.8409C125.436 26.7827 124.31 28.5849 124.31 30.6546C124.31 32.7243 125.436 34.5265 127.1 35.4683C127.621 35.7614 128.26 35.7614 128.778 35.4683C130.443 34.5265 131.569 32.7243 131.569 30.6546Z" fill="#191919"/>
<path d="M145.167 36.1871C148.167 36.1871 150.599 33.7206 150.599 30.678C150.599 27.6354 148.167 25.1689 145.167 25.1689C142.167 25.1689 139.735 27.6354 139.735 30.678C139.735 33.7206 142.167 36.1871 145.167 36.1871Z" fill="#F5F4F3"/>
<path d="M146.994 30.6546C146.994 28.5849 145.869 26.7827 144.204 25.8409C143.684 25.5478 143.044 25.5478 142.526 25.8409C140.861 26.7827 139.735 28.5849 139.735 30.6546C139.735 32.7243 140.861 34.5265 142.526 35.4683C143.046 35.7614 143.686 35.7614 144.204 35.4683C145.869 34.5265 146.994 32.7243 146.994 30.6546Z" fill="#191919"/>
<path d="M152.834 33.4819C149.466 28.1635 145.669 28.1984 145.669 28.1984C145.671 28.1984 145.674 28.1984 145.678 28.1984C145.502 28.1822 145.325 28.1729 145.146 28.1729C142.312 28.1729 139.933 30.1681 139.295 32.8471C138.85 32.382 138.197 32.0843 137.468 32.0843C136.739 32.0843 136.085 32.382 135.641 32.8471C135.003 30.1681 132.623 28.1729 129.789 28.1729C129.611 28.1729 129.432 28.1822 129.258 28.1984C129.26 28.1984 129.262 28.1984 129.267 28.1984C129.267 28.1984 125.468 28.1635 122.102 33.4819C121.944 33.7308 121.861 34.0214 121.873 34.3191L121.909 35.3772C121.925 35.8795 122.2 36.3376 122.636 36.5818L124.938 37.8841C126.034 39.4003 127.802 40.3863 129.794 40.3863C133.114 40.3863 135.815 37.6469 135.815 34.2796C135.815 34.1517 135.81 34.0261 135.801 33.8982C135.998 33.2564 136.672 32.782 137.472 32.782C138.273 32.782 138.947 33.2564 139.144 33.8982C139.137 34.0238 139.13 34.1517 139.13 34.2796C139.13 37.6469 141.831 40.3863 145.151 40.3863C147.143 40.3863 148.911 39.4003 150.007 37.8841L152.309 36.5818C152.742 36.3376 153.017 35.8795 153.036 35.3772L153.072 34.3191C153.082 34.0238 153.001 33.7331 152.843 33.4819H152.834ZM129.787 39.5421C126.926 39.5421 124.599 37.1818 124.599 34.2796C124.599 31.3774 126.926 29.017 129.787 29.017C132.649 29.017 134.976 31.3774 134.976 34.2796C134.976 37.1818 132.649 39.5421 129.787 39.5421ZM145.144 39.5421C142.283 39.5421 139.956 37.1818 139.956 34.2796C139.956 31.3774 142.283 29.017 145.144 29.017C148.005 29.017 150.333 31.3774 150.333 34.2796C150.333 37.1818 148.005 39.5421 145.144 39.5421Z" fill="#151F6D"/>
<path d="M149.897 24.8871C149.876 24.8871 149.856 24.8871 149.835 24.8824L141.246 23.2918C141.061 23.2569 140.937 23.0755 140.969 22.8849C141.003 22.6942 141.182 22.5686 141.37 22.6035L149.959 24.1941C150.145 24.229 150.268 24.4104 150.236 24.6011C150.206 24.7685 150.062 24.8871 149.899 24.8871H149.897Z" fill="#191919"/>
<path d="M124.477 24.8871C124.314 24.8871 124.17 24.7685 124.14 24.6011C124.106 24.4127 124.23 24.229 124.418 24.1941L133.006 22.6035C133.192 22.5686 133.373 22.6942 133.407 22.8849C133.442 23.0732 133.318 23.2569 133.13 23.2918L124.541 24.8824C124.521 24.8871 124.5 24.8871 124.479 24.8871H124.477Z" fill="#191919"/>
<path d="M134.921 41.4489C134.921 41.4489 134.939 41.4373 134.948 41.4303C135.939 40.7326 136.936 40.4745 137.855 40.4745C137.876 40.4745 137.897 40.4745 137.92 40.4745C137.94 40.4745 137.961 40.4745 137.984 40.4745C138.873 40.4745 139.836 40.721 140.795 41.3698C140.886 40.8559 140.804 40.3141 140.568 39.8885C140.465 39.7001 140.332 39.535 140.173 39.4071C140.127 39.3676 140.077 39.3304 140.024 39.2932C140.006 39.2792 139.988 39.2676 139.972 39.256C139.965 39.2513 139.958 39.2467 139.951 39.242C139.208 38.7188 138.456 38.5234 137.768 38.5234C137.752 38.5234 137.736 38.5234 137.72 38.5234C137.704 38.5234 137.688 38.5234 137.672 38.5234C136.982 38.5234 136.232 38.7188 135.489 39.242C135.482 39.2467 135.475 39.2513 135.469 39.256C135.45 39.2676 135.432 39.2815 135.416 39.2932C135.363 39.3304 135.313 39.3676 135.267 39.4048C135.063 39.5699 134.905 39.7932 134.792 40.0466C134.586 40.5141 134.549 41.0908 134.703 41.6117C134.751 41.5745 134.797 41.5373 134.847 41.5024C134.87 41.4861 134.895 41.4675 134.918 41.4512L134.921 41.4489Z" fill="#191919"/>
<path d="M136.72 42.5094C136.72 42.5094 136.734 42.5001 136.741 42.4931C136.842 42.4234 137.227 42.1769 137.718 42.1629C138.208 42.1769 138.594 42.421 138.695 42.4931C138.701 42.4978 138.708 42.5024 138.715 42.5094C139.373 43.0303 140.231 42.7559 140.63 41.8955C140.708 41.728 140.76 41.5513 140.792 41.3699C139.834 40.7234 138.869 40.4746 137.981 40.4746C137.961 40.4746 137.94 40.4746 137.917 40.4746C137.897 40.4746 137.876 40.4746 137.853 40.4746C136.934 40.4746 135.936 40.7351 134.946 41.4304C134.937 41.4374 134.928 41.442 134.918 41.449C134.895 41.4653 134.87 41.4815 134.847 41.5001C134.797 41.5374 134.749 41.5746 134.703 41.6094C134.733 41.7071 134.765 41.8025 134.808 41.8932C135.207 42.7536 136.062 43.028 136.723 42.5071L136.72 42.5094Z" fill="#F49292"/>
<path d="M147.678 40.6187C147.678 40.6187 147.678 40.6141 147.678 40.6117C147.678 40.6048 147.671 40.5862 147.659 40.5629C147.636 40.5001 147.609 40.4373 147.579 40.3769C147.315 39.7792 146.575 38.1863 146.194 37.1235C146.162 37.0468 146.054 37.0491 146.029 37.1282C145.809 37.7816 145.609 38.349 145.256 39.1769C145.055 39.6606 144.649 40.4699 144.633 40.5629C144.55 40.7861 144.504 41.0326 144.504 41.2908C144.504 42.3279 145.24 43.1698 146.146 43.1698C147.052 43.1698 147.788 42.3279 147.788 41.2908C147.788 41.0536 147.749 40.828 147.678 40.6187Z" fill="#C4EBF7"/>
</svg>
