<svg width="259" height="138" viewBox="0 0 259 138" fill="none" xmlns="http://www.w3.org/2000/svg">
<path d="M64.5977 70.0981H55.668V71.8911H57.0918V79.1069C56.4502 79.1157 55.835 79.1157 55.2637 79.1157L55.5098 80.9438C58.2607 80.9263 61.917 80.8647 65.1953 80.2935L65.0723 78.6763C64.457 78.7554 63.8242 78.8169 63.1738 78.8696V71.8911H64.5977V70.0981ZM59.2539 79.0718V71.8911H61.0117V79.0015C60.4229 79.0278 59.834 79.0542 59.2539 79.0718ZM65.8457 84.6177H68.0957V76.5317H70.4512V74.7036H68.0957V68.6216H65.8457V84.6177ZM75.184 69.0962C72.7143 69.0874 70.8773 70.6167 70.8773 72.7524C70.8773 74.8706 72.7143 76.3823 75.184 76.3911C77.6186 76.3823 79.4467 74.8706 79.4555 72.7524C79.4467 70.6167 77.6186 69.0874 75.184 69.0962ZM73.057 72.7524C73.0395 71.6011 73.9535 70.9243 75.184 70.9243C76.3969 70.9243 77.2846 71.6011 77.2934 72.7524C77.2846 73.895 76.3969 74.5718 75.184 74.5806C73.9447 74.5718 73.0395 73.895 73.057 72.7524ZM73.2855 79.0278H81.7934V80.0122H73.3207V84.4419H84.4652V82.6841H75.518V81.647H84.0258V77.3052H73.2855V79.0278ZM81.7758 76.6372H84.0258V68.6216H81.7758V76.6372ZM93.0828 68.8501C89.3914 68.8501 87.2469 69.8169 87.2469 71.5747C87.2469 73.3589 89.3914 74.3169 93.0828 74.3169C96.7654 74.3169 98.8924 73.3589 98.9012 71.5747C98.8924 69.8169 96.7654 68.8501 93.0828 68.8501ZM85.7879 76.8481H100.378V75.0728H85.7879V76.8481ZM87.4754 79.4146H96.3875V80.2935H87.493V84.5122H99.0242V82.8247H89.6902V81.8579H98.6023V77.7798H87.4754V79.4146ZM89.6023 71.5747C89.5936 70.8628 90.7361 70.4849 93.0828 70.4849C95.4471 70.4849 96.5809 70.8628 96.5809 71.5747C96.5809 72.3569 95.4471 72.6646 93.0828 72.6646C90.7361 72.6646 89.5936 72.3569 89.6023 71.5747ZM117.49 68.6392H115.24V79.5024H117.49V75.0552H119.529V73.2095H117.49V68.6392ZM104.517 77.4458L104.746 79.186C107.567 79.186 111.276 79.1509 114.66 78.5532L114.502 77.0063C113.271 77.1646 111.953 77.2612 110.634 77.3315V76.5054C112.348 76.2593 113.421 75.4155 113.429 74.1938C113.421 72.7085 111.865 71.7944 109.509 71.8032C107.136 71.7944 105.581 72.7085 105.589 74.1938C105.581 75.4155 106.662 76.2681 108.402 76.5142V77.4106C107.013 77.4458 105.686 77.4458 104.517 77.4458ZM104.939 71.4341H114.097V69.7993H110.634V68.4985H108.402V69.7993H104.939V71.4341ZM106.556 81.8755H115.24V84.6177H117.49V80.1528H106.556V81.8755ZM107.734 74.1938C107.725 73.5698 108.367 73.2974 109.509 73.2974C110.634 73.2974 111.276 73.5698 111.285 74.1938C111.276 74.7739 110.634 75.1167 109.509 75.1079C108.367 75.1167 107.725 74.7739 107.734 74.1938ZM133.244 68.6392H130.994V80.1353H133.244V68.6392ZM120.096 73.6841C120.096 76.0659 122.012 77.7446 124.473 77.7446C126.925 77.7446 128.841 76.0659 128.85 73.6841C128.841 71.3374 126.925 69.6499 124.473 69.6587C122.012 69.6499 120.096 71.3374 120.096 73.6841ZM122.293 73.6841C122.275 72.3833 123.216 71.6011 124.473 71.6099C125.686 71.6011 126.626 72.3833 126.635 73.6841C126.626 75.02 125.686 75.7935 124.473 75.7935C123.216 75.7935 122.275 75.02 122.293 73.6841ZM122.521 84.3364H133.666V82.5435H124.789V78.9751H122.521V84.3364ZM153.345 75.8813H138.755V77.6919H144.925V78.8696C142.086 79.0718 140.425 80.0737 140.425 81.7349C140.425 83.5894 142.525 84.6265 146.032 84.6177C149.486 84.6265 151.587 83.5894 151.604 81.7349C151.587 80.0825 149.934 79.0806 147.157 78.8784V77.6919H153.345V75.8813ZM139.405 73.5259L140.143 75.2837C143.176 75.0024 145.188 73.8511 146.032 72.3042C146.885 73.8599 148.915 74.9937 151.938 75.2837L152.729 73.5259C149.688 73.2622 148.062 72.1812 147.676 71.0649H152.026V69.3071H140.091V71.0649H144.406C144.002 72.1724 142.367 73.2622 139.405 73.5259ZM142.71 81.7349C142.701 80.9263 143.817 80.5396 146.032 80.522C148.203 80.5396 149.346 80.9263 149.354 81.7349C149.346 82.5083 148.203 82.9302 146.032 82.9302C143.817 82.9302 142.701 82.5083 142.71 81.7349ZM167.306 68.6216H165.038V84.6528H167.306V68.6216ZM154.386 75.4419C154.377 78.9575 156.161 81.1548 158.622 81.1548C161.03 81.1548 162.823 78.9575 162.823 75.4419C162.823 71.9526 161.03 69.7466 158.622 69.7466C156.161 69.7466 154.377 71.9526 154.386 75.4419ZM156.548 75.4419C156.539 73.0688 157.374 71.7681 158.622 71.7681C159.835 71.7681 160.653 73.0688 160.661 75.4419C160.653 77.8237 159.835 79.1245 158.622 79.1157C157.374 79.1245 156.539 77.8237 156.548 75.4419ZM182.937 68.6216H180.793V84.6177H182.937V68.6216ZM169.209 75.5474C169.209 79.1421 170.571 81.3657 172.689 81.3657C174.658 81.3657 176.003 79.4585 176.196 76.3208H177.488V83.8794H179.597V68.8501H177.488V74.5454H176.178C175.932 71.5571 174.614 69.7554 172.689 69.7642C170.571 69.7554 169.209 71.9702 169.209 75.5474ZM171.283 75.5474C171.265 73.0952 171.793 71.8735 172.689 71.8735C173.612 71.8735 174.157 73.0952 174.148 75.5474C174.157 78.0083 173.612 79.2212 172.689 79.2036C171.793 79.2212 171.265 78.0083 171.283 75.5474ZM198.867 80.9087H195.615V76.9448C196.819 76.1978 197.54 75.0815 197.549 73.7017C197.54 71.1089 194.982 69.4038 191.52 69.395C188.039 69.4038 185.508 71.1089 185.508 73.7017C185.508 75.1079 186.255 76.2417 187.494 76.9888V80.9087H184.225V82.7544H198.867V80.9087ZM187.723 73.7017C187.723 72.0933 189.226 71.1616 191.52 71.1704C193.778 71.1616 195.325 72.0933 195.334 73.7017C195.325 75.2661 193.778 76.2329 191.52 76.2329C189.226 76.2329 187.723 75.2661 187.723 73.7017ZM189.709 80.9087V77.8062C190.271 77.9116 190.878 77.9731 191.52 77.9731C192.161 77.9731 192.776 77.9116 193.348 77.7974V80.9087H189.709ZM201.455 83.1587C202.238 83.1587 202.914 82.4995 202.914 81.6821C202.914 80.8735 202.238 80.2144 201.455 80.2231C200.629 80.2144 199.961 80.8735 199.979 81.6821C199.961 82.4995 200.629 83.1587 201.455 83.1587Z" fill="#0A0A0A"/>
<path d="M51.7215 104.195V103.676H54.4422V102.801H47.8934V103.676H50.6414V104.209C50.6414 105.925 49.3426 107.545 47.5516 108.188L48.1121 109.035C49.5545 108.502 50.6824 107.381 51.2088 105.986C51.7283 107.237 52.7879 108.256 54.1551 108.748L54.7156 107.9C52.9383 107.285 51.7215 105.774 51.7215 104.195ZM49.3973 110.771H56.493V114.107H57.573V109.883H49.3973V110.771ZM54.0594 106.041H56.493V109.24H57.573V101.953H56.493V105.139H54.0594V106.041ZM68.6984 101.953H67.632V109.021H68.6984V105.986H70.5305V105.07H68.6984V101.953ZM59.2238 104.1H66.4699V103.211H63.3801V101.844H62.3137V103.211H59.2238V104.1ZM59.9211 106.793C59.9143 108.092 61.0832 108.933 62.8469 108.926C64.59 108.933 65.759 108.092 65.7727 106.793C65.759 105.494 64.59 104.667 62.8469 104.66C61.0832 104.667 59.9143 105.494 59.9211 106.793ZM60.9465 106.793C60.9396 106.007 61.6984 105.48 62.8469 105.494C63.9816 105.48 64.7473 106.007 64.7609 106.793C64.7473 107.586 63.9816 108.105 62.8469 108.105C61.6984 108.105 60.9396 107.586 60.9465 106.793ZM61.0148 113.943H68.6984V109.555H67.632V110.854H62.0812V109.555H61.0148V113.943ZM62.0812 113.082V111.701H67.632V113.082H62.0812ZM80.398 101.967H79.3316V111.072H80.398V106.875H82.2301V105.973H80.398V101.967ZM70.9234 104.332H78.1695V103.457H75.0797V101.967H74.0133V103.457H70.9234V104.332ZM71.6207 107.271C71.6139 108.639 72.7896 109.521 74.5465 109.514C76.2828 109.521 77.4586 108.639 77.4723 107.271C77.4586 105.891 76.2828 105.002 74.5465 105.002C72.7896 105.002 71.6139 105.891 71.6207 107.271ZM72.6461 107.271C72.6393 106.403 73.398 105.843 74.5465 105.85C75.6812 105.843 76.4469 106.403 76.4605 107.271C76.4469 108.126 75.6812 108.68 74.5465 108.666C73.398 108.68 72.6393 108.126 72.6461 107.271ZM72.7965 113.848H80.9586V112.945H73.8492V110.348H72.7965V113.848ZM92.6957 103.279H85.8598V104.168H87.1996V110.17C86.6186 110.177 86.0717 110.184 85.559 110.184L85.6957 111.1C87.849 111.086 90.7543 111.045 93.3246 110.635L93.2699 109.842C92.6479 109.917 91.9984 109.979 91.3422 110.02V104.168H92.6957V103.279ZM88.2387 110.156V104.168H90.3168V110.081C89.6195 110.115 88.9154 110.143 88.2387 110.156ZM94.0492 114.107H95.1156V107.736H97.1527V106.834H95.1156V101.953H94.0492V114.107ZM100.854 102.404C99.0154 102.411 97.6893 103.519 97.6961 105.098C97.6893 106.684 99.0154 107.777 100.854 107.777C102.673 107.777 103.992 106.684 103.999 105.098C103.992 103.519 102.673 102.411 100.854 102.404ZM98.7488 105.098C98.7352 104.045 99.6307 103.3 100.854 103.307C102.057 103.3 102.96 104.045 102.96 105.098C102.96 106.164 102.057 106.902 100.854 106.902C99.6307 106.902 98.7352 106.164 98.7488 105.098ZM99.5418 109.65H106.378V110.908H99.5691V113.943H107.882V113.082H100.622V111.715H107.444V108.789H99.5418V109.65ZM106.378 108.201H107.444V101.953H106.378V108.201ZM119.144 101.967H118.077V110.854H119.144V101.967ZM109.396 105.795C109.389 107.565 110.763 108.796 112.581 108.789C114.4 108.796 115.76 107.565 115.767 105.795C115.76 104.045 114.4 102.821 112.581 102.814C110.763 102.821 109.389 104.045 109.396 105.795ZM110.448 105.795C110.435 104.605 111.351 103.758 112.581 103.758C113.791 103.758 114.714 104.605 114.714 105.795C114.714 107.005 113.791 107.846 112.581 107.846C111.351 107.846 110.435 107.005 110.448 105.795ZM111.296 113.848H119.527V112.945H112.362V109.951H111.296V113.848ZM125.156 105.686V104.1H128.054V103.211H121.205V104.1H124.076V105.686C124.069 107.791 122.551 110.088 120.808 110.922L121.451 111.77C122.838 111.072 124.069 109.527 124.636 107.743C125.204 109.425 126.427 110.826 127.849 111.469L128.451 110.621C126.66 109.849 125.163 107.75 125.156 105.686ZM129.75 114.107H130.83V101.953H129.75V114.107ZM145.11 101.967H144.03V110.115H145.11V106.547H146.928V105.645H145.11V101.967ZM135.567 108.871L135.69 109.746C137.829 109.753 140.735 109.732 143.373 109.268L143.278 108.488C142.211 108.646 141.063 108.741 139.928 108.796V107.941C141.336 107.805 142.225 107.155 142.239 106.15C142.225 105.043 141.104 104.359 139.381 104.359C137.672 104.359 136.531 105.043 136.537 106.15C136.531 107.162 137.447 107.812 138.862 107.941V108.837C137.672 108.871 136.537 108.871 135.567 108.871ZM135.868 103.895H142.909V103.074H139.928V101.857H138.862V103.074H135.868V103.895ZM137.057 111.578H144.03V114.107H145.11V110.717H137.057V111.578ZM137.563 106.15C137.556 105.508 138.26 105.111 139.381 105.125C140.502 105.111 141.213 105.508 141.213 106.15C141.213 106.786 140.502 107.217 139.381 107.203C138.26 107.217 137.556 106.786 137.563 106.15ZM157.356 101.967H156.29V110.854H157.356V101.967ZM147.608 105.795C147.601 107.565 148.975 108.796 150.794 108.789C152.612 108.796 153.972 107.565 153.979 105.795C153.972 104.045 152.612 102.821 150.794 102.814C148.975 102.821 147.601 104.045 147.608 105.795ZM148.661 105.795C148.647 104.605 149.563 103.758 150.794 103.758C152.004 103.758 152.927 104.605 152.927 105.795C152.927 107.005 152.004 107.846 150.794 107.846C149.563 107.846 148.647 107.005 148.661 105.795ZM149.509 113.848H157.739V112.945H150.575V109.951H149.509V113.848ZM173.209 107.641H162.134V108.529H167.138V109.828C164.821 109.931 163.467 110.676 163.474 111.961C163.467 113.321 165.033 114.08 167.671 114.08C170.276 114.08 171.841 113.321 171.855 111.961C171.841 110.676 170.481 109.931 168.191 109.828V108.529H173.209V107.641ZM162.763 106.055L163.146 106.902C165.149 106.663 167.002 105.768 167.671 104.421C168.341 105.768 170.208 106.663 172.197 106.902L172.593 106.055C170.454 105.836 168.444 104.763 168.369 103.402H172.224V102.527H163.146V103.402H166.974C166.899 104.763 164.869 105.836 162.763 106.055ZM164.568 111.961C164.554 111.134 165.723 110.662 167.671 110.648C169.599 110.662 170.768 111.134 170.775 111.961C170.768 112.768 169.599 113.253 167.671 113.246C165.723 113.253 164.554 112.768 164.568 111.961ZM183.855 101.953H182.775V114.135H183.855V101.953ZM174.285 107.135C174.292 109.726 175.577 111.366 177.389 111.359C179.193 111.366 180.499 109.726 180.492 107.135C180.499 104.551 179.193 102.903 177.389 102.896C175.577 102.903 174.292 104.551 174.285 107.135ZM175.324 107.135C175.324 105.159 176.172 103.86 177.389 103.854C178.612 103.86 179.453 105.159 179.453 107.135C179.453 109.11 178.612 110.409 177.389 110.402C176.172 110.409 175.324 109.11 175.324 107.135ZM195.952 101.953H194.912V114.107H195.952V101.953ZM185.684 107.203C185.691 109.787 186.716 111.435 188.295 111.428C189.792 111.435 190.811 109.951 190.913 107.586H192.479V113.492H193.504V102.213H192.479V106.697H190.907C190.77 104.407 189.772 102.985 188.295 102.979C186.716 102.985 185.691 104.619 185.684 107.203ZM186.696 107.203C186.682 105.228 187.311 103.99 188.295 103.99C189.287 103.99 189.915 105.228 189.909 107.203C189.915 109.172 189.287 110.416 188.295 110.402C187.311 110.416 186.682 109.172 186.696 107.203ZM208.362 111.646H205.6V108.338C206.605 107.798 207.214 106.937 207.214 105.85C207.214 103.97 205.368 102.732 202.77 102.719C200.173 102.732 198.327 103.97 198.327 105.85C198.327 106.957 198.956 107.832 199.995 108.372V111.646H197.233V112.549H208.362V111.646ZM199.366 105.85C199.359 104.489 200.774 103.594 202.77 103.607C204.746 103.594 206.175 104.489 206.175 105.85C206.175 107.21 204.746 108.119 202.77 108.119C200.774 108.119 199.359 107.21 199.366 105.85ZM201.048 111.646V108.762C201.567 108.898 202.148 108.967 202.77 108.967C203.406 108.967 203.994 108.892 204.52 108.755V111.646H201.048ZM210.218 113.082C210.703 113.075 211.1 112.679 211.093 112.193C211.1 111.715 210.703 111.318 210.218 111.318C209.739 111.318 209.329 111.715 209.343 112.193C209.329 112.679 209.739 113.075 210.218 113.082ZM78.125 124.154V123.689H80.832V122.814H74.2832V123.689H77.0449V124.168C77.0381 125.911 75.7871 127.47 73.9551 128.092L74.5156 128.967C75.958 128.434 77.0723 127.347 77.5986 125.973C78.1182 127.21 79.1846 128.201 80.5723 128.68L81.1191 127.818C79.3076 127.217 78.1113 125.768 78.125 124.154ZM75.8418 133.943H83.5117V129.678H75.8418V133.943ZM76.8945 133.068V130.539H82.4453V133.068H76.8945ZM82.4453 129.117H83.5117V125.891H85.3438V124.988H83.5117V121.953H82.4453V129.117ZM90.0297 125.221V123.006H88.9633V125.221C88.9496 127.524 87.4525 129.849 85.641 130.676L86.3246 131.578C87.7465 130.86 88.9428 129.322 89.5033 127.49C90.0844 129.22 91.2807 130.662 92.6684 131.332L93.3246 130.484C91.5336 129.671 90.0229 127.442 90.0297 125.221ZM94.6508 134.135H95.7309V121.953H94.6508V134.135ZM103.548 123.061H97.9285V128.652H103.548V123.061ZM98.9813 127.791V123.936H102.509V127.791H98.9813ZM99.3094 133.848H107.471V132.945H100.362V130.02H99.3094V133.848ZM105.845 130.867H106.911V126.561H108.743V125.658H106.911V121.953H105.845V130.867ZM122.271 121.953H121.191V134.107H122.271V121.953ZM112.373 130.949L112.961 131.824C117.035 129.869 118.662 126.772 118.675 123.279H112.933V124.154H117.582C117.342 127.06 115.661 129.391 112.373 130.949ZM133.328 121.953H132.262V134.135H133.328V127.668H135.365V126.766H133.328V121.953ZM124.455 131.086H125.412C127.723 131.086 129.315 131.018 131.223 130.676L131.086 129.746C129.274 130.081 127.723 130.177 125.521 130.184V124.031H130.129V123.143H124.455V131.086ZM145.684 121.953H144.618V124.729H142.184V125.631H144.618V128.051H142.088V128.953H144.618V134.135H145.684V121.953ZM136.045 123.949H140.338V126.506H136.086V131.291H136.989C138.93 131.291 140.489 131.223 142.43 130.922L142.334 130.02C140.489 130.307 138.978 130.375 137.153 130.375V127.381H141.391V123.061H136.045V123.949ZM153.46 123.676V123.594H157.343V122.719H148.36V123.594H152.257V123.676C152.25 125.303 150.09 126.684 147.977 126.998L148.401 127.846C150.267 127.524 152.12 126.513 152.858 125.05C153.596 126.513 155.449 127.524 157.343 127.846L157.739 126.998C155.62 126.684 153.453 125.303 153.46 123.676ZM147.321 129.773H152.311V134.107H153.364V129.773H158.395V128.885H147.321V129.773ZM162.63 125.412V123.102H161.591V125.453C161.591 127.538 160.566 129.691 158.884 130.676L159.568 131.482C160.784 130.744 161.687 129.35 162.131 127.729C162.555 129.213 163.396 130.512 164.571 131.223L165.187 130.389C163.573 129.432 162.63 127.347 162.63 125.412ZM163.847 127.23H165.911V133.492H166.923V122.213H165.911V126.314H163.847V127.23ZM168.4 134.107H169.439V121.953H168.4V134.107ZM181.849 131.646H179.088V128.338C180.092 127.798 180.701 126.937 180.701 125.85C180.701 123.97 178.855 122.732 176.257 122.719C173.66 122.732 171.814 123.97 171.814 125.85C171.814 126.957 172.443 127.832 173.482 128.372V131.646H170.72V132.549H181.849V131.646ZM172.853 125.85C172.846 124.489 174.261 123.594 176.257 123.607C178.233 123.594 179.662 124.489 179.662 125.85C179.662 127.21 178.233 128.119 176.257 128.119C174.261 128.119 172.846 127.21 172.853 125.85ZM174.535 131.646V128.762C175.054 128.898 175.635 128.967 176.257 128.967C176.893 128.967 177.481 128.892 178.007 128.755V131.646H174.535ZM183.705 133.082C184.19 133.075 184.587 132.679 184.58 132.193C184.587 131.715 184.19 131.318 183.705 131.318C183.227 131.318 182.816 131.715 182.83 132.193C182.816 132.679 183.227 133.075 183.705 133.082Z" fill="#0A0A0A" fill-opacity="0.45"/>
<g opacity="0.2">
<path d="M38.2972 7.61719L36.2649 37.5438L38.8259 37.8165L40.2578 8.10681L38.2972 7.61719Z" fill="#171F69"/>
<path d="M49.5361 22.0756L27.8516 20.8742L27.5871 23.358L49.1301 23.9827L49.5361 22.0756Z" fill="#171F69"/>
<path d="M46.0591 29.8183L32.3939 14.5554L31.0641 15.6151L44.8937 30.5055L46.0591 29.8183Z" fill="#171F69"/>
<path d="M31.2977 29.9782L46.9024 16.7713L45.8255 15.4552L30.6071 28.8437L31.2977 29.9782Z" fill="#171F69"/>
</g>
<g opacity="0.4">
<path d="M21.999 33.5742L22.2868 35.7528C22.5944 38.0328 23.9968 40.0091 26.0497 41.0456L26.4199 41.2302C27.6601 41.8591 27.4653 43.6882 26.1205 44.0418L25.7197 44.1444C23.4946 44.7253 21.6998 46.3611 20.9266 48.5261L20.1864 50.5952C19.6535 52.0825 17.4766 51.8507 17.2689 50.2845L16.9811 48.1059C16.6735 45.8259 15.271 43.8496 13.2181 42.8131L12.8479 42.6285C11.6077 41.9995 11.8025 40.1705 13.1473 39.8168L13.5481 39.7143C15.7732 39.1333 17.568 37.4976 18.3413 35.3326L19.0814 33.2635C19.6144 31.7762 21.7912 32.008 21.999 33.5742Z" fill="#5AC4B1"/>
</g>
<g opacity="0.2">
<path d="M220.703 7.61719L222.735 37.5438L220.174 37.8165L218.742 8.10681L220.703 7.61719Z" fill="#171F69"/>
<path d="M209.464 22.0756L231.148 20.8742L231.413 23.358L209.87 23.9827L209.464 22.0756Z" fill="#171F69"/>
<path d="M212.941 29.8183L226.606 14.5554L227.936 15.6151L214.106 30.5055L212.941 29.8183Z" fill="#171F69"/>
<path d="M227.702 29.9782L212.098 16.7713L213.174 15.4552L228.393 28.8437L227.702 29.9782Z" fill="#171F69"/>
</g>
<g opacity="0.4">
<path d="M237.001 33.5742L236.713 35.7528C236.406 38.0328 235.003 40.0091 232.95 41.0456L232.58 41.2302C231.34 41.8591 231.535 43.6882 232.879 44.0418L233.28 44.1444C235.505 44.7253 237.3 46.3611 238.073 48.5261L238.814 50.5952C239.347 52.0825 241.523 51.8507 241.731 50.2845L242.019 48.1059C242.327 45.8259 243.729 43.8496 245.782 42.8131L246.152 42.6285C247.392 41.9995 247.197 40.1705 245.853 39.8168L245.452 39.7143C243.227 39.1333 241.432 37.4976 240.659 35.3326L239.919 33.2635C239.386 31.7762 237.209 32.008 237.001 33.5742Z" fill="#5AC4B1"/>
</g>
<path d="M114.74 10.0098C114.767 10.0271 114.767 10.0271 114.74 10.0098V10.0098Z" fill="#00C7B1"/>
<path d="M114.668 9.96191C114.7 9.98184 114.728 9.99779 114.744 10.0097C114.728 10.0018 114.704 9.98583 114.668 9.96191Z" fill="#00C7B1"/>
<path d="M116.92 7.60652C117.077 7.2478 117.162 6.81734 117.125 6.29123C117.125 6.29123 119.096 1.13768 116.259 0.133276C114.414 -0.520383 113.286 1.37284 113.068 2.89539C111.876 1.61597 110.304 0.611564 108.866 1.87504C108.024 2.61639 108.177 3.73637 108.947 4.95999C107.891 4.55744 106.831 4.61323 106.102 5.78105C104.881 7.73805 108.024 9.45988 110.981 10.2172C112.279 10.548 116.799 8.35583 116.916 7.61449C116.916 7.61449 116.916 7.6105 116.916 7.60652H116.92Z" fill="#00C7B1"/>
<path d="M129.78 2.27393C115.341 2.27393 103.637 13.8525 103.637 28.1373C103.637 42.4222 115.341 54.0007 129.78 54.0007C144.22 54.0007 155.924 42.4222 155.924 28.1373C155.924 13.8525 144.22 2.27393 129.78 2.27393Z" fill="#00C7B1"/>
<path d="M121.944 36.1083C125.019 36.1083 127.512 33.6422 127.512 30.6001C127.512 27.5579 125.019 25.0918 121.944 25.0918C118.869 25.0918 116.376 27.5579 116.376 30.6001C116.376 33.6422 118.869 36.1083 121.944 36.1083Z" fill="#F5F4F3"/>
<path d="M123.818 30.5765C123.818 28.5077 122.661 26.702 120.957 25.7613C120.425 25.4663 119.769 25.4663 119.237 25.7613C117.528 26.702 116.376 28.5037 116.376 30.5765C116.376 32.6493 117.532 34.451 119.237 35.3917C119.769 35.6867 120.425 35.6867 120.957 35.3917C122.665 34.451 123.818 32.6493 123.818 30.5765Z" fill="#191919"/>
<path d="M137.758 36.1083C140.833 36.1083 143.326 33.6422 143.326 30.6001C143.326 27.5579 140.833 25.0918 137.758 25.0918C134.683 25.0918 132.19 27.5579 132.19 30.6001C132.19 33.6422 134.683 36.1083 137.758 36.1083Z" fill="#F5F4F3"/>
<path d="M139.631 30.5765C139.631 28.5077 138.475 26.702 136.771 25.7613C136.239 25.4663 135.582 25.4663 135.05 25.7613C133.342 26.702 132.19 28.5037 132.19 30.5765C132.19 32.6493 133.346 34.451 135.05 35.3917C135.582 35.6867 136.239 35.6867 136.771 35.3917C138.479 34.451 139.631 32.6493 139.631 30.5765Z" fill="#191919"/>
<path d="M127.399 27.2686C127.238 27.2686 127.109 27.141 127.109 26.9816C127.109 24.1913 124.813 21.9192 121.992 21.9192C119.172 21.9192 116.876 24.1913 116.876 26.9816C116.876 27.141 116.747 27.2686 116.586 27.2686C116.424 27.2686 116.296 27.141 116.296 26.9816C116.296 23.8724 118.85 21.3452 121.992 21.3452C125.135 21.3452 127.689 23.8724 127.689 26.9816C127.689 27.141 127.561 27.2686 127.399 27.2686Z" fill="#191919"/>
<path d="M142.927 27.2686C142.766 27.2686 142.637 27.141 142.637 26.9816C142.637 24.1913 140.34 21.9192 137.52 21.9192C134.7 21.9192 132.403 24.1913 132.403 26.9816C132.403 27.141 132.274 27.2686 132.113 27.2686C131.952 27.2686 131.823 27.141 131.823 26.9816C131.823 23.8724 134.378 21.3452 137.52 21.3452C140.663 21.3452 143.217 23.8724 143.217 26.9816C143.217 27.141 143.088 27.2686 142.927 27.2686Z" fill="#191919"/>
<path d="M133.58 40.748C134.116 40.0106 134.438 39.0539 134.535 37.9099C134.567 37.5352 134.212 37.2442 133.846 37.3478C130.288 38.3523 127.186 37.8541 125.812 37.5272C125.445 37.4395 125.115 37.7584 125.2 38.1211C125.369 38.8745 125.739 40.0225 126.501 40.9473C127.125 40.4012 128.221 39.7873 129.998 39.7873C131.34 39.7873 132.633 40.1979 133.576 40.752L133.58 40.748Z" fill="#191919"/>
<path d="M129.736 42.4459C131.505 42.4459 132.782 41.84 133.58 40.7478C132.633 40.1938 131.344 39.7832 130.002 39.7832C128.225 39.7832 127.125 40.4011 126.505 40.9432C127.202 41.7882 128.225 42.4419 129.736 42.4419V42.4459Z" fill="#FC8181"/>
<path d="M145.618 33.4062C142.166 28.0892 138.274 28.1211 138.274 28.1211H138.282C138.1 28.1051 137.919 28.0972 137.734 28.0972C134.829 28.0972 132.387 30.094 131.735 32.7724C131.279 32.3061 130.61 32.0112 129.861 32.0112C129.112 32.0112 128.443 32.3061 127.988 32.7724C127.335 30.094 124.893 28.0972 121.988 28.0972C121.803 28.0972 121.622 28.1051 121.441 28.1211H121.449C121.449 28.1211 117.553 28.0852 114.104 33.4062C113.943 33.6533 113.858 33.9482 113.87 34.2432L113.906 35.3034C113.922 35.8056 114.205 36.2639 114.652 36.5071L117.013 37.8104C118.137 39.325 119.95 40.3134 121.993 40.3134C125.397 40.3134 128.165 37.5752 128.165 34.2073C128.165 34.0797 128.161 33.9522 128.153 33.8286C128.354 33.1869 129.043 32.7126 129.865 32.7126C130.687 32.7126 131.376 33.1869 131.577 33.8286C131.569 33.9562 131.565 34.0797 131.565 34.2073C131.565 37.5752 134.333 40.3134 137.738 40.3134C139.78 40.3134 141.593 39.325 142.718 37.8104L145.078 36.5071C145.522 36.2599 145.804 35.8056 145.824 35.3034L145.86 34.2432C145.872 33.9482 145.788 33.6573 145.626 33.4062H145.618ZM121.988 39.4645C119.055 39.4645 116.67 37.1049 116.67 34.2033C116.67 31.3017 119.055 28.9421 121.988 28.9421C124.922 28.9421 127.307 31.3017 127.307 34.2033C127.307 37.1049 124.922 39.4645 121.988 39.4645ZM137.734 39.4645C134.801 39.4645 132.415 37.1049 132.415 34.2033C132.415 31.3017 134.801 28.9421 137.734 28.9421C140.667 28.9421 143.052 31.3017 143.052 34.2033C143.052 37.1049 140.667 39.4645 137.734 39.4645Z" fill="#151F6D"/>
<path d="M165.349 45.1085C165.708 43.7633 164.494 42.2796 162.637 41.7947C160.78 41.3097 158.984 42.0071 158.625 43.3523C158.266 44.6976 159.48 46.1812 161.337 46.6662C163.193 47.1511 164.99 46.4537 165.349 45.1085Z" fill="#00C7B1"/>
<path d="M159.724 42.2229C159.724 42.2229 159.716 38.7031 160.892 38.6593C162.069 38.6154 162.069 41.0151 161.351 42.6095C160.634 44.204 160.034 43.8851 160.034 43.8851L159.72 42.2229H159.724Z" fill="#00C7B1"/>
<path d="M161.698 41.5493C161.698 41.5493 162.028 41.0749 162.754 41.3659C163.479 41.6529 163.479 42.1034 163.479 42.1034C163.479 42.1034 163.902 41.8363 164.546 42.195C165.57 42.7611 165.143 43.6061 165.143 43.6061C165.143 43.6061 163.986 43.7058 162.314 43.0082C160.642 42.3106 161.698 41.5533 161.698 41.5533V41.5493Z" fill="#00C7B1"/>
<path d="M100.562 46.818C99.9581 46.818 99.4424 46.3596 99.394 45.7498C99.0113 41.1981 100.591 38.3882 101.985 36.8298C103.524 35.1079 105.196 34.4941 105.268 34.4662C105.877 34.247 106.554 34.5579 106.775 35.1637C106.997 35.7656 106.682 36.4312 106.078 36.6504C105.861 36.7341 101.155 38.5915 101.739 45.5545C101.791 46.1962 101.312 46.7582 100.663 46.81C100.631 46.81 100.599 46.814 100.566 46.814L100.562 46.818Z" fill="#00C7B1"/>
<path d="M158.161 47.3807C157.149 47.3807 156.162 47.1934 155.207 46.8187C150.538 44.9891 148.358 39.3089 148.269 39.0657C148.044 38.4638 148.354 37.7941 148.962 37.5709C149.571 37.3477 150.248 37.6546 150.473 38.2565C150.505 38.3362 152.399 43.2232 156.082 44.6622C157.754 45.3159 159.522 45.1645 161.484 44.1998C162.065 43.9128 162.77 44.148 163.06 44.726C163.35 45.304 163.112 45.9976 162.528 46.2846C161.037 47.018 159.575 47.3847 158.165 47.3847L158.161 47.3807Z" fill="#00C7B1"/>
<path d="M98.4392 50.4896C99.2853 50.7806 99.5915 49.2579 99.6317 48.4606C99.6317 48.4606 99.6317 48.4606 99.6358 48.4606C99.6398 50.3979 99.6317 51.5818 100.591 51.4742C101.678 51.3546 101.11 48.4407 101.11 48.4407C101.11 48.4407 101.67 50.8922 102.492 50.8364C103.314 50.7806 103.395 49.3057 102.609 47.8149C102.77 48.5802 103.475 49.6724 104.064 49.4452C105.506 48.8872 103.455 46.4277 103.314 45.7979C103.04 44.5542 101.67 43.9045 100.031 44.4387C98.6285 44.8971 97.7905 46.1487 98.1531 47.2329C98.1974 47.3645 98.2579 47.4841 98.3264 47.5957C98.0887 48.4288 97.6737 50.2265 98.4392 50.4896Z" fill="#00C7B1"/>
<path d="M164.695 44.148C164.53 44.5108 164.176 44.9652 163.712 44.7778C163.479 44.6822 163.451 44.459 163.451 44.2357C163.451 43.9288 163.491 43.6259 163.559 43.3269C163.596 43.1635 163.35 43.0359 163.269 43.2073C163.12 43.5262 162.955 43.8371 162.774 44.1361C162.697 44.2636 162.613 44.3992 162.455 44.439C162.335 44.4709 162.198 44.439 162.089 44.3832C161.48 44.0643 161.742 43.1395 161.783 42.6134C161.799 42.4101 161.48 42.4141 161.464 42.6134C161.416 43.299 161.178 44.3354 162.004 44.6901C162.318 44.8257 162.681 44.7699 162.903 44.5028C162.987 44.4031 163.06 44.2876 163.132 44.172C163.132 44.2397 163.132 44.3115 163.132 44.3792C163.152 44.6862 163.289 44.9492 163.583 45.0688C164.196 45.32 164.728 44.8297 164.961 44.3115C165.046 44.1281 164.772 43.9687 164.687 44.152L164.695 44.148Z" fill="#191919"/>
<path d="M160.574 42.8563C160.26 42.6969 159.909 42.5494 159.546 42.5454C159.361 42.5454 159.172 42.5853 159.019 42.6929C158.833 42.8205 158.745 43.0158 158.676 43.2231C158.519 43.7133 158.483 44.2594 158.761 44.7099C158.866 44.8813 159.144 44.7258 159.035 44.5504C158.793 44.1558 158.853 43.6854 158.995 43.2669C159.055 43.0835 159.156 42.9321 159.353 42.8763C159.518 42.8324 159.696 42.8603 159.857 42.9002C160.127 42.9719 160.457 43.0915 160.671 43.2789C160.799 43.3945 160.957 43.6615 160.783 43.805C160.691 43.8847 160.509 43.9047 160.393 43.9166C160.252 43.9286 160.119 43.9127 159.982 43.8768C159.812 43.8329 159.696 44.0801 159.861 44.1638C160.384 44.4229 160.566 45.0527 160.248 45.543C160.139 45.7144 160.413 45.8698 160.521 45.7024C160.824 45.2321 160.771 44.6381 160.441 44.2276C160.775 44.2036 161.102 44.0761 161.162 43.7452C161.239 43.3307 160.912 43.0237 160.574 42.8523V42.8563Z" fill="#191919"/>
</svg>
